%TF.GenerationSoftware,KiCad,Pcbnew,6.0.8-f2edbf62ab~116~ubuntu22.04.1*%
%TF.CreationDate,2024-04-04T17:44:09-04:00*%
%TF.ProjectId,MFOS_VCO,4d464f53-5f56-4434-9f2e-6b696361645f,rev?*%
%TF.SameCoordinates,Original*%
%TF.FileFunction,Copper,L1,Top*%
%TF.FilePolarity,Positive*%
%FSLAX46Y46*%
G04 Gerber Fmt 4.6, Leading zero omitted, Abs format (unit mm)*
G04 Created by KiCad (PCBNEW 6.0.8-f2edbf62ab~116~ubuntu22.04.1) date 2024-04-04 17:44:09*
%MOMM*%
%LPD*%
G01*
G04 APERTURE LIST*
G04 Aperture macros list*
%AMRoundRect*
0 Rectangle with rounded corners*
0 $1 Rounding radius*
0 $2 $3 $4 $5 $6 $7 $8 $9 X,Y pos of 4 corners*
0 Add a 4 corners polygon primitive as box body*
4,1,4,$2,$3,$4,$5,$6,$7,$8,$9,$2,$3,0*
0 Add four circle primitives for the rounded corners*
1,1,$1+$1,$2,$3*
1,1,$1+$1,$4,$5*
1,1,$1+$1,$6,$7*
1,1,$1+$1,$8,$9*
0 Add four rect primitives between the rounded corners*
20,1,$1+$1,$2,$3,$4,$5,0*
20,1,$1+$1,$4,$5,$6,$7,0*
20,1,$1+$1,$6,$7,$8,$9,0*
20,1,$1+$1,$8,$9,$2,$3,0*%
G04 Aperture macros list end*
%TA.AperFunction,ComponentPad*%
%ADD10R,1.300000X1.300000*%
%TD*%
%TA.AperFunction,ComponentPad*%
%ADD11C,1.300000*%
%TD*%
%TA.AperFunction,ComponentPad*%
%ADD12RoundRect,0.250000X-0.845000X0.620000X-0.845000X-0.620000X0.845000X-0.620000X0.845000X0.620000X0*%
%TD*%
%TA.AperFunction,ComponentPad*%
%ADD13O,2.190000X1.740000*%
%TD*%
%TA.AperFunction,ComponentPad*%
%ADD14C,1.600000*%
%TD*%
%TA.AperFunction,ComponentPad*%
%ADD15O,1.600000X1.600000*%
%TD*%
%TA.AperFunction,ComponentPad*%
%ADD16R,2.400000X1.600000*%
%TD*%
%TA.AperFunction,ComponentPad*%
%ADD17O,2.400000X1.600000*%
%TD*%
%TA.AperFunction,ComponentPad*%
%ADD18R,1.600000X1.600000*%
%TD*%
%TA.AperFunction,ComponentPad*%
%ADD19C,1.260000*%
%TD*%
%TA.AperFunction,ComponentPad*%
%ADD20RoundRect,0.250000X0.620000X0.845000X-0.620000X0.845000X-0.620000X-0.845000X0.620000X-0.845000X0*%
%TD*%
%TA.AperFunction,ComponentPad*%
%ADD21O,1.740000X2.190000*%
%TD*%
%TA.AperFunction,ComponentPad*%
%ADD22R,1.200000X1.200000*%
%TD*%
%TA.AperFunction,ComponentPad*%
%ADD23C,1.200000*%
%TD*%
%TA.AperFunction,ComponentPad*%
%ADD24RoundRect,0.250000X0.600000X0.600000X-0.600000X0.600000X-0.600000X-0.600000X0.600000X-0.600000X0*%
%TD*%
%TA.AperFunction,ComponentPad*%
%ADD25C,1.700000*%
%TD*%
%TA.AperFunction,SMDPad,CuDef*%
%ADD26RoundRect,0.150000X-0.825000X-0.150000X0.825000X-0.150000X0.825000X0.150000X-0.825000X0.150000X0*%
%TD*%
%TA.AperFunction,ViaPad*%
%ADD27C,0.800000*%
%TD*%
%TA.AperFunction,Conductor*%
%ADD28C,0.300000*%
%TD*%
%TA.AperFunction,Conductor*%
%ADD29C,1.000000*%
%TD*%
%TA.AperFunction,Conductor*%
%ADD30C,0.500000*%
%TD*%
G04 APERTURE END LIST*
%TO.C,kibuzzard-65B09543*%
G36*
X189911037Y-117643275D02*
G01*
X189827606Y-117641864D01*
X189733943Y-117637631D01*
X189630050Y-117630575D01*
X189630050Y-117463888D01*
X189833250Y-117463888D01*
X189958662Y-117468650D01*
X190054309Y-117455156D01*
X190125350Y-117427375D01*
X190175555Y-117381536D01*
X190208694Y-117313869D01*
X190227148Y-117219611D01*
X190233300Y-117094000D01*
X190227347Y-116975136D01*
X190209487Y-116885244D01*
X190177539Y-116819759D01*
X190129319Y-116774119D01*
X190061255Y-116744552D01*
X189969775Y-116727287D01*
X189895162Y-116721334D01*
X189833250Y-116719350D01*
X189833250Y-117463888D01*
X189630050Y-117463888D01*
X189630050Y-116551075D01*
X189726887Y-116546312D01*
X189814200Y-116544725D01*
X189899925Y-116546709D01*
X189976125Y-116552663D01*
X190087691Y-116568537D01*
X190181089Y-116592879D01*
X190256319Y-116625687D01*
X190341052Y-116695339D01*
X190396812Y-116793169D01*
X190419743Y-116877571D01*
X190433501Y-116981552D01*
X190438088Y-117105113D01*
X190432796Y-117234317D01*
X190416921Y-117342532D01*
X190390462Y-117429756D01*
X190326566Y-117528380D01*
X190230125Y-117594063D01*
X190144576Y-117621403D01*
X190038214Y-117637807D01*
X189958662Y-117641227D01*
X189911037Y-117643275D01*
G37*
G36*
X190790512Y-116979700D02*
G01*
X191155637Y-116979700D01*
X191155637Y-116551075D01*
X191358838Y-116551075D01*
X191358838Y-117630575D01*
X191155637Y-117630575D01*
X191155637Y-117159088D01*
X190790512Y-117159088D01*
X190790512Y-117630575D01*
X190587312Y-117630575D01*
X190587312Y-116551075D01*
X190790512Y-116551075D01*
X190790512Y-116979700D01*
G37*
G36*
X191738250Y-117046375D02*
G01*
X192092263Y-116551075D01*
X192325625Y-116551075D01*
X191938275Y-117078125D01*
X191938275Y-117082888D01*
X192385950Y-117630575D01*
X192133537Y-117630575D01*
X191738250Y-117116225D01*
X191738250Y-117630575D01*
X191536638Y-117630575D01*
X191536638Y-116551075D01*
X191738250Y-116551075D01*
X191738250Y-117046375D01*
G37*
%TD*%
D10*
%TO.P,Q1,1,D*%
%TO.N,Net-(C6-Pad1)*%
X127508000Y-116078000D03*
D11*
%TO.P,Q1,2,S*%
%TO.N,RAW*%
X128778000Y-117348000D03*
%TO.P,Q1,3,G*%
%TO.N,Net-(Q1-Pad3)*%
X127508000Y-118618000D03*
%TD*%
D12*
%TO.P,J27,1,Pin_1*%
%TO.N,/Sheet 2/R39P1*%
X190500000Y-72390000D03*
D13*
%TO.P,J27,2,Pin_2*%
%TO.N,/Sheet 2/R39P2*%
X190500000Y-74930000D03*
%TO.P,J27,3,Pin_3*%
%TO.N,/Sheet 2/R39P3*%
X190500000Y-77470000D03*
%TD*%
D12*
%TO.P,J26,1,Pin_1*%
%TO.N,/R2P1*%
X123190000Y-76708000D03*
D13*
%TO.P,J26,2,Pin_2*%
%TO.N,/R2P2*%
X123190000Y-79248000D03*
%TO.P,J26,3,Pin_3*%
%TO.N,/R2P3*%
X123190000Y-81788000D03*
%TD*%
D12*
%TO.P,J24,1,Pin_1*%
%TO.N,/R3P1*%
X123190000Y-68087000D03*
D13*
%TO.P,J24,2,Pin_2*%
%TO.N,/R3P2*%
X123190000Y-70627000D03*
%TO.P,J24,3,Pin_3*%
%TO.N,/R3P3*%
X123190000Y-73167000D03*
%TD*%
D14*
%TO.P,C15,1*%
%TO.N,+12V*%
X188234000Y-92456000D03*
%TO.P,C15,2*%
%TO.N,GND*%
X190734000Y-92456000D03*
%TD*%
%TO.P,R71,1*%
%TO.N,-12V*%
X135382000Y-76454000D03*
D15*
%TO.P,R71,2*%
%TO.N,/R2P1*%
X127762000Y-76454000D03*
%TD*%
D16*
%TO.P,U4,1*%
%TO.N,Net-(D2-Pad2)*%
X153426000Y-87112000D03*
D17*
%TO.P,U4,2,-*%
%TO.N,Net-(R12-Pad2)*%
X153426000Y-89652000D03*
%TO.P,U4,3,+*%
%TO.N,Net-(C1-Pad1)*%
X153426000Y-92192000D03*
%TO.P,U4,4,V+*%
%TO.N,+12V*%
X153426000Y-94732000D03*
%TO.P,U4,5,+*%
%TO.N,GND*%
X153426000Y-97272000D03*
%TO.P,U4,6,-*%
%TO.N,Net-(R25-Pad1)*%
X153426000Y-99812000D03*
%TO.P,U4,7*%
%TO.N,Net-(D3-Pad2)*%
X153426000Y-102352000D03*
%TO.P,U4,8*%
%TO.N,Net-(R14-Pad2)*%
X161046000Y-102352000D03*
%TO.P,U4,9,-*%
%TO.N,Net-(R13-Pad2)*%
X161046000Y-99812000D03*
%TO.P,U4,10,+*%
%TO.N,Net-(C2-Pad1)*%
X161046000Y-97272000D03*
%TO.P,U4,11,V-*%
%TO.N,-12V*%
X161046000Y-94732000D03*
%TO.P,U4,12,+*%
%TO.N,GND*%
X161046000Y-92192000D03*
%TO.P,U4,13,-*%
%TO.N,Net-(U4-Pad13)*%
X161046000Y-89652000D03*
%TO.P,U4,14*%
X161046000Y-87112000D03*
%TD*%
D14*
%TO.P,R32,1*%
%TO.N,Net-(R25-Pad1)*%
X156337000Y-106426000D03*
D15*
%TO.P,R32,2*%
%TO.N,Net-(D3-Pad2)*%
X148717000Y-106426000D03*
%TD*%
D14*
%TO.P,R26,1*%
%TO.N,Net-(D3-Pad2)*%
X156337000Y-109728000D03*
D15*
%TO.P,R26,2*%
%TO.N,RMP*%
X148717000Y-109728000D03*
%TD*%
D14*
%TO.P,R31,1*%
%TO.N,LIN*%
X114046000Y-125730000D03*
D15*
%TO.P,R31,2*%
%TO.N,GND*%
X106426000Y-125730000D03*
%TD*%
D14*
%TO.P,R67,1*%
%TO.N,GND*%
X173736000Y-93218000D03*
D15*
%TO.P,R67,2*%
%TO.N,PWM*%
X166116000Y-93218000D03*
%TD*%
D14*
%TO.P,C19,1*%
%TO.N,Net-(C19-Pad1)*%
X121666000Y-87630000D03*
%TO.P,C19,2*%
%TO.N,Net-(C19-Pad2)*%
X121666000Y-85130000D03*
%TD*%
%TO.P,R66,1*%
%TO.N,SYNC*%
X120396000Y-124714000D03*
D15*
%TO.P,R66,2*%
%TO.N,GND*%
X128016000Y-124714000D03*
%TD*%
D14*
%TO.P,R25,1*%
%TO.N,Net-(R25-Pad1)*%
X153162000Y-80259000D03*
D15*
%TO.P,R25,2*%
%TO.N,Net-(D2-Pad2)*%
X160782000Y-80259000D03*
%TD*%
D14*
%TO.P,R30,1*%
%TO.N,LIN*%
X107950000Y-119126000D03*
D15*
%TO.P,R30,2*%
%TO.N,Net-(C3-Pad1)*%
X107950000Y-111506000D03*
%TD*%
D14*
%TO.P,R61,1*%
%TO.N,Net-(R60-Pad2)*%
X166878000Y-116586000D03*
D15*
%TO.P,R61,2*%
%TO.N,Net-(R48-Pad2)*%
X166878000Y-124206000D03*
%TD*%
D18*
%TO.P,D2,1,K*%
%TO.N,Net-(C14-Pad1)*%
X150114000Y-92451000D03*
D15*
%TO.P,D2,2,A*%
%TO.N,Net-(D2-Pad2)*%
X150114000Y-84831000D03*
%TD*%
D19*
%TO.P,R60,1,1*%
%TO.N,-12V*%
X184550000Y-111250000D03*
%TO.P,R60,2,2*%
%TO.N,Net-(R60-Pad2)*%
X182010000Y-108710000D03*
%TO.P,R60,3,3*%
%TO.N,+12V*%
X184550000Y-106170000D03*
%TD*%
D18*
%TO.P,C12,1*%
%TO.N,GND*%
X168087113Y-83058000D03*
D14*
%TO.P,C12,2*%
%TO.N,Net-(C12-Pad2)*%
X166087113Y-83058000D03*
%TD*%
%TO.P,R69,1*%
%TO.N,Net-(C18-Pad1)*%
X145350000Y-111252000D03*
D15*
%TO.P,R69,2*%
%TO.N,Net-(C18-Pad2)*%
X145350000Y-103632000D03*
%TD*%
D16*
%TO.P,U2,1*%
%TO.N,RAW*%
X131816000Y-103388000D03*
D17*
%TO.P,U2,2,-*%
%TO.N,Net-(C6-Pad1)*%
X131816000Y-105928000D03*
%TO.P,U2,3,+*%
%TO.N,GND*%
X131816000Y-108468000D03*
%TO.P,U2,4,V-*%
%TO.N,-12V*%
X131816000Y-111008000D03*
%TO.P,U2,5,+*%
%TO.N,Net-(C18-Pad1)*%
X139436000Y-111008000D03*
%TO.P,U2,6,-*%
%TO.N,Net-(R34-Pad2)*%
X139436000Y-108468000D03*
%TO.P,U2,7*%
%TO.N,Net-(C18-Pad2)*%
X139436000Y-105928000D03*
%TO.P,U2,8,V+*%
%TO.N,+12V*%
X139436000Y-103388000D03*
%TD*%
D20*
%TO.P,J13,1,Pin_1*%
%TO.N,SYNC*%
X114300000Y-120630000D03*
D21*
%TO.P,J13,2,Pin_2*%
%TO.N,LIN*%
X111760000Y-120630000D03*
%TD*%
D18*
%TO.P,D4,1,K*%
%TO.N,Net-(C13-Pad1)*%
X171450000Y-75184000D03*
D15*
%TO.P,D4,2,A*%
%TO.N,Net-(D3-Pad2)*%
X163830000Y-75184000D03*
%TD*%
D14*
%TO.P,C2,1*%
%TO.N,Net-(C2-Pad1)*%
X144807500Y-79248000D03*
%TO.P,C2,2*%
%TO.N,GND*%
X147307500Y-79248000D03*
%TD*%
%TO.P,R21,1*%
%TO.N,Net-(C14-Pad1)*%
X144375000Y-117950000D03*
D15*
%TO.P,R21,2*%
%TO.N,-12V*%
X151995000Y-117950000D03*
%TD*%
D18*
%TO.P,D1,1,K*%
%TO.N,Net-(D1-Pad1)*%
X125222000Y-92456000D03*
D15*
%TO.P,D1,2,A*%
%TO.N,Net-(D1-Pad2)*%
X125222000Y-100076000D03*
%TD*%
D14*
%TO.P,R40,1*%
%TO.N,PWM*%
X166116000Y-90170000D03*
D15*
%TO.P,R40,2*%
%TO.N,Net-(R35-Pad1)*%
X173736000Y-90170000D03*
%TD*%
D14*
%TO.P,C14,1*%
%TO.N,Net-(C14-Pad1)*%
X141800000Y-119875000D03*
%TO.P,C14,2*%
%TO.N,-12V*%
X141800000Y-124875000D03*
%TD*%
D18*
%TO.P,D6,1,K*%
%TO.N,Net-(D6-Pad1)*%
X171450000Y-70104000D03*
D15*
%TO.P,D6,2,A*%
%TO.N,Net-(D5-Pad1)*%
X163830000Y-70104000D03*
%TD*%
D14*
%TO.P,C1,1*%
%TO.N,Net-(C1-Pad1)*%
X139212000Y-79248000D03*
%TO.P,C1,2*%
%TO.N,GND*%
X141712000Y-79248000D03*
%TD*%
D16*
%TO.P,U7,1,NULL*%
%TO.N,unconnected-(U7-Pad1)*%
X177048000Y-86624000D03*
D17*
%TO.P,U7,2,-*%
%TO.N,Net-(R35-Pad1)*%
X177048000Y-89164000D03*
%TO.P,U7,3,+*%
%TO.N,Net-(C4-Pad1)*%
X177048000Y-91704000D03*
%TO.P,U7,4,V-*%
%TO.N,-12V*%
X177048000Y-94244000D03*
%TO.P,U7,5,NULL*%
%TO.N,unconnected-(U7-Pad5)*%
X184668000Y-94244000D03*
%TO.P,U7,6*%
%TO.N,Net-(C4-Pad2)*%
X184668000Y-91704000D03*
%TO.P,U7,7,V+*%
%TO.N,+12V*%
X184668000Y-89164000D03*
%TO.P,U7,8,NC*%
%TO.N,unconnected-(U7-Pad8)*%
X184668000Y-86624000D03*
%TD*%
D14*
%TO.P,R35,1*%
%TO.N,Net-(R35-Pad1)*%
X177038000Y-83312000D03*
D15*
%TO.P,R35,2*%
%TO.N,/Sheet 2/R39P2*%
X184658000Y-83312000D03*
%TD*%
D14*
%TO.P,R8,1*%
%TO.N,/R3P2*%
X127762000Y-70358000D03*
D15*
%TO.P,R8,2*%
%TO.N,Net-(C19-Pad1)*%
X135382000Y-70358000D03*
%TD*%
D16*
%TO.P,U6,1*%
%TO.N,/Sheet 2/R39P3*%
X177048000Y-68844000D03*
D17*
%TO.P,U6,2,-*%
X177048000Y-71384000D03*
%TO.P,U6,3,+*%
%TO.N,Net-(C13-Pad1)*%
X177048000Y-73924000D03*
%TO.P,U6,4,V-*%
%TO.N,-12V*%
X177048000Y-76464000D03*
%TO.P,U6,5,+*%
%TO.N,Net-(C12-Pad2)*%
X184668000Y-76464000D03*
%TO.P,U6,6,-*%
%TO.N,/Sheet 2/R39P1*%
X184668000Y-73924000D03*
%TO.P,U6,7*%
X184668000Y-71384000D03*
%TO.P,U6,8,V+*%
%TO.N,+12V*%
X184668000Y-68844000D03*
%TD*%
D14*
%TO.P,R36,1*%
%TO.N,Net-(C4-Pad2)*%
X187960000Y-99314000D03*
D15*
%TO.P,R36,2*%
%TO.N,SQR*%
X195580000Y-99314000D03*
%TD*%
D19*
%TO.P,R5,1,1*%
%TO.N,GND*%
X143510000Y-75677000D03*
%TO.P,R5,2,2*%
%TO.N,Net-(C1-Pad1)*%
X140970000Y-73137000D03*
%TO.P,R5,3,3*%
%TO.N,Net-(R5-Pad3)*%
X143510000Y-70597000D03*
%TD*%
D14*
%TO.P,C5,1*%
%TO.N,SYNC*%
X117856000Y-123698000D03*
%TO.P,C5,2*%
%TO.N,Net-(C5-Pad2)*%
X117856000Y-121198000D03*
%TD*%
%TO.P,R47,1*%
%TO.N,Net-(R34-Pad2)*%
X144018000Y-89408000D03*
D15*
%TO.P,R47,2*%
%TO.N,+12V*%
X136398000Y-89408000D03*
%TD*%
D14*
%TO.P,R28,1*%
%TO.N,Net-(C3-Pad1)*%
X104902000Y-111506000D03*
D15*
%TO.P,R28,2*%
%TO.N,+12V*%
X104902000Y-119126000D03*
%TD*%
D14*
%TO.P,R42,1*%
%TO.N,RAW*%
X131826000Y-114300000D03*
D15*
%TO.P,R42,2*%
%TO.N,Net-(C18-Pad1)*%
X139446000Y-114300000D03*
%TD*%
D12*
%TO.P,J15,1,Pin_1*%
%TO.N,TRI*%
X192766000Y-105156000D03*
D13*
%TO.P,J15,2,Pin_2*%
%TO.N,SIN*%
X192766000Y-107696000D03*
%TO.P,J15,3,Pin_3*%
%TO.N,SQR*%
X192766000Y-110236000D03*
%TO.P,J15,4,Pin_4*%
%TO.N,RMP*%
X192766000Y-112776000D03*
%TD*%
D14*
%TO.P,R23,1*%
%TO.N,CV3*%
X110998000Y-73406000D03*
D15*
%TO.P,R23,2*%
%TO.N,Net-(C19-Pad1)*%
X118618000Y-73406000D03*
%TD*%
D14*
%TO.P,R51,1*%
%TO.N,Net-(R48-Pad2)*%
X169926000Y-116586000D03*
D15*
%TO.P,R51,2*%
%TO.N,GND*%
X169926000Y-124206000D03*
%TD*%
D12*
%TO.P,J12,1,Pin_1*%
%TO.N,CV1*%
X106426000Y-68326000D03*
D13*
%TO.P,J12,2,Pin_2*%
%TO.N,CV2*%
X106426000Y-70866000D03*
%TO.P,J12,3,Pin_3*%
%TO.N,CV3*%
X106426000Y-73406000D03*
%TO.P,J12,4,Pin_4*%
%TO.N,CV4*%
X106426000Y-75946000D03*
%TD*%
D19*
%TO.P,R59,1,1*%
%TO.N,Net-(R44-Pad1)*%
X168025000Y-111237000D03*
%TO.P,R59,2,2*%
X165485000Y-108697000D03*
%TO.P,R59,3,3*%
%TO.N,+12V*%
X168025000Y-106157000D03*
%TD*%
D14*
%TO.P,R68,1*%
%TO.N,Net-(C4-Pad1)*%
X177038000Y-97536000D03*
D15*
%TO.P,R68,2*%
%TO.N,Net-(C4-Pad2)*%
X184658000Y-97536000D03*
%TD*%
D14*
%TO.P,C16,1*%
%TO.N,-12V*%
X173188000Y-97536000D03*
%TO.P,C16,2*%
%TO.N,GND*%
X170688000Y-97536000D03*
%TD*%
%TO.P,R18,1*%
%TO.N,Net-(C19-Pad1)*%
X118618000Y-70358000D03*
D15*
%TO.P,R18,2*%
%TO.N,CV2*%
X110998000Y-70358000D03*
%TD*%
D14*
%TO.P,C6,1*%
%TO.N,Net-(C6-Pad1)*%
X146438000Y-97790000D03*
D15*
%TO.P,C6,2*%
%TO.N,RAW*%
X131438000Y-97790000D03*
%TD*%
D19*
%TO.P,R11,1,1*%
%TO.N,Net-(R11-Pad1)*%
X127508000Y-110236000D03*
%TO.P,R11,2,2*%
X124968000Y-112776000D03*
%TO.P,R11,3,3*%
%TO.N,Net-(C3-Pad2)*%
X122428000Y-110236000D03*
%TD*%
D14*
%TO.P,R17,1*%
%TO.N,Net-(R17-Pad1)*%
X115570000Y-103632000D03*
D15*
%TO.P,R17,2*%
%TO.N,Net-(C3-Pad2)*%
X123190000Y-103632000D03*
%TD*%
D14*
%TO.P,R12,1*%
%TO.N,RAW*%
X136398000Y-86106000D03*
D15*
%TO.P,R12,2*%
%TO.N,Net-(R12-Pad2)*%
X144018000Y-86106000D03*
%TD*%
D14*
%TO.P,C4,1*%
%TO.N,Net-(C4-Pad1)*%
X180106000Y-100584000D03*
%TO.P,C4,2*%
%TO.N,Net-(C4-Pad2)*%
X182606000Y-100584000D03*
%TD*%
D18*
%TO.P,D3,1,K*%
%TO.N,Net-(C14-Pad1)*%
X150114000Y-94991000D03*
D15*
%TO.P,D3,2,A*%
%TO.N,Net-(D3-Pad2)*%
X150114000Y-102611000D03*
%TD*%
D22*
%TO.P,C7,1*%
%TO.N,+12V*%
X104302401Y-81425000D03*
D23*
%TO.P,C7,2*%
%TO.N,GND*%
X105802401Y-81425000D03*
%TD*%
D14*
%TO.P,R53,1*%
%TO.N,Net-(R45-Pad2)*%
X180594000Y-124206000D03*
D15*
%TO.P,R53,2*%
%TO.N,GND*%
X180594000Y-116586000D03*
%TD*%
D14*
%TO.P,R15,1*%
%TO.N,CV1*%
X110998000Y-67310000D03*
D15*
%TO.P,R15,2*%
%TO.N,Net-(C19-Pad1)*%
X118618000Y-67310000D03*
%TD*%
D14*
%TO.P,R46,1*%
%TO.N,Net-(R34-Pad2)*%
X144018000Y-92456000D03*
D15*
%TO.P,R46,2*%
%TO.N,GND*%
X136398000Y-92456000D03*
%TD*%
D14*
%TO.P,R41,1*%
%TO.N,SQR*%
X195580000Y-96012000D03*
D15*
%TO.P,R41,2*%
%TO.N,GND*%
X187960000Y-96012000D03*
%TD*%
D14*
%TO.P,R34,1*%
%TO.N,Net-(C5-Pad2)*%
X120396000Y-121666000D03*
D15*
%TO.P,R34,2*%
%TO.N,Net-(R34-Pad2)*%
X128016000Y-121666000D03*
%TD*%
D24*
%TO.P,J1,1,Pin_1*%
%TO.N,-12V*%
X107000000Y-99540000D03*
D25*
%TO.P,J1,2,Pin_2*%
X104460000Y-99540000D03*
%TO.P,J1,3,Pin_3*%
%TO.N,GND*%
X107000000Y-97000000D03*
%TO.P,J1,4,Pin_4*%
X104460000Y-97000000D03*
%TO.P,J1,5,Pin_5*%
X107000000Y-94460000D03*
%TO.P,J1,6,Pin_6*%
X104460000Y-94460000D03*
%TO.P,J1,7,Pin_7*%
X107000000Y-91920000D03*
%TO.P,J1,8,Pin_8*%
X104460000Y-91920000D03*
%TO.P,J1,9,Pin_9*%
%TO.N,+12V*%
X107000000Y-89380000D03*
%TO.P,J1,10,Pin_10*%
X104460000Y-89380000D03*
%TD*%
D14*
%TO.P,R24,1*%
%TO.N,Net-(C19-Pad1)*%
X118857000Y-99822000D03*
D15*
%TO.P,R24,2*%
%TO.N,Net-(C19-Pad2)*%
X118857000Y-92202000D03*
%TD*%
D14*
%TO.P,R14,1*%
%TO.N,Net-(R13-Pad2)*%
X144400000Y-121025000D03*
D15*
%TO.P,R14,2*%
%TO.N,Net-(R14-Pad2)*%
X152020000Y-121025000D03*
%TD*%
D18*
%TO.P,C13,1*%
%TO.N,Net-(C13-Pad1)*%
X171514888Y-83058000D03*
D14*
%TO.P,C13,2*%
%TO.N,GND*%
X174014888Y-83058000D03*
%TD*%
%TO.P,R9,1*%
%TO.N,Net-(D1-Pad1)*%
X128016000Y-92456000D03*
D15*
%TO.P,R9,2*%
%TO.N,Net-(R11-Pad1)*%
X128016000Y-100076000D03*
%TD*%
D14*
%TO.P,R20,1*%
%TO.N,Net-(R12-Pad2)*%
X153162000Y-83561000D03*
D15*
%TO.P,R20,2*%
%TO.N,Net-(D2-Pad2)*%
X160782000Y-83561000D03*
%TD*%
D26*
%TO.P,U3,1,C1*%
%TO.N,Net-(C6-Pad1)*%
X116382000Y-94107000D03*
%TO.P,U3,2,B1*%
%TO.N,GND*%
X116382000Y-95377000D03*
%TO.P,U3,3,E1*%
%TO.N,Net-(R17-Pad1)*%
X116382000Y-96647000D03*
%TO.P,U3,4*%
%TO.N,N/C*%
X116382000Y-97917000D03*
%TO.P,U3,5*%
X121332000Y-97917000D03*
%TO.P,U3,6,E2*%
%TO.N,Net-(R17-Pad1)*%
X121332000Y-96647000D03*
%TO.P,U3,7,B2*%
%TO.N,Net-(D1-Pad2)*%
X121332000Y-95377000D03*
%TO.P,U3,8,C2*%
%TO.N,Net-(C3-Pad1)*%
X121332000Y-94107000D03*
%TD*%
D14*
%TO.P,R6,1*%
%TO.N,Net-(R5-Pad3)*%
X138564500Y-67325000D03*
D15*
%TO.P,R6,2*%
%TO.N,+12V*%
X146184500Y-67325000D03*
%TD*%
D14*
%TO.P,R50,1*%
%TO.N,Net-(Q1-Pad3)*%
X131582000Y-121422000D03*
D15*
%TO.P,R50,2*%
%TO.N,Net-(C17-Pad1)*%
X139202000Y-121422000D03*
%TD*%
D14*
%TO.P,R1,1*%
%TO.N,Net-(R1-Pad1)*%
X157614500Y-67325000D03*
D15*
%TO.P,R1,2*%
%TO.N,+12V*%
X149994500Y-67325000D03*
%TD*%
D14*
%TO.P,R19,1*%
%TO.N,Net-(R16-Pad3)*%
X124968000Y-86106000D03*
D15*
%TO.P,R19,2*%
%TO.N,GND*%
X132588000Y-86106000D03*
%TD*%
D14*
%TO.P,R13,1*%
%TO.N,Net-(C14-Pad1)*%
X144272000Y-114554000D03*
D15*
%TO.P,R13,2*%
%TO.N,Net-(R13-Pad2)*%
X151892000Y-114554000D03*
%TD*%
D19*
%TO.P,R16,1,1*%
%TO.N,Net-(C19-Pad2)*%
X115570000Y-79756000D03*
%TO.P,R16,2,2*%
%TO.N,Net-(D1-Pad2)*%
X118110000Y-82296000D03*
%TO.P,R16,3,3*%
%TO.N,Net-(R16-Pad3)*%
X115570000Y-84836000D03*
%TD*%
D12*
%TO.P,J14,1,Pin_1*%
%TO.N,PWM*%
X190480000Y-82550000D03*
D13*
%TO.P,J14,2,Pin_2*%
%TO.N,GND*%
X190480000Y-85090000D03*
%TD*%
D26*
%TO.P,U5,1*%
%TO.N,Net-(R44-Pad2)*%
X172785000Y-115697000D03*
%TO.P,U5,2,DIODE_BIAS*%
%TO.N,unconnected-(U5-Pad2)*%
X172785000Y-116967000D03*
%TO.P,U5,3,+*%
%TO.N,Net-(R48-Pad2)*%
X172785000Y-118237000D03*
%TO.P,U5,4,-*%
%TO.N,GND*%
X172785000Y-119507000D03*
%TO.P,U5,5*%
%TO.N,Net-(R45-Pad2)*%
X172785000Y-120777000D03*
%TO.P,U5,6,V-*%
%TO.N,-12V*%
X172785000Y-122047000D03*
%TO.P,U5,7*%
%TO.N,Net-(R45-Pad2)*%
X172785000Y-123317000D03*
%TO.P,U5,8*%
%TO.N,Net-(R49-Pad1)*%
X172785000Y-124587000D03*
%TO.P,U5,9*%
%TO.N,unconnected-(U5-Pad9)*%
X177735000Y-124587000D03*
%TO.P,U5,10*%
%TO.N,unconnected-(U5-Pad10)*%
X177735000Y-123317000D03*
%TO.P,U5,11,V+*%
%TO.N,+12V*%
X177735000Y-122047000D03*
%TO.P,U5,12*%
%TO.N,unconnected-(U5-Pad12)*%
X177735000Y-120777000D03*
%TO.P,U5,13,-*%
%TO.N,GND*%
X177735000Y-119507000D03*
%TO.P,U5,14,+*%
X177735000Y-118237000D03*
%TO.P,U5,15,DIODE_BIAS*%
%TO.N,unconnected-(U5-Pad15)*%
X177735000Y-116967000D03*
%TO.P,U5,16*%
%TO.N,unconnected-(U5-Pad16)*%
X177735000Y-115697000D03*
%TD*%
D14*
%TO.P,C17,1*%
%TO.N,Net-(C17-Pad1)*%
X142450000Y-110850000D03*
%TO.P,C17,2*%
%TO.N,GND*%
X142450000Y-108350000D03*
%TD*%
%TO.P,C3,1*%
%TO.N,Net-(C3-Pad1)*%
X121920000Y-116078000D03*
%TO.P,C3,2*%
%TO.N,Net-(C3-Pad2)*%
X124420000Y-116078000D03*
%TD*%
D18*
%TO.P,D8,1,K*%
%TO.N,Net-(C17-Pad1)*%
X131582000Y-118628000D03*
D15*
%TO.P,D8,2,A*%
%TO.N,Net-(C18-Pad2)*%
X139202000Y-118628000D03*
%TD*%
D18*
%TO.P,D5,1,K*%
%TO.N,Net-(D5-Pad1)*%
X163830000Y-67570000D03*
D15*
%TO.P,D5,2,A*%
%TO.N,Net-(C12-Pad2)*%
X171450000Y-67570000D03*
%TD*%
D14*
%TO.P,R29,1*%
%TO.N,Net-(D3-Pad2)*%
X167894000Y-100838000D03*
D15*
%TO.P,R29,2*%
%TO.N,Net-(C4-Pad1)*%
X175514000Y-100838000D03*
%TD*%
D19*
%TO.P,R7,1,1*%
%TO.N,GND*%
X151892000Y-75677000D03*
%TO.P,R7,2,2*%
%TO.N,Net-(C2-Pad1)*%
X149352000Y-73137000D03*
%TO.P,R7,3,3*%
%TO.N,Net-(R1-Pad1)*%
X151892000Y-70597000D03*
%TD*%
D14*
%TO.P,C8,1*%
%TO.N,+12V*%
X132080000Y-90150000D03*
%TO.P,C8,2*%
%TO.N,GND*%
X132080000Y-92650000D03*
%TD*%
%TO.P,R48,1*%
%TO.N,Net-(R48-Pad1)*%
X163830000Y-116586000D03*
D15*
%TO.P,R48,2*%
%TO.N,Net-(R48-Pad2)*%
X163830000Y-124206000D03*
%TD*%
D14*
%TO.P,R65,1*%
%TO.N,/R2P3*%
X127762000Y-82550000D03*
D15*
%TO.P,R65,2*%
%TO.N,+12V*%
X135382000Y-82550000D03*
%TD*%
D19*
%TO.P,R64,1,1*%
%TO.N,Net-(R48-Pad1)*%
X176276000Y-111252000D03*
%TO.P,R64,2,2*%
X173736000Y-108712000D03*
%TO.P,R64,3,3*%
%TO.N,Net-(R14-Pad2)*%
X176276000Y-106172000D03*
%TD*%
D14*
%TO.P,R22,1*%
%TO.N,Net-(R14-Pad2)*%
X152010000Y-124350000D03*
D15*
%TO.P,R22,2*%
%TO.N,TRI*%
X144390000Y-124350000D03*
%TD*%
D14*
%TO.P,R44,1*%
%TO.N,Net-(R44-Pad1)*%
X160782000Y-124206000D03*
D15*
%TO.P,R44,2*%
%TO.N,Net-(R44-Pad2)*%
X160782000Y-116586000D03*
%TD*%
D14*
%TO.P,R10,1*%
%TO.N,/R2P2*%
X127762000Y-79502000D03*
D15*
%TO.P,R10,2*%
%TO.N,Net-(C19-Pad1)*%
X135382000Y-79502000D03*
%TD*%
D16*
%TO.P,U1,1*%
%TO.N,Net-(C19-Pad2)*%
X111506000Y-107950000D03*
D17*
%TO.P,U1,2,-*%
%TO.N,Net-(C19-Pad1)*%
X111506000Y-110490000D03*
%TO.P,U1,3,+*%
%TO.N,GND*%
X111506000Y-113030000D03*
%TO.P,U1,4,V-*%
%TO.N,-12V*%
X111506000Y-115570000D03*
%TO.P,U1,5,+*%
%TO.N,GND*%
X119126000Y-115570000D03*
%TO.P,U1,6,-*%
%TO.N,Net-(C3-Pad1)*%
X119126000Y-113030000D03*
%TO.P,U1,7*%
%TO.N,Net-(C3-Pad2)*%
X119126000Y-110490000D03*
%TO.P,U1,8,V+*%
%TO.N,+12V*%
X119126000Y-107950000D03*
%TD*%
D14*
%TO.P,R57,1*%
%TO.N,/R3P3*%
X127762000Y-73406000D03*
D15*
%TO.P,R57,2*%
%TO.N,+12V*%
X135382000Y-73406000D03*
%TD*%
D18*
%TO.P,D7,1,K*%
%TO.N,Net-(D3-Pad2)*%
X163830000Y-72644000D03*
D15*
%TO.P,D7,2,A*%
%TO.N,Net-(D6-Pad1)*%
X171450000Y-72644000D03*
%TD*%
D14*
%TO.P,R45,1*%
%TO.N,+12V*%
X157734000Y-124206000D03*
D15*
%TO.P,R45,2*%
%TO.N,Net-(R45-Pad2)*%
X157734000Y-116586000D03*
%TD*%
D22*
%TO.P,C10,1*%
%TO.N,GND*%
X105386000Y-107696000D03*
D23*
%TO.P,C10,2*%
%TO.N,-12V*%
X103886000Y-107696000D03*
%TD*%
D14*
%TO.P,C18,1*%
%TO.N,Net-(C18-Pad1)*%
X142450000Y-106175000D03*
%TO.P,C18,2*%
%TO.N,Net-(C18-Pad2)*%
X142450000Y-103675000D03*
%TD*%
%TO.P,R27,1*%
%TO.N,CV4*%
X110998000Y-76454000D03*
D15*
%TO.P,R27,2*%
%TO.N,Net-(C19-Pad1)*%
X118618000Y-76454000D03*
%TD*%
D14*
%TO.P,R52,1*%
%TO.N,Net-(R49-Pad1)*%
X183642000Y-124206000D03*
D15*
%TO.P,R52,2*%
%TO.N,-12V*%
X183642000Y-116586000D03*
%TD*%
D14*
%TO.P,R49,1*%
%TO.N,Net-(R49-Pad1)*%
X186690000Y-124206000D03*
D15*
%TO.P,R49,2*%
%TO.N,SIN*%
X186690000Y-116586000D03*
%TD*%
D14*
%TO.P,R70,1*%
%TO.N,-12V*%
X131582000Y-124724000D03*
D15*
%TO.P,R70,2*%
%TO.N,Net-(C17-Pad1)*%
X139202000Y-124724000D03*
%TD*%
D14*
%TO.P,R56,1*%
%TO.N,-12V*%
X135382000Y-67310000D03*
D15*
%TO.P,R56,2*%
%TO.N,/R3P1*%
X127762000Y-67310000D03*
%TD*%
D27*
%TO.N,Net-(R34-Pad2)*%
X135128000Y-122936000D03*
%TO.N,Net-(C1-Pad1)*%
X138684000Y-73152000D03*
%TO.N,Net-(C12-Pad2)*%
X173482000Y-80518000D03*
X173482000Y-78486000D03*
%TO.N,+12V*%
X130302000Y-65532000D03*
X130556000Y-73406000D03*
%TO.N,-12V*%
X129540000Y-76708000D03*
%TO.N,GND*%
X175768000Y-119380000D03*
X195580000Y-89408000D03*
X163830000Y-121920000D03*
X162520123Y-109208814D03*
X104394000Y-123444000D03*
X188363883Y-102760370D03*
X159512000Y-122174000D03*
X174498000Y-118618000D03*
X152654000Y-110998000D03*
X175514000Y-117602000D03*
X156972000Y-99060000D03*
X157471341Y-76166790D03*
X132588000Y-70866000D03*
X173990000Y-87376000D03*
X128016000Y-96266000D03*
X141800000Y-122375000D03*
X180340000Y-104648000D03*
X124968000Y-74676000D03*
X195834000Y-73152000D03*
X113792000Y-82296000D03*
X107950000Y-108458000D03*
X177292000Y-108712000D03*
X157480000Y-70866000D03*
X147066000Y-94996000D03*
X180594000Y-91948000D03*
X113531949Y-89613544D03*
X162814000Y-106426000D03*
X114581695Y-115807221D03*
X127762000Y-89662000D03*
X152527000Y-106426000D03*
X148210000Y-121025000D03*
X128016000Y-85852000D03*
X195262218Y-110408524D03*
X114046000Y-95250000D03*
X153162000Y-73406000D03*
X154940000Y-124460000D03*
X148200000Y-124350000D03*
X104902000Y-115316000D03*
X140716000Y-116586000D03*
X107950000Y-115316000D03*
X187198000Y-65278000D03*
X126238000Y-103632000D03*
X148336000Y-114554000D03*
X143510000Y-73152000D03*
X143510000Y-99568000D03*
X180848000Y-83312000D03*
X158242000Y-89662000D03*
X196342000Y-82042000D03*
X180848000Y-76454000D03*
X157988000Y-108204000D03*
X196342000Y-103886000D03*
X114554000Y-110744000D03*
X139446000Y-83566000D03*
X138684000Y-99822000D03*
X165354000Y-102616000D03*
X115316000Y-106172000D03*
X124968000Y-108966000D03*
X112776000Y-73660000D03*
X143256000Y-65278000D03*
X132588000Y-116332000D03*
X124206000Y-121666000D03*
X112776000Y-67564000D03*
X139954000Y-86106000D03*
X165608000Y-96774000D03*
X175006000Y-115824000D03*
X179578000Y-66040000D03*
X161270424Y-71867828D03*
X110744000Y-123698000D03*
X124206000Y-124714000D03*
%TO.N,Net-(C2-Pad1)*%
X157226000Y-82296000D03*
%TO.N,Net-(C3-Pad1)*%
X119634000Y-94996000D03*
%TO.N,Net-(C6-Pad1)*%
X116840000Y-101600000D03*
X135636000Y-105918000D03*
X135636000Y-97790000D03*
X118110000Y-93980000D03*
%TO.N,RAW*%
X134112000Y-103378000D03*
X134112000Y-111252000D03*
%TO.N,+12V*%
X154178000Y-65278000D03*
X183388000Y-125984000D03*
X165354000Y-125730000D03*
X137414000Y-124714000D03*
X181102000Y-122174000D03*
X116078000Y-125984000D03*
X188214000Y-125730000D03*
%TO.N,-12V*%
X170942000Y-122428000D03*
%TO.N,Net-(C12-Pad2)*%
X173482000Y-67564000D03*
%TO.N,Net-(C14-Pad1)*%
X146812000Y-112522000D03*
X149860000Y-99314000D03*
X146812000Y-99822000D03*
%TO.N,Net-(C19-Pad1)*%
X112522000Y-100076000D03*
X117348000Y-87376000D03*
%TO.N,Net-(C19-Pad2)*%
X119634000Y-80772000D03*
%TO.N,Net-(D1-Pad2)*%
X123444000Y-90424000D03*
X118618000Y-89916000D03*
X123444000Y-95504000D03*
%TO.N,PWM*%
X166497000Y-79502000D03*
%TO.N,TRI*%
X153670000Y-113538000D03*
X153416000Y-116078000D03*
X188722000Y-113525500D03*
%TO.N,SIN*%
X187198000Y-107950000D03*
%TO.N,Net-(R13-Pad2)*%
X158242000Y-114046000D03*
%TO.N,Net-(R14-Pad2)*%
X154940000Y-121158000D03*
X155448000Y-115062000D03*
X160782000Y-114300000D03*
%TO.N,Net-(R17-Pad1)*%
X114046000Y-96774000D03*
%TO.N,Net-(R25-Pad1)*%
X156464000Y-80518000D03*
%TO.N,Net-(R34-Pad2)*%
X135128000Y-108966000D03*
%TO.N,Net-(R45-Pad2)*%
X174752000Y-120904000D03*
X157734000Y-120396000D03*
X174752000Y-123444000D03*
%TO.N,Net-(R48-Pad1)*%
X163830000Y-114300000D03*
X168910000Y-114046000D03*
X170688000Y-108712000D03*
%TO.N,Net-(R60-Pad2)*%
X170180000Y-114300000D03*
X180340000Y-114300000D03*
%TD*%
D28*
%TO.N,Net-(R34-Pad2)*%
X128016000Y-121666000D02*
X129286000Y-122936000D01*
X129286000Y-122936000D02*
X135128000Y-122936000D01*
%TO.N,Net-(Q1-Pad3)*%
X127508000Y-118618000D02*
X128270000Y-118618000D01*
X128270000Y-118618000D02*
X131074000Y-121422000D01*
X131074000Y-121422000D02*
X131582000Y-121422000D01*
%TO.N,RAW*%
X128778000Y-117348000D02*
X128778000Y-115570000D01*
X128778000Y-115570000D02*
X130048000Y-114300000D01*
%TO.N,Net-(C6-Pad1)*%
X127508000Y-116078000D02*
X127508000Y-114808000D01*
X127508000Y-114808000D02*
X129286000Y-113030000D01*
%TO.N,Net-(C3-Pad1)*%
X119126000Y-113030000D02*
X120152000Y-114056000D01*
X120152000Y-114056000D02*
X120894000Y-114056000D01*
X120894000Y-114056000D02*
X120904000Y-114046000D01*
X120904000Y-114046000D02*
X121920000Y-115062000D01*
X121920000Y-115062000D02*
X121920000Y-116078000D01*
X107950000Y-111506000D02*
X109220000Y-111506000D01*
X109220000Y-111506000D02*
X109474000Y-111760000D01*
X109474000Y-111760000D02*
X115824000Y-111760000D01*
X115824000Y-111760000D02*
X117094000Y-113030000D01*
X117094000Y-113030000D02*
X119126000Y-113030000D01*
%TO.N,Net-(C3-Pad2)*%
X119126000Y-110490000D02*
X122174000Y-110490000D01*
X122174000Y-110490000D02*
X122428000Y-110236000D01*
D29*
%TO.N,+12V*%
X102108000Y-119126000D02*
X102108000Y-125984000D01*
X102108000Y-125984000D02*
X103632000Y-127508000D01*
X103632000Y-127508000D02*
X116205000Y-127508000D01*
D28*
%TO.N,LIN*%
X107950000Y-119126000D02*
X110256000Y-119126000D01*
X110256000Y-119126000D02*
X111760000Y-120630000D01*
%TO.N,Net-(C1-Pad1)*%
X140970000Y-73137000D02*
X138699000Y-73137000D01*
X138699000Y-73137000D02*
X138684000Y-73152000D01*
%TO.N,Net-(R5-Pad3)*%
X141224000Y-70612000D02*
X141239000Y-70597000D01*
X141239000Y-70597000D02*
X143510000Y-70597000D01*
%TO.N,Net-(C19-Pad1)*%
X118618000Y-70358000D02*
X119634000Y-69342000D01*
X119634000Y-69342000D02*
X126746000Y-69342000D01*
X126746000Y-69342000D02*
X127254000Y-68834000D01*
X127254000Y-68834000D02*
X133858000Y-68834000D01*
X133858000Y-68834000D02*
X135382000Y-70358000D01*
%TO.N,/R2P3*%
X123190000Y-81788000D02*
X127000000Y-81788000D01*
X127000000Y-81788000D02*
X127762000Y-82550000D01*
%TO.N,PWM*%
X166497000Y-79502000D02*
X187432000Y-79502000D01*
X187432000Y-79502000D02*
X190480000Y-82550000D01*
%TO.N,/Sheet 2/R39P3*%
X188214000Y-73914000D02*
X188214000Y-76454000D01*
X186944000Y-72644000D02*
X188214000Y-73914000D01*
X179832000Y-72644000D02*
X186944000Y-72644000D01*
X189230000Y-77470000D02*
X190500000Y-77470000D01*
X188214000Y-76454000D02*
X189230000Y-77470000D01*
%TO.N,/Sheet 2/R39P1*%
X184668000Y-71384000D02*
X189494000Y-71384000D01*
X189494000Y-71384000D02*
X190500000Y-72390000D01*
%TO.N,Net-(C12-Pad2)*%
X167495743Y-80518000D02*
X173482000Y-80518000D01*
X166087113Y-81926630D02*
X167495743Y-80518000D01*
X166087113Y-83058000D02*
X166087113Y-81926630D01*
X173482000Y-78486000D02*
X182646000Y-78486000D01*
X182646000Y-78486000D02*
X184668000Y-76464000D01*
%TO.N,/Sheet 2/R39P3*%
X177048000Y-71384000D02*
X178572000Y-71384000D01*
X178572000Y-71384000D02*
X179832000Y-72644000D01*
%TO.N,Net-(R1-Pad1)*%
X153924000Y-70358000D02*
X154178000Y-70104000D01*
X151638000Y-70358000D02*
X153924000Y-70358000D01*
X154835500Y-70104000D02*
X157614500Y-67325000D01*
X154178000Y-70104000D02*
X154835500Y-70104000D01*
D29*
%TO.N,+12V*%
X130302000Y-63500000D02*
X146558000Y-63500000D01*
D30*
X135382000Y-73406000D02*
X130556000Y-73406000D01*
D29*
X104394000Y-63500000D02*
X130302000Y-63500000D01*
D30*
X130302000Y-65532000D02*
X130302000Y-63500000D01*
%TO.N,-12V*%
X129794000Y-76454000D02*
X135382000Y-76454000D01*
X129794000Y-76454000D02*
X129540000Y-76708000D01*
D28*
%TO.N,Net-(R5-Pad3)*%
X140193000Y-70612000D02*
X138564500Y-68983500D01*
X138564500Y-68983500D02*
X138564500Y-67325000D01*
%TO.N,/R2P2*%
X123190000Y-79248000D02*
X127254000Y-79248000D01*
X127508000Y-79248000D02*
X127762000Y-79502000D01*
%TO.N,/R2P1*%
X123190000Y-76708000D02*
X123444000Y-76454000D01*
X123444000Y-76454000D02*
X127508000Y-76454000D01*
%TO.N,/R3P3*%
X123190000Y-73167000D02*
X127269000Y-73167000D01*
X127523000Y-73167000D02*
X127762000Y-73406000D01*
%TO.N,/R3P2*%
X124699000Y-70627000D02*
X123190000Y-70627000D01*
X124699000Y-70627000D02*
X124968000Y-70358000D01*
X124968000Y-70358000D02*
X127508000Y-70358000D01*
%TO.N,/R3P1*%
X123190000Y-68087000D02*
X123967000Y-67310000D01*
X123967000Y-67310000D02*
X127508000Y-67310000D01*
%TO.N,GND*%
X176149000Y-118237000D02*
X175514000Y-117602000D01*
X114173000Y-95377000D02*
X114046000Y-95250000D01*
X173609000Y-119507000D02*
X174498000Y-118618000D01*
X175895000Y-119507000D02*
X175768000Y-119380000D01*
X116382000Y-95377000D02*
X114173000Y-95377000D01*
X177735000Y-119507000D02*
X175895000Y-119507000D01*
X177735000Y-118237000D02*
X176149000Y-118237000D01*
X172785000Y-119507000D02*
X173609000Y-119507000D01*
%TO.N,Net-(C2-Pad1)*%
X147855500Y-82296000D02*
X157226000Y-82296000D01*
X144807500Y-79248000D02*
X147855500Y-82296000D01*
%TO.N,Net-(C3-Pad1)*%
X120269000Y-94107000D02*
X119634000Y-94742000D01*
X121332000Y-94107000D02*
X120269000Y-94107000D01*
X119634000Y-94742000D02*
X119634000Y-94996000D01*
X104902000Y-111506000D02*
X107950000Y-111506000D01*
%TO.N,Net-(C4-Pad1)*%
X177038000Y-97536000D02*
X179070000Y-97536000D01*
X179070000Y-97536000D02*
X180106000Y-98572000D01*
X180106000Y-98572000D02*
X180106000Y-100584000D01*
%TO.N,Net-(C4-Pad2)*%
X184658000Y-97536000D02*
X186182000Y-97536000D01*
X184658000Y-98532000D02*
X184658000Y-97536000D01*
X182606000Y-100584000D02*
X184658000Y-98532000D01*
X186182000Y-97536000D02*
X187960000Y-99314000D01*
%TO.N,SYNC*%
X117094000Y-122936000D02*
X116078000Y-122936000D01*
X117856000Y-123698000D02*
X117094000Y-122936000D01*
X116078000Y-122936000D02*
X114808000Y-121666000D01*
X118872000Y-124714000D02*
X120396000Y-124714000D01*
X117856000Y-123698000D02*
X118872000Y-124714000D01*
X114808000Y-121666000D02*
X114808000Y-121158000D01*
%TO.N,Net-(C5-Pad2)*%
X117856000Y-121198000D02*
X118150000Y-121198000D01*
X118618000Y-121666000D02*
X120396000Y-121666000D01*
X118150000Y-121198000D02*
X118618000Y-121666000D01*
%TO.N,Net-(C6-Pad1)*%
X116840000Y-101600000D02*
X126492000Y-101600000D01*
X129286000Y-113030000D02*
X129286000Y-107950000D01*
X135626000Y-105928000D02*
X135636000Y-105918000D01*
X131816000Y-105928000D02*
X135626000Y-105928000D01*
X116382000Y-94107000D02*
X117983000Y-94107000D01*
X130820000Y-105928000D02*
X131816000Y-105928000D01*
X117983000Y-94107000D02*
X118110000Y-93980000D01*
X131308000Y-105928000D02*
X131816000Y-105928000D01*
X129286000Y-107950000D02*
X131308000Y-105928000D01*
X135636000Y-97790000D02*
X146438000Y-97790000D01*
X126492000Y-101600000D02*
X130820000Y-105928000D01*
%TO.N,RAW*%
X131826000Y-114300000D02*
X134112000Y-112014000D01*
X130048000Y-114300000D02*
X131826000Y-114300000D01*
X131826000Y-103378000D02*
X131816000Y-103388000D01*
X134112000Y-112014000D02*
X134112000Y-111252000D01*
X134112000Y-103378000D02*
X131826000Y-103378000D01*
D30*
%TO.N,+12V*%
X165354000Y-125730000D02*
X165354000Y-127254000D01*
X146543000Y-67325000D02*
X146543000Y-63515000D01*
X146543000Y-63515000D02*
X146558000Y-63500000D01*
X132080000Y-90150000D02*
X135656000Y-90150000D01*
X116078000Y-125984000D02*
X116078000Y-127254000D01*
X184668000Y-89164000D02*
X186954000Y-89164000D01*
X154178000Y-63754000D02*
X153924000Y-63500000D01*
D29*
X104460000Y-89380000D02*
X103152000Y-89380000D01*
D30*
X137414000Y-124714000D02*
X137414000Y-127254000D01*
X186954000Y-89164000D02*
X188234000Y-90444000D01*
X188234000Y-90444000D02*
X188234000Y-92456000D01*
D29*
X165100000Y-127508000D02*
X182626000Y-127508000D01*
X157607000Y-127508000D02*
X164973000Y-127508000D01*
D30*
X135656000Y-90150000D02*
X136398000Y-89408000D01*
X188214000Y-125730000D02*
X188214000Y-127000000D01*
X180975000Y-122047000D02*
X181102000Y-122174000D01*
X183134000Y-125984000D02*
X183134000Y-127000000D01*
X177735000Y-122047000D02*
X180975000Y-122047000D01*
D29*
X107000000Y-89380000D02*
X104460000Y-89380000D01*
X182626000Y-127508000D02*
X188214000Y-127508000D01*
D30*
X184668000Y-68844000D02*
X184668000Y-63510000D01*
X182880000Y-127254000D02*
X182626000Y-127508000D01*
D29*
X146558000Y-63500000D02*
X153924000Y-63500000D01*
D30*
X157734000Y-124206000D02*
X157734000Y-127000000D01*
D29*
X175260000Y-63500000D02*
X184658000Y-63500000D01*
D30*
X157480000Y-127254000D02*
X157734000Y-127508000D01*
X184668000Y-63510000D02*
X184658000Y-63500000D01*
X146184500Y-67325000D02*
X149994500Y-67325000D01*
X154178000Y-65278000D02*
X154178000Y-63754000D01*
D29*
X153924000Y-63500000D02*
X175260000Y-63500000D01*
D30*
X104902000Y-119126000D02*
X102108000Y-119126000D01*
D29*
X102108000Y-90424000D02*
X102108000Y-119126000D01*
X102108000Y-90424000D02*
X102108000Y-81788000D01*
D30*
X103925401Y-81788000D02*
X102108000Y-81788000D01*
D29*
X137414000Y-127508000D02*
X157988000Y-127508000D01*
X102108000Y-81788000D02*
X102108000Y-65786000D01*
X103152000Y-89380000D02*
X102108000Y-90424000D01*
X116332000Y-127508000D02*
X137668000Y-127508000D01*
X102108000Y-65786000D02*
X104394000Y-63500000D01*
D30*
%TO.N,-12V*%
X172785000Y-122047000D02*
X171069000Y-122047000D01*
X171069000Y-122047000D02*
X170942000Y-122174000D01*
X170942000Y-122174000D02*
X170942000Y-122428000D01*
D28*
%TO.N,Net-(C12-Pad2)*%
X173476000Y-67570000D02*
X173482000Y-67564000D01*
X171450000Y-67570000D02*
X173476000Y-67570000D01*
%TO.N,Net-(C13-Pad1)*%
X176296000Y-74676000D02*
X177048000Y-73924000D01*
X171450000Y-74676000D02*
X176296000Y-74676000D01*
%TO.N,Net-(C14-Pad1)*%
X147066000Y-99568000D02*
X149860000Y-99568000D01*
X144272000Y-114554000D02*
X145542000Y-114554000D01*
X145542000Y-114554000D02*
X146812000Y-113284000D01*
X146812000Y-99822000D02*
X147066000Y-99568000D01*
X149860000Y-99568000D02*
X149860000Y-99314000D01*
X146812000Y-113284000D02*
X146812000Y-112522000D01*
%TO.N,Net-(C17-Pad1)*%
X136408000Y-118628000D02*
X139202000Y-121422000D01*
X131582000Y-118628000D02*
X136408000Y-118628000D01*
%TO.N,Net-(C18-Pad1)*%
X139436000Y-111008000D02*
X139710000Y-111008000D01*
X144018000Y-112522000D02*
X145288000Y-111252000D01*
X139710000Y-111008000D02*
X141224000Y-112522000D01*
X144994000Y-106132000D02*
X145288000Y-106426000D01*
X141224000Y-112522000D02*
X144018000Y-112522000D01*
X142494000Y-106132000D02*
X144994000Y-106132000D01*
X145288000Y-106426000D02*
X145288000Y-111252000D01*
%TO.N,Net-(C18-Pad2)*%
X140198000Y-105928000D02*
X142494000Y-103632000D01*
X139436000Y-105928000D02*
X140198000Y-105928000D01*
X142494000Y-103632000D02*
X145288000Y-103632000D01*
%TO.N,Net-(C19-Pad1)*%
X121666000Y-87630000D02*
X117602000Y-87630000D01*
X112522000Y-100076000D02*
X112776000Y-99822000D01*
X117602000Y-87630000D02*
X117348000Y-87376000D01*
X112776000Y-99822000D02*
X118857000Y-99822000D01*
%TO.N,Net-(C19-Pad2)*%
X119634000Y-80264000D02*
X119634000Y-80772000D01*
X115570000Y-79756000D02*
X119126000Y-79756000D01*
X119126000Y-79756000D02*
X119634000Y-80264000D01*
%TO.N,Net-(D1-Pad1)*%
X125222000Y-92456000D02*
X128016000Y-92456000D01*
%TO.N,Net-(D1-Pad2)*%
X123317000Y-95377000D02*
X121332000Y-95377000D01*
X118618000Y-89916000D02*
X122936000Y-89916000D01*
X123317000Y-90297000D02*
X123444000Y-90424000D01*
X122936000Y-89916000D02*
X123317000Y-90297000D01*
%TO.N,Net-(D2-Pad2)*%
X150114000Y-86101000D02*
X151130000Y-87117000D01*
X153426000Y-87112000D02*
X157231000Y-87112000D01*
X151135000Y-87112000D02*
X153426000Y-87112000D01*
X157231000Y-87112000D02*
X160782000Y-83561000D01*
X151130000Y-87117000D02*
X151135000Y-87112000D01*
X150114000Y-84831000D02*
X150114000Y-86101000D01*
%TO.N,Net-(D3-Pad2)*%
X150114000Y-102611000D02*
X153167000Y-102611000D01*
X152527000Y-109728000D02*
X156337000Y-109728000D01*
X157480000Y-101092000D02*
X167640000Y-101092000D01*
X152273000Y-109474000D02*
X152527000Y-109728000D01*
X156220000Y-102352000D02*
X157480000Y-101092000D01*
X148717000Y-106426000D02*
X151765000Y-109474000D01*
X151765000Y-109474000D02*
X152273000Y-109474000D01*
X167640000Y-101092000D02*
X167894000Y-100838000D01*
X153426000Y-102352000D02*
X156220000Y-102352000D01*
X153167000Y-102611000D02*
X153426000Y-102352000D01*
%TO.N,CV1*%
X106426000Y-68326000D02*
X107188000Y-67564000D01*
X107188000Y-67564000D02*
X110998000Y-67564000D01*
%TO.N,CV2*%
X106426000Y-70866000D02*
X108966000Y-70866000D01*
X108966000Y-70866000D02*
X109474000Y-70358000D01*
X109474000Y-70358000D02*
X110998000Y-70358000D01*
%TO.N,CV3*%
X106426000Y-73406000D02*
X110998000Y-73406000D01*
%TO.N,TRI*%
X146050000Y-122682000D02*
X146050000Y-120142000D01*
X150114000Y-116078000D02*
X153416000Y-116078000D01*
X144272000Y-124460000D02*
X146050000Y-122682000D01*
X146050000Y-120142000D02*
X150114000Y-116078000D01*
X153670000Y-113538000D02*
X153932000Y-113276000D01*
X153932000Y-113276000D02*
X188472500Y-113276000D01*
X188472500Y-113276000D02*
X188722000Y-113525500D01*
%TO.N,SIN*%
X187198000Y-107950000D02*
X187452000Y-107696000D01*
X187452000Y-107696000D02*
X192766000Y-107696000D01*
%TO.N,CV4*%
X106426000Y-75946000D02*
X108966000Y-75946000D01*
X109220000Y-76200000D02*
X110998000Y-76200000D01*
X108966000Y-75946000D02*
X109220000Y-76200000D01*
%TO.N,RMP*%
X149606000Y-112776000D02*
X192766000Y-112776000D01*
X148717000Y-109728000D02*
X148082000Y-110363000D01*
X148082000Y-111252000D02*
X149606000Y-112776000D01*
X148082000Y-110363000D02*
X148082000Y-111252000D01*
%TO.N,Net-(R5-Pad3)*%
X140193000Y-70612000D02*
X141224000Y-70612000D01*
%TO.N,Net-(R12-Pad2)*%
X146563000Y-83561000D02*
X153162000Y-83561000D01*
X153426000Y-89652000D02*
X147564000Y-89652000D01*
X147564000Y-89652000D02*
X144018000Y-86106000D01*
X144018000Y-86106000D02*
X146563000Y-83561000D01*
%TO.N,Net-(R13-Pad2)*%
X150876000Y-114554000D02*
X151892000Y-114554000D01*
X154686000Y-114046000D02*
X154178000Y-114554000D01*
X144272000Y-121158000D02*
X150876000Y-114554000D01*
X151892000Y-114554000D02*
X154178000Y-114554000D01*
X158242000Y-114046000D02*
X154686000Y-114046000D01*
%TO.N,Net-(R14-Pad2)*%
X151892000Y-121158000D02*
X154940000Y-121158000D01*
X161534000Y-102352000D02*
X163576000Y-104394000D01*
X160020000Y-115062000D02*
X160782000Y-114300000D01*
X155448000Y-115062000D02*
X160020000Y-115062000D01*
X163576000Y-104394000D02*
X174498000Y-104394000D01*
X174498000Y-104394000D02*
X176276000Y-106172000D01*
X161046000Y-102352000D02*
X161534000Y-102352000D01*
%TO.N,Net-(R17-Pad1)*%
X116382000Y-96647000D02*
X114173000Y-96647000D01*
X114173000Y-96647000D02*
X114046000Y-96774000D01*
X116382000Y-96647000D02*
X121332000Y-96647000D01*
%TO.N,Net-(R16-Pad3)*%
X124206000Y-86360000D02*
X124714000Y-85852000D01*
X115570000Y-84836000D02*
X117094000Y-86360000D01*
X117094000Y-86360000D02*
X124206000Y-86360000D01*
%TO.N,Net-(R25-Pad1)*%
X156205000Y-80259000D02*
X153162000Y-80259000D01*
X156464000Y-80518000D02*
X156205000Y-80259000D01*
%TO.N,Net-(R34-Pad2)*%
X135626000Y-108468000D02*
X139436000Y-108468000D01*
X135128000Y-108966000D02*
X135626000Y-108468000D01*
%TO.N,Net-(R44-Pad1)*%
X165608000Y-108697000D02*
X168148000Y-111237000D01*
%TO.N,Net-(R44-Pad2)*%
X172404000Y-115316000D02*
X172785000Y-115697000D01*
X160782000Y-116586000D02*
X162052000Y-115316000D01*
X162052000Y-115316000D02*
X172404000Y-115316000D01*
%TO.N,Net-(R45-Pad2)*%
X158242000Y-120904000D02*
X172658000Y-120904000D01*
X172785000Y-123317000D02*
X174625000Y-123317000D01*
X174625000Y-120777000D02*
X174752000Y-120904000D01*
X157734000Y-120396000D02*
X158242000Y-120904000D01*
X172785000Y-120777000D02*
X174625000Y-120777000D01*
X174625000Y-123317000D02*
X174752000Y-123444000D01*
X172658000Y-120904000D02*
X172785000Y-120777000D01*
%TO.N,Net-(R48-Pad1)*%
X168656000Y-114300000D02*
X168910000Y-114046000D01*
X170688000Y-108712000D02*
X173736000Y-108712000D01*
X163830000Y-114300000D02*
X168656000Y-114300000D01*
%TO.N,Net-(R48-Pad2)*%
X169926000Y-116586000D02*
X171450000Y-118110000D01*
X171450000Y-118110000D02*
X172658000Y-118110000D01*
X172658000Y-118110000D02*
X172785000Y-118237000D01*
X163830000Y-124206000D02*
X166878000Y-124206000D01*
%TO.N,Net-(R49-Pad1)*%
X172785000Y-124587000D02*
X173355000Y-124587000D01*
X183642000Y-124206000D02*
X186690000Y-124206000D01*
X173355000Y-124587000D02*
X174498000Y-125730000D01*
X174498000Y-125730000D02*
X182118000Y-125730000D01*
X182118000Y-125730000D02*
X183642000Y-124206000D01*
%TO.N,/R3P3*%
X127269000Y-72913000D02*
X127762000Y-73406000D01*
%TO.N,Net-(R60-Pad2)*%
X180340000Y-114300000D02*
X170180000Y-114300000D01*
%TD*%
%TA.AperFunction,NonConductor*%
G36*
X197046121Y-115082002D02*
G01*
X197092614Y-115135658D01*
X197104000Y-115188000D01*
X197104000Y-119254000D01*
X197083998Y-119322121D01*
X197030342Y-119368614D01*
X196978000Y-119380000D01*
X193166000Y-119380000D01*
X193097879Y-119359998D01*
X193051386Y-119306342D01*
X193040000Y-119254000D01*
X193040000Y-115188000D01*
X193060002Y-115119879D01*
X193113658Y-115073386D01*
X193166000Y-115062000D01*
X196978000Y-115062000D01*
X197046121Y-115082002D01*
G37*
%TD.AperFunction*%
M02*
