%TF.GenerationSoftware,KiCad,Pcbnew,6.0.8-f2edbf62ab~116~ubuntu22.04.1*%
%TF.CreationDate,2024-02-19T11:51:22-05:00*%
%TF.ProjectId,MFOS_VCO,4d464f53-5f56-4434-9f2e-6b696361645f,rev?*%
%TF.SameCoordinates,Original*%
%TF.FileFunction,Copper,L4,Bot*%
%TF.FilePolarity,Positive*%
%FSLAX46Y46*%
G04 Gerber Fmt 4.6, Leading zero omitted, Abs format (unit mm)*
G04 Created by KiCad (PCBNEW 6.0.8-f2edbf62ab~116~ubuntu22.04.1) date 2024-02-19 11:51:22*
%MOMM*%
%LPD*%
G01*
G04 APERTURE LIST*
G04 Aperture macros list*
%AMRoundRect*
0 Rectangle with rounded corners*
0 $1 Rounding radius*
0 $2 $3 $4 $5 $6 $7 $8 $9 X,Y pos of 4 corners*
0 Add a 4 corners polygon primitive as box body*
4,1,4,$2,$3,$4,$5,$6,$7,$8,$9,$2,$3,0*
0 Add four circle primitives for the rounded corners*
1,1,$1+$1,$2,$3*
1,1,$1+$1,$4,$5*
1,1,$1+$1,$6,$7*
1,1,$1+$1,$8,$9*
0 Add four rect primitives between the rounded corners*
20,1,$1+$1,$2,$3,$4,$5,0*
20,1,$1+$1,$4,$5,$6,$7,0*
20,1,$1+$1,$6,$7,$8,$9,0*
20,1,$1+$1,$8,$9,$2,$3,0*%
G04 Aperture macros list end*
%TA.AperFunction,ComponentPad*%
%ADD10C,1.600000*%
%TD*%
%TA.AperFunction,ComponentPad*%
%ADD11R,1.700000X1.700000*%
%TD*%
%TA.AperFunction,ComponentPad*%
%ADD12O,1.700000X1.700000*%
%TD*%
%TA.AperFunction,ComponentPad*%
%ADD13O,1.600000X1.600000*%
%TD*%
%TA.AperFunction,ComponentPad*%
%ADD14R,2.400000X1.600000*%
%TD*%
%TA.AperFunction,ComponentPad*%
%ADD15O,2.400000X1.600000*%
%TD*%
%TA.AperFunction,ComponentPad*%
%ADD16R,1.600000X1.600000*%
%TD*%
%TA.AperFunction,ComponentPad*%
%ADD17C,1.260000*%
%TD*%
%TA.AperFunction,ComponentPad*%
%ADD18R,1.300000X1.300000*%
%TD*%
%TA.AperFunction,ComponentPad*%
%ADD19C,1.300000*%
%TD*%
%TA.AperFunction,ComponentPad*%
%ADD20R,1.200000X1.200000*%
%TD*%
%TA.AperFunction,ComponentPad*%
%ADD21C,1.200000*%
%TD*%
%TA.AperFunction,ComponentPad*%
%ADD22RoundRect,0.250000X0.600000X0.600000X-0.600000X0.600000X-0.600000X-0.600000X0.600000X-0.600000X0*%
%TD*%
%TA.AperFunction,ComponentPad*%
%ADD23C,1.700000*%
%TD*%
%TA.AperFunction,ViaPad*%
%ADD24C,0.800000*%
%TD*%
%TA.AperFunction,Conductor*%
%ADD25C,0.300000*%
%TD*%
%TA.AperFunction,Conductor*%
%ADD26C,0.500000*%
%TD*%
%TA.AperFunction,Conductor*%
%ADD27C,1.000000*%
%TD*%
G04 APERTURE END LIST*
D10*
%TO.P,C15,1*%
%TO.N,+12V*%
X188234000Y-92456000D03*
%TO.P,C15,2*%
%TO.N,GND*%
X190734000Y-92456000D03*
%TD*%
D11*
%TO.P,J27,1,Pin_1*%
%TO.N,/Sheet 2/R39P1*%
X188722000Y-70358000D03*
D12*
%TO.P,J27,2,Pin_2*%
%TO.N,/Sheet 2/R39P2*%
X188722000Y-72898000D03*
%TO.P,J27,3,Pin_3*%
%TO.N,/Sheet 2/R39P3*%
X188722000Y-75438000D03*
%TD*%
D10*
%TO.P,R71,1*%
%TO.N,-12V*%
X132334000Y-76708000D03*
D13*
%TO.P,R71,2*%
%TO.N,/R2P1*%
X124714000Y-76708000D03*
%TD*%
D14*
%TO.P,U4,1*%
%TO.N,Net-(D2-Pad2)*%
X153426000Y-87112000D03*
D15*
%TO.P,U4,2,-*%
%TO.N,Net-(R12-Pad2)*%
X153426000Y-89652000D03*
%TO.P,U4,3,+*%
%TO.N,Net-(C1-Pad1)*%
X153426000Y-92192000D03*
%TO.P,U4,4,V+*%
%TO.N,+12V*%
X153426000Y-94732000D03*
%TO.P,U4,5,+*%
%TO.N,GND*%
X153426000Y-97272000D03*
%TO.P,U4,6,-*%
%TO.N,Net-(R25-Pad1)*%
X153426000Y-99812000D03*
%TO.P,U4,7*%
%TO.N,Net-(D3-Pad2)*%
X153426000Y-102352000D03*
%TO.P,U4,8*%
%TO.N,Net-(R14-Pad2)*%
X161046000Y-102352000D03*
%TO.P,U4,9,-*%
%TO.N,Net-(R13-Pad2)*%
X161046000Y-99812000D03*
%TO.P,U4,10,+*%
%TO.N,Net-(C2-Pad1)*%
X161046000Y-97272000D03*
%TO.P,U4,11,V-*%
%TO.N,-12V*%
X161046000Y-94732000D03*
%TO.P,U4,12,+*%
%TO.N,GND*%
X161046000Y-92192000D03*
%TO.P,U4,13,-*%
%TO.N,Net-(U4-Pad13)*%
X161046000Y-89652000D03*
%TO.P,U4,14*%
X161046000Y-87112000D03*
%TD*%
D10*
%TO.P,R32,1*%
%TO.N,Net-(R25-Pad1)*%
X156337000Y-106426000D03*
D13*
%TO.P,R32,2*%
%TO.N,Net-(D3-Pad2)*%
X148717000Y-106426000D03*
%TD*%
D10*
%TO.P,R26,1*%
%TO.N,Net-(D3-Pad2)*%
X156337000Y-109728000D03*
D13*
%TO.P,R26,2*%
%TO.N,RMP*%
X148717000Y-109728000D03*
%TD*%
D10*
%TO.P,R31,1*%
%TO.N,LIN*%
X114554000Y-123698000D03*
D13*
%TO.P,R31,2*%
%TO.N,GND*%
X106934000Y-123698000D03*
%TD*%
D10*
%TO.P,R67,1*%
%TO.N,GND*%
X173736000Y-93218000D03*
D13*
%TO.P,R67,2*%
%TO.N,PWM*%
X166116000Y-93218000D03*
%TD*%
D10*
%TO.P,C19,1*%
%TO.N,Net-(C19-Pad1)*%
X121666000Y-87630000D03*
%TO.P,C19,2*%
%TO.N,Net-(C19-Pad2)*%
X121666000Y-85130000D03*
%TD*%
%TO.P,R66,1*%
%TO.N,SYNC*%
X120396000Y-124714000D03*
D13*
%TO.P,R66,2*%
%TO.N,GND*%
X128016000Y-124714000D03*
%TD*%
D10*
%TO.P,R25,1*%
%TO.N,Net-(R25-Pad1)*%
X153162000Y-80259000D03*
D13*
%TO.P,R25,2*%
%TO.N,Net-(D2-Pad2)*%
X160782000Y-80259000D03*
%TD*%
D10*
%TO.P,R30,1*%
%TO.N,LIN*%
X107950000Y-119126000D03*
D13*
%TO.P,R30,2*%
%TO.N,Net-(C3-Pad1)*%
X107950000Y-111506000D03*
%TD*%
D10*
%TO.P,R61,1*%
%TO.N,Net-(R60-Pad2)*%
X166878000Y-116586000D03*
D13*
%TO.P,R61,2*%
%TO.N,Net-(R48-Pad2)*%
X166878000Y-124206000D03*
%TD*%
D16*
%TO.P,D2,1,K*%
%TO.N,Net-(C14-Pad1)*%
X150114000Y-92451000D03*
D13*
%TO.P,D2,2,A*%
%TO.N,Net-(D2-Pad2)*%
X150114000Y-84831000D03*
%TD*%
D17*
%TO.P,R60,1,1*%
%TO.N,-12V*%
X184550000Y-111250000D03*
%TO.P,R60,2,2*%
%TO.N,Net-(R60-Pad2)*%
X182010000Y-108710000D03*
%TO.P,R60,3,3*%
%TO.N,+12V*%
X184550000Y-106170000D03*
%TD*%
D16*
%TO.P,C12,1*%
%TO.N,GND*%
X193168651Y-83566000D03*
D10*
%TO.P,C12,2*%
%TO.N,Net-(C12-Pad2)*%
X191168651Y-83566000D03*
%TD*%
%TO.P,R69,1*%
%TO.N,Net-(C18-Pad1)*%
X145350000Y-111252000D03*
D13*
%TO.P,R69,2*%
%TO.N,Net-(C18-Pad2)*%
X145350000Y-103632000D03*
%TD*%
D14*
%TO.P,U2,1*%
%TO.N,RAW*%
X131816000Y-103388000D03*
D15*
%TO.P,U2,2,-*%
%TO.N,Net-(C6-Pad1)*%
X131816000Y-105928000D03*
%TO.P,U2,3,+*%
%TO.N,GND*%
X131816000Y-108468000D03*
%TO.P,U2,4,V-*%
%TO.N,-12V*%
X131816000Y-111008000D03*
%TO.P,U2,5,+*%
%TO.N,Net-(C18-Pad1)*%
X139436000Y-111008000D03*
%TO.P,U2,6,-*%
%TO.N,Net-(R34-Pad2)*%
X139436000Y-108468000D03*
%TO.P,U2,7*%
%TO.N,Net-(C18-Pad2)*%
X139436000Y-105928000D03*
%TO.P,U2,8,V+*%
%TO.N,+12V*%
X139436000Y-103388000D03*
%TD*%
D11*
%TO.P,J13,1,Pin_1*%
%TO.N,SYNC*%
X113850000Y-120275000D03*
D12*
%TO.P,J13,2,Pin_2*%
%TO.N,LIN*%
X111310000Y-120275000D03*
%TD*%
D16*
%TO.P,D4,1,K*%
%TO.N,Net-(C13-Pad1)*%
X171450000Y-75184000D03*
D13*
%TO.P,D4,2,A*%
%TO.N,Net-(D3-Pad2)*%
X163830000Y-75184000D03*
%TD*%
D10*
%TO.P,C2,1*%
%TO.N,Net-(C2-Pad1)*%
X144807500Y-79248000D03*
%TO.P,C2,2*%
%TO.N,GND*%
X147307500Y-79248000D03*
%TD*%
%TO.P,R21,1*%
%TO.N,Net-(C14-Pad1)*%
X144375000Y-117950000D03*
D13*
%TO.P,R21,2*%
%TO.N,-12V*%
X151995000Y-117950000D03*
%TD*%
D16*
%TO.P,D1,1,K*%
%TO.N,Net-(D1-Pad1)*%
X125222000Y-92456000D03*
D13*
%TO.P,D1,2,A*%
%TO.N,Net-(D1-Pad2)*%
X125222000Y-100076000D03*
%TD*%
D10*
%TO.P,R40,1*%
%TO.N,PWM*%
X166116000Y-90170000D03*
D13*
%TO.P,R40,2*%
%TO.N,Net-(R35-Pad1)*%
X173736000Y-90170000D03*
%TD*%
D10*
%TO.P,C14,1*%
%TO.N,Net-(C14-Pad1)*%
X141800000Y-119875000D03*
%TO.P,C14,2*%
%TO.N,-12V*%
X141800000Y-124875000D03*
%TD*%
D16*
%TO.P,D6,1,K*%
%TO.N,Net-(D6-Pad1)*%
X171450000Y-70104000D03*
D13*
%TO.P,D6,2,A*%
%TO.N,Net-(D5-Pad1)*%
X163830000Y-70104000D03*
%TD*%
D10*
%TO.P,C1,1*%
%TO.N,Net-(C1-Pad1)*%
X138437500Y-79248000D03*
%TO.P,C1,2*%
%TO.N,GND*%
X140937500Y-79248000D03*
%TD*%
D14*
%TO.P,U7,1,NULL*%
%TO.N,unconnected-(U7-Pad1)*%
X177048000Y-86624000D03*
D15*
%TO.P,U7,2,-*%
%TO.N,Net-(R35-Pad1)*%
X177048000Y-89164000D03*
%TO.P,U7,3,+*%
%TO.N,Net-(C4-Pad1)*%
X177048000Y-91704000D03*
%TO.P,U7,4,V-*%
%TO.N,-12V*%
X177048000Y-94244000D03*
%TO.P,U7,5,NULL*%
%TO.N,unconnected-(U7-Pad5)*%
X184668000Y-94244000D03*
%TO.P,U7,6*%
%TO.N,Net-(C4-Pad2)*%
X184668000Y-91704000D03*
%TO.P,U7,7,V+*%
%TO.N,+12V*%
X184668000Y-89164000D03*
%TO.P,U7,8,NC*%
%TO.N,unconnected-(U7-Pad8)*%
X184668000Y-86624000D03*
%TD*%
D10*
%TO.P,R35,1*%
%TO.N,Net-(R35-Pad1)*%
X177038000Y-83312000D03*
D13*
%TO.P,R35,2*%
%TO.N,/Sheet 2/R39P2*%
X184658000Y-83312000D03*
%TD*%
D10*
%TO.P,R8,1*%
%TO.N,/R3P2*%
X124714000Y-70612000D03*
D13*
%TO.P,R8,2*%
%TO.N,Net-(C19-Pad1)*%
X132334000Y-70612000D03*
%TD*%
D14*
%TO.P,U6,1*%
%TO.N,/Sheet 2/R39P3*%
X177048000Y-68844000D03*
D15*
%TO.P,U6,2,-*%
X177048000Y-71384000D03*
%TO.P,U6,3,+*%
%TO.N,Net-(C13-Pad1)*%
X177048000Y-73924000D03*
%TO.P,U6,4,V-*%
%TO.N,-12V*%
X177048000Y-76464000D03*
%TO.P,U6,5,+*%
%TO.N,Net-(C12-Pad2)*%
X184668000Y-76464000D03*
%TO.P,U6,6,-*%
%TO.N,/Sheet 2/R39P1*%
X184668000Y-73924000D03*
%TO.P,U6,7*%
X184668000Y-71384000D03*
%TO.P,U6,8,V+*%
%TO.N,+12V*%
X184668000Y-68844000D03*
%TD*%
D10*
%TO.P,R36,1*%
%TO.N,Net-(C4-Pad2)*%
X187960000Y-99314000D03*
D13*
%TO.P,R36,2*%
%TO.N,SQR*%
X195580000Y-99314000D03*
%TD*%
D17*
%TO.P,R5,1,1*%
%TO.N,GND*%
X141224000Y-75692000D03*
%TO.P,R5,2,2*%
%TO.N,Net-(C1-Pad1)*%
X138684000Y-73152000D03*
%TO.P,R5,3,3*%
%TO.N,Net-(R5-Pad3)*%
X141224000Y-70612000D03*
%TD*%
D10*
%TO.P,C5,1*%
%TO.N,SYNC*%
X117856000Y-123698000D03*
%TO.P,C5,2*%
%TO.N,Net-(C5-Pad2)*%
X117856000Y-121198000D03*
%TD*%
D11*
%TO.P,J26,1,Pin_1*%
%TO.N,/R2P1*%
X121666000Y-76962000D03*
D12*
%TO.P,J26,2,Pin_2*%
%TO.N,/R2P2*%
X121666000Y-79502000D03*
%TO.P,J26,3,Pin_3*%
%TO.N,/R2P3*%
X121666000Y-82042000D03*
%TD*%
D10*
%TO.P,R47,1*%
%TO.N,Net-(R34-Pad2)*%
X144018000Y-89408000D03*
D13*
%TO.P,R47,2*%
%TO.N,+12V*%
X136398000Y-89408000D03*
%TD*%
D18*
%TO.P,Q1,1,D*%
%TO.N,Net-(C6-Pad1)*%
X128270000Y-118618000D03*
D19*
%TO.P,Q1,2,G*%
%TO.N,Net-(Q1-Pad2)*%
X127000000Y-117348000D03*
%TO.P,Q1,3,S*%
%TO.N,RAW*%
X128270000Y-116078000D03*
%TD*%
D10*
%TO.P,R28,1*%
%TO.N,Net-(C3-Pad1)*%
X104902000Y-111506000D03*
D13*
%TO.P,R28,2*%
%TO.N,+12V*%
X104902000Y-119126000D03*
%TD*%
D10*
%TO.P,R42,1*%
%TO.N,RAW*%
X131826000Y-114300000D03*
D13*
%TO.P,R42,2*%
%TO.N,Net-(C18-Pad1)*%
X139446000Y-114300000D03*
%TD*%
D11*
%TO.P,J15,1,Pin_1*%
%TO.N,TRI*%
X191008000Y-105156000D03*
D12*
%TO.P,J15,2,Pin_2*%
%TO.N,SIN*%
X191008000Y-107696000D03*
%TO.P,J15,3,Pin_3*%
%TO.N,SQR*%
X191008000Y-110236000D03*
%TO.P,J15,4,Pin_4*%
%TO.N,RMP*%
X191008000Y-112776000D03*
%TD*%
D10*
%TO.P,R23,1*%
%TO.N,CV3*%
X109474000Y-73406000D03*
D13*
%TO.P,R23,2*%
%TO.N,Net-(C19-Pad1)*%
X117094000Y-73406000D03*
%TD*%
D10*
%TO.P,R51,1*%
%TO.N,Net-(R48-Pad2)*%
X169926000Y-116586000D03*
D13*
%TO.P,R51,2*%
%TO.N,GND*%
X169926000Y-124206000D03*
%TD*%
D11*
%TO.P,J12,1,Pin_1*%
%TO.N,CV1*%
X106426000Y-68326000D03*
D12*
%TO.P,J12,2,Pin_2*%
%TO.N,CV2*%
X106426000Y-70866000D03*
%TO.P,J12,3,Pin_3*%
%TO.N,CV3*%
X106426000Y-73406000D03*
%TO.P,J12,4,Pin_4*%
%TO.N,CV4*%
X106426000Y-75946000D03*
%TD*%
D17*
%TO.P,R59,1,1*%
%TO.N,Net-(R44-Pad1)*%
X168025000Y-111237000D03*
%TO.P,R59,2,2*%
X165485000Y-108697000D03*
%TO.P,R59,3,3*%
%TO.N,+12V*%
X168025000Y-106157000D03*
%TD*%
D10*
%TO.P,R68,1*%
%TO.N,Net-(C4-Pad1)*%
X177038000Y-97536000D03*
D13*
%TO.P,R68,2*%
%TO.N,Net-(C4-Pad2)*%
X184658000Y-97536000D03*
%TD*%
D10*
%TO.P,C16,1*%
%TO.N,-12V*%
X173188000Y-97536000D03*
%TO.P,C16,2*%
%TO.N,GND*%
X170688000Y-97536000D03*
%TD*%
%TO.P,R18,1*%
%TO.N,Net-(C19-Pad1)*%
X117094000Y-70358000D03*
D13*
%TO.P,R18,2*%
%TO.N,CV2*%
X109474000Y-70358000D03*
%TD*%
D10*
%TO.P,C6,1*%
%TO.N,Net-(C6-Pad1)*%
X146438000Y-97790000D03*
D13*
%TO.P,C6,2*%
%TO.N,RAW*%
X131438000Y-97790000D03*
%TD*%
D17*
%TO.P,R11,1,1*%
%TO.N,Net-(R11-Pad1)*%
X127508000Y-110236000D03*
%TO.P,R11,2,2*%
X124968000Y-112776000D03*
%TO.P,R11,3,3*%
%TO.N,Net-(C3-Pad2)*%
X122428000Y-110236000D03*
%TD*%
D10*
%TO.P,R17,1*%
%TO.N,Net-(R17-Pad1)*%
X115570000Y-103632000D03*
D13*
%TO.P,R17,2*%
%TO.N,Net-(C3-Pad2)*%
X123190000Y-103632000D03*
%TD*%
D10*
%TO.P,R12,1*%
%TO.N,RAW*%
X136398000Y-86106000D03*
D13*
%TO.P,R12,2*%
%TO.N,Net-(R12-Pad2)*%
X144018000Y-86106000D03*
%TD*%
D10*
%TO.P,C4,1*%
%TO.N,Net-(C4-Pad1)*%
X180106000Y-100584000D03*
%TO.P,C4,2*%
%TO.N,Net-(C4-Pad2)*%
X182606000Y-100584000D03*
%TD*%
D16*
%TO.P,D3,1,K*%
%TO.N,Net-(C14-Pad1)*%
X150114000Y-94991000D03*
D13*
%TO.P,D3,2,A*%
%TO.N,Net-(D3-Pad2)*%
X150114000Y-102611000D03*
%TD*%
D20*
%TO.P,C7,1*%
%TO.N,+12V*%
X104302401Y-81425000D03*
D21*
%TO.P,C7,2*%
%TO.N,GND*%
X105802401Y-81425000D03*
%TD*%
D10*
%TO.P,R53,1*%
%TO.N,Net-(R45-Pad2)*%
X180594000Y-124206000D03*
D13*
%TO.P,R53,2*%
%TO.N,GND*%
X180594000Y-116586000D03*
%TD*%
D10*
%TO.P,R15,1*%
%TO.N,CV1*%
X109455000Y-67275000D03*
D13*
%TO.P,R15,2*%
%TO.N,Net-(C19-Pad1)*%
X117075000Y-67275000D03*
%TD*%
D10*
%TO.P,R46,1*%
%TO.N,Net-(R34-Pad2)*%
X144018000Y-92456000D03*
D13*
%TO.P,R46,2*%
%TO.N,GND*%
X136398000Y-92456000D03*
%TD*%
D10*
%TO.P,R41,1*%
%TO.N,SQR*%
X195580000Y-96012000D03*
D13*
%TO.P,R41,2*%
%TO.N,GND*%
X187960000Y-96012000D03*
%TD*%
D10*
%TO.P,R34,1*%
%TO.N,Net-(C5-Pad2)*%
X120396000Y-121666000D03*
D13*
%TO.P,R34,2*%
%TO.N,Net-(R34-Pad2)*%
X128016000Y-121666000D03*
%TD*%
D22*
%TO.P,J1,1,Pin_1*%
%TO.N,-12V*%
X107000000Y-99540000D03*
D23*
%TO.P,J1,2,Pin_2*%
X104460000Y-99540000D03*
%TO.P,J1,3,Pin_3*%
%TO.N,GND*%
X107000000Y-97000000D03*
%TO.P,J1,4,Pin_4*%
X104460000Y-97000000D03*
%TO.P,J1,5,Pin_5*%
X107000000Y-94460000D03*
%TO.P,J1,6,Pin_6*%
X104460000Y-94460000D03*
%TO.P,J1,7,Pin_7*%
X107000000Y-91920000D03*
%TO.P,J1,8,Pin_8*%
X104460000Y-91920000D03*
%TO.P,J1,9,Pin_9*%
%TO.N,+12V*%
X107000000Y-89380000D03*
%TO.P,J1,10,Pin_10*%
X104460000Y-89380000D03*
%TD*%
D10*
%TO.P,R24,1*%
%TO.N,Net-(C19-Pad1)*%
X118857000Y-99822000D03*
D13*
%TO.P,R24,2*%
%TO.N,Net-(C19-Pad2)*%
X118857000Y-92202000D03*
%TD*%
D10*
%TO.P,R14,1*%
%TO.N,Net-(R13-Pad2)*%
X144400000Y-121025000D03*
D13*
%TO.P,R14,2*%
%TO.N,Net-(R14-Pad2)*%
X152020000Y-121025000D03*
%TD*%
D16*
%TO.P,C13,1*%
%TO.N,Net-(C13-Pad1)*%
X168019349Y-83566000D03*
D10*
%TO.P,C13,2*%
%TO.N,GND*%
X170519349Y-83566000D03*
%TD*%
%TO.P,R9,1*%
%TO.N,Net-(D1-Pad1)*%
X128016000Y-92456000D03*
D13*
%TO.P,R9,2*%
%TO.N,Net-(R11-Pad1)*%
X128016000Y-100076000D03*
%TD*%
D10*
%TO.P,R20,1*%
%TO.N,Net-(R12-Pad2)*%
X153162000Y-83561000D03*
D13*
%TO.P,R20,2*%
%TO.N,Net-(D2-Pad2)*%
X160782000Y-83561000D03*
%TD*%
D10*
%TO.P,R6,1*%
%TO.N,Net-(R5-Pad3)*%
X136906000Y-67325000D03*
D13*
%TO.P,R6,2*%
%TO.N,+12V*%
X144526000Y-67325000D03*
%TD*%
D10*
%TO.P,R50,1*%
%TO.N,Net-(Q1-Pad2)*%
X131582000Y-121422000D03*
D13*
%TO.P,R50,2*%
%TO.N,Net-(C17-Pad1)*%
X139202000Y-121422000D03*
%TD*%
D10*
%TO.P,R1,1*%
%TO.N,Net-(R1-Pad1)*%
X155956000Y-67325000D03*
D13*
%TO.P,R1,2*%
%TO.N,+12V*%
X148336000Y-67325000D03*
%TD*%
D10*
%TO.P,R19,1*%
%TO.N,Net-(R16-Pad3)*%
X124714000Y-85852000D03*
D13*
%TO.P,R19,2*%
%TO.N,GND*%
X132334000Y-85852000D03*
%TD*%
D10*
%TO.P,R13,1*%
%TO.N,Net-(C14-Pad1)*%
X144272000Y-114554000D03*
D13*
%TO.P,R13,2*%
%TO.N,Net-(R13-Pad2)*%
X151892000Y-114554000D03*
%TD*%
D17*
%TO.P,R16,1,1*%
%TO.N,Net-(C19-Pad2)*%
X115570000Y-79756000D03*
%TO.P,R16,2,2*%
%TO.N,Net-(D1-Pad2)*%
X118110000Y-82296000D03*
%TO.P,R16,3,3*%
%TO.N,Net-(R16-Pad3)*%
X115570000Y-84836000D03*
%TD*%
D11*
%TO.P,J14,1,Pin_1*%
%TO.N,PWM*%
X194564000Y-73401000D03*
D12*
%TO.P,J14,2,Pin_2*%
%TO.N,GND*%
X194564000Y-75941000D03*
%TD*%
D10*
%TO.P,C17,1*%
%TO.N,Net-(C17-Pad1)*%
X142450000Y-110850000D03*
%TO.P,C17,2*%
%TO.N,GND*%
X142450000Y-108350000D03*
%TD*%
%TO.P,C3,1*%
%TO.N,Net-(C3-Pad1)*%
X121920000Y-116078000D03*
%TO.P,C3,2*%
%TO.N,Net-(C3-Pad2)*%
X124420000Y-116078000D03*
%TD*%
D16*
%TO.P,D8,1,K*%
%TO.N,Net-(C17-Pad1)*%
X131582000Y-118628000D03*
D13*
%TO.P,D8,2,A*%
%TO.N,Net-(C18-Pad2)*%
X139202000Y-118628000D03*
%TD*%
D16*
%TO.P,D5,1,K*%
%TO.N,Net-(D5-Pad1)*%
X163830000Y-67570000D03*
D13*
%TO.P,D5,2,A*%
%TO.N,Net-(C12-Pad2)*%
X171450000Y-67570000D03*
%TD*%
D10*
%TO.P,R29,1*%
%TO.N,Net-(D3-Pad2)*%
X167894000Y-100838000D03*
D13*
%TO.P,R29,2*%
%TO.N,Net-(C4-Pad1)*%
X175514000Y-100838000D03*
%TD*%
D17*
%TO.P,R7,1,1*%
%TO.N,GND*%
X151638000Y-75438000D03*
%TO.P,R7,2,2*%
%TO.N,Net-(C2-Pad1)*%
X149098000Y-72898000D03*
%TO.P,R7,3,3*%
%TO.N,Net-(R1-Pad1)*%
X151638000Y-70358000D03*
%TD*%
D10*
%TO.P,C8,1*%
%TO.N,+12V*%
X132080000Y-90150000D03*
%TO.P,C8,2*%
%TO.N,GND*%
X132080000Y-92650000D03*
%TD*%
%TO.P,R48,1*%
%TO.N,Net-(R48-Pad1)*%
X163830000Y-116586000D03*
D13*
%TO.P,R48,2*%
%TO.N,Net-(R48-Pad2)*%
X163830000Y-124206000D03*
%TD*%
D10*
%TO.P,R65,1*%
%TO.N,/R2P3*%
X124714000Y-82804000D03*
D13*
%TO.P,R65,2*%
%TO.N,+12V*%
X132334000Y-82804000D03*
%TD*%
D17*
%TO.P,R64,1,1*%
%TO.N,Net-(R48-Pad1)*%
X176276000Y-111252000D03*
%TO.P,R64,2,2*%
X173736000Y-108712000D03*
%TO.P,R64,3,3*%
%TO.N,Net-(R14-Pad2)*%
X176276000Y-106172000D03*
%TD*%
D10*
%TO.P,R22,1*%
%TO.N,Net-(R14-Pad2)*%
X152010000Y-124350000D03*
D13*
%TO.P,R22,2*%
%TO.N,TRI*%
X144390000Y-124350000D03*
%TD*%
D10*
%TO.P,R44,1*%
%TO.N,Net-(R44-Pad1)*%
X160782000Y-124206000D03*
D13*
%TO.P,R44,2*%
%TO.N,Net-(R44-Pad2)*%
X160782000Y-116586000D03*
%TD*%
D10*
%TO.P,R10,1*%
%TO.N,/R2P2*%
X124714000Y-79756000D03*
D13*
%TO.P,R10,2*%
%TO.N,Net-(C19-Pad1)*%
X132334000Y-79756000D03*
%TD*%
D14*
%TO.P,U1,1*%
%TO.N,Net-(C19-Pad2)*%
X111008000Y-109230000D03*
D15*
%TO.P,U1,2,-*%
%TO.N,Net-(C19-Pad1)*%
X111008000Y-111770000D03*
%TO.P,U1,3,+*%
%TO.N,GND*%
X111008000Y-114310000D03*
%TO.P,U1,4,V-*%
%TO.N,-12V*%
X111008000Y-116850000D03*
%TO.P,U1,5,+*%
%TO.N,GND*%
X118628000Y-116850000D03*
%TO.P,U1,6,-*%
%TO.N,Net-(C3-Pad1)*%
X118628000Y-114310000D03*
%TO.P,U1,7*%
%TO.N,Net-(C3-Pad2)*%
X118628000Y-111770000D03*
%TO.P,U1,8,V+*%
%TO.N,+12V*%
X118628000Y-109230000D03*
%TD*%
D10*
%TO.P,R57,1*%
%TO.N,/R3P3*%
X124714000Y-73660000D03*
D13*
%TO.P,R57,2*%
%TO.N,+12V*%
X132334000Y-73660000D03*
%TD*%
D16*
%TO.P,D7,1,K*%
%TO.N,Net-(D3-Pad2)*%
X163830000Y-72644000D03*
D13*
%TO.P,D7,2,A*%
%TO.N,Net-(D6-Pad1)*%
X171450000Y-72644000D03*
%TD*%
D10*
%TO.P,R45,1*%
%TO.N,+12V*%
X157734000Y-124206000D03*
D13*
%TO.P,R45,2*%
%TO.N,Net-(R45-Pad2)*%
X157734000Y-116586000D03*
%TD*%
D20*
%TO.P,C10,1*%
%TO.N,GND*%
X105386000Y-107696000D03*
D21*
%TO.P,C10,2*%
%TO.N,-12V*%
X103886000Y-107696000D03*
%TD*%
D10*
%TO.P,C18,1*%
%TO.N,Net-(C18-Pad1)*%
X142450000Y-106175000D03*
%TO.P,C18,2*%
%TO.N,Net-(C18-Pad2)*%
X142450000Y-103675000D03*
%TD*%
%TO.P,R27,1*%
%TO.N,CV4*%
X109474000Y-76454000D03*
D13*
%TO.P,R27,2*%
%TO.N,Net-(C19-Pad1)*%
X117094000Y-76454000D03*
%TD*%
D10*
%TO.P,R52,1*%
%TO.N,Net-(R49-Pad1)*%
X183642000Y-124206000D03*
D13*
%TO.P,R52,2*%
%TO.N,-12V*%
X183642000Y-116586000D03*
%TD*%
D11*
%TO.P,J24,1,Pin_1*%
%TO.N,/R3P1*%
X121666000Y-68087000D03*
D12*
%TO.P,J24,2,Pin_2*%
%TO.N,/R3P2*%
X121666000Y-70627000D03*
%TO.P,J24,3,Pin_3*%
%TO.N,/R3P3*%
X121666000Y-73167000D03*
%TD*%
D10*
%TO.P,R49,1*%
%TO.N,Net-(R49-Pad1)*%
X186690000Y-124206000D03*
D13*
%TO.P,R49,2*%
%TO.N,SIN*%
X186690000Y-116586000D03*
%TD*%
D10*
%TO.P,R70,1*%
%TO.N,-12V*%
X131582000Y-124724000D03*
D13*
%TO.P,R70,2*%
%TO.N,Net-(C17-Pad1)*%
X139202000Y-124724000D03*
%TD*%
D10*
%TO.P,R56,1*%
%TO.N,-12V*%
X132334000Y-67564000D03*
D13*
%TO.P,R56,2*%
%TO.N,/R3P1*%
X124714000Y-67564000D03*
%TD*%
D24*
%TO.N,GND*%
X175768000Y-119380000D03*
X195580000Y-89408000D03*
X163830000Y-121920000D03*
X162520123Y-109208814D03*
X104394000Y-123444000D03*
X188363883Y-102760370D03*
X159512000Y-122174000D03*
X174498000Y-118618000D03*
X152654000Y-110998000D03*
X175514000Y-117602000D03*
X156972000Y-99060000D03*
X157471341Y-76166790D03*
X126746000Y-70866000D03*
X173990000Y-87376000D03*
X128016000Y-96266000D03*
X141800000Y-122375000D03*
X180340000Y-104648000D03*
X126492000Y-76962000D03*
X188976000Y-65786000D03*
X113792000Y-82296000D03*
X107950000Y-108458000D03*
X177292000Y-108712000D03*
X157480000Y-70866000D03*
X147066000Y-94996000D03*
X180594000Y-91948000D03*
X113531949Y-89613544D03*
X195326000Y-65786000D03*
X162814000Y-106426000D03*
X114581695Y-115807221D03*
X127762000Y-89662000D03*
X152527000Y-106426000D03*
X148210000Y-121025000D03*
X128016000Y-85852000D03*
X135382000Y-76708000D03*
X195262218Y-110408524D03*
X114046000Y-95250000D03*
X153162000Y-73406000D03*
X154940000Y-124460000D03*
X148200000Y-124350000D03*
X104902000Y-115316000D03*
X140716000Y-116586000D03*
X107950000Y-115316000D03*
X192278000Y-69342000D03*
X126238000Y-103632000D03*
X148336000Y-114554000D03*
X143510000Y-73152000D03*
X143510000Y-99568000D03*
X180848000Y-83312000D03*
X165100000Y-86614000D03*
X158242000Y-89662000D03*
X195580000Y-79502000D03*
X180848000Y-76454000D03*
X157988000Y-108204000D03*
X195326000Y-103886000D03*
X114554000Y-110744000D03*
X136126494Y-82265318D03*
X138684000Y-99822000D03*
X165354000Y-102616000D03*
X115316000Y-106172000D03*
X124968000Y-108966000D03*
X112776000Y-73660000D03*
X135382000Y-70866000D03*
X135392000Y-121422000D03*
X124206000Y-121666000D03*
X112776000Y-67564000D03*
X139954000Y-86106000D03*
X165608000Y-96774000D03*
X175006000Y-115824000D03*
X179578000Y-66040000D03*
X161270424Y-71867828D03*
X110744000Y-123698000D03*
X124206000Y-124714000D03*
%TO.N,Net-(C2-Pad1)*%
X157226000Y-82296000D03*
%TO.N,Net-(C3-Pad1)*%
X119634000Y-94996000D03*
%TO.N,Net-(C6-Pad1)*%
X116840000Y-101600000D03*
X135636000Y-105918000D03*
X135636000Y-97790000D03*
X118110000Y-93980000D03*
%TO.N,RAW*%
X134112000Y-103378000D03*
X134112000Y-111252000D03*
%TO.N,+12V*%
X128016000Y-82804000D03*
X154178000Y-65278000D03*
X183388000Y-125984000D03*
X130302000Y-65532000D03*
X130302000Y-72898000D03*
X165354000Y-125730000D03*
X137414000Y-124714000D03*
X181102000Y-122174000D03*
X116078000Y-125984000D03*
X188214000Y-125730000D03*
X128016000Y-65278000D03*
%TO.N,-12V*%
X170942000Y-122428000D03*
X129286000Y-76708000D03*
%TO.N,Net-(C12-Pad2)*%
X189738000Y-80264000D03*
X173482000Y-67564000D03*
X173736000Y-79756000D03*
X189738000Y-77978000D03*
%TO.N,Net-(C14-Pad1)*%
X146812000Y-112522000D03*
X149860000Y-99314000D03*
X146812000Y-99822000D03*
%TO.N,Net-(C19-Pad1)*%
X112522000Y-100076000D03*
X117348000Y-87376000D03*
%TO.N,Net-(C19-Pad2)*%
X119634000Y-80772000D03*
%TO.N,Net-(D1-Pad2)*%
X123444000Y-90424000D03*
X118618000Y-89916000D03*
X123444000Y-95504000D03*
%TO.N,PWM*%
X166370000Y-78740000D03*
%TO.N,TRI*%
X153670000Y-113538000D03*
X153416000Y-116078000D03*
X188722000Y-113525500D03*
%TO.N,SIN*%
X187198000Y-107950000D03*
%TO.N,Net-(Q1-Pad2)*%
X127000000Y-120142000D03*
%TO.N,Net-(R13-Pad2)*%
X158242000Y-114046000D03*
%TO.N,Net-(R14-Pad2)*%
X154940000Y-121158000D03*
X155448000Y-115062000D03*
X160782000Y-114300000D03*
%TO.N,Net-(R17-Pad1)*%
X114046000Y-96774000D03*
%TO.N,Net-(R25-Pad1)*%
X156464000Y-80518000D03*
%TO.N,Net-(R34-Pad2)*%
X134961500Y-116840000D03*
X135128000Y-108966000D03*
X129794000Y-116840000D03*
%TO.N,/Sheet 2/R39P2*%
X186690000Y-81534000D03*
%TO.N,Net-(R45-Pad2)*%
X174752000Y-120904000D03*
X157734000Y-120396000D03*
X174752000Y-123444000D03*
%TO.N,Net-(R48-Pad1)*%
X163830000Y-114300000D03*
X168910000Y-114046000D03*
X170688000Y-108712000D03*
%TO.N,Net-(R60-Pad2)*%
X170180000Y-114300000D03*
X180340000Y-114300000D03*
%TD*%
D25*
%TO.N,Net-(C12-Pad2)*%
X189738000Y-80264000D02*
X189668651Y-80333349D01*
X189668651Y-80333349D02*
X189668651Y-82066000D01*
X189668651Y-82066000D02*
X191168651Y-83566000D01*
%TO.N,Net-(C1-Pad1)*%
X149352000Y-89916000D02*
X150368000Y-89916000D01*
X145034000Y-83566000D02*
X147828000Y-86360000D01*
X138684000Y-73152000D02*
X138684000Y-79001500D01*
X138437500Y-79248000D02*
X142755500Y-83566000D01*
X147828000Y-88392000D02*
X149352000Y-89916000D01*
X147828000Y-86360000D02*
X147828000Y-88392000D01*
X142755500Y-83566000D02*
X145034000Y-83566000D01*
X151892000Y-91440000D02*
X151892000Y-91694000D01*
X152390000Y-92192000D02*
X153426000Y-92192000D01*
X151892000Y-91694000D02*
X152390000Y-92192000D01*
X150368000Y-89916000D02*
X151892000Y-91440000D01*
X138684000Y-79001500D02*
X138437500Y-79248000D01*
%TO.N,Net-(C2-Pad1)*%
X158242000Y-97282000D02*
X158252000Y-97272000D01*
X158252000Y-97272000D02*
X161046000Y-97272000D01*
X157226000Y-82296000D02*
X157226000Y-96266000D01*
X144807500Y-77188500D02*
X149098000Y-72898000D01*
X144807500Y-79248000D02*
X144807500Y-77188500D01*
X157226000Y-96266000D02*
X158242000Y-97282000D01*
%TO.N,Net-(C3-Pad1)*%
X121158000Y-99822000D02*
X121158000Y-111780000D01*
X121158000Y-111780000D02*
X118628000Y-114310000D01*
X119634000Y-94996000D02*
X119634000Y-98298000D01*
X119634000Y-98298000D02*
X121158000Y-99822000D01*
%TO.N,Net-(C3-Pad2)*%
X122428000Y-110236000D02*
X123190000Y-109474000D01*
X122428000Y-114086000D02*
X124420000Y-116078000D01*
X123190000Y-109474000D02*
X123190000Y-103632000D01*
X122428000Y-110236000D02*
X122428000Y-114086000D01*
%TO.N,Net-(C4-Pad1)*%
X175514000Y-100838000D02*
X175514000Y-99060000D01*
X177038000Y-97536000D02*
X179225000Y-95349000D01*
X179225000Y-93881000D02*
X177048000Y-91704000D01*
X175514000Y-99060000D02*
X177038000Y-97536000D01*
X179225000Y-95349000D02*
X179225000Y-93881000D01*
%TO.N,Net-(C4-Pad2)*%
X182550000Y-95428000D02*
X182550000Y-93822000D01*
X182550000Y-93822000D02*
X184668000Y-91704000D01*
X184658000Y-97536000D02*
X182550000Y-95428000D01*
%TO.N,Net-(C6-Pad1)*%
X116840000Y-94742000D02*
X116840000Y-101600000D01*
X135636000Y-105918000D02*
X135636000Y-97790000D01*
X117602000Y-93980000D02*
X116840000Y-94742000D01*
X118110000Y-93980000D02*
X117602000Y-93980000D01*
%TO.N,RAW*%
X131438000Y-97790000D02*
X133350000Y-97790000D01*
X131438000Y-97790000D02*
X131438000Y-103010000D01*
X138176000Y-92964000D02*
X138176000Y-87884000D01*
X138176000Y-87884000D02*
X136398000Y-86106000D01*
X133350000Y-97790000D02*
X138176000Y-92964000D01*
X131438000Y-103010000D02*
X131816000Y-103388000D01*
X134112000Y-111252000D02*
X134112000Y-103378000D01*
D26*
%TO.N,+12V*%
X135636000Y-89408000D02*
X136398000Y-89408000D01*
X182118000Y-124968000D02*
X183134000Y-125984000D01*
X135382000Y-88900000D02*
X135382000Y-89154000D01*
X184404000Y-106157000D02*
X184404000Y-108712000D01*
X134874000Y-88392000D02*
X135382000Y-88900000D01*
X136398000Y-123698000D02*
X137414000Y-124714000D01*
X154950000Y-94732000D02*
X155448000Y-94234000D01*
X136652000Y-103388000D02*
X136652000Y-109406082D01*
X165354000Y-111760000D02*
X165354000Y-125730000D01*
X116078000Y-110490000D02*
X116078000Y-125984000D01*
X168148000Y-106157000D02*
X168148000Y-108966000D01*
X186348000Y-94342000D02*
X186348000Y-106768000D01*
X182118000Y-110998000D02*
X184404000Y-108712000D01*
X128016000Y-82804000D02*
X128016000Y-65278000D01*
X134874000Y-84074000D02*
X134874000Y-88392000D01*
X186436000Y-121920000D02*
X187706000Y-121920000D01*
X155448000Y-94234000D02*
X155448000Y-69596000D01*
X188234000Y-92456000D02*
X186348000Y-94342000D01*
X130302000Y-72898000D02*
X130302000Y-65532000D01*
X182118000Y-122428000D02*
X182118000Y-124968000D01*
X154178000Y-68326000D02*
X154178000Y-65278000D01*
X139436000Y-103388000D02*
X136652000Y-103388000D01*
X185166000Y-116078000D02*
X185166000Y-120650000D01*
X155448000Y-69596000D02*
X154178000Y-68326000D01*
X181102000Y-122174000D02*
X181864000Y-122174000D01*
X117338000Y-109230000D02*
X116078000Y-110490000D01*
X165354000Y-111760000D02*
X168148000Y-108966000D01*
X118628000Y-109230000D02*
X117338000Y-109230000D01*
X187706000Y-121920000D02*
X188214000Y-122428000D01*
X185674000Y-107442000D02*
X185674000Y-115570000D01*
X132334000Y-82804000D02*
X133604000Y-82804000D01*
X133604000Y-82804000D02*
X134874000Y-84074000D01*
X136652000Y-109406082D02*
X136398000Y-109660082D01*
X153426000Y-94732000D02*
X154950000Y-94732000D01*
X136398000Y-109660082D02*
X136398000Y-123698000D01*
X185674000Y-115570000D02*
X185166000Y-116078000D01*
X182118000Y-110998000D02*
X182118000Y-122428000D01*
X185674000Y-107442000D02*
X186348000Y-106768000D01*
X188214000Y-122428000D02*
X188214000Y-125730000D01*
X185166000Y-120650000D02*
X186436000Y-121920000D01*
X135382000Y-89154000D02*
X135636000Y-89408000D01*
X181864000Y-122174000D02*
X182118000Y-122428000D01*
%TO.N,-12V*%
X176480000Y-94244000D02*
X177048000Y-94244000D01*
X184404000Y-111237000D02*
X184404000Y-115824000D01*
X109474000Y-127000000D02*
X109728000Y-127254000D01*
X176784000Y-76200000D02*
X175260000Y-76200000D01*
D27*
X102108000Y-107696000D02*
X102108000Y-125730000D01*
D26*
X161036000Y-94742000D02*
X159512000Y-94742000D01*
X185166000Y-123190000D02*
X185166000Y-127254000D01*
X173188000Y-97536000D02*
X176480000Y-94244000D01*
D27*
X130048000Y-63500000D02*
X159258000Y-63500000D01*
X153670000Y-127254000D02*
X172212000Y-127254000D01*
D26*
X132090000Y-111008000D02*
X134112000Y-113030000D01*
X172212000Y-120142000D02*
X172466000Y-120396000D01*
X131816000Y-111008000D02*
X132090000Y-111008000D01*
D27*
X102108000Y-98552000D02*
X102108000Y-107696000D01*
X129286000Y-63500000D02*
X130048000Y-63500000D01*
D26*
X173188000Y-104942000D02*
X172212000Y-105918000D01*
X134112000Y-113030000D02*
X134112000Y-127000000D01*
D27*
X103096000Y-99540000D02*
X102108000Y-98552000D01*
D26*
X175006000Y-75946000D02*
X175006000Y-63500000D01*
X172466000Y-123698000D02*
X172466000Y-127000000D01*
X161046000Y-94732000D02*
X161036000Y-94742000D01*
X111008000Y-116850000D02*
X109474000Y-118384000D01*
X153416000Y-127000000D02*
X153670000Y-127254000D01*
D27*
X103632000Y-127254000D02*
X109728000Y-127254000D01*
D26*
X175260000Y-76200000D02*
X175006000Y-75946000D01*
D27*
X109728000Y-127254000D02*
X110744000Y-127254000D01*
D26*
X132334000Y-63754000D02*
X132588000Y-63500000D01*
D27*
X130048000Y-63500000D02*
X132588000Y-63500000D01*
X102108000Y-125730000D02*
X103632000Y-127254000D01*
X131318000Y-127254000D02*
X133858000Y-127254000D01*
D26*
X129286000Y-76708000D02*
X129286000Y-63500000D01*
X109474000Y-118384000D02*
X109474000Y-127000000D01*
X131582000Y-124724000D02*
X131582000Y-126990000D01*
X172212000Y-123698000D02*
X172466000Y-123698000D01*
X103886000Y-107696000D02*
X102108000Y-107696000D01*
D27*
X107000000Y-99540000D02*
X104460000Y-99540000D01*
X104648000Y-63500000D02*
X129286000Y-63500000D01*
D26*
X159258000Y-94488000D02*
X159258000Y-63500000D01*
X173188000Y-97536000D02*
X173188000Y-104942000D01*
X172466000Y-127000000D02*
X172212000Y-127254000D01*
X141732000Y-125182000D02*
X141732000Y-127254000D01*
X132334000Y-67564000D02*
X132334000Y-63754000D01*
D27*
X133858000Y-127254000D02*
X141732000Y-127254000D01*
D26*
X131582000Y-126990000D02*
X131318000Y-127254000D01*
X183642000Y-121666000D02*
X185166000Y-123190000D01*
X172212000Y-105918000D02*
X172212000Y-120142000D01*
D27*
X141732000Y-127254000D02*
X153670000Y-127254000D01*
D26*
X177048000Y-76464000D02*
X176784000Y-76200000D01*
D27*
X172212000Y-127254000D02*
X185166000Y-127254000D01*
D26*
X151892000Y-117856000D02*
X153416000Y-119380000D01*
X172466000Y-120396000D02*
X172466000Y-123698000D01*
X184404000Y-115824000D02*
X183642000Y-116586000D01*
D27*
X102108000Y-98552000D02*
X102108000Y-66040000D01*
X104460000Y-99540000D02*
X103096000Y-99540000D01*
D26*
X134112000Y-127000000D02*
X133858000Y-127254000D01*
X159512000Y-94742000D02*
X159258000Y-94488000D01*
X170942000Y-122428000D02*
X172212000Y-123698000D01*
D27*
X102108000Y-66040000D02*
X104648000Y-63500000D01*
X159258000Y-63500000D02*
X175006000Y-63500000D01*
D26*
X183642000Y-116586000D02*
X183642000Y-121666000D01*
D27*
X110744000Y-127254000D02*
X131318000Y-127254000D01*
D26*
X153416000Y-119380000D02*
X153416000Y-127000000D01*
D25*
%TO.N,Net-(C12-Pad2)*%
X173482000Y-79502000D02*
X173736000Y-79756000D01*
X173482000Y-67564000D02*
X173482000Y-79502000D01*
X189738000Y-77978000D02*
X189738000Y-80264000D01*
%TO.N,Net-(C13-Pad1)*%
X171450000Y-77470000D02*
X171450000Y-74676000D01*
X168019349Y-83566000D02*
X168019349Y-80900651D01*
X168019349Y-80900651D02*
X171450000Y-77470000D01*
%TO.N,Net-(C14-Pad1)*%
X141732000Y-120182000D02*
X144058000Y-117856000D01*
X144058000Y-117856000D02*
X144272000Y-117856000D01*
X150114000Y-99060000D02*
X150114000Y-94991000D01*
X150114000Y-92451000D02*
X150114000Y-94991000D01*
X149860000Y-99314000D02*
X150114000Y-99060000D01*
X144272000Y-114554000D02*
X144272000Y-117856000D01*
X146812000Y-112522000D02*
X146812000Y-99822000D01*
%TO.N,Net-(C17-Pad1)*%
X140208000Y-119634000D02*
X142494000Y-117348000D01*
X139202000Y-124724000D02*
X139202000Y-121422000D01*
X139202000Y-121422000D02*
X140208000Y-120416000D01*
X140208000Y-120416000D02*
X140208000Y-119634000D01*
X142494000Y-117348000D02*
X142494000Y-110704000D01*
%TO.N,Net-(C18-Pad1)*%
X139436000Y-111008000D02*
X139436000Y-114290000D01*
X139436000Y-114290000D02*
X139446000Y-114300000D01*
%TO.N,Net-(C18-Pad2)*%
X138684000Y-105918000D02*
X137668000Y-106934000D01*
X137668000Y-117094000D02*
X139202000Y-118628000D01*
X137668000Y-106934000D02*
X137668000Y-117094000D01*
X139446000Y-105918000D02*
X138684000Y-105918000D01*
X139436000Y-105928000D02*
X139446000Y-105918000D01*
%TO.N,Net-(C19-Pad1)*%
X113030000Y-110490000D02*
X113030000Y-100584000D01*
X111008000Y-111770000D02*
X111272000Y-111506000D01*
X121666000Y-91694000D02*
X121666000Y-87630000D01*
X133858000Y-78232000D02*
X133858000Y-72136000D01*
X112014000Y-111506000D02*
X113030000Y-110490000D01*
X117094000Y-70358000D02*
X117094000Y-73406000D01*
X117094000Y-81280000D02*
X116840000Y-81534000D01*
X133858000Y-72136000D02*
X132334000Y-70612000D01*
X113030000Y-100584000D02*
X112522000Y-100076000D01*
X117094000Y-73406000D02*
X117094000Y-76454000D01*
X132334000Y-79756000D02*
X133858000Y-78232000D01*
X118857000Y-99822000D02*
X118857000Y-94503000D01*
X116840000Y-81534000D02*
X116840000Y-86868000D01*
X117094000Y-67564000D02*
X117094000Y-70358000D01*
X117094000Y-76454000D02*
X117094000Y-81280000D01*
X118857000Y-94503000D02*
X121666000Y-91694000D01*
X111272000Y-111506000D02*
X112014000Y-111506000D01*
X116840000Y-86868000D02*
X117348000Y-87376000D01*
%TO.N,Net-(C19-Pad2)*%
X119634000Y-83098000D02*
X121666000Y-85130000D01*
X120142000Y-90917000D02*
X120142000Y-86654000D01*
X119634000Y-80772000D02*
X119634000Y-83098000D01*
X113030000Y-92202000D02*
X118857000Y-92202000D01*
X111008000Y-94224000D02*
X113030000Y-92202000D01*
X111008000Y-109230000D02*
X111008000Y-94224000D01*
X120142000Y-86654000D02*
X121666000Y-85130000D01*
X118857000Y-92202000D02*
X120142000Y-90917000D01*
%TO.N,Net-(D1-Pad2)*%
X125222000Y-97282000D02*
X125222000Y-100076000D01*
X123444000Y-95504000D02*
X125222000Y-97282000D01*
X118110000Y-82296000D02*
X118110000Y-84836000D01*
X118110000Y-84836000D02*
X118618000Y-85344000D01*
X123444000Y-90424000D02*
X123444000Y-95504000D01*
X118618000Y-85344000D02*
X118618000Y-89916000D01*
%TO.N,Net-(D2-Pad2)*%
X160782000Y-80259000D02*
X160782000Y-83561000D01*
%TO.N,Net-(D3-Pad2)*%
X148717000Y-106426000D02*
X148717000Y-104008000D01*
X148717000Y-104008000D02*
X150114000Y-102611000D01*
X165100000Y-98044000D02*
X167894000Y-100838000D01*
X163830000Y-72390000D02*
X163830000Y-74676000D01*
X164338000Y-98044000D02*
X165100000Y-98044000D01*
X163830000Y-97536000D02*
X164338000Y-98044000D01*
X163830000Y-74676000D02*
X163830000Y-97536000D01*
%TO.N,Net-(D5-Pad1)*%
X163830000Y-67570000D02*
X163830000Y-70104000D01*
%TO.N,Net-(D6-Pad1)*%
X171450000Y-70104000D02*
X171450000Y-72390000D01*
%TO.N,PWM*%
X166116000Y-78994000D02*
X166116000Y-90170000D01*
X166116000Y-93218000D02*
X166116000Y-90170000D01*
X166370000Y-78740000D02*
X166116000Y-78994000D01*
%TO.N,TRI*%
X153416000Y-116078000D02*
X153416000Y-113792000D01*
X153416000Y-113792000D02*
X153670000Y-113538000D01*
X188722000Y-113525500D02*
X188722000Y-107442000D01*
X188722000Y-107442000D02*
X191008000Y-105156000D01*
%TO.N,SIN*%
X186690000Y-116586000D02*
X186690000Y-108458000D01*
X186690000Y-108458000D02*
X187198000Y-107950000D01*
%TO.N,SQR*%
X193040000Y-100330000D02*
X193040000Y-109220000D01*
X193040000Y-109220000D02*
X192024000Y-109220000D01*
X192024000Y-109220000D02*
X191008000Y-110236000D01*
X195580000Y-99314000D02*
X194056000Y-99314000D01*
X195580000Y-96012000D02*
X195580000Y-99314000D01*
X194056000Y-99314000D02*
X193040000Y-100330000D01*
%TO.N,Net-(Q1-Pad2)*%
X127000000Y-117348000D02*
X127000000Y-120142000D01*
%TO.N,Net-(R11-Pad1)*%
X124968000Y-112776000D02*
X127508000Y-110236000D01*
X128016000Y-109728000D02*
X127508000Y-110236000D01*
X128016000Y-100076000D02*
X128016000Y-109728000D01*
%TO.N,Net-(R13-Pad2)*%
X161046000Y-99812000D02*
X159004000Y-101854000D01*
X159004000Y-101854000D02*
X159004000Y-113792000D01*
X159004000Y-113792000D02*
X158750000Y-114046000D01*
X158750000Y-114046000D02*
X158242000Y-114046000D01*
%TO.N,Net-(R14-Pad2)*%
X160782000Y-108458000D02*
X161046000Y-108194000D01*
X160782000Y-114300000D02*
X160782000Y-108458000D01*
X154940000Y-115570000D02*
X155448000Y-115062000D01*
X151892000Y-124460000D02*
X151892000Y-121158000D01*
X161046000Y-108194000D02*
X161046000Y-102352000D01*
X154940000Y-121158000D02*
X154940000Y-115570000D01*
%TO.N,Net-(R17-Pad1)*%
X114046000Y-102870000D02*
X114808000Y-103632000D01*
X114808000Y-103632000D02*
X115570000Y-103632000D01*
X114046000Y-96774000D02*
X114046000Y-102870000D01*
%TO.N,Net-(R25-Pad1)*%
X156337000Y-106426000D02*
X156337000Y-102723000D01*
X156337000Y-102723000D02*
X153426000Y-99812000D01*
X156464000Y-80518000D02*
X156464000Y-96774000D01*
X156464000Y-96774000D02*
X153426000Y-99812000D01*
%TO.N,Net-(R34-Pad2)*%
X141224000Y-95250000D02*
X144018000Y-92456000D01*
X129540000Y-120396000D02*
X129794000Y-120142000D01*
X141224000Y-106934000D02*
X141224000Y-95250000D01*
X128016000Y-121666000D02*
X129286000Y-120396000D01*
X139436000Y-108468000D02*
X139690000Y-108468000D01*
X135128000Y-116673500D02*
X135128000Y-108966000D01*
X144018000Y-92456000D02*
X144018000Y-89408000D01*
X129794000Y-120142000D02*
X129794000Y-116840000D01*
X129286000Y-120396000D02*
X129540000Y-120396000D01*
X134961500Y-116840000D02*
X135128000Y-116673500D01*
X139690000Y-108468000D02*
X141224000Y-106934000D01*
%TO.N,Net-(R35-Pad1)*%
X177038000Y-83312000D02*
X178562000Y-83312000D01*
X179070000Y-88646000D02*
X178552000Y-89164000D01*
X179070000Y-83820000D02*
X179070000Y-88646000D01*
X173736000Y-90170000D02*
X176042000Y-90170000D01*
X178562000Y-83312000D02*
X179070000Y-83820000D01*
X176042000Y-90170000D02*
X177048000Y-89164000D01*
X178552000Y-89164000D02*
X177048000Y-89164000D01*
%TO.N,/Sheet 2/R39P2*%
X188722000Y-72898000D02*
X187198000Y-72898000D01*
X187198000Y-72898000D02*
X186690000Y-73406000D01*
X186690000Y-73406000D02*
X186690000Y-81534000D01*
%TO.N,/Sheet 2/R39P1*%
X184668000Y-71384000D02*
X184668000Y-73924000D01*
%TO.N,Net-(R44-Pad1)*%
X162052000Y-122936000D02*
X162052000Y-112253000D01*
X162052000Y-112253000D02*
X165608000Y-108697000D01*
X160782000Y-124206000D02*
X162052000Y-122936000D01*
%TO.N,Net-(R45-Pad2)*%
X174752000Y-123444000D02*
X175514000Y-124206000D01*
X174752000Y-120904000D02*
X174752000Y-123444000D01*
X157734000Y-116586000D02*
X157734000Y-120396000D01*
X175514000Y-124206000D02*
X180594000Y-124206000D01*
%TO.N,Net-(R48-Pad1)*%
X170688000Y-112268000D02*
X170688000Y-108712000D01*
X173736000Y-108712000D02*
X176276000Y-111252000D01*
X168910000Y-114046000D02*
X170688000Y-112268000D01*
X163830000Y-116586000D02*
X163830000Y-114300000D01*
%TO.N,Net-(R48-Pad2)*%
X169672000Y-121412000D02*
X169672000Y-121158000D01*
X166878000Y-124206000D02*
X169672000Y-121412000D01*
X169926000Y-120904000D02*
X169926000Y-116586000D01*
X169672000Y-121158000D02*
X169926000Y-120904000D01*
%TO.N,Net-(R60-Pad2)*%
X167894000Y-116586000D02*
X166878000Y-116586000D01*
X181864000Y-108697000D02*
X180594000Y-109967000D01*
X180594000Y-109967000D02*
X180594000Y-114046000D01*
X170180000Y-114300000D02*
X167894000Y-116586000D01*
X180594000Y-114046000D02*
X180340000Y-114300000D01*
%TO.N,Net-(U4-Pad13)*%
X161046000Y-87112000D02*
X161046000Y-89652000D01*
%TO.N,/Sheet 2/R39P3*%
X177048000Y-68844000D02*
X177048000Y-71384000D01*
%TD*%
M02*
