%TF.GenerationSoftware,KiCad,Pcbnew,6.0.8-f2edbf62ab~116~ubuntu22.04.1*%
%TF.CreationDate,2024-02-19T11:51:22-05:00*%
%TF.ProjectId,MFOS_VCO,4d464f53-5f56-4434-9f2e-6b696361645f,rev?*%
%TF.SameCoordinates,Original*%
%TF.FileFunction,Soldermask,Top*%
%TF.FilePolarity,Negative*%
%FSLAX46Y46*%
G04 Gerber Fmt 4.6, Leading zero omitted, Abs format (unit mm)*
G04 Created by KiCad (PCBNEW 6.0.8-f2edbf62ab~116~ubuntu22.04.1) date 2024-02-19 11:51:22*
%MOMM*%
%LPD*%
G01*
G04 APERTURE LIST*
G04 Aperture macros list*
%AMRoundRect*
0 Rectangle with rounded corners*
0 $1 Rounding radius*
0 $2 $3 $4 $5 $6 $7 $8 $9 X,Y pos of 4 corners*
0 Add a 4 corners polygon primitive as box body*
4,1,4,$2,$3,$4,$5,$6,$7,$8,$9,$2,$3,0*
0 Add four circle primitives for the rounded corners*
1,1,$1+$1,$2,$3*
1,1,$1+$1,$4,$5*
1,1,$1+$1,$6,$7*
1,1,$1+$1,$8,$9*
0 Add four rect primitives between the rounded corners*
20,1,$1+$1,$2,$3,$4,$5,0*
20,1,$1+$1,$4,$5,$6,$7,0*
20,1,$1+$1,$6,$7,$8,$9,0*
20,1,$1+$1,$8,$9,$2,$3,0*%
G04 Aperture macros list end*
%ADD10C,1.600000*%
%ADD11R,1.700000X1.700000*%
%ADD12O,1.700000X1.700000*%
%ADD13O,1.600000X1.600000*%
%ADD14R,2.400000X1.600000*%
%ADD15O,2.400000X1.600000*%
%ADD16R,1.600000X1.600000*%
%ADD17C,1.260000*%
%ADD18R,1.300000X1.300000*%
%ADD19C,1.300000*%
%ADD20R,1.200000X1.200000*%
%ADD21C,1.200000*%
%ADD22RoundRect,0.250000X0.600000X0.600000X-0.600000X0.600000X-0.600000X-0.600000X0.600000X-0.600000X0*%
%ADD23C,1.700000*%
%ADD24RoundRect,0.150000X-0.825000X-0.150000X0.825000X-0.150000X0.825000X0.150000X-0.825000X0.150000X0*%
G04 APERTURE END LIST*
%TO.C,kibuzzard-65B09543*%
G36*
X191230250Y-119586375D02*
G01*
X191584263Y-119091075D01*
X191817625Y-119091075D01*
X191430275Y-119618125D01*
X191430275Y-119622888D01*
X191877950Y-120170575D01*
X191625537Y-120170575D01*
X191230250Y-119656225D01*
X191230250Y-120170575D01*
X191028638Y-120170575D01*
X191028638Y-119091075D01*
X191230250Y-119091075D01*
X191230250Y-119586375D01*
G37*
G36*
X189403037Y-120183275D02*
G01*
X189319606Y-120181864D01*
X189225943Y-120177631D01*
X189122050Y-120170575D01*
X189122050Y-120003888D01*
X189325250Y-120003888D01*
X189450662Y-120008650D01*
X189546309Y-119995156D01*
X189617350Y-119967375D01*
X189667555Y-119921536D01*
X189700694Y-119853869D01*
X189719148Y-119759611D01*
X189725300Y-119634000D01*
X189719347Y-119515136D01*
X189701487Y-119425244D01*
X189669539Y-119359759D01*
X189621319Y-119314119D01*
X189553255Y-119284552D01*
X189461775Y-119267287D01*
X189387162Y-119261334D01*
X189325250Y-119259350D01*
X189325250Y-120003888D01*
X189122050Y-120003888D01*
X189122050Y-119091075D01*
X189218887Y-119086312D01*
X189306200Y-119084725D01*
X189391925Y-119086709D01*
X189468125Y-119092663D01*
X189579691Y-119108537D01*
X189673089Y-119132879D01*
X189748319Y-119165687D01*
X189833052Y-119235339D01*
X189888812Y-119333169D01*
X189911743Y-119417571D01*
X189925501Y-119521552D01*
X189930088Y-119645113D01*
X189924796Y-119774317D01*
X189908921Y-119882532D01*
X189882462Y-119969756D01*
X189818566Y-120068380D01*
X189722125Y-120134063D01*
X189636576Y-120161403D01*
X189530214Y-120177807D01*
X189450662Y-120181227D01*
X189403037Y-120183275D01*
G37*
G36*
X190282512Y-119519700D02*
G01*
X190647637Y-119519700D01*
X190647637Y-119091075D01*
X190850838Y-119091075D01*
X190850838Y-120170575D01*
X190647637Y-120170575D01*
X190647637Y-119699088D01*
X190282512Y-119699088D01*
X190282512Y-120170575D01*
X190079312Y-120170575D01*
X190079312Y-119091075D01*
X190282512Y-119091075D01*
X190282512Y-119519700D01*
G37*
%TO.C,G\u002A\u002A\u002A*%
G36*
X193610129Y-120499526D02*
G01*
X193658144Y-120520059D01*
X193696801Y-120555662D01*
X193711898Y-120579074D01*
X193719727Y-120603595D01*
X193722423Y-120637133D01*
X193722551Y-120650939D01*
X193721779Y-120685485D01*
X193717305Y-120708362D01*
X193705893Y-120727465D01*
X193684307Y-120750688D01*
X193679809Y-120755196D01*
X193655993Y-120778067D01*
X193637391Y-120790855D01*
X193616611Y-120796490D01*
X193586260Y-120797900D01*
X193571925Y-120797938D01*
X193536492Y-120797330D01*
X193513187Y-120793513D01*
X193494568Y-120783497D01*
X193473196Y-120764291D01*
X193463010Y-120754166D01*
X193439036Y-120729108D01*
X193425939Y-120709737D01*
X193420437Y-120688233D01*
X193419248Y-120656778D01*
X193419239Y-120649909D01*
X193420839Y-120611973D01*
X193427108Y-120585385D01*
X193440250Y-120562080D01*
X193444989Y-120555662D01*
X193469575Y-120530455D01*
X193497709Y-120510941D01*
X193503380Y-120508264D01*
X193557121Y-120495246D01*
X193610129Y-120499526D01*
G37*
G36*
X192934782Y-121069241D02*
G01*
X192915623Y-121042940D01*
X192893638Y-121011540D01*
X192871391Y-120978947D01*
X196012074Y-120978947D01*
X196016966Y-120983839D01*
X196021858Y-120978947D01*
X196016966Y-120974055D01*
X196012074Y-120978947D01*
X192871391Y-120978947D01*
X192866289Y-120971472D01*
X192838030Y-120929543D01*
X193113812Y-120929543D01*
X193124088Y-120930255D01*
X193152557Y-120930915D01*
X193197891Y-120931523D01*
X193258765Y-120932078D01*
X193333851Y-120932582D01*
X193421824Y-120933034D01*
X193521358Y-120933435D01*
X193631125Y-120933784D01*
X193749799Y-120934082D01*
X193876055Y-120934330D01*
X194008565Y-120934526D01*
X194146003Y-120934671D01*
X194287044Y-120934766D01*
X194430360Y-120934810D01*
X194574625Y-120934805D01*
X194718513Y-120934749D01*
X194860698Y-120934643D01*
X194999852Y-120934487D01*
X195134651Y-120934282D01*
X195263766Y-120934028D01*
X195385873Y-120933724D01*
X195499644Y-120933371D01*
X195603754Y-120932969D01*
X195696875Y-120932518D01*
X195777682Y-120932019D01*
X195844848Y-120931471D01*
X195897047Y-120930875D01*
X195932953Y-120930231D01*
X195951238Y-120929538D01*
X195953368Y-120929197D01*
X195949093Y-120919734D01*
X195936727Y-120894164D01*
X195916955Y-120853869D01*
X195890463Y-120800231D01*
X195857938Y-120734631D01*
X195820066Y-120658454D01*
X195777534Y-120573079D01*
X195731027Y-120479890D01*
X195681231Y-120380268D01*
X195631534Y-120280988D01*
X195558026Y-120134267D01*
X195483398Y-119985360D01*
X195408169Y-119835299D01*
X195332856Y-119685114D01*
X195257977Y-119535836D01*
X195184051Y-119388497D01*
X195111594Y-119244127D01*
X195041127Y-119103757D01*
X194973165Y-118968419D01*
X194908227Y-118839143D01*
X194846832Y-118716960D01*
X194789497Y-118602901D01*
X194736740Y-118497998D01*
X194689079Y-118403280D01*
X194647031Y-118319780D01*
X194611116Y-118248528D01*
X194581851Y-118190554D01*
X194559754Y-118146891D01*
X194545342Y-118118569D01*
X194539134Y-118106618D01*
X194538997Y-118106383D01*
X194533283Y-118112370D01*
X194519855Y-118134181D01*
X194499643Y-118170084D01*
X194473576Y-118218350D01*
X194442583Y-118277245D01*
X194407595Y-118345039D01*
X194369542Y-118420000D01*
X194353951Y-118451042D01*
X194263891Y-118630842D01*
X194176274Y-118805663D01*
X194091501Y-118974709D01*
X194009975Y-119137182D01*
X193932096Y-119292286D01*
X193858266Y-119439224D01*
X193788885Y-119577198D01*
X193724357Y-119705413D01*
X193665081Y-119823071D01*
X193611460Y-119929375D01*
X193563895Y-120023529D01*
X193522786Y-120104736D01*
X193488536Y-120172199D01*
X193461546Y-120225120D01*
X193442217Y-120262704D01*
X193430951Y-120284153D01*
X193428061Y-120289155D01*
X193421495Y-120299606D01*
X193407811Y-120324994D01*
X193388179Y-120362934D01*
X193363771Y-120411039D01*
X193335758Y-120466922D01*
X193305311Y-120528195D01*
X193273601Y-120592473D01*
X193241800Y-120657368D01*
X193211079Y-120720494D01*
X193182609Y-120779464D01*
X193157561Y-120831890D01*
X193137107Y-120875386D01*
X193122418Y-120907566D01*
X193114665Y-120926042D01*
X193113812Y-120929543D01*
X192838030Y-120929543D01*
X192831038Y-120919168D01*
X192825188Y-120910457D01*
X192798294Y-120866301D01*
X192767163Y-120808615D01*
X192734103Y-120742311D01*
X192701425Y-120672300D01*
X192671437Y-120603493D01*
X192646448Y-120540802D01*
X192631980Y-120499517D01*
X192595747Y-120374581D01*
X192569180Y-120254222D01*
X192551403Y-120132552D01*
X192541541Y-120003684D01*
X192538705Y-119872471D01*
X192538953Y-119865665D01*
X192695202Y-119865665D01*
X192695793Y-119950403D01*
X192697991Y-120022902D01*
X192702427Y-120087749D01*
X192709734Y-120149529D01*
X192720545Y-120212831D01*
X192735492Y-120282240D01*
X192755210Y-120362344D01*
X192773196Y-120431027D01*
X192792274Y-120491787D01*
X192803278Y-120519086D01*
X192811394Y-120538295D01*
X192823959Y-120568488D01*
X192835875Y-120597360D01*
X192852981Y-120635728D01*
X192875320Y-120681551D01*
X192898272Y-120725376D01*
X192899911Y-120728357D01*
X192918165Y-120762371D01*
X192932030Y-120789997D01*
X192939260Y-120806691D01*
X192939809Y-120809077D01*
X192946270Y-120817433D01*
X192947254Y-120817507D01*
X192952743Y-120808988D01*
X192966327Y-120784323D01*
X192987317Y-120744853D01*
X193015020Y-120691915D01*
X193048746Y-120626850D01*
X193087802Y-120550996D01*
X193131498Y-120465693D01*
X193179143Y-120372279D01*
X193230045Y-120272094D01*
X193283513Y-120166478D01*
X193291974Y-120149729D01*
X193384071Y-119967342D01*
X193475420Y-119786349D01*
X193565429Y-119607929D01*
X193653506Y-119433260D01*
X193739057Y-119263519D01*
X193821490Y-119099884D01*
X193900212Y-118943533D01*
X193974631Y-118795643D01*
X194044154Y-118657393D01*
X194108188Y-118529959D01*
X194166140Y-118414521D01*
X194217417Y-118312255D01*
X194261428Y-118224339D01*
X194297578Y-118151951D01*
X194316363Y-118114223D01*
X194359103Y-118028236D01*
X194307449Y-118034359D01*
X194242081Y-118043917D01*
X194169215Y-118057562D01*
X194094290Y-118074017D01*
X194022741Y-118092010D01*
X193960007Y-118110265D01*
X193913345Y-118126762D01*
X193893981Y-118134361D01*
X193863545Y-118146036D01*
X193835071Y-118156827D01*
X193802986Y-118169377D01*
X193777974Y-118179999D01*
X193766581Y-118185740D01*
X193753778Y-118193104D01*
X193728292Y-118206747D01*
X193694904Y-118224121D01*
X193683414Y-118230011D01*
X193585232Y-118285609D01*
X193484006Y-118352846D01*
X193383700Y-118428470D01*
X193288278Y-118509228D01*
X193201705Y-118591870D01*
X193127944Y-118673143D01*
X193099543Y-118708994D01*
X193078959Y-118736334D01*
X193062658Y-118757931D01*
X193055243Y-118767699D01*
X193044601Y-118781545D01*
X193028167Y-118802914D01*
X193025149Y-118806836D01*
X192997583Y-118844838D01*
X192969987Y-118887757D01*
X192940547Y-118938758D01*
X192907448Y-119001005D01*
X192868878Y-119077664D01*
X192862519Y-119090581D01*
X192809596Y-119211521D01*
X192765653Y-119338835D01*
X192733273Y-119464661D01*
X192724391Y-119511305D01*
X192716939Y-119554491D01*
X192709277Y-119597754D01*
X192703984Y-119626752D01*
X192701218Y-119651350D01*
X192698810Y-119691512D01*
X192696906Y-119743238D01*
X192695655Y-119802524D01*
X192695202Y-119865367D01*
X192695202Y-119865665D01*
X192538953Y-119865665D01*
X192545612Y-119682911D01*
X192566932Y-119504006D01*
X192603410Y-119333623D01*
X192655792Y-119169631D01*
X192724823Y-119009898D01*
X192811247Y-118852294D01*
X192915809Y-118694687D01*
X192980653Y-118608088D01*
X193004865Y-118579387D01*
X193039202Y-118541891D01*
X193080319Y-118498937D01*
X193124869Y-118453862D01*
X193169507Y-118410004D01*
X193210886Y-118370702D01*
X193245662Y-118339292D01*
X193269870Y-118319560D01*
X193291275Y-118303824D01*
X193322706Y-118280494D01*
X193358550Y-118253741D01*
X193371587Y-118243975D01*
X193481245Y-118168987D01*
X193601862Y-118100872D01*
X193666383Y-118069125D01*
X193766874Y-118023915D01*
X194663652Y-118023915D01*
X194667516Y-118032921D01*
X194679649Y-118058302D01*
X194699505Y-118098966D01*
X194726540Y-118153816D01*
X194760208Y-118221759D01*
X194799962Y-118301699D01*
X194845259Y-118392542D01*
X194895552Y-118493193D01*
X194950295Y-118602558D01*
X195008944Y-118719542D01*
X195070953Y-118843051D01*
X195135777Y-118971989D01*
X195166729Y-119033495D01*
X195237863Y-119174835D01*
X195309947Y-119318121D01*
X195382084Y-119461568D01*
X195453378Y-119603389D01*
X195522931Y-119741800D01*
X195589846Y-119875015D01*
X195653228Y-120001249D01*
X195712180Y-120118715D01*
X195765804Y-120225629D01*
X195813204Y-120320205D01*
X195853483Y-120400658D01*
X195882259Y-120458220D01*
X195924238Y-120541825D01*
X195963752Y-120619649D01*
X195999921Y-120690019D01*
X196031863Y-120751264D01*
X196058698Y-120801709D01*
X196079547Y-120839684D01*
X196093529Y-120863516D01*
X196099763Y-120871533D01*
X196099832Y-120871506D01*
X196107889Y-120861207D01*
X196122898Y-120837567D01*
X196142482Y-120804447D01*
X196158065Y-120776927D01*
X196178574Y-120739775D01*
X196194966Y-120709519D01*
X196205250Y-120689864D01*
X196207759Y-120684321D01*
X196211542Y-120674494D01*
X196221538Y-120651560D01*
X196235716Y-120620158D01*
X196238205Y-120614728D01*
X196298635Y-120464686D01*
X196341889Y-120314000D01*
X196355207Y-120250018D01*
X196382900Y-120055479D01*
X196392251Y-119866304D01*
X196383146Y-119680742D01*
X196355473Y-119497043D01*
X196309120Y-119313455D01*
X196291146Y-119256913D01*
X196281386Y-119231832D01*
X196264660Y-119193314D01*
X196242803Y-119145402D01*
X196217650Y-119092138D01*
X196197890Y-119051443D01*
X196108855Y-118888822D01*
X196008834Y-118741535D01*
X195896447Y-118607863D01*
X195770311Y-118486090D01*
X195689030Y-118419245D01*
X195639261Y-118380771D01*
X195600689Y-118351614D01*
X195569127Y-118329001D01*
X195540388Y-118310155D01*
X195510283Y-118292302D01*
X195474625Y-118272669D01*
X195439636Y-118254000D01*
X195399577Y-118232553D01*
X195365609Y-118214013D01*
X195341659Y-118200548D01*
X195332066Y-118194676D01*
X195307643Y-118180818D01*
X195267811Y-118163600D01*
X195216194Y-118144209D01*
X195156417Y-118123834D01*
X195092103Y-118103662D01*
X195026876Y-118084882D01*
X194964361Y-118068680D01*
X194912147Y-118057032D01*
X194878207Y-118050848D01*
X194836656Y-118044179D01*
X194791783Y-118037596D01*
X194747877Y-118031671D01*
X194709229Y-118026975D01*
X194680127Y-118024081D01*
X194664861Y-118023560D01*
X194663652Y-118023915D01*
X193766874Y-118023915D01*
X193767090Y-118023818D01*
X193861465Y-117986453D01*
X193955134Y-117955263D01*
X194053724Y-117928484D01*
X194162858Y-117904351D01*
X194236226Y-117890318D01*
X194274114Y-117885603D01*
X194327623Y-117881960D01*
X194392835Y-117879387D01*
X194465830Y-117877884D01*
X194542692Y-117877451D01*
X194619500Y-117878086D01*
X194692338Y-117879790D01*
X194757287Y-117882561D01*
X194810427Y-117886399D01*
X194842852Y-117890410D01*
X194906852Y-117902248D01*
X194976047Y-117916984D01*
X195046017Y-117933498D01*
X195112339Y-117950670D01*
X195170591Y-117967379D01*
X195216352Y-117982504D01*
X195234223Y-117989581D01*
X195255054Y-117998362D01*
X195284729Y-118010542D01*
X195297821Y-118015839D01*
X195323924Y-118027180D01*
X195362302Y-118044894D01*
X195407757Y-118066540D01*
X195454370Y-118089322D01*
X195618788Y-118181556D01*
X195774147Y-118290283D01*
X195918959Y-118413949D01*
X196051736Y-118551003D01*
X196170991Y-118699893D01*
X196275236Y-118859067D01*
X196362982Y-119026973D01*
X196371850Y-119046551D01*
X196406392Y-119126845D01*
X196435425Y-119200096D01*
X196457492Y-119262501D01*
X196467572Y-119296051D01*
X196477844Y-119334165D01*
X196487542Y-119370227D01*
X196492576Y-119389001D01*
X196508175Y-119458004D01*
X196522283Y-119540617D01*
X196534191Y-119630897D01*
X196543188Y-119722901D01*
X196548567Y-119810685D01*
X196549800Y-119868431D01*
X196547111Y-119956892D01*
X196539527Y-120053506D01*
X196527774Y-120153401D01*
X196512575Y-120251704D01*
X196494656Y-120343542D01*
X196474741Y-120424041D01*
X196460307Y-120470165D01*
X196385450Y-120659492D01*
X196298223Y-120835158D01*
X196197431Y-120999566D01*
X196194825Y-121003408D01*
X196178135Y-121027956D01*
X196158391Y-121056988D01*
X196154905Y-121062114D01*
X196111276Y-121119749D01*
X196054668Y-121184653D01*
X195988559Y-121253512D01*
X195916431Y-121323011D01*
X195841762Y-121389836D01*
X195768034Y-121450674D01*
X195698725Y-121502209D01*
X195678294Y-121516032D01*
X195642518Y-121539735D01*
X195612514Y-121559919D01*
X195592318Y-121573852D01*
X195586457Y-121578184D01*
X195571000Y-121588007D01*
X195541986Y-121603933D01*
X195503623Y-121623867D01*
X195460123Y-121645710D01*
X195415693Y-121667367D01*
X195374546Y-121686741D01*
X195340889Y-121701735D01*
X195327128Y-121707343D01*
X195290417Y-121721532D01*
X195261714Y-121732968D01*
X195231810Y-121745388D01*
X195199978Y-121758906D01*
X195175058Y-121767579D01*
X195135372Y-121779157D01*
X195085310Y-121792544D01*
X195029261Y-121806645D01*
X194971615Y-121820363D01*
X194916762Y-121832604D01*
X194869091Y-121842271D01*
X194857528Y-121844385D01*
X194828587Y-121847842D01*
X194784025Y-121851122D01*
X194727791Y-121854114D01*
X194663831Y-121856707D01*
X194596095Y-121858790D01*
X194528530Y-121860251D01*
X194465084Y-121860979D01*
X194409704Y-121860862D01*
X194366340Y-121859790D01*
X194348745Y-121858728D01*
X194302854Y-121853806D01*
X194247864Y-121846306D01*
X194192158Y-121837501D01*
X194144121Y-121828662D01*
X194128599Y-121825326D01*
X194061544Y-121809673D01*
X194008369Y-121796404D01*
X193963780Y-121783997D01*
X193922482Y-121770927D01*
X193879182Y-121755672D01*
X193853724Y-121746221D01*
X193776990Y-121715804D01*
X193700029Y-121682409D01*
X193627216Y-121648122D01*
X193562926Y-121615030D01*
X193511534Y-121585221D01*
X193498976Y-121577020D01*
X193471400Y-121558794D01*
X193450734Y-121545993D01*
X193441869Y-121541544D01*
X193430845Y-121535963D01*
X193407975Y-121520926D01*
X193376858Y-121498992D01*
X193341097Y-121472718D01*
X193304290Y-121444662D01*
X193292289Y-121435260D01*
X193253238Y-121402347D01*
X193205609Y-121359023D01*
X193153297Y-121309146D01*
X193100194Y-121256570D01*
X193050193Y-121205150D01*
X193007188Y-121158742D01*
X192975071Y-121121201D01*
X192974767Y-121120819D01*
X192967309Y-121111351D01*
X193164847Y-121111351D01*
X193171845Y-121121843D01*
X193190960Y-121142388D01*
X193219375Y-121170395D01*
X193254273Y-121203272D01*
X193292836Y-121238430D01*
X193332246Y-121273276D01*
X193369687Y-121305220D01*
X193402340Y-121331670D01*
X193414346Y-121340812D01*
X193491753Y-121396803D01*
X193560364Y-121442945D01*
X193625866Y-121482548D01*
X193693949Y-121518923D01*
X193770299Y-121555378D01*
X193825286Y-121579911D01*
X193856817Y-121593743D01*
X193883574Y-121605541D01*
X193893776Y-121610075D01*
X193932031Y-121624604D01*
X193984971Y-121641104D01*
X194047971Y-121658373D01*
X194116406Y-121675211D01*
X194185649Y-121690418D01*
X194250903Y-121702764D01*
X194285880Y-121706932D01*
X194335438Y-121710409D01*
X194395689Y-121713148D01*
X194462745Y-121715107D01*
X194532720Y-121716240D01*
X194601727Y-121716503D01*
X194665878Y-121715852D01*
X194721287Y-121714243D01*
X194764066Y-121711630D01*
X194786111Y-121708878D01*
X194821198Y-121702478D01*
X194865111Y-121694689D01*
X194901557Y-121688364D01*
X194956886Y-121677223D01*
X195019235Y-121661968D01*
X195083653Y-121644077D01*
X195145192Y-121625024D01*
X195198903Y-121606285D01*
X195239837Y-121589335D01*
X195248900Y-121584812D01*
X195267915Y-121575142D01*
X195299546Y-121559496D01*
X195338759Y-121540350D01*
X195366311Y-121527018D01*
X195422389Y-121499646D01*
X195467561Y-121476431D01*
X195506486Y-121454494D01*
X195543821Y-121430955D01*
X195584224Y-121402935D01*
X195632352Y-121367556D01*
X195669624Y-121339520D01*
X195707344Y-121309613D01*
X195748189Y-121274878D01*
X195789713Y-121237685D01*
X195829470Y-121200403D01*
X195865014Y-121165404D01*
X195893898Y-121135058D01*
X195913676Y-121111734D01*
X195921903Y-121097803D01*
X195921499Y-121095473D01*
X195911028Y-121094617D01*
X195882400Y-121093931D01*
X195836960Y-121093407D01*
X195776056Y-121093038D01*
X195701032Y-121092815D01*
X195613236Y-121092731D01*
X195514014Y-121092779D01*
X195404711Y-121092950D01*
X195286674Y-121093237D01*
X195161249Y-121093631D01*
X195029782Y-121094126D01*
X194893620Y-121094713D01*
X194754108Y-121095385D01*
X194612592Y-121096134D01*
X194470420Y-121096952D01*
X194328936Y-121097832D01*
X194189488Y-121098765D01*
X194053421Y-121099744D01*
X193922081Y-121100762D01*
X193796815Y-121101809D01*
X193678969Y-121102880D01*
X193569889Y-121103965D01*
X193470921Y-121105057D01*
X193383411Y-121106149D01*
X193308706Y-121107233D01*
X193248151Y-121108300D01*
X193203094Y-121109344D01*
X193174879Y-121110356D01*
X193164853Y-121111328D01*
X193164847Y-121111351D01*
X192967309Y-121111351D01*
X192953650Y-121094011D01*
X192934782Y-121069241D01*
G37*
G36*
X194556807Y-118538326D02*
G01*
X194579907Y-118541977D01*
X194597941Y-118551694D01*
X194618160Y-118570447D01*
X194629275Y-118581970D01*
X194652287Y-118607088D01*
X194664963Y-118626686D01*
X194670379Y-118648569D01*
X194671612Y-118680541D01*
X194671627Y-118689425D01*
X194670889Y-118724565D01*
X194666625Y-118747947D01*
X194655758Y-118767377D01*
X194635212Y-118790661D01*
X194629275Y-118796880D01*
X194605905Y-118820409D01*
X194587823Y-118833630D01*
X194567779Y-118839513D01*
X194538521Y-118841031D01*
X194521390Y-118841081D01*
X194485855Y-118840488D01*
X194462498Y-118836734D01*
X194443926Y-118826859D01*
X194422750Y-118807905D01*
X194412086Y-118797310D01*
X194388520Y-118772796D01*
X194375423Y-118753854D01*
X194369723Y-118732909D01*
X194368344Y-118702385D01*
X194368314Y-118689425D01*
X194368961Y-118654260D01*
X194372952Y-118631087D01*
X194383360Y-118612329D01*
X194403259Y-118590412D01*
X194412086Y-118581540D01*
X194436313Y-118558202D01*
X194455028Y-118545108D01*
X194475620Y-118539298D01*
X194505481Y-118537814D01*
X194521390Y-118537769D01*
X194556807Y-118538326D01*
G37*
G36*
X195590238Y-120527783D02*
G01*
X195619795Y-120539004D01*
X195653073Y-120561491D01*
X195661546Y-120568193D01*
X195689266Y-120596942D01*
X195704115Y-120630943D01*
X195708750Y-120676453D01*
X195708761Y-120679423D01*
X195705070Y-120725290D01*
X195691744Y-120760049D01*
X195665404Y-120791132D01*
X195652988Y-120802096D01*
X195610436Y-120826066D01*
X195560627Y-120835865D01*
X195510554Y-120830732D01*
X195483917Y-120820495D01*
X195442163Y-120789004D01*
X195416112Y-120745929D01*
X195405676Y-120691108D01*
X195405448Y-120680527D01*
X195413714Y-120624392D01*
X195437290Y-120579004D01*
X195474344Y-120546244D01*
X195523043Y-120527996D01*
X195557104Y-120524795D01*
X195590238Y-120527783D01*
G37*
%TD*%
D10*
%TO.C,C15*%
X188234000Y-92456000D03*
X190734000Y-92456000D03*
%TD*%
D11*
%TO.C,J27*%
X188722000Y-70358000D03*
D12*
X188722000Y-72898000D03*
X188722000Y-75438000D03*
%TD*%
D10*
%TO.C,R71*%
X132334000Y-76708000D03*
D13*
X124714000Y-76708000D03*
%TD*%
D14*
%TO.C,U4*%
X153426000Y-87112000D03*
D15*
X153426000Y-89652000D03*
X153426000Y-92192000D03*
X153426000Y-94732000D03*
X153426000Y-97272000D03*
X153426000Y-99812000D03*
X153426000Y-102352000D03*
X161046000Y-102352000D03*
X161046000Y-99812000D03*
X161046000Y-97272000D03*
X161046000Y-94732000D03*
X161046000Y-92192000D03*
X161046000Y-89652000D03*
X161046000Y-87112000D03*
%TD*%
D10*
%TO.C,R32*%
X156337000Y-106426000D03*
D13*
X148717000Y-106426000D03*
%TD*%
D10*
%TO.C,R26*%
X156337000Y-109728000D03*
D13*
X148717000Y-109728000D03*
%TD*%
D10*
%TO.C,R31*%
X114554000Y-123698000D03*
D13*
X106934000Y-123698000D03*
%TD*%
D10*
%TO.C,R67*%
X173736000Y-93218000D03*
D13*
X166116000Y-93218000D03*
%TD*%
D10*
%TO.C,C19*%
X121666000Y-87630000D03*
X121666000Y-85130000D03*
%TD*%
%TO.C,R66*%
X120396000Y-124714000D03*
D13*
X128016000Y-124714000D03*
%TD*%
D10*
%TO.C,R25*%
X153162000Y-80259000D03*
D13*
X160782000Y-80259000D03*
%TD*%
D10*
%TO.C,R30*%
X107950000Y-119126000D03*
D13*
X107950000Y-111506000D03*
%TD*%
D10*
%TO.C,R61*%
X166878000Y-116586000D03*
D13*
X166878000Y-124206000D03*
%TD*%
D16*
%TO.C,D2*%
X150114000Y-92451000D03*
D13*
X150114000Y-84831000D03*
%TD*%
D17*
%TO.C,R60*%
X184550000Y-111250000D03*
X182010000Y-108710000D03*
X184550000Y-106170000D03*
%TD*%
D16*
%TO.C,C12*%
X193168651Y-83566000D03*
D10*
X191168651Y-83566000D03*
%TD*%
%TO.C,R69*%
X145350000Y-111252000D03*
D13*
X145350000Y-103632000D03*
%TD*%
D14*
%TO.C,U2*%
X131816000Y-103388000D03*
D15*
X131816000Y-105928000D03*
X131816000Y-108468000D03*
X131816000Y-111008000D03*
X139436000Y-111008000D03*
X139436000Y-108468000D03*
X139436000Y-105928000D03*
X139436000Y-103388000D03*
%TD*%
D11*
%TO.C,J13*%
X113850000Y-120275000D03*
D12*
X111310000Y-120275000D03*
%TD*%
D16*
%TO.C,D4*%
X171450000Y-75184000D03*
D13*
X163830000Y-75184000D03*
%TD*%
D10*
%TO.C,C2*%
X144807500Y-79248000D03*
X147307500Y-79248000D03*
%TD*%
%TO.C,R21*%
X144375000Y-117950000D03*
D13*
X151995000Y-117950000D03*
%TD*%
D16*
%TO.C,D1*%
X125222000Y-92456000D03*
D13*
X125222000Y-100076000D03*
%TD*%
D10*
%TO.C,R40*%
X166116000Y-90170000D03*
D13*
X173736000Y-90170000D03*
%TD*%
D10*
%TO.C,C14*%
X141800000Y-119875000D03*
X141800000Y-124875000D03*
%TD*%
D16*
%TO.C,D6*%
X171450000Y-70104000D03*
D13*
X163830000Y-70104000D03*
%TD*%
D10*
%TO.C,C1*%
X138437500Y-79248000D03*
X140937500Y-79248000D03*
%TD*%
D14*
%TO.C,U7*%
X177048000Y-86624000D03*
D15*
X177048000Y-89164000D03*
X177048000Y-91704000D03*
X177048000Y-94244000D03*
X184668000Y-94244000D03*
X184668000Y-91704000D03*
X184668000Y-89164000D03*
X184668000Y-86624000D03*
%TD*%
D10*
%TO.C,R35*%
X177038000Y-83312000D03*
D13*
X184658000Y-83312000D03*
%TD*%
D10*
%TO.C,R8*%
X124714000Y-70612000D03*
D13*
X132334000Y-70612000D03*
%TD*%
D14*
%TO.C,U6*%
X177048000Y-68844000D03*
D15*
X177048000Y-71384000D03*
X177048000Y-73924000D03*
X177048000Y-76464000D03*
X184668000Y-76464000D03*
X184668000Y-73924000D03*
X184668000Y-71384000D03*
X184668000Y-68844000D03*
%TD*%
D10*
%TO.C,R36*%
X187960000Y-99314000D03*
D13*
X195580000Y-99314000D03*
%TD*%
D17*
%TO.C,R5*%
X141224000Y-75692000D03*
X138684000Y-73152000D03*
X141224000Y-70612000D03*
%TD*%
D10*
%TO.C,C5*%
X117856000Y-123698000D03*
X117856000Y-121198000D03*
%TD*%
D11*
%TO.C,J26*%
X121666000Y-76962000D03*
D12*
X121666000Y-79502000D03*
X121666000Y-82042000D03*
%TD*%
D10*
%TO.C,R47*%
X144018000Y-89408000D03*
D13*
X136398000Y-89408000D03*
%TD*%
D18*
%TO.C,Q1*%
X128270000Y-118618000D03*
D19*
X127000000Y-117348000D03*
X128270000Y-116078000D03*
%TD*%
D10*
%TO.C,R28*%
X104902000Y-111506000D03*
D13*
X104902000Y-119126000D03*
%TD*%
D10*
%TO.C,R42*%
X131826000Y-114300000D03*
D13*
X139446000Y-114300000D03*
%TD*%
D11*
%TO.C,J15*%
X191008000Y-105156000D03*
D12*
X191008000Y-107696000D03*
X191008000Y-110236000D03*
X191008000Y-112776000D03*
%TD*%
D10*
%TO.C,R23*%
X109474000Y-73406000D03*
D13*
X117094000Y-73406000D03*
%TD*%
D10*
%TO.C,R51*%
X169926000Y-116586000D03*
D13*
X169926000Y-124206000D03*
%TD*%
D11*
%TO.C,J12*%
X106426000Y-68326000D03*
D12*
X106426000Y-70866000D03*
X106426000Y-73406000D03*
X106426000Y-75946000D03*
%TD*%
D17*
%TO.C,R59*%
X168025000Y-111237000D03*
X165485000Y-108697000D03*
X168025000Y-106157000D03*
%TD*%
D10*
%TO.C,R68*%
X177038000Y-97536000D03*
D13*
X184658000Y-97536000D03*
%TD*%
D10*
%TO.C,C16*%
X173188000Y-97536000D03*
X170688000Y-97536000D03*
%TD*%
%TO.C,R18*%
X117094000Y-70358000D03*
D13*
X109474000Y-70358000D03*
%TD*%
D10*
%TO.C,C6*%
X146438000Y-97790000D03*
D13*
X131438000Y-97790000D03*
%TD*%
D17*
%TO.C,R11*%
X127508000Y-110236000D03*
X124968000Y-112776000D03*
X122428000Y-110236000D03*
%TD*%
D10*
%TO.C,R17*%
X115570000Y-103632000D03*
D13*
X123190000Y-103632000D03*
%TD*%
D10*
%TO.C,R12*%
X136398000Y-86106000D03*
D13*
X144018000Y-86106000D03*
%TD*%
D10*
%TO.C,C4*%
X180106000Y-100584000D03*
X182606000Y-100584000D03*
%TD*%
D16*
%TO.C,D3*%
X150114000Y-94991000D03*
D13*
X150114000Y-102611000D03*
%TD*%
D20*
%TO.C,C7*%
X104302401Y-81425000D03*
D21*
X105802401Y-81425000D03*
%TD*%
D10*
%TO.C,R53*%
X180594000Y-124206000D03*
D13*
X180594000Y-116586000D03*
%TD*%
D10*
%TO.C,R15*%
X109455000Y-67275000D03*
D13*
X117075000Y-67275000D03*
%TD*%
D10*
%TO.C,R46*%
X144018000Y-92456000D03*
D13*
X136398000Y-92456000D03*
%TD*%
D10*
%TO.C,R41*%
X195580000Y-96012000D03*
D13*
X187960000Y-96012000D03*
%TD*%
D10*
%TO.C,R34*%
X120396000Y-121666000D03*
D13*
X128016000Y-121666000D03*
%TD*%
D22*
%TO.C,J1*%
X107000000Y-99540000D03*
D23*
X104460000Y-99540000D03*
X107000000Y-97000000D03*
X104460000Y-97000000D03*
X107000000Y-94460000D03*
X104460000Y-94460000D03*
X107000000Y-91920000D03*
X104460000Y-91920000D03*
X107000000Y-89380000D03*
X104460000Y-89380000D03*
%TD*%
D10*
%TO.C,R24*%
X118857000Y-99822000D03*
D13*
X118857000Y-92202000D03*
%TD*%
D10*
%TO.C,R14*%
X144400000Y-121025000D03*
D13*
X152020000Y-121025000D03*
%TD*%
D16*
%TO.C,C13*%
X168019349Y-83566000D03*
D10*
X170519349Y-83566000D03*
%TD*%
%TO.C,R9*%
X128016000Y-92456000D03*
D13*
X128016000Y-100076000D03*
%TD*%
D10*
%TO.C,R20*%
X153162000Y-83561000D03*
D13*
X160782000Y-83561000D03*
%TD*%
D24*
%TO.C,U3*%
X116382000Y-94107000D03*
X116382000Y-95377000D03*
X116382000Y-96647000D03*
X116382000Y-97917000D03*
X121332000Y-97917000D03*
X121332000Y-96647000D03*
X121332000Y-95377000D03*
X121332000Y-94107000D03*
%TD*%
D10*
%TO.C,R6*%
X136906000Y-67325000D03*
D13*
X144526000Y-67325000D03*
%TD*%
D10*
%TO.C,R50*%
X131582000Y-121422000D03*
D13*
X139202000Y-121422000D03*
%TD*%
D10*
%TO.C,R1*%
X155956000Y-67325000D03*
D13*
X148336000Y-67325000D03*
%TD*%
D10*
%TO.C,R19*%
X124714000Y-85852000D03*
D13*
X132334000Y-85852000D03*
%TD*%
D10*
%TO.C,R13*%
X144272000Y-114554000D03*
D13*
X151892000Y-114554000D03*
%TD*%
D17*
%TO.C,R16*%
X115570000Y-79756000D03*
X118110000Y-82296000D03*
X115570000Y-84836000D03*
%TD*%
D11*
%TO.C,J14*%
X194564000Y-73401000D03*
D12*
X194564000Y-75941000D03*
%TD*%
D24*
%TO.C,U5*%
X172785000Y-115697000D03*
X172785000Y-116967000D03*
X172785000Y-118237000D03*
X172785000Y-119507000D03*
X172785000Y-120777000D03*
X172785000Y-122047000D03*
X172785000Y-123317000D03*
X172785000Y-124587000D03*
X177735000Y-124587000D03*
X177735000Y-123317000D03*
X177735000Y-122047000D03*
X177735000Y-120777000D03*
X177735000Y-119507000D03*
X177735000Y-118237000D03*
X177735000Y-116967000D03*
X177735000Y-115697000D03*
%TD*%
D10*
%TO.C,C17*%
X142450000Y-110850000D03*
X142450000Y-108350000D03*
%TD*%
%TO.C,C3*%
X121920000Y-116078000D03*
X124420000Y-116078000D03*
%TD*%
D16*
%TO.C,D8*%
X131582000Y-118628000D03*
D13*
X139202000Y-118628000D03*
%TD*%
D16*
%TO.C,D5*%
X163830000Y-67570000D03*
D13*
X171450000Y-67570000D03*
%TD*%
D10*
%TO.C,R29*%
X167894000Y-100838000D03*
D13*
X175514000Y-100838000D03*
%TD*%
D17*
%TO.C,R7*%
X151638000Y-75438000D03*
X149098000Y-72898000D03*
X151638000Y-70358000D03*
%TD*%
D10*
%TO.C,C8*%
X132080000Y-90150000D03*
X132080000Y-92650000D03*
%TD*%
%TO.C,R48*%
X163830000Y-116586000D03*
D13*
X163830000Y-124206000D03*
%TD*%
D10*
%TO.C,R65*%
X124714000Y-82804000D03*
D13*
X132334000Y-82804000D03*
%TD*%
D17*
%TO.C,R64*%
X176276000Y-111252000D03*
X173736000Y-108712000D03*
X176276000Y-106172000D03*
%TD*%
D10*
%TO.C,R22*%
X152010000Y-124350000D03*
D13*
X144390000Y-124350000D03*
%TD*%
D10*
%TO.C,R44*%
X160782000Y-124206000D03*
D13*
X160782000Y-116586000D03*
%TD*%
D10*
%TO.C,R10*%
X124714000Y-79756000D03*
D13*
X132334000Y-79756000D03*
%TD*%
D14*
%TO.C,U1*%
X111008000Y-109230000D03*
D15*
X111008000Y-111770000D03*
X111008000Y-114310000D03*
X111008000Y-116850000D03*
X118628000Y-116850000D03*
X118628000Y-114310000D03*
X118628000Y-111770000D03*
X118628000Y-109230000D03*
%TD*%
D10*
%TO.C,R57*%
X124714000Y-73660000D03*
D13*
X132334000Y-73660000D03*
%TD*%
D16*
%TO.C,D7*%
X163830000Y-72644000D03*
D13*
X171450000Y-72644000D03*
%TD*%
D10*
%TO.C,R45*%
X157734000Y-124206000D03*
D13*
X157734000Y-116586000D03*
%TD*%
D20*
%TO.C,C10*%
X105386000Y-107696000D03*
D21*
X103886000Y-107696000D03*
%TD*%
D10*
%TO.C,C18*%
X142450000Y-106175000D03*
X142450000Y-103675000D03*
%TD*%
%TO.C,R27*%
X109474000Y-76454000D03*
D13*
X117094000Y-76454000D03*
%TD*%
D10*
%TO.C,R52*%
X183642000Y-124206000D03*
D13*
X183642000Y-116586000D03*
%TD*%
D11*
%TO.C,J24*%
X121666000Y-68087000D03*
D12*
X121666000Y-70627000D03*
X121666000Y-73167000D03*
%TD*%
D10*
%TO.C,R49*%
X186690000Y-124206000D03*
D13*
X186690000Y-116586000D03*
%TD*%
D10*
%TO.C,R70*%
X131582000Y-124724000D03*
D13*
X139202000Y-124724000D03*
%TD*%
D10*
%TO.C,R56*%
X132334000Y-67564000D03*
D13*
X124714000Y-67564000D03*
%TD*%
M02*
