%TF.GenerationSoftware,KiCad,Pcbnew,6.0.8-f2edbf62ab~116~ubuntu22.04.1*%
%TF.CreationDate,2024-04-04T17:44:11-04:00*%
%TF.ProjectId,MFOS_VCO,4d464f53-5f56-4434-9f2e-6b696361645f,rev?*%
%TF.SameCoordinates,Original*%
%TF.FileFunction,Soldermask,Top*%
%TF.FilePolarity,Negative*%
%FSLAX46Y46*%
G04 Gerber Fmt 4.6, Leading zero omitted, Abs format (unit mm)*
G04 Created by KiCad (PCBNEW 6.0.8-f2edbf62ab~116~ubuntu22.04.1) date 2024-04-04 17:44:11*
%MOMM*%
%LPD*%
G01*
G04 APERTURE LIST*
G04 Aperture macros list*
%AMRoundRect*
0 Rectangle with rounded corners*
0 $1 Rounding radius*
0 $2 $3 $4 $5 $6 $7 $8 $9 X,Y pos of 4 corners*
0 Add a 4 corners polygon primitive as box body*
4,1,4,$2,$3,$4,$5,$6,$7,$8,$9,$2,$3,0*
0 Add four circle primitives for the rounded corners*
1,1,$1+$1,$2,$3*
1,1,$1+$1,$4,$5*
1,1,$1+$1,$6,$7*
1,1,$1+$1,$8,$9*
0 Add four rect primitives between the rounded corners*
20,1,$1+$1,$2,$3,$4,$5,0*
20,1,$1+$1,$4,$5,$6,$7,0*
20,1,$1+$1,$6,$7,$8,$9,0*
20,1,$1+$1,$8,$9,$2,$3,0*%
G04 Aperture macros list end*
%ADD10R,1.300000X1.300000*%
%ADD11C,1.300000*%
%ADD12RoundRect,0.250000X-0.845000X0.620000X-0.845000X-0.620000X0.845000X-0.620000X0.845000X0.620000X0*%
%ADD13O,2.190000X1.740000*%
%ADD14C,1.600000*%
%ADD15O,1.600000X1.600000*%
%ADD16R,2.400000X1.600000*%
%ADD17O,2.400000X1.600000*%
%ADD18R,1.600000X1.600000*%
%ADD19C,1.260000*%
%ADD20RoundRect,0.250000X0.620000X0.845000X-0.620000X0.845000X-0.620000X-0.845000X0.620000X-0.845000X0*%
%ADD21O,1.740000X2.190000*%
%ADD22R,1.200000X1.200000*%
%ADD23C,1.200000*%
%ADD24RoundRect,0.250000X0.600000X0.600000X-0.600000X0.600000X-0.600000X-0.600000X0.600000X-0.600000X0*%
%ADD25C,1.700000*%
%ADD26RoundRect,0.150000X-0.825000X-0.150000X0.825000X-0.150000X0.825000X0.150000X-0.825000X0.150000X0*%
G04 APERTURE END LIST*
%TO.C,kibuzzard-65B09543*%
G36*
X191738250Y-117046375D02*
G01*
X192092263Y-116551075D01*
X192325625Y-116551075D01*
X191938275Y-117078125D01*
X191938275Y-117082888D01*
X192385950Y-117630575D01*
X192133537Y-117630575D01*
X191738250Y-117116225D01*
X191738250Y-117630575D01*
X191536638Y-117630575D01*
X191536638Y-116551075D01*
X191738250Y-116551075D01*
X191738250Y-117046375D01*
G37*
G36*
X189911037Y-117643275D02*
G01*
X189827606Y-117641864D01*
X189733943Y-117637631D01*
X189630050Y-117630575D01*
X189630050Y-117463888D01*
X189833250Y-117463888D01*
X189958662Y-117468650D01*
X190054309Y-117455156D01*
X190125350Y-117427375D01*
X190175555Y-117381536D01*
X190208694Y-117313869D01*
X190227148Y-117219611D01*
X190233300Y-117094000D01*
X190227347Y-116975136D01*
X190209487Y-116885244D01*
X190177539Y-116819759D01*
X190129319Y-116774119D01*
X190061255Y-116744552D01*
X189969775Y-116727287D01*
X189895162Y-116721334D01*
X189833250Y-116719350D01*
X189833250Y-117463888D01*
X189630050Y-117463888D01*
X189630050Y-116551075D01*
X189726887Y-116546312D01*
X189814200Y-116544725D01*
X189899925Y-116546709D01*
X189976125Y-116552663D01*
X190087691Y-116568537D01*
X190181089Y-116592879D01*
X190256319Y-116625687D01*
X190341052Y-116695339D01*
X190396812Y-116793169D01*
X190419743Y-116877571D01*
X190433501Y-116981552D01*
X190438088Y-117105113D01*
X190432796Y-117234317D01*
X190416921Y-117342532D01*
X190390462Y-117429756D01*
X190326566Y-117528380D01*
X190230125Y-117594063D01*
X190144576Y-117621403D01*
X190038214Y-117637807D01*
X189958662Y-117641227D01*
X189911037Y-117643275D01*
G37*
G36*
X190790512Y-116979700D02*
G01*
X191155637Y-116979700D01*
X191155637Y-116551075D01*
X191358838Y-116551075D01*
X191358838Y-117630575D01*
X191155637Y-117630575D01*
X191155637Y-117159088D01*
X190790512Y-117159088D01*
X190790512Y-117630575D01*
X190587312Y-117630575D01*
X190587312Y-116551075D01*
X190790512Y-116551075D01*
X190790512Y-116979700D01*
G37*
%TO.C,G\u002A\u002A\u002A*%
G36*
X194118129Y-117959526D02*
G01*
X194166144Y-117980059D01*
X194204801Y-118015662D01*
X194219898Y-118039074D01*
X194227727Y-118063595D01*
X194230423Y-118097133D01*
X194230551Y-118110939D01*
X194229779Y-118145485D01*
X194225305Y-118168362D01*
X194213893Y-118187465D01*
X194192307Y-118210688D01*
X194187809Y-118215196D01*
X194163993Y-118238067D01*
X194145391Y-118250855D01*
X194124611Y-118256490D01*
X194094260Y-118257900D01*
X194079925Y-118257938D01*
X194044492Y-118257330D01*
X194021187Y-118253513D01*
X194002568Y-118243497D01*
X193981196Y-118224291D01*
X193971010Y-118214166D01*
X193947036Y-118189108D01*
X193933939Y-118169737D01*
X193928437Y-118148233D01*
X193927248Y-118116778D01*
X193927239Y-118109909D01*
X193928839Y-118071973D01*
X193935108Y-118045385D01*
X193948250Y-118022080D01*
X193952989Y-118015662D01*
X193977575Y-117990455D01*
X194005709Y-117970941D01*
X194011380Y-117968264D01*
X194065121Y-117955246D01*
X194118129Y-117959526D01*
G37*
G36*
X193442782Y-118529241D02*
G01*
X193423623Y-118502940D01*
X193401638Y-118471540D01*
X193379391Y-118438947D01*
X196520074Y-118438947D01*
X196524966Y-118443839D01*
X196529858Y-118438947D01*
X196524966Y-118434055D01*
X196520074Y-118438947D01*
X193379391Y-118438947D01*
X193374289Y-118431472D01*
X193346030Y-118389543D01*
X193621812Y-118389543D01*
X193632088Y-118390255D01*
X193660557Y-118390915D01*
X193705891Y-118391523D01*
X193766765Y-118392078D01*
X193841851Y-118392582D01*
X193929824Y-118393034D01*
X194029358Y-118393435D01*
X194139125Y-118393784D01*
X194257799Y-118394082D01*
X194384055Y-118394330D01*
X194516565Y-118394526D01*
X194654003Y-118394671D01*
X194795044Y-118394766D01*
X194938360Y-118394810D01*
X195082625Y-118394805D01*
X195226513Y-118394749D01*
X195368698Y-118394643D01*
X195507852Y-118394487D01*
X195642651Y-118394282D01*
X195771766Y-118394028D01*
X195893873Y-118393724D01*
X196007644Y-118393371D01*
X196111754Y-118392969D01*
X196204875Y-118392518D01*
X196285682Y-118392019D01*
X196352848Y-118391471D01*
X196405047Y-118390875D01*
X196440953Y-118390231D01*
X196459238Y-118389538D01*
X196461368Y-118389197D01*
X196457093Y-118379734D01*
X196444727Y-118354164D01*
X196424955Y-118313869D01*
X196398463Y-118260231D01*
X196365938Y-118194631D01*
X196328066Y-118118454D01*
X196285534Y-118033079D01*
X196239027Y-117939890D01*
X196189231Y-117840268D01*
X196139534Y-117740988D01*
X196066026Y-117594267D01*
X195991398Y-117445360D01*
X195916169Y-117295299D01*
X195840856Y-117145114D01*
X195765977Y-116995836D01*
X195692051Y-116848497D01*
X195619594Y-116704127D01*
X195549127Y-116563757D01*
X195481165Y-116428419D01*
X195416227Y-116299143D01*
X195354832Y-116176960D01*
X195297497Y-116062901D01*
X195244740Y-115957998D01*
X195197079Y-115863280D01*
X195155031Y-115779780D01*
X195119116Y-115708528D01*
X195089851Y-115650554D01*
X195067754Y-115606891D01*
X195053342Y-115578569D01*
X195047134Y-115566618D01*
X195046997Y-115566383D01*
X195041283Y-115572370D01*
X195027855Y-115594181D01*
X195007643Y-115630084D01*
X194981576Y-115678350D01*
X194950583Y-115737245D01*
X194915595Y-115805039D01*
X194877542Y-115880000D01*
X194861951Y-115911042D01*
X194771891Y-116090842D01*
X194684274Y-116265663D01*
X194599501Y-116434709D01*
X194517975Y-116597182D01*
X194440096Y-116752286D01*
X194366266Y-116899224D01*
X194296885Y-117037198D01*
X194232357Y-117165413D01*
X194173081Y-117283071D01*
X194119460Y-117389375D01*
X194071895Y-117483529D01*
X194030786Y-117564736D01*
X193996536Y-117632199D01*
X193969546Y-117685120D01*
X193950217Y-117722704D01*
X193938951Y-117744153D01*
X193936061Y-117749155D01*
X193929495Y-117759606D01*
X193915811Y-117784994D01*
X193896179Y-117822934D01*
X193871771Y-117871039D01*
X193843758Y-117926922D01*
X193813311Y-117988195D01*
X193781601Y-118052473D01*
X193749800Y-118117368D01*
X193719079Y-118180494D01*
X193690609Y-118239464D01*
X193665561Y-118291890D01*
X193645107Y-118335386D01*
X193630418Y-118367566D01*
X193622665Y-118386042D01*
X193621812Y-118389543D01*
X193346030Y-118389543D01*
X193339038Y-118379168D01*
X193333188Y-118370457D01*
X193306294Y-118326301D01*
X193275163Y-118268615D01*
X193242103Y-118202311D01*
X193209425Y-118132300D01*
X193179437Y-118063493D01*
X193154448Y-118000802D01*
X193139980Y-117959517D01*
X193103747Y-117834581D01*
X193077180Y-117714222D01*
X193059403Y-117592552D01*
X193049541Y-117463684D01*
X193046705Y-117332471D01*
X193046953Y-117325665D01*
X193203202Y-117325665D01*
X193203793Y-117410403D01*
X193205991Y-117482902D01*
X193210427Y-117547749D01*
X193217734Y-117609529D01*
X193228545Y-117672831D01*
X193243492Y-117742240D01*
X193263210Y-117822344D01*
X193281196Y-117891027D01*
X193300274Y-117951787D01*
X193311278Y-117979086D01*
X193319394Y-117998295D01*
X193331959Y-118028488D01*
X193343875Y-118057360D01*
X193360981Y-118095728D01*
X193383320Y-118141551D01*
X193406272Y-118185376D01*
X193407911Y-118188357D01*
X193426165Y-118222371D01*
X193440030Y-118249997D01*
X193447260Y-118266691D01*
X193447809Y-118269077D01*
X193454270Y-118277433D01*
X193455254Y-118277507D01*
X193460743Y-118268988D01*
X193474327Y-118244323D01*
X193495317Y-118204853D01*
X193523020Y-118151915D01*
X193556746Y-118086850D01*
X193595802Y-118010996D01*
X193639498Y-117925693D01*
X193687143Y-117832279D01*
X193738045Y-117732094D01*
X193791513Y-117626478D01*
X193799974Y-117609729D01*
X193892071Y-117427342D01*
X193983420Y-117246349D01*
X194073429Y-117067929D01*
X194161506Y-116893260D01*
X194247057Y-116723519D01*
X194329490Y-116559884D01*
X194408212Y-116403533D01*
X194482631Y-116255643D01*
X194552154Y-116117393D01*
X194616188Y-115989959D01*
X194674140Y-115874521D01*
X194725417Y-115772255D01*
X194769428Y-115684339D01*
X194805578Y-115611951D01*
X194824363Y-115574223D01*
X194867103Y-115488236D01*
X194815449Y-115494359D01*
X194750081Y-115503917D01*
X194677215Y-115517562D01*
X194602290Y-115534017D01*
X194530741Y-115552010D01*
X194468007Y-115570265D01*
X194421345Y-115586762D01*
X194401981Y-115594361D01*
X194371545Y-115606036D01*
X194343071Y-115616827D01*
X194310986Y-115629377D01*
X194285974Y-115639999D01*
X194274581Y-115645740D01*
X194261778Y-115653104D01*
X194236292Y-115666747D01*
X194202904Y-115684121D01*
X194191414Y-115690011D01*
X194093232Y-115745609D01*
X193992006Y-115812846D01*
X193891700Y-115888470D01*
X193796278Y-115969228D01*
X193709705Y-116051870D01*
X193635944Y-116133143D01*
X193607543Y-116168994D01*
X193586959Y-116196334D01*
X193570658Y-116217931D01*
X193563243Y-116227699D01*
X193552601Y-116241545D01*
X193536167Y-116262914D01*
X193533149Y-116266836D01*
X193505583Y-116304838D01*
X193477987Y-116347757D01*
X193448547Y-116398758D01*
X193415448Y-116461005D01*
X193376878Y-116537664D01*
X193370519Y-116550581D01*
X193317596Y-116671521D01*
X193273653Y-116798835D01*
X193241273Y-116924661D01*
X193232391Y-116971305D01*
X193224939Y-117014491D01*
X193217277Y-117057754D01*
X193211984Y-117086752D01*
X193209218Y-117111350D01*
X193206810Y-117151512D01*
X193204906Y-117203238D01*
X193203655Y-117262524D01*
X193203202Y-117325367D01*
X193203202Y-117325665D01*
X193046953Y-117325665D01*
X193053612Y-117142911D01*
X193074932Y-116964006D01*
X193111410Y-116793623D01*
X193163792Y-116629631D01*
X193232823Y-116469898D01*
X193319247Y-116312294D01*
X193423809Y-116154687D01*
X193488653Y-116068088D01*
X193512865Y-116039387D01*
X193547202Y-116001891D01*
X193588319Y-115958937D01*
X193632869Y-115913862D01*
X193677507Y-115870004D01*
X193718886Y-115830702D01*
X193753662Y-115799292D01*
X193777870Y-115779560D01*
X193799275Y-115763824D01*
X193830706Y-115740494D01*
X193866550Y-115713741D01*
X193879587Y-115703975D01*
X193989245Y-115628987D01*
X194109862Y-115560872D01*
X194174383Y-115529125D01*
X194274874Y-115483915D01*
X195171652Y-115483915D01*
X195175516Y-115492921D01*
X195187649Y-115518302D01*
X195207505Y-115558966D01*
X195234540Y-115613816D01*
X195268208Y-115681759D01*
X195307962Y-115761699D01*
X195353259Y-115852542D01*
X195403552Y-115953193D01*
X195458295Y-116062558D01*
X195516944Y-116179542D01*
X195578953Y-116303051D01*
X195643777Y-116431989D01*
X195674729Y-116493495D01*
X195745863Y-116634835D01*
X195817947Y-116778121D01*
X195890084Y-116921568D01*
X195961378Y-117063389D01*
X196030931Y-117201800D01*
X196097846Y-117335015D01*
X196161228Y-117461249D01*
X196220180Y-117578715D01*
X196273804Y-117685629D01*
X196321204Y-117780205D01*
X196361483Y-117860658D01*
X196390259Y-117918220D01*
X196432238Y-118001825D01*
X196471752Y-118079649D01*
X196507921Y-118150019D01*
X196539863Y-118211264D01*
X196566698Y-118261709D01*
X196587547Y-118299684D01*
X196601529Y-118323516D01*
X196607763Y-118331533D01*
X196607832Y-118331506D01*
X196615889Y-118321207D01*
X196630898Y-118297567D01*
X196650482Y-118264447D01*
X196666065Y-118236927D01*
X196686574Y-118199775D01*
X196702966Y-118169519D01*
X196713250Y-118149864D01*
X196715759Y-118144321D01*
X196719542Y-118134494D01*
X196729538Y-118111560D01*
X196743716Y-118080158D01*
X196746205Y-118074728D01*
X196806635Y-117924686D01*
X196849889Y-117774000D01*
X196863207Y-117710018D01*
X196890900Y-117515479D01*
X196900251Y-117326304D01*
X196891146Y-117140742D01*
X196863473Y-116957043D01*
X196817120Y-116773455D01*
X196799146Y-116716913D01*
X196789386Y-116691832D01*
X196772660Y-116653314D01*
X196750803Y-116605402D01*
X196725650Y-116552138D01*
X196705890Y-116511443D01*
X196616855Y-116348822D01*
X196516834Y-116201535D01*
X196404447Y-116067863D01*
X196278311Y-115946090D01*
X196197030Y-115879245D01*
X196147261Y-115840771D01*
X196108689Y-115811614D01*
X196077127Y-115789001D01*
X196048388Y-115770155D01*
X196018283Y-115752302D01*
X195982625Y-115732669D01*
X195947636Y-115714000D01*
X195907577Y-115692553D01*
X195873609Y-115674013D01*
X195849659Y-115660548D01*
X195840066Y-115654676D01*
X195815643Y-115640818D01*
X195775811Y-115623600D01*
X195724194Y-115604209D01*
X195664417Y-115583834D01*
X195600103Y-115563662D01*
X195534876Y-115544882D01*
X195472361Y-115528680D01*
X195420147Y-115517032D01*
X195386207Y-115510848D01*
X195344656Y-115504179D01*
X195299783Y-115497596D01*
X195255877Y-115491671D01*
X195217229Y-115486975D01*
X195188127Y-115484081D01*
X195172861Y-115483560D01*
X195171652Y-115483915D01*
X194274874Y-115483915D01*
X194275090Y-115483818D01*
X194369465Y-115446453D01*
X194463134Y-115415263D01*
X194561724Y-115388484D01*
X194670858Y-115364351D01*
X194744226Y-115350318D01*
X194782114Y-115345603D01*
X194835623Y-115341960D01*
X194900835Y-115339387D01*
X194973830Y-115337884D01*
X195050692Y-115337451D01*
X195127500Y-115338086D01*
X195200338Y-115339790D01*
X195265287Y-115342561D01*
X195318427Y-115346399D01*
X195350852Y-115350410D01*
X195414852Y-115362248D01*
X195484047Y-115376984D01*
X195554017Y-115393498D01*
X195620339Y-115410670D01*
X195678591Y-115427379D01*
X195724352Y-115442504D01*
X195742223Y-115449581D01*
X195763054Y-115458362D01*
X195792729Y-115470542D01*
X195805821Y-115475839D01*
X195831924Y-115487180D01*
X195870302Y-115504894D01*
X195915757Y-115526540D01*
X195962370Y-115549322D01*
X196126788Y-115641556D01*
X196282147Y-115750283D01*
X196426959Y-115873949D01*
X196559736Y-116011003D01*
X196678991Y-116159893D01*
X196783236Y-116319067D01*
X196870982Y-116486973D01*
X196879850Y-116506551D01*
X196914392Y-116586845D01*
X196943425Y-116660096D01*
X196965492Y-116722501D01*
X196975572Y-116756051D01*
X196985844Y-116794165D01*
X196995542Y-116830227D01*
X197000576Y-116849001D01*
X197016175Y-116918004D01*
X197030283Y-117000617D01*
X197042191Y-117090897D01*
X197051188Y-117182901D01*
X197056567Y-117270685D01*
X197057800Y-117328431D01*
X197055111Y-117416892D01*
X197047527Y-117513506D01*
X197035774Y-117613401D01*
X197020575Y-117711704D01*
X197002656Y-117803542D01*
X196982741Y-117884041D01*
X196968307Y-117930165D01*
X196893450Y-118119492D01*
X196806223Y-118295158D01*
X196705431Y-118459566D01*
X196702825Y-118463408D01*
X196686135Y-118487956D01*
X196666391Y-118516988D01*
X196662905Y-118522114D01*
X196619276Y-118579749D01*
X196562668Y-118644653D01*
X196496559Y-118713512D01*
X196424431Y-118783011D01*
X196349762Y-118849836D01*
X196276034Y-118910674D01*
X196206725Y-118962209D01*
X196186294Y-118976032D01*
X196150518Y-118999735D01*
X196120514Y-119019919D01*
X196100318Y-119033852D01*
X196094457Y-119038184D01*
X196079000Y-119048007D01*
X196049986Y-119063933D01*
X196011623Y-119083867D01*
X195968123Y-119105710D01*
X195923693Y-119127367D01*
X195882546Y-119146741D01*
X195848889Y-119161735D01*
X195835128Y-119167343D01*
X195798417Y-119181532D01*
X195769714Y-119192968D01*
X195739810Y-119205388D01*
X195707978Y-119218906D01*
X195683058Y-119227579D01*
X195643372Y-119239157D01*
X195593310Y-119252544D01*
X195537261Y-119266645D01*
X195479615Y-119280363D01*
X195424762Y-119292604D01*
X195377091Y-119302271D01*
X195365528Y-119304385D01*
X195336587Y-119307842D01*
X195292025Y-119311122D01*
X195235791Y-119314114D01*
X195171831Y-119316707D01*
X195104095Y-119318790D01*
X195036530Y-119320251D01*
X194973084Y-119320979D01*
X194917704Y-119320862D01*
X194874340Y-119319790D01*
X194856745Y-119318728D01*
X194810854Y-119313806D01*
X194755864Y-119306306D01*
X194700158Y-119297501D01*
X194652121Y-119288662D01*
X194636599Y-119285326D01*
X194569544Y-119269673D01*
X194516369Y-119256404D01*
X194471780Y-119243997D01*
X194430482Y-119230927D01*
X194387182Y-119215672D01*
X194361724Y-119206221D01*
X194284990Y-119175804D01*
X194208029Y-119142409D01*
X194135216Y-119108122D01*
X194070926Y-119075030D01*
X194019534Y-119045221D01*
X194006976Y-119037020D01*
X193979400Y-119018794D01*
X193958734Y-119005993D01*
X193949869Y-119001544D01*
X193938845Y-118995963D01*
X193915975Y-118980926D01*
X193884858Y-118958992D01*
X193849097Y-118932718D01*
X193812290Y-118904662D01*
X193800289Y-118895260D01*
X193761238Y-118862347D01*
X193713609Y-118819023D01*
X193661297Y-118769146D01*
X193608194Y-118716570D01*
X193558193Y-118665150D01*
X193515188Y-118618742D01*
X193483071Y-118581201D01*
X193482767Y-118580819D01*
X193475309Y-118571351D01*
X193672847Y-118571351D01*
X193679845Y-118581843D01*
X193698960Y-118602388D01*
X193727375Y-118630395D01*
X193762273Y-118663272D01*
X193800836Y-118698430D01*
X193840246Y-118733276D01*
X193877687Y-118765220D01*
X193910340Y-118791670D01*
X193922346Y-118800812D01*
X193999753Y-118856803D01*
X194068364Y-118902945D01*
X194133866Y-118942548D01*
X194201949Y-118978923D01*
X194278299Y-119015378D01*
X194333286Y-119039911D01*
X194364817Y-119053743D01*
X194391574Y-119065541D01*
X194401776Y-119070075D01*
X194440031Y-119084604D01*
X194492971Y-119101104D01*
X194555971Y-119118373D01*
X194624406Y-119135211D01*
X194693649Y-119150418D01*
X194758903Y-119162764D01*
X194793880Y-119166932D01*
X194843438Y-119170409D01*
X194903689Y-119173148D01*
X194970745Y-119175107D01*
X195040720Y-119176240D01*
X195109727Y-119176503D01*
X195173878Y-119175852D01*
X195229287Y-119174243D01*
X195272066Y-119171630D01*
X195294111Y-119168878D01*
X195329198Y-119162478D01*
X195373111Y-119154689D01*
X195409557Y-119148364D01*
X195464886Y-119137223D01*
X195527235Y-119121968D01*
X195591653Y-119104077D01*
X195653192Y-119085024D01*
X195706903Y-119066285D01*
X195747837Y-119049335D01*
X195756900Y-119044812D01*
X195775915Y-119035142D01*
X195807546Y-119019496D01*
X195846759Y-119000350D01*
X195874311Y-118987018D01*
X195930389Y-118959646D01*
X195975561Y-118936431D01*
X196014486Y-118914494D01*
X196051821Y-118890955D01*
X196092224Y-118862935D01*
X196140352Y-118827556D01*
X196177624Y-118799520D01*
X196215344Y-118769613D01*
X196256189Y-118734878D01*
X196297713Y-118697685D01*
X196337470Y-118660403D01*
X196373014Y-118625404D01*
X196401898Y-118595058D01*
X196421676Y-118571734D01*
X196429903Y-118557803D01*
X196429499Y-118555473D01*
X196419028Y-118554617D01*
X196390400Y-118553931D01*
X196344960Y-118553407D01*
X196284056Y-118553038D01*
X196209032Y-118552815D01*
X196121236Y-118552731D01*
X196022014Y-118552779D01*
X195912711Y-118552950D01*
X195794674Y-118553237D01*
X195669249Y-118553631D01*
X195537782Y-118554126D01*
X195401620Y-118554713D01*
X195262108Y-118555385D01*
X195120592Y-118556134D01*
X194978420Y-118556952D01*
X194836936Y-118557832D01*
X194697488Y-118558765D01*
X194561421Y-118559744D01*
X194430081Y-118560762D01*
X194304815Y-118561809D01*
X194186969Y-118562880D01*
X194077889Y-118563965D01*
X193978921Y-118565057D01*
X193891411Y-118566149D01*
X193816706Y-118567233D01*
X193756151Y-118568300D01*
X193711094Y-118569344D01*
X193682879Y-118570356D01*
X193672853Y-118571328D01*
X193672847Y-118571351D01*
X193475309Y-118571351D01*
X193461650Y-118554011D01*
X193442782Y-118529241D01*
G37*
G36*
X195064807Y-115998326D02*
G01*
X195087907Y-116001977D01*
X195105941Y-116011694D01*
X195126160Y-116030447D01*
X195137275Y-116041970D01*
X195160287Y-116067088D01*
X195172963Y-116086686D01*
X195178379Y-116108569D01*
X195179612Y-116140541D01*
X195179627Y-116149425D01*
X195178889Y-116184565D01*
X195174625Y-116207947D01*
X195163758Y-116227377D01*
X195143212Y-116250661D01*
X195137275Y-116256880D01*
X195113905Y-116280409D01*
X195095823Y-116293630D01*
X195075779Y-116299513D01*
X195046521Y-116301031D01*
X195029390Y-116301081D01*
X194993855Y-116300488D01*
X194970498Y-116296734D01*
X194951926Y-116286859D01*
X194930750Y-116267905D01*
X194920086Y-116257310D01*
X194896520Y-116232796D01*
X194883423Y-116213854D01*
X194877723Y-116192909D01*
X194876344Y-116162385D01*
X194876314Y-116149425D01*
X194876961Y-116114260D01*
X194880952Y-116091087D01*
X194891360Y-116072329D01*
X194911259Y-116050412D01*
X194920086Y-116041540D01*
X194944313Y-116018202D01*
X194963028Y-116005108D01*
X194983620Y-115999298D01*
X195013481Y-115997814D01*
X195029390Y-115997769D01*
X195064807Y-115998326D01*
G37*
G36*
X196098238Y-117987783D02*
G01*
X196127795Y-117999004D01*
X196161073Y-118021491D01*
X196169546Y-118028193D01*
X196197266Y-118056942D01*
X196212115Y-118090943D01*
X196216750Y-118136453D01*
X196216761Y-118139423D01*
X196213070Y-118185290D01*
X196199744Y-118220049D01*
X196173404Y-118251132D01*
X196160988Y-118262096D01*
X196118436Y-118286066D01*
X196068627Y-118295865D01*
X196018554Y-118290732D01*
X195991917Y-118280495D01*
X195950163Y-118249004D01*
X195924112Y-118205929D01*
X195913676Y-118151108D01*
X195913448Y-118140527D01*
X195921714Y-118084392D01*
X195945290Y-118039004D01*
X195982344Y-118006244D01*
X196031043Y-117987996D01*
X196065104Y-117984795D01*
X196098238Y-117987783D01*
G37*
%TD*%
D10*
%TO.C,Q1*%
X127508000Y-116078000D03*
D11*
X128778000Y-117348000D03*
X127508000Y-118618000D03*
%TD*%
D12*
%TO.C,J27*%
X190500000Y-72390000D03*
D13*
X190500000Y-74930000D03*
X190500000Y-77470000D03*
%TD*%
D12*
%TO.C,J26*%
X123190000Y-76708000D03*
D13*
X123190000Y-79248000D03*
X123190000Y-81788000D03*
%TD*%
D12*
%TO.C,J24*%
X123190000Y-68087000D03*
D13*
X123190000Y-70627000D03*
X123190000Y-73167000D03*
%TD*%
D14*
%TO.C,C15*%
X188234000Y-92456000D03*
X190734000Y-92456000D03*
%TD*%
%TO.C,R71*%
X135382000Y-76454000D03*
D15*
X127762000Y-76454000D03*
%TD*%
D16*
%TO.C,U4*%
X153426000Y-87112000D03*
D17*
X153426000Y-89652000D03*
X153426000Y-92192000D03*
X153426000Y-94732000D03*
X153426000Y-97272000D03*
X153426000Y-99812000D03*
X153426000Y-102352000D03*
X161046000Y-102352000D03*
X161046000Y-99812000D03*
X161046000Y-97272000D03*
X161046000Y-94732000D03*
X161046000Y-92192000D03*
X161046000Y-89652000D03*
X161046000Y-87112000D03*
%TD*%
D14*
%TO.C,R32*%
X156337000Y-106426000D03*
D15*
X148717000Y-106426000D03*
%TD*%
D14*
%TO.C,R26*%
X156337000Y-109728000D03*
D15*
X148717000Y-109728000D03*
%TD*%
D14*
%TO.C,R31*%
X114046000Y-125730000D03*
D15*
X106426000Y-125730000D03*
%TD*%
D14*
%TO.C,R67*%
X173736000Y-93218000D03*
D15*
X166116000Y-93218000D03*
%TD*%
D14*
%TO.C,C19*%
X121666000Y-87630000D03*
X121666000Y-85130000D03*
%TD*%
%TO.C,R66*%
X120396000Y-124714000D03*
D15*
X128016000Y-124714000D03*
%TD*%
D14*
%TO.C,R25*%
X153162000Y-80259000D03*
D15*
X160782000Y-80259000D03*
%TD*%
D14*
%TO.C,R30*%
X107950000Y-119126000D03*
D15*
X107950000Y-111506000D03*
%TD*%
D14*
%TO.C,R61*%
X166878000Y-116586000D03*
D15*
X166878000Y-124206000D03*
%TD*%
D18*
%TO.C,D2*%
X150114000Y-92451000D03*
D15*
X150114000Y-84831000D03*
%TD*%
D19*
%TO.C,R60*%
X184550000Y-111250000D03*
X182010000Y-108710000D03*
X184550000Y-106170000D03*
%TD*%
D18*
%TO.C,C12*%
X168087113Y-83058000D03*
D14*
X166087113Y-83058000D03*
%TD*%
%TO.C,R69*%
X145350000Y-111252000D03*
D15*
X145350000Y-103632000D03*
%TD*%
D16*
%TO.C,U2*%
X131816000Y-103388000D03*
D17*
X131816000Y-105928000D03*
X131816000Y-108468000D03*
X131816000Y-111008000D03*
X139436000Y-111008000D03*
X139436000Y-108468000D03*
X139436000Y-105928000D03*
X139436000Y-103388000D03*
%TD*%
D20*
%TO.C,J13*%
X114300000Y-120630000D03*
D21*
X111760000Y-120630000D03*
%TD*%
D18*
%TO.C,D4*%
X171450000Y-75184000D03*
D15*
X163830000Y-75184000D03*
%TD*%
D14*
%TO.C,C2*%
X144807500Y-79248000D03*
X147307500Y-79248000D03*
%TD*%
%TO.C,R21*%
X144375000Y-117950000D03*
D15*
X151995000Y-117950000D03*
%TD*%
D18*
%TO.C,D1*%
X125222000Y-92456000D03*
D15*
X125222000Y-100076000D03*
%TD*%
D14*
%TO.C,R40*%
X166116000Y-90170000D03*
D15*
X173736000Y-90170000D03*
%TD*%
D14*
%TO.C,C14*%
X141800000Y-119875000D03*
X141800000Y-124875000D03*
%TD*%
D18*
%TO.C,D6*%
X171450000Y-70104000D03*
D15*
X163830000Y-70104000D03*
%TD*%
D14*
%TO.C,C1*%
X139212000Y-79248000D03*
X141712000Y-79248000D03*
%TD*%
D16*
%TO.C,U7*%
X177048000Y-86624000D03*
D17*
X177048000Y-89164000D03*
X177048000Y-91704000D03*
X177048000Y-94244000D03*
X184668000Y-94244000D03*
X184668000Y-91704000D03*
X184668000Y-89164000D03*
X184668000Y-86624000D03*
%TD*%
D14*
%TO.C,R35*%
X177038000Y-83312000D03*
D15*
X184658000Y-83312000D03*
%TD*%
D14*
%TO.C,R8*%
X127762000Y-70358000D03*
D15*
X135382000Y-70358000D03*
%TD*%
D16*
%TO.C,U6*%
X177048000Y-68844000D03*
D17*
X177048000Y-71384000D03*
X177048000Y-73924000D03*
X177048000Y-76464000D03*
X184668000Y-76464000D03*
X184668000Y-73924000D03*
X184668000Y-71384000D03*
X184668000Y-68844000D03*
%TD*%
D14*
%TO.C,R36*%
X187960000Y-99314000D03*
D15*
X195580000Y-99314000D03*
%TD*%
D19*
%TO.C,R5*%
X143510000Y-75677000D03*
X140970000Y-73137000D03*
X143510000Y-70597000D03*
%TD*%
D14*
%TO.C,C5*%
X117856000Y-123698000D03*
X117856000Y-121198000D03*
%TD*%
%TO.C,R47*%
X144018000Y-89408000D03*
D15*
X136398000Y-89408000D03*
%TD*%
D14*
%TO.C,R28*%
X104902000Y-111506000D03*
D15*
X104902000Y-119126000D03*
%TD*%
D14*
%TO.C,R42*%
X131826000Y-114300000D03*
D15*
X139446000Y-114300000D03*
%TD*%
D12*
%TO.C,J15*%
X192766000Y-105156000D03*
D13*
X192766000Y-107696000D03*
X192766000Y-110236000D03*
X192766000Y-112776000D03*
%TD*%
D14*
%TO.C,R23*%
X110998000Y-73406000D03*
D15*
X118618000Y-73406000D03*
%TD*%
D14*
%TO.C,R51*%
X169926000Y-116586000D03*
D15*
X169926000Y-124206000D03*
%TD*%
D12*
%TO.C,J12*%
X106426000Y-68326000D03*
D13*
X106426000Y-70866000D03*
X106426000Y-73406000D03*
X106426000Y-75946000D03*
%TD*%
D19*
%TO.C,R59*%
X168025000Y-111237000D03*
X165485000Y-108697000D03*
X168025000Y-106157000D03*
%TD*%
D14*
%TO.C,R68*%
X177038000Y-97536000D03*
D15*
X184658000Y-97536000D03*
%TD*%
D14*
%TO.C,C16*%
X173188000Y-97536000D03*
X170688000Y-97536000D03*
%TD*%
%TO.C,R18*%
X118618000Y-70358000D03*
D15*
X110998000Y-70358000D03*
%TD*%
D14*
%TO.C,C6*%
X146438000Y-97790000D03*
D15*
X131438000Y-97790000D03*
%TD*%
D19*
%TO.C,R11*%
X127508000Y-110236000D03*
X124968000Y-112776000D03*
X122428000Y-110236000D03*
%TD*%
D14*
%TO.C,R17*%
X115570000Y-103632000D03*
D15*
X123190000Y-103632000D03*
%TD*%
D14*
%TO.C,R12*%
X136398000Y-86106000D03*
D15*
X144018000Y-86106000D03*
%TD*%
D14*
%TO.C,C4*%
X180106000Y-100584000D03*
X182606000Y-100584000D03*
%TD*%
D18*
%TO.C,D3*%
X150114000Y-94991000D03*
D15*
X150114000Y-102611000D03*
%TD*%
D22*
%TO.C,C7*%
X104302401Y-81425000D03*
D23*
X105802401Y-81425000D03*
%TD*%
D14*
%TO.C,R53*%
X180594000Y-124206000D03*
D15*
X180594000Y-116586000D03*
%TD*%
D14*
%TO.C,R15*%
X110998000Y-67310000D03*
D15*
X118618000Y-67310000D03*
%TD*%
D14*
%TO.C,R46*%
X144018000Y-92456000D03*
D15*
X136398000Y-92456000D03*
%TD*%
D14*
%TO.C,R41*%
X195580000Y-96012000D03*
D15*
X187960000Y-96012000D03*
%TD*%
D14*
%TO.C,R34*%
X120396000Y-121666000D03*
D15*
X128016000Y-121666000D03*
%TD*%
D24*
%TO.C,J1*%
X107000000Y-99540000D03*
D25*
X104460000Y-99540000D03*
X107000000Y-97000000D03*
X104460000Y-97000000D03*
X107000000Y-94460000D03*
X104460000Y-94460000D03*
X107000000Y-91920000D03*
X104460000Y-91920000D03*
X107000000Y-89380000D03*
X104460000Y-89380000D03*
%TD*%
D14*
%TO.C,R24*%
X118857000Y-99822000D03*
D15*
X118857000Y-92202000D03*
%TD*%
D14*
%TO.C,R14*%
X144400000Y-121025000D03*
D15*
X152020000Y-121025000D03*
%TD*%
D18*
%TO.C,C13*%
X171514888Y-83058000D03*
D14*
X174014888Y-83058000D03*
%TD*%
%TO.C,R9*%
X128016000Y-92456000D03*
D15*
X128016000Y-100076000D03*
%TD*%
D14*
%TO.C,R20*%
X153162000Y-83561000D03*
D15*
X160782000Y-83561000D03*
%TD*%
D26*
%TO.C,U3*%
X116382000Y-94107000D03*
X116382000Y-95377000D03*
X116382000Y-96647000D03*
X116382000Y-97917000D03*
X121332000Y-97917000D03*
X121332000Y-96647000D03*
X121332000Y-95377000D03*
X121332000Y-94107000D03*
%TD*%
D14*
%TO.C,R6*%
X138564500Y-67325000D03*
D15*
X146184500Y-67325000D03*
%TD*%
D14*
%TO.C,R50*%
X131582000Y-121422000D03*
D15*
X139202000Y-121422000D03*
%TD*%
D14*
%TO.C,R1*%
X157614500Y-67325000D03*
D15*
X149994500Y-67325000D03*
%TD*%
D14*
%TO.C,R19*%
X124968000Y-86106000D03*
D15*
X132588000Y-86106000D03*
%TD*%
D14*
%TO.C,R13*%
X144272000Y-114554000D03*
D15*
X151892000Y-114554000D03*
%TD*%
D19*
%TO.C,R16*%
X115570000Y-79756000D03*
X118110000Y-82296000D03*
X115570000Y-84836000D03*
%TD*%
D12*
%TO.C,J14*%
X190480000Y-82550000D03*
D13*
X190480000Y-85090000D03*
%TD*%
D26*
%TO.C,U5*%
X172785000Y-115697000D03*
X172785000Y-116967000D03*
X172785000Y-118237000D03*
X172785000Y-119507000D03*
X172785000Y-120777000D03*
X172785000Y-122047000D03*
X172785000Y-123317000D03*
X172785000Y-124587000D03*
X177735000Y-124587000D03*
X177735000Y-123317000D03*
X177735000Y-122047000D03*
X177735000Y-120777000D03*
X177735000Y-119507000D03*
X177735000Y-118237000D03*
X177735000Y-116967000D03*
X177735000Y-115697000D03*
%TD*%
D14*
%TO.C,C17*%
X142450000Y-110850000D03*
X142450000Y-108350000D03*
%TD*%
%TO.C,C3*%
X121920000Y-116078000D03*
X124420000Y-116078000D03*
%TD*%
D18*
%TO.C,D8*%
X131582000Y-118628000D03*
D15*
X139202000Y-118628000D03*
%TD*%
D18*
%TO.C,D5*%
X163830000Y-67570000D03*
D15*
X171450000Y-67570000D03*
%TD*%
D14*
%TO.C,R29*%
X167894000Y-100838000D03*
D15*
X175514000Y-100838000D03*
%TD*%
D19*
%TO.C,R7*%
X151892000Y-75677000D03*
X149352000Y-73137000D03*
X151892000Y-70597000D03*
%TD*%
D14*
%TO.C,C8*%
X132080000Y-90150000D03*
X132080000Y-92650000D03*
%TD*%
%TO.C,R48*%
X163830000Y-116586000D03*
D15*
X163830000Y-124206000D03*
%TD*%
D14*
%TO.C,R65*%
X127762000Y-82550000D03*
D15*
X135382000Y-82550000D03*
%TD*%
D19*
%TO.C,R64*%
X176276000Y-111252000D03*
X173736000Y-108712000D03*
X176276000Y-106172000D03*
%TD*%
D14*
%TO.C,R22*%
X152010000Y-124350000D03*
D15*
X144390000Y-124350000D03*
%TD*%
D14*
%TO.C,R44*%
X160782000Y-124206000D03*
D15*
X160782000Y-116586000D03*
%TD*%
D14*
%TO.C,R10*%
X127762000Y-79502000D03*
D15*
X135382000Y-79502000D03*
%TD*%
D16*
%TO.C,U1*%
X111506000Y-107950000D03*
D17*
X111506000Y-110490000D03*
X111506000Y-113030000D03*
X111506000Y-115570000D03*
X119126000Y-115570000D03*
X119126000Y-113030000D03*
X119126000Y-110490000D03*
X119126000Y-107950000D03*
%TD*%
D14*
%TO.C,R57*%
X127762000Y-73406000D03*
D15*
X135382000Y-73406000D03*
%TD*%
D18*
%TO.C,D7*%
X163830000Y-72644000D03*
D15*
X171450000Y-72644000D03*
%TD*%
D14*
%TO.C,R45*%
X157734000Y-124206000D03*
D15*
X157734000Y-116586000D03*
%TD*%
D22*
%TO.C,C10*%
X105386000Y-107696000D03*
D23*
X103886000Y-107696000D03*
%TD*%
D14*
%TO.C,C18*%
X142450000Y-106175000D03*
X142450000Y-103675000D03*
%TD*%
%TO.C,R27*%
X110998000Y-76454000D03*
D15*
X118618000Y-76454000D03*
%TD*%
D14*
%TO.C,R52*%
X183642000Y-124206000D03*
D15*
X183642000Y-116586000D03*
%TD*%
D14*
%TO.C,R49*%
X186690000Y-124206000D03*
D15*
X186690000Y-116586000D03*
%TD*%
D14*
%TO.C,R70*%
X131582000Y-124724000D03*
D15*
X139202000Y-124724000D03*
%TD*%
D14*
%TO.C,R56*%
X135382000Y-67310000D03*
D15*
X127762000Y-67310000D03*
%TD*%
M02*
