M48
; DRILL file {KiCad 6.0.8-f2edbf62ab~116~ubuntu22.04.1} date Thu 04 Apr 2024 05:47:27 PM EDT
; FORMAT={-:-/ absolute / inch / decimal}
; #@! TF.CreationDate,2024-04-04T17:47:27-04:00
; #@! TF.GenerationSoftware,Kicad,Pcbnew,6.0.8-f2edbf62ab~116~ubuntu22.04.1
; #@! TF.FileFunction,Plated,1,4,PTH
FMAT,2
INCH
; #@! TA.AperFunction,Plated,PTH,ViaDrill
T1C0.0157
; #@! TA.AperFunction,Plated,PTH,ComponentDrill
T2C0.0236
; #@! TA.AperFunction,Plated,PTH,ComponentDrill
T3C0.0276
; #@! TA.AperFunction,Plated,PTH,ComponentDrill
T4C0.0295
; #@! TA.AperFunction,Plated,PTH,ComponentDrill
T5C0.0315
; #@! TA.AperFunction,Plated,PTH,ComponentDrill
T6C0.0394
; #@! TA.AperFunction,Plated,PTH,ComponentDrill
T7C0.0469
%
G90
G05
T1
X4.11Y-4.86
X4.13Y-4.54
X4.25Y-4.27
X4.25Y-4.54
X4.36Y-4.87
X4.43Y-3.94
X4.44Y-2.66
X4.44Y-2.9
X4.4698Y-3.5281
X4.48Y-3.24
X4.49Y-3.75
X4.49Y-3.81
X4.51Y-4.36
X4.5111Y-4.5593
X4.54Y-4.18
X4.57Y-4.96
X4.6Y-4.0
X4.62Y-3.44
X4.65Y-3.7
X4.67Y-3.54
X4.71Y-3.18
X4.71Y-3.74
X4.86Y-3.56
X4.86Y-3.76
X4.89Y-4.79
X4.89Y-4.91
X4.92Y-2.94
X4.92Y-4.29
X4.97Y-4.08
X5.03Y-3.53
X5.04Y-3.38
X5.04Y-3.79
X5.1Y-3.02
X5.13Y-2.58
X5.14Y-2.89
X5.22Y-2.79
X5.22Y-4.58
X5.28Y-4.07
X5.28Y-4.38
X5.32Y-4.29
X5.32Y-4.84
X5.34Y-3.85
X5.34Y-4.17
X5.41Y-4.91
X5.46Y-2.88
X5.46Y-3.93
X5.49Y-3.29
X5.51Y-3.39
X5.54Y-4.59
X5.5827Y-4.8179
X5.64Y-2.57
X5.65Y-2.88
X5.65Y-3.92
X5.78Y-3.93
X5.78Y-4.43
X5.79Y-3.74
X5.8346Y-4.8957
X5.835Y-4.7648
X5.84Y-4.51
X5.9Y-3.91
X6.005Y-4.19
X6.01Y-4.37
X6.03Y-2.89
X6.04Y-4.57
X6.05Y-4.47
X6.07Y-2.57
X6.1Y-4.77
X6.1Y-4.9
X6.12Y-4.53
X6.16Y-3.17
X6.18Y-3.9
X6.19Y-3.24
X6.1997Y-2.9987
X6.2Y-2.79
X6.21Y-4.74
X6.22Y-4.26
X6.23Y-3.53
X6.23Y-4.49
X6.28Y-4.81
X6.33Y-4.5
X6.3492Y-2.8294
X6.3984Y-4.2996
X6.41Y-4.19
X6.45Y-4.5
X6.45Y-4.8
X6.51Y-4.04
X6.51Y-4.95
X6.52Y-3.81
X6.555Y-3.13
X6.65Y-4.49
X6.7Y-4.5
X6.72Y-4.28
X6.73Y-4.82
X6.83Y-2.66
X6.83Y-3.09
X6.83Y-3.17
X6.85Y-3.44
X6.87Y-4.67
X6.88Y-4.76
X6.88Y-4.86
X6.89Y-4.56
X6.91Y-4.63
X6.92Y-4.7
X6.98Y-4.28
X7.07Y-2.6
X7.1Y-4.12
X7.1Y-4.5
X7.11Y-3.62
X7.12Y-3.01
X7.12Y-3.28
X7.13Y-4.81
X7.22Y-4.96
X7.37Y-2.57
X7.37Y-4.25
X7.41Y-4.95
X7.4159Y-4.0457
X7.43Y-4.4695
X7.6875Y-4.3468
X7.7Y-3.52
X7.71Y-2.88
X7.73Y-3.23
X7.73Y-4.09
T2
X4.09Y-4.24
X4.1064Y-3.2057
X4.1491Y-4.24
X4.1654Y-3.2057
T3
X4.55Y-3.14
X4.55Y-3.34
X4.65Y-3.24
X4.82Y-4.34
X4.92Y-4.44
X5.02Y-4.34
X5.55Y-2.8794
X5.65Y-2.7794
X5.65Y-2.9794
X5.88Y-2.8794
X5.98Y-2.7794
X5.98Y-2.9794
X6.5152Y-4.2794
X6.6152Y-4.1794
X6.6152Y-4.3794
X6.84Y-4.28
X6.94Y-4.18
X6.94Y-4.38
X7.1657Y-4.2799
X7.2657Y-4.1799
X7.2657Y-4.3799
T4
X5.02Y-4.57
X5.02Y-4.67
X5.07Y-4.62
T5
X4.13Y-4.39
X4.13Y-4.69
X4.19Y-4.95
X4.25Y-4.39
X4.25Y-4.69
X4.37Y-2.65
X4.37Y-2.77
X4.37Y-2.89
X4.37Y-3.01
X4.39Y-4.25
X4.39Y-4.35
X4.39Y-4.45
X4.39Y-4.55
X4.49Y-4.95
X4.55Y-4.08
X4.64Y-4.7716
X4.64Y-4.87
X4.67Y-2.65
X4.67Y-2.77
X4.67Y-2.89
X4.67Y-3.01
X4.6794Y-3.63
X4.6794Y-3.93
X4.69Y-4.25
X4.69Y-4.35
X4.69Y-4.45
X4.69Y-4.55
X4.74Y-4.79
X4.74Y-4.91
X4.79Y-3.3516
X4.79Y-3.45
X4.8Y-4.57
X4.85Y-4.08
X4.8984Y-4.57
X4.92Y-3.39
X4.93Y-3.64
X4.93Y-3.94
X5.03Y-2.65
X5.03Y-2.77
X5.03Y-2.89
X5.03Y-3.01
X5.03Y-3.13
X5.03Y-3.25
X5.04Y-3.64
X5.04Y-3.94
X5.04Y-4.79
X5.04Y-4.91
X5.1747Y-3.85
X5.1804Y-4.6704
X5.1804Y-4.7804
X5.1804Y-4.9104
X5.1896Y-4.0704
X5.1896Y-4.1704
X5.1896Y-4.2704
X5.1896Y-4.3704
X5.19Y-4.5
X5.2Y-3.5492
X5.2Y-3.6476
X5.22Y-3.39
X5.33Y-2.65
X5.33Y-2.77
X5.33Y-2.89
X5.33Y-3.01
X5.33Y-3.13
X5.33Y-3.25
X5.37Y-3.39
X5.37Y-3.52
X5.37Y-3.64
X5.4553Y-2.6506
X5.4804Y-4.6704
X5.4804Y-4.7804
X5.4804Y-4.9104
X5.4808Y-3.12
X5.4896Y-4.0704
X5.4896Y-4.1704
X5.4896Y-4.2704
X5.4896Y-4.3704
X5.49Y-4.5
X5.5792Y-3.12
X5.5827Y-4.7195
X5.5827Y-4.9163
X5.6083Y-4.0817
X5.6083Y-4.1801
X5.6083Y-4.2657
X5.6083Y-4.3642
X5.67Y-3.39
X5.67Y-3.52
X5.67Y-3.64
X5.68Y-4.51
X5.6841Y-4.6437
X5.6846Y-4.8957
X5.685Y-4.7648
X5.7011Y-3.12
X5.7224Y-4.08
X5.7224Y-4.38
X5.7553Y-2.6506
X5.7653Y-3.85
X5.7995Y-3.12
X5.855Y-4.19
X5.855Y-4.32
X5.9053Y-2.6506
X5.91Y-3.3398
X5.91Y-3.6398
X5.91Y-3.7398
X5.91Y-4.0398
X5.98Y-4.51
X5.9841Y-4.6437
X5.9846Y-4.8957
X5.985Y-4.7648
X6.03Y-3.1598
X6.03Y-3.2898
X6.0404Y-3.4296
X6.0404Y-3.5296
X6.0404Y-3.6296
X6.0404Y-3.7296
X6.0404Y-3.8296
X6.0404Y-3.9296
X6.0404Y-4.0296
X6.155Y-4.19
X6.155Y-4.32
X6.2053Y-2.6506
X6.21Y-4.59
X6.21Y-4.89
X6.33Y-3.1598
X6.33Y-3.2898
X6.33Y-4.59
X6.33Y-4.89
X6.3404Y-3.4296
X6.3404Y-3.5296
X6.3404Y-3.6296
X6.3404Y-3.7296
X6.3404Y-3.8296
X6.3404Y-3.9296
X6.3404Y-4.0296
X6.45Y-2.6602
X6.45Y-2.76
X6.45Y-2.86
X6.45Y-2.96
X6.45Y-4.59
X6.45Y-4.89
X6.5389Y-3.27
X6.54Y-3.55
X6.54Y-3.67
X6.57Y-4.59
X6.57Y-4.89
X6.61Y-3.97
X6.6176Y-3.27
X6.69Y-4.59
X6.69Y-4.89
X6.72Y-3.84
X6.75Y-2.6602
X6.75Y-2.76
X6.75Y-2.86
X6.75Y-2.96
X6.7526Y-3.27
X6.8184Y-3.84
X6.84Y-3.55
X6.84Y-3.67
X6.851Y-3.27
X6.91Y-3.97
X6.97Y-3.28
X6.97Y-3.84
X6.9704Y-2.7104
X6.9704Y-2.8104
X6.9704Y-2.9104
X6.9704Y-3.0104
X6.9704Y-3.4104
X6.9704Y-3.5104
X6.9704Y-3.6104
X6.9704Y-3.7104
X7.0908Y-3.96
X7.11Y-4.59
X7.11Y-4.89
X7.1892Y-3.96
X7.23Y-4.59
X7.23Y-4.89
X7.27Y-3.28
X7.27Y-3.84
X7.2704Y-2.7104
X7.2704Y-2.8104
X7.2704Y-2.9104
X7.2704Y-3.0104
X7.2704Y-3.4104
X7.2704Y-3.5104
X7.2704Y-3.6104
X7.2704Y-3.7104
X7.35Y-4.59
X7.35Y-4.89
X7.4Y-3.78
X7.4Y-3.91
X7.4108Y-3.64
X7.5092Y-3.64
X7.7Y-3.78
X7.7Y-3.91
T6
X4.1126Y-3.5189
X4.1126Y-3.6189
X4.1126Y-3.7189
X4.1126Y-3.8189
X4.1126Y-3.9189
X4.2126Y-3.5189
X4.2126Y-3.6189
X4.2126Y-3.7189
X4.2126Y-3.8189
X4.2126Y-3.9189
T7
X4.19Y-2.69
X4.19Y-2.79
X4.19Y-2.89
X4.19Y-2.99
X4.4Y-4.7492
X4.5Y-4.7492
X4.85Y-2.6806
X4.85Y-2.7806
X4.85Y-2.8806
X4.85Y-3.02
X4.85Y-3.12
X4.85Y-3.22
X7.4992Y-3.25
X7.4992Y-3.35
X7.5Y-2.85
X7.5Y-2.95
X7.5Y-3.05
X7.5892Y-4.14
X7.5892Y-4.24
X7.5892Y-4.34
X7.5892Y-4.44
T0
M30
