%TF.GenerationSoftware,KiCad,Pcbnew,6.0.8-f2edbf62ab~116~ubuntu22.04.1*%
%TF.CreationDate,2024-04-04T17:44:11-04:00*%
%TF.ProjectId,MFOS_VCO,4d464f53-5f56-4434-9f2e-6b696361645f,rev?*%
%TF.SameCoordinates,Original*%
%TF.FileFunction,Legend,Top*%
%TF.FilePolarity,Positive*%
%FSLAX46Y46*%
G04 Gerber Fmt 4.6, Leading zero omitted, Abs format (unit mm)*
G04 Created by KiCad (PCBNEW 6.0.8-f2edbf62ab~116~ubuntu22.04.1) date 2024-04-04 17:44:11*
%MOMM*%
%LPD*%
G01*
G04 APERTURE LIST*
%ADD10C,0.150000*%
%ADD11C,0.120000*%
G04 APERTURE END LIST*
D10*
X112014095Y-93734000D02*
X111918857Y-93686380D01*
X111776000Y-93686380D01*
X111633142Y-93734000D01*
X111537904Y-93829238D01*
X111490285Y-93924476D01*
X111442666Y-94114952D01*
X111442666Y-94257809D01*
X111490285Y-94448285D01*
X111537904Y-94543523D01*
X111633142Y-94638761D01*
X111776000Y-94686380D01*
X111871238Y-94686380D01*
X112014095Y-94638761D01*
X112061714Y-94591142D01*
X112061714Y-94257809D01*
X111871238Y-94257809D01*
X112490285Y-94686380D02*
X112490285Y-93686380D01*
X113061714Y-94686380D01*
X113061714Y-93686380D01*
X113537904Y-94686380D02*
X113537904Y-93686380D01*
X113776000Y-93686380D01*
X113918857Y-93734000D01*
X114014095Y-93829238D01*
X114061714Y-93924476D01*
X114109333Y-94114952D01*
X114109333Y-94257809D01*
X114061714Y-94448285D01*
X114014095Y-94543523D01*
X113918857Y-94638761D01*
X113776000Y-94686380D01*
X113537904Y-94686380D01*
X111014095Y-100909428D02*
X111776000Y-100909428D01*
X112776000Y-101290380D02*
X112204571Y-101290380D01*
X112490285Y-101290380D02*
X112490285Y-100290380D01*
X112395047Y-100433238D01*
X112299809Y-100528476D01*
X112204571Y-100576095D01*
X113156952Y-100385619D02*
X113204571Y-100338000D01*
X113299809Y-100290380D01*
X113537904Y-100290380D01*
X113633142Y-100338000D01*
X113680761Y-100385619D01*
X113728380Y-100480857D01*
X113728380Y-100576095D01*
X113680761Y-100718952D01*
X113109333Y-101290380D01*
X113728380Y-101290380D01*
X114014095Y-100290380D02*
X114347428Y-101290380D01*
X114680761Y-100290380D01*
X111268095Y-87701428D02*
X112030000Y-87701428D01*
X111649047Y-88082380D02*
X111649047Y-87320476D01*
X113030000Y-88082380D02*
X112458571Y-88082380D01*
X112744285Y-88082380D02*
X112744285Y-87082380D01*
X112649047Y-87225238D01*
X112553809Y-87320476D01*
X112458571Y-87368095D01*
X113410952Y-87177619D02*
X113458571Y-87130000D01*
X113553809Y-87082380D01*
X113791904Y-87082380D01*
X113887142Y-87130000D01*
X113934761Y-87177619D01*
X113982380Y-87272857D01*
X113982380Y-87368095D01*
X113934761Y-87510952D01*
X113363333Y-88082380D01*
X113982380Y-88082380D01*
X114268095Y-87082380D02*
X114601428Y-88082380D01*
X114934761Y-87082380D01*
%TO.C,Q1*%
X124110761Y-119165619D02*
X124015523Y-119118000D01*
X123920285Y-119022761D01*
X123777428Y-118879904D01*
X123682190Y-118832285D01*
X123586952Y-118832285D01*
X123634571Y-119070380D02*
X123539333Y-119022761D01*
X123444095Y-118927523D01*
X123396476Y-118737047D01*
X123396476Y-118403714D01*
X123444095Y-118213238D01*
X123539333Y-118118000D01*
X123634571Y-118070380D01*
X123825047Y-118070380D01*
X123920285Y-118118000D01*
X124015523Y-118213238D01*
X124063142Y-118403714D01*
X124063142Y-118737047D01*
X124015523Y-118927523D01*
X123920285Y-119022761D01*
X123825047Y-119070380D01*
X123634571Y-119070380D01*
X125015523Y-119070380D02*
X124444095Y-119070380D01*
X124729809Y-119070380D02*
X124729809Y-118070380D01*
X124634571Y-118213238D01*
X124539333Y-118308476D01*
X124444095Y-118356095D01*
%TO.C,J27*%
X187658476Y-69302380D02*
X187658476Y-70016666D01*
X187610857Y-70159523D01*
X187515619Y-70254761D01*
X187372761Y-70302380D01*
X187277523Y-70302380D01*
X188087047Y-69397619D02*
X188134666Y-69350000D01*
X188229904Y-69302380D01*
X188468000Y-69302380D01*
X188563238Y-69350000D01*
X188610857Y-69397619D01*
X188658476Y-69492857D01*
X188658476Y-69588095D01*
X188610857Y-69730952D01*
X188039428Y-70302380D01*
X188658476Y-70302380D01*
X188991809Y-69302380D02*
X189658476Y-69302380D01*
X189229904Y-70302380D01*
%TO.C,J26*%
X123904476Y-83526380D02*
X123904476Y-84240666D01*
X123856857Y-84383523D01*
X123761619Y-84478761D01*
X123618761Y-84526380D01*
X123523523Y-84526380D01*
X124333047Y-83621619D02*
X124380666Y-83574000D01*
X124475904Y-83526380D01*
X124714000Y-83526380D01*
X124809238Y-83574000D01*
X124856857Y-83621619D01*
X124904476Y-83716857D01*
X124904476Y-83812095D01*
X124856857Y-83954952D01*
X124285428Y-84526380D01*
X124904476Y-84526380D01*
X125761619Y-83526380D02*
X125571142Y-83526380D01*
X125475904Y-83574000D01*
X125428285Y-83621619D01*
X125333047Y-83764476D01*
X125285428Y-83954952D01*
X125285428Y-84335904D01*
X125333047Y-84431142D01*
X125380666Y-84478761D01*
X125475904Y-84526380D01*
X125666380Y-84526380D01*
X125761619Y-84478761D01*
X125809238Y-84431142D01*
X125856857Y-84335904D01*
X125856857Y-84097809D01*
X125809238Y-84002571D01*
X125761619Y-83954952D01*
X125666380Y-83907333D01*
X125475904Y-83907333D01*
X125380666Y-83954952D01*
X125333047Y-84002571D01*
X125285428Y-84097809D01*
%TO.C,J24*%
X122380476Y-64984380D02*
X122380476Y-65698666D01*
X122332857Y-65841523D01*
X122237619Y-65936761D01*
X122094761Y-65984380D01*
X121999523Y-65984380D01*
X122809047Y-65079619D02*
X122856666Y-65032000D01*
X122951904Y-64984380D01*
X123190000Y-64984380D01*
X123285238Y-65032000D01*
X123332857Y-65079619D01*
X123380476Y-65174857D01*
X123380476Y-65270095D01*
X123332857Y-65412952D01*
X122761428Y-65984380D01*
X123380476Y-65984380D01*
X124237619Y-65317714D02*
X124237619Y-65984380D01*
X123999523Y-64936761D02*
X123761428Y-65651047D01*
X124380476Y-65651047D01*
%TO.C,C15*%
X193921142Y-92813142D02*
X193873523Y-92860761D01*
X193730666Y-92908380D01*
X193635428Y-92908380D01*
X193492571Y-92860761D01*
X193397333Y-92765523D01*
X193349714Y-92670285D01*
X193302095Y-92479809D01*
X193302095Y-92336952D01*
X193349714Y-92146476D01*
X193397333Y-92051238D01*
X193492571Y-91956000D01*
X193635428Y-91908380D01*
X193730666Y-91908380D01*
X193873523Y-91956000D01*
X193921142Y-92003619D01*
X194873523Y-92908380D02*
X194302095Y-92908380D01*
X194587809Y-92908380D02*
X194587809Y-91908380D01*
X194492571Y-92051238D01*
X194397333Y-92146476D01*
X194302095Y-92194095D01*
X195778285Y-91908380D02*
X195302095Y-91908380D01*
X195254476Y-92384571D01*
X195302095Y-92336952D01*
X195397333Y-92289333D01*
X195635428Y-92289333D01*
X195730666Y-92336952D01*
X195778285Y-92384571D01*
X195825904Y-92479809D01*
X195825904Y-92717904D01*
X195778285Y-92813142D01*
X195730666Y-92860761D01*
X195635428Y-92908380D01*
X195397333Y-92908380D01*
X195302095Y-92860761D01*
X195254476Y-92813142D01*
%TO.C,R71*%
X130929142Y-76906380D02*
X130595809Y-76430190D01*
X130357714Y-76906380D02*
X130357714Y-75906380D01*
X130738666Y-75906380D01*
X130833904Y-75954000D01*
X130881523Y-76001619D01*
X130929142Y-76096857D01*
X130929142Y-76239714D01*
X130881523Y-76334952D01*
X130833904Y-76382571D01*
X130738666Y-76430190D01*
X130357714Y-76430190D01*
X131262476Y-75906380D02*
X131929142Y-75906380D01*
X131500571Y-76906380D01*
X132833904Y-76906380D02*
X132262476Y-76906380D01*
X132548190Y-76906380D02*
X132548190Y-75906380D01*
X132452952Y-76049238D01*
X132357714Y-76144476D01*
X132262476Y-76192095D01*
%TO.C,U4*%
X158242095Y-104100380D02*
X158242095Y-104909904D01*
X158289714Y-105005142D01*
X158337333Y-105052761D01*
X158432571Y-105100380D01*
X158623047Y-105100380D01*
X158718285Y-105052761D01*
X158765904Y-105005142D01*
X158813523Y-104909904D01*
X158813523Y-104100380D01*
X159718285Y-104433714D02*
X159718285Y-105100380D01*
X159480190Y-104052761D02*
X159242095Y-104767047D01*
X159861142Y-104767047D01*
%TO.C,R32*%
X151630142Y-107132380D02*
X151296809Y-106656190D01*
X151058714Y-107132380D02*
X151058714Y-106132380D01*
X151439666Y-106132380D01*
X151534904Y-106180000D01*
X151582523Y-106227619D01*
X151630142Y-106322857D01*
X151630142Y-106465714D01*
X151582523Y-106560952D01*
X151534904Y-106608571D01*
X151439666Y-106656190D01*
X151058714Y-106656190D01*
X151963476Y-106132380D02*
X152582523Y-106132380D01*
X152249190Y-106513333D01*
X152392047Y-106513333D01*
X152487285Y-106560952D01*
X152534904Y-106608571D01*
X152582523Y-106703809D01*
X152582523Y-106941904D01*
X152534904Y-107037142D01*
X152487285Y-107084761D01*
X152392047Y-107132380D01*
X152106333Y-107132380D01*
X152011095Y-107084761D01*
X151963476Y-107037142D01*
X152963476Y-106227619D02*
X153011095Y-106180000D01*
X153106333Y-106132380D01*
X153344428Y-106132380D01*
X153439666Y-106180000D01*
X153487285Y-106227619D01*
X153534904Y-106322857D01*
X153534904Y-106418095D01*
X153487285Y-106560952D01*
X152915857Y-107132380D01*
X153534904Y-107132380D01*
%TO.C,R26*%
X151630142Y-110434380D02*
X151296809Y-109958190D01*
X151058714Y-110434380D02*
X151058714Y-109434380D01*
X151439666Y-109434380D01*
X151534904Y-109482000D01*
X151582523Y-109529619D01*
X151630142Y-109624857D01*
X151630142Y-109767714D01*
X151582523Y-109862952D01*
X151534904Y-109910571D01*
X151439666Y-109958190D01*
X151058714Y-109958190D01*
X152011095Y-109529619D02*
X152058714Y-109482000D01*
X152153952Y-109434380D01*
X152392047Y-109434380D01*
X152487285Y-109482000D01*
X152534904Y-109529619D01*
X152582523Y-109624857D01*
X152582523Y-109720095D01*
X152534904Y-109862952D01*
X151963476Y-110434380D01*
X152582523Y-110434380D01*
X153439666Y-109434380D02*
X153249190Y-109434380D01*
X153153952Y-109482000D01*
X153106333Y-109529619D01*
X153011095Y-109672476D01*
X152963476Y-109862952D01*
X152963476Y-110243904D01*
X153011095Y-110339142D01*
X153058714Y-110386761D01*
X153153952Y-110434380D01*
X153344428Y-110434380D01*
X153439666Y-110386761D01*
X153487285Y-110339142D01*
X153534904Y-110243904D01*
X153534904Y-110005809D01*
X153487285Y-109910571D01*
X153439666Y-109862952D01*
X153344428Y-109815333D01*
X153153952Y-109815333D01*
X153058714Y-109862952D01*
X153011095Y-109910571D01*
X152963476Y-110005809D01*
%TO.C,R31*%
X109593142Y-126436380D02*
X109259809Y-125960190D01*
X109021714Y-126436380D02*
X109021714Y-125436380D01*
X109402666Y-125436380D01*
X109497904Y-125484000D01*
X109545523Y-125531619D01*
X109593142Y-125626857D01*
X109593142Y-125769714D01*
X109545523Y-125864952D01*
X109497904Y-125912571D01*
X109402666Y-125960190D01*
X109021714Y-125960190D01*
X109926476Y-125436380D02*
X110545523Y-125436380D01*
X110212190Y-125817333D01*
X110355047Y-125817333D01*
X110450285Y-125864952D01*
X110497904Y-125912571D01*
X110545523Y-126007809D01*
X110545523Y-126245904D01*
X110497904Y-126341142D01*
X110450285Y-126388761D01*
X110355047Y-126436380D01*
X110069333Y-126436380D01*
X109974095Y-126388761D01*
X109926476Y-126341142D01*
X111497904Y-126436380D02*
X110926476Y-126436380D01*
X111212190Y-126436380D02*
X111212190Y-125436380D01*
X111116952Y-125579238D01*
X111021714Y-125674476D01*
X110926476Y-125722095D01*
%TO.C,R67*%
X169537142Y-93924380D02*
X169203809Y-93448190D01*
X168965714Y-93924380D02*
X168965714Y-92924380D01*
X169346666Y-92924380D01*
X169441904Y-92972000D01*
X169489523Y-93019619D01*
X169537142Y-93114857D01*
X169537142Y-93257714D01*
X169489523Y-93352952D01*
X169441904Y-93400571D01*
X169346666Y-93448190D01*
X168965714Y-93448190D01*
X170394285Y-92924380D02*
X170203809Y-92924380D01*
X170108571Y-92972000D01*
X170060952Y-93019619D01*
X169965714Y-93162476D01*
X169918095Y-93352952D01*
X169918095Y-93733904D01*
X169965714Y-93829142D01*
X170013333Y-93876761D01*
X170108571Y-93924380D01*
X170299047Y-93924380D01*
X170394285Y-93876761D01*
X170441904Y-93829142D01*
X170489523Y-93733904D01*
X170489523Y-93495809D01*
X170441904Y-93400571D01*
X170394285Y-93352952D01*
X170299047Y-93305333D01*
X170108571Y-93305333D01*
X170013333Y-93352952D01*
X169965714Y-93400571D01*
X169918095Y-93495809D01*
X170822857Y-92924380D02*
X171489523Y-92924380D01*
X171060952Y-93924380D01*
%TO.C,C19*%
X124071142Y-88789142D02*
X124023523Y-88836761D01*
X123880666Y-88884380D01*
X123785428Y-88884380D01*
X123642571Y-88836761D01*
X123547333Y-88741523D01*
X123499714Y-88646285D01*
X123452095Y-88455809D01*
X123452095Y-88312952D01*
X123499714Y-88122476D01*
X123547333Y-88027238D01*
X123642571Y-87932000D01*
X123785428Y-87884380D01*
X123880666Y-87884380D01*
X124023523Y-87932000D01*
X124071142Y-87979619D01*
X125023523Y-88884380D02*
X124452095Y-88884380D01*
X124737809Y-88884380D02*
X124737809Y-87884380D01*
X124642571Y-88027238D01*
X124547333Y-88122476D01*
X124452095Y-88170095D01*
X125499714Y-88884380D02*
X125690190Y-88884380D01*
X125785428Y-88836761D01*
X125833047Y-88789142D01*
X125928285Y-88646285D01*
X125975904Y-88455809D01*
X125975904Y-88074857D01*
X125928285Y-87979619D01*
X125880666Y-87932000D01*
X125785428Y-87884380D01*
X125594952Y-87884380D01*
X125499714Y-87932000D01*
X125452095Y-87979619D01*
X125404476Y-88074857D01*
X125404476Y-88312952D01*
X125452095Y-88408190D01*
X125499714Y-88455809D01*
X125594952Y-88503428D01*
X125785428Y-88503428D01*
X125880666Y-88455809D01*
X125928285Y-88408190D01*
X125975904Y-88312952D01*
%TO.C,R66*%
X123309142Y-125420380D02*
X122975809Y-124944190D01*
X122737714Y-125420380D02*
X122737714Y-124420380D01*
X123118666Y-124420380D01*
X123213904Y-124468000D01*
X123261523Y-124515619D01*
X123309142Y-124610857D01*
X123309142Y-124753714D01*
X123261523Y-124848952D01*
X123213904Y-124896571D01*
X123118666Y-124944190D01*
X122737714Y-124944190D01*
X124166285Y-124420380D02*
X123975809Y-124420380D01*
X123880571Y-124468000D01*
X123832952Y-124515619D01*
X123737714Y-124658476D01*
X123690095Y-124848952D01*
X123690095Y-125229904D01*
X123737714Y-125325142D01*
X123785333Y-125372761D01*
X123880571Y-125420380D01*
X124071047Y-125420380D01*
X124166285Y-125372761D01*
X124213904Y-125325142D01*
X124261523Y-125229904D01*
X124261523Y-124991809D01*
X124213904Y-124896571D01*
X124166285Y-124848952D01*
X124071047Y-124801333D01*
X123880571Y-124801333D01*
X123785333Y-124848952D01*
X123737714Y-124896571D01*
X123690095Y-124991809D01*
X125118666Y-124420380D02*
X124928190Y-124420380D01*
X124832952Y-124468000D01*
X124785333Y-124515619D01*
X124690095Y-124658476D01*
X124642476Y-124848952D01*
X124642476Y-125229904D01*
X124690095Y-125325142D01*
X124737714Y-125372761D01*
X124832952Y-125420380D01*
X125023428Y-125420380D01*
X125118666Y-125372761D01*
X125166285Y-125325142D01*
X125213904Y-125229904D01*
X125213904Y-124991809D01*
X125166285Y-124896571D01*
X125118666Y-124848952D01*
X125023428Y-124801333D01*
X124832952Y-124801333D01*
X124737714Y-124848952D01*
X124690095Y-124896571D01*
X124642476Y-124991809D01*
%TO.C,R25*%
X156583142Y-80965380D02*
X156249809Y-80489190D01*
X156011714Y-80965380D02*
X156011714Y-79965380D01*
X156392666Y-79965380D01*
X156487904Y-80013000D01*
X156535523Y-80060619D01*
X156583142Y-80155857D01*
X156583142Y-80298714D01*
X156535523Y-80393952D01*
X156487904Y-80441571D01*
X156392666Y-80489190D01*
X156011714Y-80489190D01*
X156964095Y-80060619D02*
X157011714Y-80013000D01*
X157106952Y-79965380D01*
X157345047Y-79965380D01*
X157440285Y-80013000D01*
X157487904Y-80060619D01*
X157535523Y-80155857D01*
X157535523Y-80251095D01*
X157487904Y-80393952D01*
X156916476Y-80965380D01*
X157535523Y-80965380D01*
X158440285Y-79965380D02*
X157964095Y-79965380D01*
X157916476Y-80441571D01*
X157964095Y-80393952D01*
X158059333Y-80346333D01*
X158297428Y-80346333D01*
X158392666Y-80393952D01*
X158440285Y-80441571D01*
X158487904Y-80536809D01*
X158487904Y-80774904D01*
X158440285Y-80870142D01*
X158392666Y-80917761D01*
X158297428Y-80965380D01*
X158059333Y-80965380D01*
X157964095Y-80917761D01*
X157916476Y-80870142D01*
%TO.C,R30*%
X108402380Y-115958857D02*
X107926190Y-116292190D01*
X108402380Y-116530285D02*
X107402380Y-116530285D01*
X107402380Y-116149333D01*
X107450000Y-116054095D01*
X107497619Y-116006476D01*
X107592857Y-115958857D01*
X107735714Y-115958857D01*
X107830952Y-116006476D01*
X107878571Y-116054095D01*
X107926190Y-116149333D01*
X107926190Y-116530285D01*
X107402380Y-115625523D02*
X107402380Y-115006476D01*
X107783333Y-115339809D01*
X107783333Y-115196952D01*
X107830952Y-115101714D01*
X107878571Y-115054095D01*
X107973809Y-115006476D01*
X108211904Y-115006476D01*
X108307142Y-115054095D01*
X108354761Y-115101714D01*
X108402380Y-115196952D01*
X108402380Y-115482666D01*
X108354761Y-115577904D01*
X108307142Y-115625523D01*
X107402380Y-114387428D02*
X107402380Y-114292190D01*
X107450000Y-114196952D01*
X107497619Y-114149333D01*
X107592857Y-114101714D01*
X107783333Y-114054095D01*
X108021428Y-114054095D01*
X108211904Y-114101714D01*
X108307142Y-114149333D01*
X108354761Y-114196952D01*
X108402380Y-114292190D01*
X108402380Y-114387428D01*
X108354761Y-114482666D01*
X108307142Y-114530285D01*
X108211904Y-114577904D01*
X108021428Y-114625523D01*
X107783333Y-114625523D01*
X107592857Y-114577904D01*
X107497619Y-114530285D01*
X107450000Y-114482666D01*
X107402380Y-114387428D01*
%TO.C,R61*%
X167330380Y-120784857D02*
X166854190Y-121118190D01*
X167330380Y-121356285D02*
X166330380Y-121356285D01*
X166330380Y-120975333D01*
X166378000Y-120880095D01*
X166425619Y-120832476D01*
X166520857Y-120784857D01*
X166663714Y-120784857D01*
X166758952Y-120832476D01*
X166806571Y-120880095D01*
X166854190Y-120975333D01*
X166854190Y-121356285D01*
X166330380Y-119927714D02*
X166330380Y-120118190D01*
X166378000Y-120213428D01*
X166425619Y-120261047D01*
X166568476Y-120356285D01*
X166758952Y-120403904D01*
X167139904Y-120403904D01*
X167235142Y-120356285D01*
X167282761Y-120308666D01*
X167330380Y-120213428D01*
X167330380Y-120022952D01*
X167282761Y-119927714D01*
X167235142Y-119880095D01*
X167139904Y-119832476D01*
X166901809Y-119832476D01*
X166806571Y-119880095D01*
X166758952Y-119927714D01*
X166711333Y-120022952D01*
X166711333Y-120213428D01*
X166758952Y-120308666D01*
X166806571Y-120356285D01*
X166901809Y-120403904D01*
X167330380Y-118880095D02*
X167330380Y-119451523D01*
X167330380Y-119165809D02*
X166330380Y-119165809D01*
X166473238Y-119261047D01*
X166568476Y-119356285D01*
X166616095Y-119451523D01*
%TO.C,D2*%
X150566380Y-88876095D02*
X149566380Y-88876095D01*
X149566380Y-88638000D01*
X149614000Y-88495142D01*
X149709238Y-88399904D01*
X149804476Y-88352285D01*
X149994952Y-88304666D01*
X150137809Y-88304666D01*
X150328285Y-88352285D01*
X150423523Y-88399904D01*
X150518761Y-88495142D01*
X150566380Y-88638000D01*
X150566380Y-88876095D01*
X149661619Y-87923714D02*
X149614000Y-87876095D01*
X149566380Y-87780857D01*
X149566380Y-87542761D01*
X149614000Y-87447523D01*
X149661619Y-87399904D01*
X149756857Y-87352285D01*
X149852095Y-87352285D01*
X149994952Y-87399904D01*
X150566380Y-87971333D01*
X150566380Y-87352285D01*
%TO.C,R60*%
X183907142Y-104102380D02*
X183573809Y-103626190D01*
X183335714Y-104102380D02*
X183335714Y-103102380D01*
X183716666Y-103102380D01*
X183811904Y-103150000D01*
X183859523Y-103197619D01*
X183907142Y-103292857D01*
X183907142Y-103435714D01*
X183859523Y-103530952D01*
X183811904Y-103578571D01*
X183716666Y-103626190D01*
X183335714Y-103626190D01*
X184764285Y-103102380D02*
X184573809Y-103102380D01*
X184478571Y-103150000D01*
X184430952Y-103197619D01*
X184335714Y-103340476D01*
X184288095Y-103530952D01*
X184288095Y-103911904D01*
X184335714Y-104007142D01*
X184383333Y-104054761D01*
X184478571Y-104102380D01*
X184669047Y-104102380D01*
X184764285Y-104054761D01*
X184811904Y-104007142D01*
X184859523Y-103911904D01*
X184859523Y-103673809D01*
X184811904Y-103578571D01*
X184764285Y-103530952D01*
X184669047Y-103483333D01*
X184478571Y-103483333D01*
X184383333Y-103530952D01*
X184335714Y-103578571D01*
X184288095Y-103673809D01*
X185478571Y-103102380D02*
X185573809Y-103102380D01*
X185669047Y-103150000D01*
X185716666Y-103197619D01*
X185764285Y-103292857D01*
X185811904Y-103483333D01*
X185811904Y-103721428D01*
X185764285Y-103911904D01*
X185716666Y-104007142D01*
X185669047Y-104054761D01*
X185573809Y-104102380D01*
X185478571Y-104102380D01*
X185383333Y-104054761D01*
X185335714Y-104007142D01*
X185288095Y-103911904D01*
X185240476Y-103721428D01*
X185240476Y-103483333D01*
X185288095Y-103292857D01*
X185335714Y-103197619D01*
X185383333Y-103150000D01*
X185478571Y-103102380D01*
%TO.C,C12*%
X166444255Y-87165142D02*
X166396636Y-87212761D01*
X166253779Y-87260380D01*
X166158541Y-87260380D01*
X166015684Y-87212761D01*
X165920446Y-87117523D01*
X165872827Y-87022285D01*
X165825208Y-86831809D01*
X165825208Y-86688952D01*
X165872827Y-86498476D01*
X165920446Y-86403238D01*
X166015684Y-86308000D01*
X166158541Y-86260380D01*
X166253779Y-86260380D01*
X166396636Y-86308000D01*
X166444255Y-86355619D01*
X167396636Y-87260380D02*
X166825208Y-87260380D01*
X167110922Y-87260380D02*
X167110922Y-86260380D01*
X167015684Y-86403238D01*
X166920446Y-86498476D01*
X166825208Y-86546095D01*
X167777589Y-86355619D02*
X167825208Y-86308000D01*
X167920446Y-86260380D01*
X168158541Y-86260380D01*
X168253779Y-86308000D01*
X168301398Y-86355619D01*
X168349017Y-86450857D01*
X168349017Y-86546095D01*
X168301398Y-86688952D01*
X167729970Y-87260380D01*
X168349017Y-87260380D01*
%TO.C,R69*%
X145548380Y-108612857D02*
X145072190Y-108946190D01*
X145548380Y-109184285D02*
X144548380Y-109184285D01*
X144548380Y-108803333D01*
X144596000Y-108708095D01*
X144643619Y-108660476D01*
X144738857Y-108612857D01*
X144881714Y-108612857D01*
X144976952Y-108660476D01*
X145024571Y-108708095D01*
X145072190Y-108803333D01*
X145072190Y-109184285D01*
X144548380Y-107755714D02*
X144548380Y-107946190D01*
X144596000Y-108041428D01*
X144643619Y-108089047D01*
X144786476Y-108184285D01*
X144976952Y-108231904D01*
X145357904Y-108231904D01*
X145453142Y-108184285D01*
X145500761Y-108136666D01*
X145548380Y-108041428D01*
X145548380Y-107850952D01*
X145500761Y-107755714D01*
X145453142Y-107708095D01*
X145357904Y-107660476D01*
X145119809Y-107660476D01*
X145024571Y-107708095D01*
X144976952Y-107755714D01*
X144929333Y-107850952D01*
X144929333Y-108041428D01*
X144976952Y-108136666D01*
X145024571Y-108184285D01*
X145119809Y-108231904D01*
X145548380Y-107184285D02*
X145548380Y-106993809D01*
X145500761Y-106898571D01*
X145453142Y-106850952D01*
X145310285Y-106755714D01*
X145119809Y-106708095D01*
X144738857Y-106708095D01*
X144643619Y-106755714D01*
X144596000Y-106803333D01*
X144548380Y-106898571D01*
X144548380Y-107089047D01*
X144596000Y-107184285D01*
X144643619Y-107231904D01*
X144738857Y-107279523D01*
X144976952Y-107279523D01*
X145072190Y-107231904D01*
X145119809Y-107184285D01*
X145167428Y-107089047D01*
X145167428Y-106898571D01*
X145119809Y-106803333D01*
X145072190Y-106755714D01*
X144976952Y-106708095D01*
%TO.C,U2*%
X130556095Y-100290380D02*
X130556095Y-101099904D01*
X130603714Y-101195142D01*
X130651333Y-101242761D01*
X130746571Y-101290380D01*
X130937047Y-101290380D01*
X131032285Y-101242761D01*
X131079904Y-101195142D01*
X131127523Y-101099904D01*
X131127523Y-100290380D01*
X131556095Y-100385619D02*
X131603714Y-100338000D01*
X131698952Y-100290380D01*
X131937047Y-100290380D01*
X132032285Y-100338000D01*
X132079904Y-100385619D01*
X132127523Y-100480857D01*
X132127523Y-100576095D01*
X132079904Y-100718952D01*
X131508476Y-101290380D01*
X132127523Y-101290380D01*
%TO.C,J13*%
X107590476Y-121727380D02*
X107590476Y-122441666D01*
X107542857Y-122584523D01*
X107447619Y-122679761D01*
X107304761Y-122727380D01*
X107209523Y-122727380D01*
X108590476Y-122727380D02*
X108019047Y-122727380D01*
X108304761Y-122727380D02*
X108304761Y-121727380D01*
X108209523Y-121870238D01*
X108114285Y-121965476D01*
X108019047Y-122013095D01*
X108923809Y-121727380D02*
X109542857Y-121727380D01*
X109209523Y-122108333D01*
X109352380Y-122108333D01*
X109447619Y-122155952D01*
X109495238Y-122203571D01*
X109542857Y-122298809D01*
X109542857Y-122536904D01*
X109495238Y-122632142D01*
X109447619Y-122679761D01*
X109352380Y-122727380D01*
X109066666Y-122727380D01*
X108971428Y-122679761D01*
X108923809Y-122632142D01*
%TO.C,D4*%
X166647904Y-75636380D02*
X166647904Y-74636380D01*
X166886000Y-74636380D01*
X167028857Y-74684000D01*
X167124095Y-74779238D01*
X167171714Y-74874476D01*
X167219333Y-75064952D01*
X167219333Y-75207809D01*
X167171714Y-75398285D01*
X167124095Y-75493523D01*
X167028857Y-75588761D01*
X166886000Y-75636380D01*
X166647904Y-75636380D01*
X168076476Y-74969714D02*
X168076476Y-75636380D01*
X167838380Y-74588761D02*
X167600285Y-75303047D01*
X168219333Y-75303047D01*
%TO.C,C2*%
X145890833Y-81891142D02*
X145843214Y-81938761D01*
X145700357Y-81986380D01*
X145605119Y-81986380D01*
X145462261Y-81938761D01*
X145367023Y-81843523D01*
X145319404Y-81748285D01*
X145271785Y-81557809D01*
X145271785Y-81414952D01*
X145319404Y-81224476D01*
X145367023Y-81129238D01*
X145462261Y-81034000D01*
X145605119Y-80986380D01*
X145700357Y-80986380D01*
X145843214Y-81034000D01*
X145890833Y-81081619D01*
X146271785Y-81081619D02*
X146319404Y-81034000D01*
X146414642Y-80986380D01*
X146652738Y-80986380D01*
X146747976Y-81034000D01*
X146795595Y-81081619D01*
X146843214Y-81176857D01*
X146843214Y-81272095D01*
X146795595Y-81414952D01*
X146224166Y-81986380D01*
X146843214Y-81986380D01*
%TO.C,R21*%
X147288142Y-118402380D02*
X146954809Y-117926190D01*
X146716714Y-118402380D02*
X146716714Y-117402380D01*
X147097666Y-117402380D01*
X147192904Y-117450000D01*
X147240523Y-117497619D01*
X147288142Y-117592857D01*
X147288142Y-117735714D01*
X147240523Y-117830952D01*
X147192904Y-117878571D01*
X147097666Y-117926190D01*
X146716714Y-117926190D01*
X147669095Y-117497619D02*
X147716714Y-117450000D01*
X147811952Y-117402380D01*
X148050047Y-117402380D01*
X148145285Y-117450000D01*
X148192904Y-117497619D01*
X148240523Y-117592857D01*
X148240523Y-117688095D01*
X148192904Y-117830952D01*
X147621476Y-118402380D01*
X148240523Y-118402380D01*
X149192904Y-118402380D02*
X148621476Y-118402380D01*
X148907190Y-118402380D02*
X148907190Y-117402380D01*
X148811952Y-117545238D01*
X148716714Y-117640476D01*
X148621476Y-117688095D01*
%TO.C,D1*%
X124483904Y-96972380D02*
X124483904Y-95972380D01*
X124722000Y-95972380D01*
X124864857Y-96020000D01*
X124960095Y-96115238D01*
X125007714Y-96210476D01*
X125055333Y-96400952D01*
X125055333Y-96543809D01*
X125007714Y-96734285D01*
X124960095Y-96829523D01*
X124864857Y-96924761D01*
X124722000Y-96972380D01*
X124483904Y-96972380D01*
X126007714Y-96972380D02*
X125436285Y-96972380D01*
X125722000Y-96972380D02*
X125722000Y-95972380D01*
X125626761Y-96115238D01*
X125531523Y-96210476D01*
X125436285Y-96258095D01*
X125674380Y-91193904D02*
X124674380Y-91193904D01*
X125674380Y-90622476D02*
X125102952Y-91051047D01*
X124674380Y-90622476D02*
X125245809Y-91193904D01*
%TO.C,R40*%
X169283142Y-90622380D02*
X168949809Y-90146190D01*
X168711714Y-90622380D02*
X168711714Y-89622380D01*
X169092666Y-89622380D01*
X169187904Y-89670000D01*
X169235523Y-89717619D01*
X169283142Y-89812857D01*
X169283142Y-89955714D01*
X169235523Y-90050952D01*
X169187904Y-90098571D01*
X169092666Y-90146190D01*
X168711714Y-90146190D01*
X170140285Y-89955714D02*
X170140285Y-90622380D01*
X169902190Y-89574761D02*
X169664095Y-90289047D01*
X170283142Y-90289047D01*
X170854571Y-89622380D02*
X170949809Y-89622380D01*
X171045047Y-89670000D01*
X171092666Y-89717619D01*
X171140285Y-89812857D01*
X171187904Y-90003333D01*
X171187904Y-90241428D01*
X171140285Y-90431904D01*
X171092666Y-90527142D01*
X171045047Y-90574761D01*
X170949809Y-90622380D01*
X170854571Y-90622380D01*
X170759333Y-90574761D01*
X170711714Y-90527142D01*
X170664095Y-90431904D01*
X170616476Y-90241428D01*
X170616476Y-90003333D01*
X170664095Y-89812857D01*
X170711714Y-89717619D01*
X170759333Y-89670000D01*
X170854571Y-89622380D01*
%TO.C,C14*%
X142157142Y-123017857D02*
X142204761Y-123065476D01*
X142252380Y-123208333D01*
X142252380Y-123303571D01*
X142204761Y-123446428D01*
X142109523Y-123541666D01*
X142014285Y-123589285D01*
X141823809Y-123636904D01*
X141680952Y-123636904D01*
X141490476Y-123589285D01*
X141395238Y-123541666D01*
X141300000Y-123446428D01*
X141252380Y-123303571D01*
X141252380Y-123208333D01*
X141300000Y-123065476D01*
X141347619Y-123017857D01*
X142252380Y-122065476D02*
X142252380Y-122636904D01*
X142252380Y-122351190D02*
X141252380Y-122351190D01*
X141395238Y-122446428D01*
X141490476Y-122541666D01*
X141538095Y-122636904D01*
X141585714Y-121208333D02*
X142252380Y-121208333D01*
X141204761Y-121446428D02*
X141919047Y-121684523D01*
X141919047Y-121065476D01*
%TO.C,D6*%
X166647904Y-70556380D02*
X166647904Y-69556380D01*
X166886000Y-69556380D01*
X167028857Y-69604000D01*
X167124095Y-69699238D01*
X167171714Y-69794476D01*
X167219333Y-69984952D01*
X167219333Y-70127809D01*
X167171714Y-70318285D01*
X167124095Y-70413523D01*
X167028857Y-70508761D01*
X166886000Y-70556380D01*
X166647904Y-70556380D01*
X168076476Y-69556380D02*
X167886000Y-69556380D01*
X167790761Y-69604000D01*
X167743142Y-69651619D01*
X167647904Y-69794476D01*
X167600285Y-69984952D01*
X167600285Y-70365904D01*
X167647904Y-70461142D01*
X167695523Y-70508761D01*
X167790761Y-70556380D01*
X167981238Y-70556380D01*
X168076476Y-70508761D01*
X168124095Y-70461142D01*
X168171714Y-70365904D01*
X168171714Y-70127809D01*
X168124095Y-70032571D01*
X168076476Y-69984952D01*
X167981238Y-69937333D01*
X167790761Y-69937333D01*
X167695523Y-69984952D01*
X167647904Y-70032571D01*
X167600285Y-70127809D01*
%TO.C,C1*%
X140307833Y-81891142D02*
X140260214Y-81938761D01*
X140117357Y-81986380D01*
X140022119Y-81986380D01*
X139879261Y-81938761D01*
X139784023Y-81843523D01*
X139736404Y-81748285D01*
X139688785Y-81557809D01*
X139688785Y-81414952D01*
X139736404Y-81224476D01*
X139784023Y-81129238D01*
X139879261Y-81034000D01*
X140022119Y-80986380D01*
X140117357Y-80986380D01*
X140260214Y-81034000D01*
X140307833Y-81081619D01*
X141260214Y-81986380D02*
X140688785Y-81986380D01*
X140974500Y-81986380D02*
X140974500Y-80986380D01*
X140879261Y-81129238D01*
X140784023Y-81224476D01*
X140688785Y-81272095D01*
%TO.C,U7*%
X171704095Y-86320380D02*
X171704095Y-87129904D01*
X171751714Y-87225142D01*
X171799333Y-87272761D01*
X171894571Y-87320380D01*
X172085047Y-87320380D01*
X172180285Y-87272761D01*
X172227904Y-87225142D01*
X172275523Y-87129904D01*
X172275523Y-86320380D01*
X172656476Y-86320380D02*
X173323142Y-86320380D01*
X172894571Y-87320380D01*
%TO.C,R35*%
X180205142Y-83764380D02*
X179871809Y-83288190D01*
X179633714Y-83764380D02*
X179633714Y-82764380D01*
X180014666Y-82764380D01*
X180109904Y-82812000D01*
X180157523Y-82859619D01*
X180205142Y-82954857D01*
X180205142Y-83097714D01*
X180157523Y-83192952D01*
X180109904Y-83240571D01*
X180014666Y-83288190D01*
X179633714Y-83288190D01*
X180538476Y-82764380D02*
X181157523Y-82764380D01*
X180824190Y-83145333D01*
X180967047Y-83145333D01*
X181062285Y-83192952D01*
X181109904Y-83240571D01*
X181157523Y-83335809D01*
X181157523Y-83573904D01*
X181109904Y-83669142D01*
X181062285Y-83716761D01*
X180967047Y-83764380D01*
X180681333Y-83764380D01*
X180586095Y-83716761D01*
X180538476Y-83669142D01*
X182062285Y-82764380D02*
X181586095Y-82764380D01*
X181538476Y-83240571D01*
X181586095Y-83192952D01*
X181681333Y-83145333D01*
X181919428Y-83145333D01*
X182014666Y-83192952D01*
X182062285Y-83240571D01*
X182109904Y-83335809D01*
X182109904Y-83573904D01*
X182062285Y-83669142D01*
X182014666Y-83716761D01*
X181919428Y-83764380D01*
X181681333Y-83764380D01*
X181586095Y-83716761D01*
X181538476Y-83669142D01*
%TO.C,R8*%
X131405333Y-70810380D02*
X131072000Y-70334190D01*
X130833904Y-70810380D02*
X130833904Y-69810380D01*
X131214857Y-69810380D01*
X131310095Y-69858000D01*
X131357714Y-69905619D01*
X131405333Y-70000857D01*
X131405333Y-70143714D01*
X131357714Y-70238952D01*
X131310095Y-70286571D01*
X131214857Y-70334190D01*
X130833904Y-70334190D01*
X131976761Y-70238952D02*
X131881523Y-70191333D01*
X131833904Y-70143714D01*
X131786285Y-70048476D01*
X131786285Y-70000857D01*
X131833904Y-69905619D01*
X131881523Y-69858000D01*
X131976761Y-69810380D01*
X132167238Y-69810380D01*
X132262476Y-69858000D01*
X132310095Y-69905619D01*
X132357714Y-70000857D01*
X132357714Y-70048476D01*
X132310095Y-70143714D01*
X132262476Y-70191333D01*
X132167238Y-70238952D01*
X131976761Y-70238952D01*
X131881523Y-70286571D01*
X131833904Y-70334190D01*
X131786285Y-70429428D01*
X131786285Y-70619904D01*
X131833904Y-70715142D01*
X131881523Y-70762761D01*
X131976761Y-70810380D01*
X132167238Y-70810380D01*
X132262476Y-70762761D01*
X132310095Y-70715142D01*
X132357714Y-70619904D01*
X132357714Y-70429428D01*
X132310095Y-70334190D01*
X132262476Y-70286571D01*
X132167238Y-70238952D01*
%TO.C,U6*%
X180340095Y-65492380D02*
X180340095Y-66301904D01*
X180387714Y-66397142D01*
X180435333Y-66444761D01*
X180530571Y-66492380D01*
X180721047Y-66492380D01*
X180816285Y-66444761D01*
X180863904Y-66397142D01*
X180911523Y-66301904D01*
X180911523Y-65492380D01*
X181816285Y-65492380D02*
X181625809Y-65492380D01*
X181530571Y-65540000D01*
X181482952Y-65587619D01*
X181387714Y-65730476D01*
X181340095Y-65920952D01*
X181340095Y-66301904D01*
X181387714Y-66397142D01*
X181435333Y-66444761D01*
X181530571Y-66492380D01*
X181721047Y-66492380D01*
X181816285Y-66444761D01*
X181863904Y-66397142D01*
X181911523Y-66301904D01*
X181911523Y-66063809D01*
X181863904Y-65968571D01*
X181816285Y-65920952D01*
X181721047Y-65873333D01*
X181530571Y-65873333D01*
X181435333Y-65920952D01*
X181387714Y-65968571D01*
X181340095Y-66063809D01*
%TO.C,R36*%
X190873142Y-99512380D02*
X190539809Y-99036190D01*
X190301714Y-99512380D02*
X190301714Y-98512380D01*
X190682666Y-98512380D01*
X190777904Y-98560000D01*
X190825523Y-98607619D01*
X190873142Y-98702857D01*
X190873142Y-98845714D01*
X190825523Y-98940952D01*
X190777904Y-98988571D01*
X190682666Y-99036190D01*
X190301714Y-99036190D01*
X191206476Y-98512380D02*
X191825523Y-98512380D01*
X191492190Y-98893333D01*
X191635047Y-98893333D01*
X191730285Y-98940952D01*
X191777904Y-98988571D01*
X191825523Y-99083809D01*
X191825523Y-99321904D01*
X191777904Y-99417142D01*
X191730285Y-99464761D01*
X191635047Y-99512380D01*
X191349333Y-99512380D01*
X191254095Y-99464761D01*
X191206476Y-99417142D01*
X192682666Y-98512380D02*
X192492190Y-98512380D01*
X192396952Y-98560000D01*
X192349333Y-98607619D01*
X192254095Y-98750476D01*
X192206476Y-98940952D01*
X192206476Y-99321904D01*
X192254095Y-99417142D01*
X192301714Y-99464761D01*
X192396952Y-99512380D01*
X192587428Y-99512380D01*
X192682666Y-99464761D01*
X192730285Y-99417142D01*
X192777904Y-99321904D01*
X192777904Y-99083809D01*
X192730285Y-98988571D01*
X192682666Y-98940952D01*
X192587428Y-98893333D01*
X192396952Y-98893333D01*
X192301714Y-98940952D01*
X192254095Y-98988571D01*
X192206476Y-99083809D01*
%TO.C,R5*%
X138263333Y-73589380D02*
X137930000Y-73113190D01*
X137691904Y-73589380D02*
X137691904Y-72589380D01*
X138072857Y-72589380D01*
X138168095Y-72637000D01*
X138215714Y-72684619D01*
X138263333Y-72779857D01*
X138263333Y-72922714D01*
X138215714Y-73017952D01*
X138168095Y-73065571D01*
X138072857Y-73113190D01*
X137691904Y-73113190D01*
X139168095Y-72589380D02*
X138691904Y-72589380D01*
X138644285Y-73065571D01*
X138691904Y-73017952D01*
X138787142Y-72970333D01*
X139025238Y-72970333D01*
X139120476Y-73017952D01*
X139168095Y-73065571D01*
X139215714Y-73160809D01*
X139215714Y-73398904D01*
X139168095Y-73494142D01*
X139120476Y-73541761D01*
X139025238Y-73589380D01*
X138787142Y-73589380D01*
X138691904Y-73541761D01*
X138644285Y-73494142D01*
%TO.C,C5*%
X117689333Y-125853142D02*
X117641714Y-125900761D01*
X117498857Y-125948380D01*
X117403619Y-125948380D01*
X117260761Y-125900761D01*
X117165523Y-125805523D01*
X117117904Y-125710285D01*
X117070285Y-125519809D01*
X117070285Y-125376952D01*
X117117904Y-125186476D01*
X117165523Y-125091238D01*
X117260761Y-124996000D01*
X117403619Y-124948380D01*
X117498857Y-124948380D01*
X117641714Y-124996000D01*
X117689333Y-125043619D01*
X118594095Y-124948380D02*
X118117904Y-124948380D01*
X118070285Y-125424571D01*
X118117904Y-125376952D01*
X118213142Y-125329333D01*
X118451238Y-125329333D01*
X118546476Y-125376952D01*
X118594095Y-125424571D01*
X118641714Y-125519809D01*
X118641714Y-125757904D01*
X118594095Y-125853142D01*
X118546476Y-125900761D01*
X118451238Y-125948380D01*
X118213142Y-125948380D01*
X118117904Y-125900761D01*
X118070285Y-125853142D01*
%TO.C,R47*%
X139565142Y-89860380D02*
X139231809Y-89384190D01*
X138993714Y-89860380D02*
X138993714Y-88860380D01*
X139374666Y-88860380D01*
X139469904Y-88908000D01*
X139517523Y-88955619D01*
X139565142Y-89050857D01*
X139565142Y-89193714D01*
X139517523Y-89288952D01*
X139469904Y-89336571D01*
X139374666Y-89384190D01*
X138993714Y-89384190D01*
X140422285Y-89193714D02*
X140422285Y-89860380D01*
X140184190Y-88812761D02*
X139946095Y-89527047D01*
X140565142Y-89527047D01*
X140850857Y-88860380D02*
X141517523Y-88860380D01*
X141088952Y-89860380D01*
%TO.C,R28*%
X105354380Y-115958857D02*
X104878190Y-116292190D01*
X105354380Y-116530285D02*
X104354380Y-116530285D01*
X104354380Y-116149333D01*
X104402000Y-116054095D01*
X104449619Y-116006476D01*
X104544857Y-115958857D01*
X104687714Y-115958857D01*
X104782952Y-116006476D01*
X104830571Y-116054095D01*
X104878190Y-116149333D01*
X104878190Y-116530285D01*
X104449619Y-115577904D02*
X104402000Y-115530285D01*
X104354380Y-115435047D01*
X104354380Y-115196952D01*
X104402000Y-115101714D01*
X104449619Y-115054095D01*
X104544857Y-115006476D01*
X104640095Y-115006476D01*
X104782952Y-115054095D01*
X105354380Y-115625523D01*
X105354380Y-115006476D01*
X104782952Y-114435047D02*
X104735333Y-114530285D01*
X104687714Y-114577904D01*
X104592476Y-114625523D01*
X104544857Y-114625523D01*
X104449619Y-114577904D01*
X104402000Y-114530285D01*
X104354380Y-114435047D01*
X104354380Y-114244571D01*
X104402000Y-114149333D01*
X104449619Y-114101714D01*
X104544857Y-114054095D01*
X104592476Y-114054095D01*
X104687714Y-114101714D01*
X104735333Y-114149333D01*
X104782952Y-114244571D01*
X104782952Y-114435047D01*
X104830571Y-114530285D01*
X104878190Y-114577904D01*
X104973428Y-114625523D01*
X105163904Y-114625523D01*
X105259142Y-114577904D01*
X105306761Y-114530285D01*
X105354380Y-114435047D01*
X105354380Y-114244571D01*
X105306761Y-114149333D01*
X105259142Y-114101714D01*
X105163904Y-114054095D01*
X104973428Y-114054095D01*
X104878190Y-114101714D01*
X104830571Y-114149333D01*
X104782952Y-114244571D01*
%TO.C,R42*%
X135247142Y-115006380D02*
X134913809Y-114530190D01*
X134675714Y-115006380D02*
X134675714Y-114006380D01*
X135056666Y-114006380D01*
X135151904Y-114054000D01*
X135199523Y-114101619D01*
X135247142Y-114196857D01*
X135247142Y-114339714D01*
X135199523Y-114434952D01*
X135151904Y-114482571D01*
X135056666Y-114530190D01*
X134675714Y-114530190D01*
X136104285Y-114339714D02*
X136104285Y-115006380D01*
X135866190Y-113958761D02*
X135628095Y-114673047D01*
X136247142Y-114673047D01*
X136580476Y-114101619D02*
X136628095Y-114054000D01*
X136723333Y-114006380D01*
X136961428Y-114006380D01*
X137056666Y-114054000D01*
X137104285Y-114101619D01*
X137151904Y-114196857D01*
X137151904Y-114292095D01*
X137104285Y-114434952D01*
X136532857Y-115006380D01*
X137151904Y-115006380D01*
%TO.C,J15*%
X191976476Y-101814380D02*
X191976476Y-102528666D01*
X191928857Y-102671523D01*
X191833619Y-102766761D01*
X191690761Y-102814380D01*
X191595523Y-102814380D01*
X192976476Y-102814380D02*
X192405047Y-102814380D01*
X192690761Y-102814380D02*
X192690761Y-101814380D01*
X192595523Y-101957238D01*
X192500285Y-102052476D01*
X192405047Y-102100095D01*
X193881238Y-101814380D02*
X193405047Y-101814380D01*
X193357428Y-102290571D01*
X193405047Y-102242952D01*
X193500285Y-102195333D01*
X193738380Y-102195333D01*
X193833619Y-102242952D01*
X193881238Y-102290571D01*
X193928857Y-102385809D01*
X193928857Y-102623904D01*
X193881238Y-102719142D01*
X193833619Y-102766761D01*
X193738380Y-102814380D01*
X193500285Y-102814380D01*
X193405047Y-102766761D01*
X193357428Y-102719142D01*
%TO.C,R23*%
X114165142Y-73858380D02*
X113831809Y-73382190D01*
X113593714Y-73858380D02*
X113593714Y-72858380D01*
X113974666Y-72858380D01*
X114069904Y-72906000D01*
X114117523Y-72953619D01*
X114165142Y-73048857D01*
X114165142Y-73191714D01*
X114117523Y-73286952D01*
X114069904Y-73334571D01*
X113974666Y-73382190D01*
X113593714Y-73382190D01*
X114546095Y-72953619D02*
X114593714Y-72906000D01*
X114688952Y-72858380D01*
X114927047Y-72858380D01*
X115022285Y-72906000D01*
X115069904Y-72953619D01*
X115117523Y-73048857D01*
X115117523Y-73144095D01*
X115069904Y-73286952D01*
X114498476Y-73858380D01*
X115117523Y-73858380D01*
X115450857Y-72858380D02*
X116069904Y-72858380D01*
X115736571Y-73239333D01*
X115879428Y-73239333D01*
X115974666Y-73286952D01*
X116022285Y-73334571D01*
X116069904Y-73429809D01*
X116069904Y-73667904D01*
X116022285Y-73763142D01*
X115974666Y-73810761D01*
X115879428Y-73858380D01*
X115593714Y-73858380D01*
X115498476Y-73810761D01*
X115450857Y-73763142D01*
%TO.C,R51*%
X170378380Y-120784857D02*
X169902190Y-121118190D01*
X170378380Y-121356285D02*
X169378380Y-121356285D01*
X169378380Y-120975333D01*
X169426000Y-120880095D01*
X169473619Y-120832476D01*
X169568857Y-120784857D01*
X169711714Y-120784857D01*
X169806952Y-120832476D01*
X169854571Y-120880095D01*
X169902190Y-120975333D01*
X169902190Y-121356285D01*
X169378380Y-119880095D02*
X169378380Y-120356285D01*
X169854571Y-120403904D01*
X169806952Y-120356285D01*
X169759333Y-120261047D01*
X169759333Y-120022952D01*
X169806952Y-119927714D01*
X169854571Y-119880095D01*
X169949809Y-119832476D01*
X170187904Y-119832476D01*
X170283142Y-119880095D01*
X170330761Y-119927714D01*
X170378380Y-120022952D01*
X170378380Y-120261047D01*
X170330761Y-120356285D01*
X170283142Y-120403904D01*
X170378380Y-118880095D02*
X170378380Y-119451523D01*
X170378380Y-119165809D02*
X169378380Y-119165809D01*
X169521238Y-119261047D01*
X169616476Y-119356285D01*
X169664095Y-119451523D01*
%TO.C,J12*%
X105870476Y-65238380D02*
X105870476Y-65952666D01*
X105822857Y-66095523D01*
X105727619Y-66190761D01*
X105584761Y-66238380D01*
X105489523Y-66238380D01*
X106870476Y-66238380D02*
X106299047Y-66238380D01*
X106584761Y-66238380D02*
X106584761Y-65238380D01*
X106489523Y-65381238D01*
X106394285Y-65476476D01*
X106299047Y-65524095D01*
X107251428Y-65333619D02*
X107299047Y-65286000D01*
X107394285Y-65238380D01*
X107632380Y-65238380D01*
X107727619Y-65286000D01*
X107775238Y-65333619D01*
X107822857Y-65428857D01*
X107822857Y-65524095D01*
X107775238Y-65666952D01*
X107203809Y-66238380D01*
X107822857Y-66238380D01*
%TO.C,R59*%
X167382142Y-104089380D02*
X167048809Y-103613190D01*
X166810714Y-104089380D02*
X166810714Y-103089380D01*
X167191666Y-103089380D01*
X167286904Y-103137000D01*
X167334523Y-103184619D01*
X167382142Y-103279857D01*
X167382142Y-103422714D01*
X167334523Y-103517952D01*
X167286904Y-103565571D01*
X167191666Y-103613190D01*
X166810714Y-103613190D01*
X168286904Y-103089380D02*
X167810714Y-103089380D01*
X167763095Y-103565571D01*
X167810714Y-103517952D01*
X167905952Y-103470333D01*
X168144047Y-103470333D01*
X168239285Y-103517952D01*
X168286904Y-103565571D01*
X168334523Y-103660809D01*
X168334523Y-103898904D01*
X168286904Y-103994142D01*
X168239285Y-104041761D01*
X168144047Y-104089380D01*
X167905952Y-104089380D01*
X167810714Y-104041761D01*
X167763095Y-103994142D01*
X168810714Y-104089380D02*
X169001190Y-104089380D01*
X169096428Y-104041761D01*
X169144047Y-103994142D01*
X169239285Y-103851285D01*
X169286904Y-103660809D01*
X169286904Y-103279857D01*
X169239285Y-103184619D01*
X169191666Y-103137000D01*
X169096428Y-103089380D01*
X168905952Y-103089380D01*
X168810714Y-103137000D01*
X168763095Y-103184619D01*
X168715476Y-103279857D01*
X168715476Y-103517952D01*
X168763095Y-103613190D01*
X168810714Y-103660809D01*
X168905952Y-103708428D01*
X169096428Y-103708428D01*
X169191666Y-103660809D01*
X169239285Y-103613190D01*
X169286904Y-103517952D01*
%TO.C,R68*%
X180445142Y-97946380D02*
X180111809Y-97470190D01*
X179873714Y-97946380D02*
X179873714Y-96946380D01*
X180254666Y-96946380D01*
X180349904Y-96994000D01*
X180397523Y-97041619D01*
X180445142Y-97136857D01*
X180445142Y-97279714D01*
X180397523Y-97374952D01*
X180349904Y-97422571D01*
X180254666Y-97470190D01*
X179873714Y-97470190D01*
X181302285Y-96946380D02*
X181111809Y-96946380D01*
X181016571Y-96994000D01*
X180968952Y-97041619D01*
X180873714Y-97184476D01*
X180826095Y-97374952D01*
X180826095Y-97755904D01*
X180873714Y-97851142D01*
X180921333Y-97898761D01*
X181016571Y-97946380D01*
X181207047Y-97946380D01*
X181302285Y-97898761D01*
X181349904Y-97851142D01*
X181397523Y-97755904D01*
X181397523Y-97517809D01*
X181349904Y-97422571D01*
X181302285Y-97374952D01*
X181207047Y-97327333D01*
X181016571Y-97327333D01*
X180921333Y-97374952D01*
X180873714Y-97422571D01*
X180826095Y-97517809D01*
X181968952Y-97374952D02*
X181873714Y-97327333D01*
X181826095Y-97279714D01*
X181778476Y-97184476D01*
X181778476Y-97136857D01*
X181826095Y-97041619D01*
X181873714Y-96994000D01*
X181968952Y-96946380D01*
X182159428Y-96946380D01*
X182254666Y-96994000D01*
X182302285Y-97041619D01*
X182349904Y-97136857D01*
X182349904Y-97184476D01*
X182302285Y-97279714D01*
X182254666Y-97327333D01*
X182159428Y-97374952D01*
X181968952Y-97374952D01*
X181873714Y-97422571D01*
X181826095Y-97470190D01*
X181778476Y-97565428D01*
X181778476Y-97755904D01*
X181826095Y-97851142D01*
X181873714Y-97898761D01*
X181968952Y-97946380D01*
X182159428Y-97946380D01*
X182254666Y-97898761D01*
X182302285Y-97851142D01*
X182349904Y-97755904D01*
X182349904Y-97565428D01*
X182302285Y-97470190D01*
X182254666Y-97422571D01*
X182159428Y-97374952D01*
%TO.C,C16*%
X166743142Y-98147142D02*
X166695523Y-98194761D01*
X166552666Y-98242380D01*
X166457428Y-98242380D01*
X166314571Y-98194761D01*
X166219333Y-98099523D01*
X166171714Y-98004285D01*
X166124095Y-97813809D01*
X166124095Y-97670952D01*
X166171714Y-97480476D01*
X166219333Y-97385238D01*
X166314571Y-97290000D01*
X166457428Y-97242380D01*
X166552666Y-97242380D01*
X166695523Y-97290000D01*
X166743142Y-97337619D01*
X167695523Y-98242380D02*
X167124095Y-98242380D01*
X167409809Y-98242380D02*
X167409809Y-97242380D01*
X167314571Y-97385238D01*
X167219333Y-97480476D01*
X167124095Y-97528095D01*
X168552666Y-97242380D02*
X168362190Y-97242380D01*
X168266952Y-97290000D01*
X168219333Y-97337619D01*
X168124095Y-97480476D01*
X168076476Y-97670952D01*
X168076476Y-98051904D01*
X168124095Y-98147142D01*
X168171714Y-98194761D01*
X168266952Y-98242380D01*
X168457428Y-98242380D01*
X168552666Y-98194761D01*
X168600285Y-98147142D01*
X168647904Y-98051904D01*
X168647904Y-97813809D01*
X168600285Y-97718571D01*
X168552666Y-97670952D01*
X168457428Y-97623333D01*
X168266952Y-97623333D01*
X168171714Y-97670952D01*
X168124095Y-97718571D01*
X168076476Y-97813809D01*
%TO.C,R18*%
X114165142Y-70657980D02*
X113831809Y-70181790D01*
X113593714Y-70657980D02*
X113593714Y-69657980D01*
X113974666Y-69657980D01*
X114069904Y-69705600D01*
X114117523Y-69753219D01*
X114165142Y-69848457D01*
X114165142Y-69991314D01*
X114117523Y-70086552D01*
X114069904Y-70134171D01*
X113974666Y-70181790D01*
X113593714Y-70181790D01*
X115117523Y-70657980D02*
X114546095Y-70657980D01*
X114831809Y-70657980D02*
X114831809Y-69657980D01*
X114736571Y-69800838D01*
X114641333Y-69896076D01*
X114546095Y-69943695D01*
X115688952Y-70086552D02*
X115593714Y-70038933D01*
X115546095Y-69991314D01*
X115498476Y-69896076D01*
X115498476Y-69848457D01*
X115546095Y-69753219D01*
X115593714Y-69705600D01*
X115688952Y-69657980D01*
X115879428Y-69657980D01*
X115974666Y-69705600D01*
X116022285Y-69753219D01*
X116069904Y-69848457D01*
X116069904Y-69896076D01*
X116022285Y-69991314D01*
X115974666Y-70038933D01*
X115879428Y-70086552D01*
X115688952Y-70086552D01*
X115593714Y-70134171D01*
X115546095Y-70181790D01*
X115498476Y-70277028D01*
X115498476Y-70467504D01*
X115546095Y-70562742D01*
X115593714Y-70610361D01*
X115688952Y-70657980D01*
X115879428Y-70657980D01*
X115974666Y-70610361D01*
X116022285Y-70562742D01*
X116069904Y-70467504D01*
X116069904Y-70277028D01*
X116022285Y-70181790D01*
X115974666Y-70134171D01*
X115879428Y-70086552D01*
%TO.C,C6*%
X139295142Y-97956666D02*
X139342761Y-98004285D01*
X139390380Y-98147142D01*
X139390380Y-98242380D01*
X139342761Y-98385238D01*
X139247523Y-98480476D01*
X139152285Y-98528095D01*
X138961809Y-98575714D01*
X138818952Y-98575714D01*
X138628476Y-98528095D01*
X138533238Y-98480476D01*
X138438000Y-98385238D01*
X138390380Y-98242380D01*
X138390380Y-98147142D01*
X138438000Y-98004285D01*
X138485619Y-97956666D01*
X138390380Y-97099523D02*
X138390380Y-97290000D01*
X138438000Y-97385238D01*
X138485619Y-97432857D01*
X138628476Y-97528095D01*
X138818952Y-97575714D01*
X139199904Y-97575714D01*
X139295142Y-97528095D01*
X139342761Y-97480476D01*
X139390380Y-97385238D01*
X139390380Y-97194761D01*
X139342761Y-97099523D01*
X139295142Y-97051904D01*
X139199904Y-97004285D01*
X138961809Y-97004285D01*
X138866571Y-97051904D01*
X138818952Y-97099523D01*
X138771333Y-97194761D01*
X138771333Y-97385238D01*
X138818952Y-97480476D01*
X138866571Y-97528095D01*
X138961809Y-97575714D01*
%TO.C,R11*%
X125610142Y-105608380D02*
X125276809Y-105132190D01*
X125038714Y-105608380D02*
X125038714Y-104608380D01*
X125419666Y-104608380D01*
X125514904Y-104656000D01*
X125562523Y-104703619D01*
X125610142Y-104798857D01*
X125610142Y-104941714D01*
X125562523Y-105036952D01*
X125514904Y-105084571D01*
X125419666Y-105132190D01*
X125038714Y-105132190D01*
X126562523Y-105608380D02*
X125991095Y-105608380D01*
X126276809Y-105608380D02*
X126276809Y-104608380D01*
X126181571Y-104751238D01*
X126086333Y-104846476D01*
X125991095Y-104894095D01*
X127514904Y-105608380D02*
X126943476Y-105608380D01*
X127229190Y-105608380D02*
X127229190Y-104608380D01*
X127133952Y-104751238D01*
X127038714Y-104846476D01*
X126943476Y-104894095D01*
%TO.C,R17*%
X118498142Y-104084380D02*
X118164809Y-103608190D01*
X117926714Y-104084380D02*
X117926714Y-103084380D01*
X118307666Y-103084380D01*
X118402904Y-103132000D01*
X118450523Y-103179619D01*
X118498142Y-103274857D01*
X118498142Y-103417714D01*
X118450523Y-103512952D01*
X118402904Y-103560571D01*
X118307666Y-103608190D01*
X117926714Y-103608190D01*
X119450523Y-104084380D02*
X118879095Y-104084380D01*
X119164809Y-104084380D02*
X119164809Y-103084380D01*
X119069571Y-103227238D01*
X118974333Y-103322476D01*
X118879095Y-103370095D01*
X119783857Y-103084380D02*
X120450523Y-103084380D01*
X120021952Y-104084380D01*
%TO.C,R12*%
X139819142Y-86558380D02*
X139485809Y-86082190D01*
X139247714Y-86558380D02*
X139247714Y-85558380D01*
X139628666Y-85558380D01*
X139723904Y-85606000D01*
X139771523Y-85653619D01*
X139819142Y-85748857D01*
X139819142Y-85891714D01*
X139771523Y-85986952D01*
X139723904Y-86034571D01*
X139628666Y-86082190D01*
X139247714Y-86082190D01*
X140771523Y-86558380D02*
X140200095Y-86558380D01*
X140485809Y-86558380D02*
X140485809Y-85558380D01*
X140390571Y-85701238D01*
X140295333Y-85796476D01*
X140200095Y-85844095D01*
X141152476Y-85653619D02*
X141200095Y-85606000D01*
X141295333Y-85558380D01*
X141533428Y-85558380D01*
X141628666Y-85606000D01*
X141676285Y-85653619D01*
X141723904Y-85748857D01*
X141723904Y-85844095D01*
X141676285Y-85986952D01*
X141104857Y-86558380D01*
X141723904Y-86558380D01*
%TO.C,C4*%
X177633333Y-100941142D02*
X177585714Y-100988761D01*
X177442857Y-101036380D01*
X177347619Y-101036380D01*
X177204761Y-100988761D01*
X177109523Y-100893523D01*
X177061904Y-100798285D01*
X177014285Y-100607809D01*
X177014285Y-100464952D01*
X177061904Y-100274476D01*
X177109523Y-100179238D01*
X177204761Y-100084000D01*
X177347619Y-100036380D01*
X177442857Y-100036380D01*
X177585714Y-100084000D01*
X177633333Y-100131619D01*
X178490476Y-100369714D02*
X178490476Y-101036380D01*
X178252380Y-99988761D02*
X178014285Y-100703047D01*
X178633333Y-100703047D01*
%TO.C,D3*%
X150566380Y-100052095D02*
X149566380Y-100052095D01*
X149566380Y-99814000D01*
X149614000Y-99671142D01*
X149709238Y-99575904D01*
X149804476Y-99528285D01*
X149994952Y-99480666D01*
X150137809Y-99480666D01*
X150328285Y-99528285D01*
X150423523Y-99575904D01*
X150518761Y-99671142D01*
X150566380Y-99814000D01*
X150566380Y-100052095D01*
X149566380Y-99147333D02*
X149566380Y-98528285D01*
X149947333Y-98861619D01*
X149947333Y-98718761D01*
X149994952Y-98623523D01*
X150042571Y-98575904D01*
X150137809Y-98528285D01*
X150375904Y-98528285D01*
X150471142Y-98575904D01*
X150518761Y-98623523D01*
X150566380Y-98718761D01*
X150566380Y-99004476D01*
X150518761Y-99099714D01*
X150471142Y-99147333D01*
%TO.C,C7*%
X108160333Y-83052142D02*
X108112714Y-83099761D01*
X107969857Y-83147380D01*
X107874619Y-83147380D01*
X107731761Y-83099761D01*
X107636523Y-83004523D01*
X107588904Y-82909285D01*
X107541285Y-82718809D01*
X107541285Y-82575952D01*
X107588904Y-82385476D01*
X107636523Y-82290238D01*
X107731761Y-82195000D01*
X107874619Y-82147380D01*
X107969857Y-82147380D01*
X108112714Y-82195000D01*
X108160333Y-82242619D01*
X108493666Y-82147380D02*
X109160333Y-82147380D01*
X108731761Y-83147380D01*
%TO.C,R53*%
X181046380Y-120784857D02*
X180570190Y-121118190D01*
X181046380Y-121356285D02*
X180046380Y-121356285D01*
X180046380Y-120975333D01*
X180094000Y-120880095D01*
X180141619Y-120832476D01*
X180236857Y-120784857D01*
X180379714Y-120784857D01*
X180474952Y-120832476D01*
X180522571Y-120880095D01*
X180570190Y-120975333D01*
X180570190Y-121356285D01*
X180046380Y-119880095D02*
X180046380Y-120356285D01*
X180522571Y-120403904D01*
X180474952Y-120356285D01*
X180427333Y-120261047D01*
X180427333Y-120022952D01*
X180474952Y-119927714D01*
X180522571Y-119880095D01*
X180617809Y-119832476D01*
X180855904Y-119832476D01*
X180951142Y-119880095D01*
X180998761Y-119927714D01*
X181046380Y-120022952D01*
X181046380Y-120261047D01*
X180998761Y-120356285D01*
X180951142Y-120403904D01*
X180046380Y-119499142D02*
X180046380Y-118880095D01*
X180427333Y-119213428D01*
X180427333Y-119070571D01*
X180474952Y-118975333D01*
X180522571Y-118927714D01*
X180617809Y-118880095D01*
X180855904Y-118880095D01*
X180951142Y-118927714D01*
X180998761Y-118975333D01*
X181046380Y-119070571D01*
X181046380Y-119356285D01*
X180998761Y-119451523D01*
X180951142Y-119499142D01*
%TO.C,R15*%
X114781142Y-67623380D02*
X114447809Y-67147190D01*
X114209714Y-67623380D02*
X114209714Y-66623380D01*
X114590666Y-66623380D01*
X114685904Y-66671000D01*
X114733523Y-66718619D01*
X114781142Y-66813857D01*
X114781142Y-66956714D01*
X114733523Y-67051952D01*
X114685904Y-67099571D01*
X114590666Y-67147190D01*
X114209714Y-67147190D01*
X115733523Y-67623380D02*
X115162095Y-67623380D01*
X115447809Y-67623380D02*
X115447809Y-66623380D01*
X115352571Y-66766238D01*
X115257333Y-66861476D01*
X115162095Y-66909095D01*
X116638285Y-66623380D02*
X116162095Y-66623380D01*
X116114476Y-67099571D01*
X116162095Y-67051952D01*
X116257333Y-67004333D01*
X116495428Y-67004333D01*
X116590666Y-67051952D01*
X116638285Y-67099571D01*
X116685904Y-67194809D01*
X116685904Y-67432904D01*
X116638285Y-67528142D01*
X116590666Y-67575761D01*
X116495428Y-67623380D01*
X116257333Y-67623380D01*
X116162095Y-67575761D01*
X116114476Y-67528142D01*
%TO.C,R46*%
X139565142Y-92908380D02*
X139231809Y-92432190D01*
X138993714Y-92908380D02*
X138993714Y-91908380D01*
X139374666Y-91908380D01*
X139469904Y-91956000D01*
X139517523Y-92003619D01*
X139565142Y-92098857D01*
X139565142Y-92241714D01*
X139517523Y-92336952D01*
X139469904Y-92384571D01*
X139374666Y-92432190D01*
X138993714Y-92432190D01*
X140422285Y-92241714D02*
X140422285Y-92908380D01*
X140184190Y-91860761D02*
X139946095Y-92575047D01*
X140565142Y-92575047D01*
X141374666Y-91908380D02*
X141184190Y-91908380D01*
X141088952Y-91956000D01*
X141041333Y-92003619D01*
X140946095Y-92146476D01*
X140898476Y-92336952D01*
X140898476Y-92717904D01*
X140946095Y-92813142D01*
X140993714Y-92860761D01*
X141088952Y-92908380D01*
X141279428Y-92908380D01*
X141374666Y-92860761D01*
X141422285Y-92813142D01*
X141469904Y-92717904D01*
X141469904Y-92479809D01*
X141422285Y-92384571D01*
X141374666Y-92336952D01*
X141279428Y-92289333D01*
X141088952Y-92289333D01*
X140993714Y-92336952D01*
X140946095Y-92384571D01*
X140898476Y-92479809D01*
%TO.C,R41*%
X190873142Y-96210380D02*
X190539809Y-95734190D01*
X190301714Y-96210380D02*
X190301714Y-95210380D01*
X190682666Y-95210380D01*
X190777904Y-95258000D01*
X190825523Y-95305619D01*
X190873142Y-95400857D01*
X190873142Y-95543714D01*
X190825523Y-95638952D01*
X190777904Y-95686571D01*
X190682666Y-95734190D01*
X190301714Y-95734190D01*
X191730285Y-95543714D02*
X191730285Y-96210380D01*
X191492190Y-95162761D02*
X191254095Y-95877047D01*
X191873142Y-95877047D01*
X192777904Y-96210380D02*
X192206476Y-96210380D01*
X192492190Y-96210380D02*
X192492190Y-95210380D01*
X192396952Y-95353238D01*
X192301714Y-95448476D01*
X192206476Y-95496095D01*
%TO.C,R34*%
X123563142Y-122118380D02*
X123229809Y-121642190D01*
X122991714Y-122118380D02*
X122991714Y-121118380D01*
X123372666Y-121118380D01*
X123467904Y-121166000D01*
X123515523Y-121213619D01*
X123563142Y-121308857D01*
X123563142Y-121451714D01*
X123515523Y-121546952D01*
X123467904Y-121594571D01*
X123372666Y-121642190D01*
X122991714Y-121642190D01*
X123896476Y-121118380D02*
X124515523Y-121118380D01*
X124182190Y-121499333D01*
X124325047Y-121499333D01*
X124420285Y-121546952D01*
X124467904Y-121594571D01*
X124515523Y-121689809D01*
X124515523Y-121927904D01*
X124467904Y-122023142D01*
X124420285Y-122070761D01*
X124325047Y-122118380D01*
X124039333Y-122118380D01*
X123944095Y-122070761D01*
X123896476Y-122023142D01*
X125372666Y-121451714D02*
X125372666Y-122118380D01*
X125134571Y-121070761D02*
X124896476Y-121785047D01*
X125515523Y-121785047D01*
%TO.C,J1*%
X111426666Y-96226380D02*
X111426666Y-96940666D01*
X111379047Y-97083523D01*
X111283809Y-97178761D01*
X111140952Y-97226380D01*
X111045714Y-97226380D01*
X112426666Y-97226380D02*
X111855238Y-97226380D01*
X112140952Y-97226380D02*
X112140952Y-96226380D01*
X112045714Y-96369238D01*
X111950476Y-96464476D01*
X111855238Y-96512095D01*
%TO.C,R24*%
X115181142Y-92400380D02*
X114847809Y-91924190D01*
X114609714Y-92400380D02*
X114609714Y-91400380D01*
X114990666Y-91400380D01*
X115085904Y-91448000D01*
X115133523Y-91495619D01*
X115181142Y-91590857D01*
X115181142Y-91733714D01*
X115133523Y-91828952D01*
X115085904Y-91876571D01*
X114990666Y-91924190D01*
X114609714Y-91924190D01*
X115562095Y-91495619D02*
X115609714Y-91448000D01*
X115704952Y-91400380D01*
X115943047Y-91400380D01*
X116038285Y-91448000D01*
X116085904Y-91495619D01*
X116133523Y-91590857D01*
X116133523Y-91686095D01*
X116085904Y-91828952D01*
X115514476Y-92400380D01*
X116133523Y-92400380D01*
X116990666Y-91733714D02*
X116990666Y-92400380D01*
X116752571Y-91352761D02*
X116514476Y-92067047D01*
X117133523Y-92067047D01*
%TO.C,R14*%
X147567142Y-121477380D02*
X147233809Y-121001190D01*
X146995714Y-121477380D02*
X146995714Y-120477380D01*
X147376666Y-120477380D01*
X147471904Y-120525000D01*
X147519523Y-120572619D01*
X147567142Y-120667857D01*
X147567142Y-120810714D01*
X147519523Y-120905952D01*
X147471904Y-120953571D01*
X147376666Y-121001190D01*
X146995714Y-121001190D01*
X148519523Y-121477380D02*
X147948095Y-121477380D01*
X148233809Y-121477380D02*
X148233809Y-120477380D01*
X148138571Y-120620238D01*
X148043333Y-120715476D01*
X147948095Y-120763095D01*
X149376666Y-120810714D02*
X149376666Y-121477380D01*
X149138571Y-120429761D02*
X148900476Y-121144047D01*
X149519523Y-121144047D01*
%TO.C,C13*%
X175887142Y-81383142D02*
X175839523Y-81430761D01*
X175696666Y-81478380D01*
X175601428Y-81478380D01*
X175458571Y-81430761D01*
X175363333Y-81335523D01*
X175315714Y-81240285D01*
X175268095Y-81049809D01*
X175268095Y-80906952D01*
X175315714Y-80716476D01*
X175363333Y-80621238D01*
X175458571Y-80526000D01*
X175601428Y-80478380D01*
X175696666Y-80478380D01*
X175839523Y-80526000D01*
X175887142Y-80573619D01*
X176839523Y-81478380D02*
X176268095Y-81478380D01*
X176553809Y-81478380D02*
X176553809Y-80478380D01*
X176458571Y-80621238D01*
X176363333Y-80716476D01*
X176268095Y-80764095D01*
X177172857Y-80478380D02*
X177791904Y-80478380D01*
X177458571Y-80859333D01*
X177601428Y-80859333D01*
X177696666Y-80906952D01*
X177744285Y-80954571D01*
X177791904Y-81049809D01*
X177791904Y-81287904D01*
X177744285Y-81383142D01*
X177696666Y-81430761D01*
X177601428Y-81478380D01*
X177315714Y-81478380D01*
X177220476Y-81430761D01*
X177172857Y-81383142D01*
%TO.C,R9*%
X128468380Y-96432666D02*
X127992190Y-96766000D01*
X128468380Y-97004095D02*
X127468380Y-97004095D01*
X127468380Y-96623142D01*
X127516000Y-96527904D01*
X127563619Y-96480285D01*
X127658857Y-96432666D01*
X127801714Y-96432666D01*
X127896952Y-96480285D01*
X127944571Y-96527904D01*
X127992190Y-96623142D01*
X127992190Y-97004095D01*
X128468380Y-95956476D02*
X128468380Y-95766000D01*
X128420761Y-95670761D01*
X128373142Y-95623142D01*
X128230285Y-95527904D01*
X128039809Y-95480285D01*
X127658857Y-95480285D01*
X127563619Y-95527904D01*
X127516000Y-95575523D01*
X127468380Y-95670761D01*
X127468380Y-95861238D01*
X127516000Y-95956476D01*
X127563619Y-96004095D01*
X127658857Y-96051714D01*
X127896952Y-96051714D01*
X127992190Y-96004095D01*
X128039809Y-95956476D01*
X128087428Y-95861238D01*
X128087428Y-95670761D01*
X128039809Y-95575523D01*
X127992190Y-95527904D01*
X127896952Y-95480285D01*
%TO.C,R20*%
X156583142Y-83759380D02*
X156249809Y-83283190D01*
X156011714Y-83759380D02*
X156011714Y-82759380D01*
X156392666Y-82759380D01*
X156487904Y-82807000D01*
X156535523Y-82854619D01*
X156583142Y-82949857D01*
X156583142Y-83092714D01*
X156535523Y-83187952D01*
X156487904Y-83235571D01*
X156392666Y-83283190D01*
X156011714Y-83283190D01*
X156964095Y-82854619D02*
X157011714Y-82807000D01*
X157106952Y-82759380D01*
X157345047Y-82759380D01*
X157440285Y-82807000D01*
X157487904Y-82854619D01*
X157535523Y-82949857D01*
X157535523Y-83045095D01*
X157487904Y-83187952D01*
X156916476Y-83759380D01*
X157535523Y-83759380D01*
X158154571Y-82759380D02*
X158249809Y-82759380D01*
X158345047Y-82807000D01*
X158392666Y-82854619D01*
X158440285Y-82949857D01*
X158487904Y-83140333D01*
X158487904Y-83378428D01*
X158440285Y-83568904D01*
X158392666Y-83664142D01*
X158345047Y-83711761D01*
X158249809Y-83759380D01*
X158154571Y-83759380D01*
X158059333Y-83711761D01*
X158011714Y-83664142D01*
X157964095Y-83568904D01*
X157916476Y-83378428D01*
X157916476Y-83140333D01*
X157964095Y-82949857D01*
X158011714Y-82854619D01*
X158059333Y-82807000D01*
X158154571Y-82759380D01*
%TO.C,U3*%
X120635095Y-92064380D02*
X120635095Y-92873904D01*
X120682714Y-92969142D01*
X120730333Y-93016761D01*
X120825571Y-93064380D01*
X121016047Y-93064380D01*
X121111285Y-93016761D01*
X121158904Y-92969142D01*
X121206523Y-92873904D01*
X121206523Y-92064380D01*
X121587476Y-92064380D02*
X122206523Y-92064380D01*
X121873190Y-92445333D01*
X122016047Y-92445333D01*
X122111285Y-92492952D01*
X122158904Y-92540571D01*
X122206523Y-92635809D01*
X122206523Y-92873904D01*
X122158904Y-92969142D01*
X122111285Y-93016761D01*
X122016047Y-93064380D01*
X121730333Y-93064380D01*
X121635095Y-93016761D01*
X121587476Y-92969142D01*
%TO.C,R6*%
X141953833Y-68031380D02*
X141620500Y-67555190D01*
X141382404Y-68031380D02*
X141382404Y-67031380D01*
X141763357Y-67031380D01*
X141858595Y-67079000D01*
X141906214Y-67126619D01*
X141953833Y-67221857D01*
X141953833Y-67364714D01*
X141906214Y-67459952D01*
X141858595Y-67507571D01*
X141763357Y-67555190D01*
X141382404Y-67555190D01*
X142810976Y-67031380D02*
X142620500Y-67031380D01*
X142525261Y-67079000D01*
X142477642Y-67126619D01*
X142382404Y-67269476D01*
X142334785Y-67459952D01*
X142334785Y-67840904D01*
X142382404Y-67936142D01*
X142430023Y-67983761D01*
X142525261Y-68031380D01*
X142715738Y-68031380D01*
X142810976Y-67983761D01*
X142858595Y-67936142D01*
X142906214Y-67840904D01*
X142906214Y-67602809D01*
X142858595Y-67507571D01*
X142810976Y-67459952D01*
X142715738Y-67412333D01*
X142525261Y-67412333D01*
X142430023Y-67459952D01*
X142382404Y-67507571D01*
X142334785Y-67602809D01*
%TO.C,R50*%
X134495142Y-121874380D02*
X134161809Y-121398190D01*
X133923714Y-121874380D02*
X133923714Y-120874380D01*
X134304666Y-120874380D01*
X134399904Y-120922000D01*
X134447523Y-120969619D01*
X134495142Y-121064857D01*
X134495142Y-121207714D01*
X134447523Y-121302952D01*
X134399904Y-121350571D01*
X134304666Y-121398190D01*
X133923714Y-121398190D01*
X135399904Y-120874380D02*
X134923714Y-120874380D01*
X134876095Y-121350571D01*
X134923714Y-121302952D01*
X135018952Y-121255333D01*
X135257047Y-121255333D01*
X135352285Y-121302952D01*
X135399904Y-121350571D01*
X135447523Y-121445809D01*
X135447523Y-121683904D01*
X135399904Y-121779142D01*
X135352285Y-121826761D01*
X135257047Y-121874380D01*
X135018952Y-121874380D01*
X134923714Y-121826761D01*
X134876095Y-121779142D01*
X136066571Y-120874380D02*
X136161809Y-120874380D01*
X136257047Y-120922000D01*
X136304666Y-120969619D01*
X136352285Y-121064857D01*
X136399904Y-121255333D01*
X136399904Y-121493428D01*
X136352285Y-121683904D01*
X136304666Y-121779142D01*
X136257047Y-121826761D01*
X136161809Y-121874380D01*
X136066571Y-121874380D01*
X135971333Y-121826761D01*
X135923714Y-121779142D01*
X135876095Y-121683904D01*
X135828476Y-121493428D01*
X135828476Y-121255333D01*
X135876095Y-121064857D01*
X135923714Y-120969619D01*
X135971333Y-120922000D01*
X136066571Y-120874380D01*
%TO.C,R1*%
X153891833Y-67777380D02*
X153558500Y-67301190D01*
X153320404Y-67777380D02*
X153320404Y-66777380D01*
X153701357Y-66777380D01*
X153796595Y-66825000D01*
X153844214Y-66872619D01*
X153891833Y-66967857D01*
X153891833Y-67110714D01*
X153844214Y-67205952D01*
X153796595Y-67253571D01*
X153701357Y-67301190D01*
X153320404Y-67301190D01*
X154844214Y-67777380D02*
X154272785Y-67777380D01*
X154558500Y-67777380D02*
X154558500Y-66777380D01*
X154463261Y-66920238D01*
X154368023Y-67015476D01*
X154272785Y-67063095D01*
%TO.C,R19*%
X128135142Y-86558380D02*
X127801809Y-86082190D01*
X127563714Y-86558380D02*
X127563714Y-85558380D01*
X127944666Y-85558380D01*
X128039904Y-85606000D01*
X128087523Y-85653619D01*
X128135142Y-85748857D01*
X128135142Y-85891714D01*
X128087523Y-85986952D01*
X128039904Y-86034571D01*
X127944666Y-86082190D01*
X127563714Y-86082190D01*
X129087523Y-86558380D02*
X128516095Y-86558380D01*
X128801809Y-86558380D02*
X128801809Y-85558380D01*
X128706571Y-85701238D01*
X128611333Y-85796476D01*
X128516095Y-85844095D01*
X129563714Y-86558380D02*
X129754190Y-86558380D01*
X129849428Y-86510761D01*
X129897047Y-86463142D01*
X129992285Y-86320285D01*
X130039904Y-86129809D01*
X130039904Y-85748857D01*
X129992285Y-85653619D01*
X129944666Y-85606000D01*
X129849428Y-85558380D01*
X129658952Y-85558380D01*
X129563714Y-85606000D01*
X129516095Y-85653619D01*
X129468476Y-85748857D01*
X129468476Y-85986952D01*
X129516095Y-86082190D01*
X129563714Y-86129809D01*
X129658952Y-86177428D01*
X129849428Y-86177428D01*
X129944666Y-86129809D01*
X129992285Y-86082190D01*
X130039904Y-85986952D01*
%TO.C,R13*%
X147439142Y-115006380D02*
X147105809Y-114530190D01*
X146867714Y-115006380D02*
X146867714Y-114006380D01*
X147248666Y-114006380D01*
X147343904Y-114054000D01*
X147391523Y-114101619D01*
X147439142Y-114196857D01*
X147439142Y-114339714D01*
X147391523Y-114434952D01*
X147343904Y-114482571D01*
X147248666Y-114530190D01*
X146867714Y-114530190D01*
X148391523Y-115006380D02*
X147820095Y-115006380D01*
X148105809Y-115006380D02*
X148105809Y-114006380D01*
X148010571Y-114149238D01*
X147915333Y-114244476D01*
X147820095Y-114292095D01*
X148724857Y-114006380D02*
X149343904Y-114006380D01*
X149010571Y-114387333D01*
X149153428Y-114387333D01*
X149248666Y-114434952D01*
X149296285Y-114482571D01*
X149343904Y-114577809D01*
X149343904Y-114815904D01*
X149296285Y-114911142D01*
X149248666Y-114958761D01*
X149153428Y-115006380D01*
X148867714Y-115006380D01*
X148772476Y-114958761D01*
X148724857Y-114911142D01*
%TO.C,R16*%
X109339142Y-80716380D02*
X109005809Y-80240190D01*
X108767714Y-80716380D02*
X108767714Y-79716380D01*
X109148666Y-79716380D01*
X109243904Y-79764000D01*
X109291523Y-79811619D01*
X109339142Y-79906857D01*
X109339142Y-80049714D01*
X109291523Y-80144952D01*
X109243904Y-80192571D01*
X109148666Y-80240190D01*
X108767714Y-80240190D01*
X110291523Y-80716380D02*
X109720095Y-80716380D01*
X110005809Y-80716380D02*
X110005809Y-79716380D01*
X109910571Y-79859238D01*
X109815333Y-79954476D01*
X109720095Y-80002095D01*
X111148666Y-79716380D02*
X110958190Y-79716380D01*
X110862952Y-79764000D01*
X110815333Y-79811619D01*
X110720095Y-79954476D01*
X110672476Y-80144952D01*
X110672476Y-80525904D01*
X110720095Y-80621142D01*
X110767714Y-80668761D01*
X110862952Y-80716380D01*
X111053428Y-80716380D01*
X111148666Y-80668761D01*
X111196285Y-80621142D01*
X111243904Y-80525904D01*
X111243904Y-80287809D01*
X111196285Y-80192571D01*
X111148666Y-80144952D01*
X111053428Y-80097333D01*
X110862952Y-80097333D01*
X110767714Y-80144952D01*
X110720095Y-80192571D01*
X110672476Y-80287809D01*
%TO.C,J14*%
X189944476Y-79716380D02*
X189944476Y-80430666D01*
X189896857Y-80573523D01*
X189801619Y-80668761D01*
X189658761Y-80716380D01*
X189563523Y-80716380D01*
X190944476Y-80716380D02*
X190373047Y-80716380D01*
X190658761Y-80716380D02*
X190658761Y-79716380D01*
X190563523Y-79859238D01*
X190468285Y-79954476D01*
X190373047Y-80002095D01*
X191801619Y-80049714D02*
X191801619Y-80716380D01*
X191563523Y-79668761D02*
X191325428Y-80383047D01*
X191944476Y-80383047D01*
%TO.C,U5*%
X174498095Y-113498380D02*
X174498095Y-114307904D01*
X174545714Y-114403142D01*
X174593333Y-114450761D01*
X174688571Y-114498380D01*
X174879047Y-114498380D01*
X174974285Y-114450761D01*
X175021904Y-114403142D01*
X175069523Y-114307904D01*
X175069523Y-113498380D01*
X176021904Y-113498380D02*
X175545714Y-113498380D01*
X175498095Y-113974571D01*
X175545714Y-113926952D01*
X175640952Y-113879333D01*
X175879047Y-113879333D01*
X175974285Y-113926952D01*
X176021904Y-113974571D01*
X176069523Y-114069809D01*
X176069523Y-114307904D01*
X176021904Y-114403142D01*
X175974285Y-114450761D01*
X175879047Y-114498380D01*
X175640952Y-114498380D01*
X175545714Y-114450761D01*
X175498095Y-114403142D01*
%TO.C,C17*%
X141807142Y-113279142D02*
X141759523Y-113326761D01*
X141616666Y-113374380D01*
X141521428Y-113374380D01*
X141378571Y-113326761D01*
X141283333Y-113231523D01*
X141235714Y-113136285D01*
X141188095Y-112945809D01*
X141188095Y-112802952D01*
X141235714Y-112612476D01*
X141283333Y-112517238D01*
X141378571Y-112422000D01*
X141521428Y-112374380D01*
X141616666Y-112374380D01*
X141759523Y-112422000D01*
X141807142Y-112469619D01*
X142759523Y-113374380D02*
X142188095Y-113374380D01*
X142473809Y-113374380D02*
X142473809Y-112374380D01*
X142378571Y-112517238D01*
X142283333Y-112612476D01*
X142188095Y-112660095D01*
X143092857Y-112374380D02*
X143759523Y-112374380D01*
X143330952Y-113374380D01*
%TO.C,C3*%
X121499333Y-118467142D02*
X121451714Y-118514761D01*
X121308857Y-118562380D01*
X121213619Y-118562380D01*
X121070761Y-118514761D01*
X120975523Y-118419523D01*
X120927904Y-118324285D01*
X120880285Y-118133809D01*
X120880285Y-117990952D01*
X120927904Y-117800476D01*
X120975523Y-117705238D01*
X121070761Y-117610000D01*
X121213619Y-117562380D01*
X121308857Y-117562380D01*
X121451714Y-117610000D01*
X121499333Y-117657619D01*
X121832666Y-117562380D02*
X122451714Y-117562380D01*
X122118380Y-117943333D01*
X122261238Y-117943333D01*
X122356476Y-117990952D01*
X122404095Y-118038571D01*
X122451714Y-118133809D01*
X122451714Y-118371904D01*
X122404095Y-118467142D01*
X122356476Y-118514761D01*
X122261238Y-118562380D01*
X121975523Y-118562380D01*
X121880285Y-118514761D01*
X121832666Y-118467142D01*
%TO.C,D8*%
X134907904Y-119080380D02*
X134907904Y-118080380D01*
X135146000Y-118080380D01*
X135288857Y-118128000D01*
X135384095Y-118223238D01*
X135431714Y-118318476D01*
X135479333Y-118508952D01*
X135479333Y-118651809D01*
X135431714Y-118842285D01*
X135384095Y-118937523D01*
X135288857Y-119032761D01*
X135146000Y-119080380D01*
X134907904Y-119080380D01*
X136050761Y-118508952D02*
X135955523Y-118461333D01*
X135907904Y-118413714D01*
X135860285Y-118318476D01*
X135860285Y-118270857D01*
X135907904Y-118175619D01*
X135955523Y-118128000D01*
X136050761Y-118080380D01*
X136241238Y-118080380D01*
X136336476Y-118128000D01*
X136384095Y-118175619D01*
X136431714Y-118270857D01*
X136431714Y-118318476D01*
X136384095Y-118413714D01*
X136336476Y-118461333D01*
X136241238Y-118508952D01*
X136050761Y-118508952D01*
X135955523Y-118556571D01*
X135907904Y-118604190D01*
X135860285Y-118699428D01*
X135860285Y-118889904D01*
X135907904Y-118985142D01*
X135955523Y-119032761D01*
X136050761Y-119080380D01*
X136241238Y-119080380D01*
X136336476Y-119032761D01*
X136384095Y-118985142D01*
X136431714Y-118889904D01*
X136431714Y-118699428D01*
X136384095Y-118604190D01*
X136336476Y-118556571D01*
X136241238Y-118508952D01*
X131320095Y-117280380D02*
X131320095Y-116280380D01*
X131891523Y-117280380D02*
X131462952Y-116708952D01*
X131891523Y-116280380D02*
X131320095Y-116851809D01*
%TO.C,D5*%
X167155904Y-68016380D02*
X167155904Y-67016380D01*
X167394000Y-67016380D01*
X167536857Y-67064000D01*
X167632095Y-67159238D01*
X167679714Y-67254476D01*
X167727333Y-67444952D01*
X167727333Y-67587809D01*
X167679714Y-67778285D01*
X167632095Y-67873523D01*
X167536857Y-67968761D01*
X167394000Y-68016380D01*
X167155904Y-68016380D01*
X168632095Y-67016380D02*
X168155904Y-67016380D01*
X168108285Y-67492571D01*
X168155904Y-67444952D01*
X168251142Y-67397333D01*
X168489238Y-67397333D01*
X168584476Y-67444952D01*
X168632095Y-67492571D01*
X168679714Y-67587809D01*
X168679714Y-67825904D01*
X168632095Y-67921142D01*
X168584476Y-67968761D01*
X168489238Y-68016380D01*
X168251142Y-68016380D01*
X168155904Y-67968761D01*
X168108285Y-67921142D01*
%TO.C,R29*%
X171061142Y-101290380D02*
X170727809Y-100814190D01*
X170489714Y-101290380D02*
X170489714Y-100290380D01*
X170870666Y-100290380D01*
X170965904Y-100338000D01*
X171013523Y-100385619D01*
X171061142Y-100480857D01*
X171061142Y-100623714D01*
X171013523Y-100718952D01*
X170965904Y-100766571D01*
X170870666Y-100814190D01*
X170489714Y-100814190D01*
X171442095Y-100385619D02*
X171489714Y-100338000D01*
X171584952Y-100290380D01*
X171823047Y-100290380D01*
X171918285Y-100338000D01*
X171965904Y-100385619D01*
X172013523Y-100480857D01*
X172013523Y-100576095D01*
X171965904Y-100718952D01*
X171394476Y-101290380D01*
X172013523Y-101290380D01*
X172489714Y-101290380D02*
X172680190Y-101290380D01*
X172775428Y-101242761D01*
X172823047Y-101195142D01*
X172918285Y-101052285D01*
X172965904Y-100861809D01*
X172965904Y-100480857D01*
X172918285Y-100385619D01*
X172870666Y-100338000D01*
X172775428Y-100290380D01*
X172584952Y-100290380D01*
X172489714Y-100338000D01*
X172442095Y-100385619D01*
X172394476Y-100480857D01*
X172394476Y-100718952D01*
X172442095Y-100814190D01*
X172489714Y-100861809D01*
X172584952Y-100909428D01*
X172775428Y-100909428D01*
X172870666Y-100861809D01*
X172918285Y-100814190D01*
X172965904Y-100718952D01*
%TO.C,R7*%
X157567333Y-74097380D02*
X157234000Y-73621190D01*
X156995904Y-74097380D02*
X156995904Y-73097380D01*
X157376857Y-73097380D01*
X157472095Y-73145000D01*
X157519714Y-73192619D01*
X157567333Y-73287857D01*
X157567333Y-73430714D01*
X157519714Y-73525952D01*
X157472095Y-73573571D01*
X157376857Y-73621190D01*
X156995904Y-73621190D01*
X157900666Y-73097380D02*
X158567333Y-73097380D01*
X158138761Y-74097380D01*
%TO.C,C8*%
X129373333Y-90527142D02*
X129325714Y-90574761D01*
X129182857Y-90622380D01*
X129087619Y-90622380D01*
X128944761Y-90574761D01*
X128849523Y-90479523D01*
X128801904Y-90384285D01*
X128754285Y-90193809D01*
X128754285Y-90050952D01*
X128801904Y-89860476D01*
X128849523Y-89765238D01*
X128944761Y-89670000D01*
X129087619Y-89622380D01*
X129182857Y-89622380D01*
X129325714Y-89670000D01*
X129373333Y-89717619D01*
X129944761Y-90050952D02*
X129849523Y-90003333D01*
X129801904Y-89955714D01*
X129754285Y-89860476D01*
X129754285Y-89812857D01*
X129801904Y-89717619D01*
X129849523Y-89670000D01*
X129944761Y-89622380D01*
X130135238Y-89622380D01*
X130230476Y-89670000D01*
X130278095Y-89717619D01*
X130325714Y-89812857D01*
X130325714Y-89860476D01*
X130278095Y-89955714D01*
X130230476Y-90003333D01*
X130135238Y-90050952D01*
X129944761Y-90050952D01*
X129849523Y-90098571D01*
X129801904Y-90146190D01*
X129754285Y-90241428D01*
X129754285Y-90431904D01*
X129801904Y-90527142D01*
X129849523Y-90574761D01*
X129944761Y-90622380D01*
X130135238Y-90622380D01*
X130230476Y-90574761D01*
X130278095Y-90527142D01*
X130325714Y-90431904D01*
X130325714Y-90241428D01*
X130278095Y-90146190D01*
X130230476Y-90098571D01*
X130135238Y-90050952D01*
%TO.C,R48*%
X164282380Y-120784857D02*
X163806190Y-121118190D01*
X164282380Y-121356285D02*
X163282380Y-121356285D01*
X163282380Y-120975333D01*
X163330000Y-120880095D01*
X163377619Y-120832476D01*
X163472857Y-120784857D01*
X163615714Y-120784857D01*
X163710952Y-120832476D01*
X163758571Y-120880095D01*
X163806190Y-120975333D01*
X163806190Y-121356285D01*
X163615714Y-119927714D02*
X164282380Y-119927714D01*
X163234761Y-120165809D02*
X163949047Y-120403904D01*
X163949047Y-119784857D01*
X163710952Y-119261047D02*
X163663333Y-119356285D01*
X163615714Y-119403904D01*
X163520476Y-119451523D01*
X163472857Y-119451523D01*
X163377619Y-119403904D01*
X163330000Y-119356285D01*
X163282380Y-119261047D01*
X163282380Y-119070571D01*
X163330000Y-118975333D01*
X163377619Y-118927714D01*
X163472857Y-118880095D01*
X163520476Y-118880095D01*
X163615714Y-118927714D01*
X163663333Y-118975333D01*
X163710952Y-119070571D01*
X163710952Y-119261047D01*
X163758571Y-119356285D01*
X163806190Y-119403904D01*
X163901428Y-119451523D01*
X164091904Y-119451523D01*
X164187142Y-119403904D01*
X164234761Y-119356285D01*
X164282380Y-119261047D01*
X164282380Y-119070571D01*
X164234761Y-118975333D01*
X164187142Y-118927714D01*
X164091904Y-118880095D01*
X163901428Y-118880095D01*
X163806190Y-118927714D01*
X163758571Y-118975333D01*
X163710952Y-119070571D01*
%TO.C,R65*%
X130929142Y-83002380D02*
X130595809Y-82526190D01*
X130357714Y-83002380D02*
X130357714Y-82002380D01*
X130738666Y-82002380D01*
X130833904Y-82050000D01*
X130881523Y-82097619D01*
X130929142Y-82192857D01*
X130929142Y-82335714D01*
X130881523Y-82430952D01*
X130833904Y-82478571D01*
X130738666Y-82526190D01*
X130357714Y-82526190D01*
X131786285Y-82002380D02*
X131595809Y-82002380D01*
X131500571Y-82050000D01*
X131452952Y-82097619D01*
X131357714Y-82240476D01*
X131310095Y-82430952D01*
X131310095Y-82811904D01*
X131357714Y-82907142D01*
X131405333Y-82954761D01*
X131500571Y-83002380D01*
X131691047Y-83002380D01*
X131786285Y-82954761D01*
X131833904Y-82907142D01*
X131881523Y-82811904D01*
X131881523Y-82573809D01*
X131833904Y-82478571D01*
X131786285Y-82430952D01*
X131691047Y-82383333D01*
X131500571Y-82383333D01*
X131405333Y-82430952D01*
X131357714Y-82478571D01*
X131310095Y-82573809D01*
X132786285Y-82002380D02*
X132310095Y-82002380D01*
X132262476Y-82478571D01*
X132310095Y-82430952D01*
X132405333Y-82383333D01*
X132643428Y-82383333D01*
X132738666Y-82430952D01*
X132786285Y-82478571D01*
X132833904Y-82573809D01*
X132833904Y-82811904D01*
X132786285Y-82907142D01*
X132738666Y-82954761D01*
X132643428Y-83002380D01*
X132405333Y-83002380D01*
X132310095Y-82954761D01*
X132262476Y-82907142D01*
%TO.C,R64*%
X175633142Y-104104380D02*
X175299809Y-103628190D01*
X175061714Y-104104380D02*
X175061714Y-103104380D01*
X175442666Y-103104380D01*
X175537904Y-103152000D01*
X175585523Y-103199619D01*
X175633142Y-103294857D01*
X175633142Y-103437714D01*
X175585523Y-103532952D01*
X175537904Y-103580571D01*
X175442666Y-103628190D01*
X175061714Y-103628190D01*
X176490285Y-103104380D02*
X176299809Y-103104380D01*
X176204571Y-103152000D01*
X176156952Y-103199619D01*
X176061714Y-103342476D01*
X176014095Y-103532952D01*
X176014095Y-103913904D01*
X176061714Y-104009142D01*
X176109333Y-104056761D01*
X176204571Y-104104380D01*
X176395047Y-104104380D01*
X176490285Y-104056761D01*
X176537904Y-104009142D01*
X176585523Y-103913904D01*
X176585523Y-103675809D01*
X176537904Y-103580571D01*
X176490285Y-103532952D01*
X176395047Y-103485333D01*
X176204571Y-103485333D01*
X176109333Y-103532952D01*
X176061714Y-103580571D01*
X176014095Y-103675809D01*
X177442666Y-103437714D02*
X177442666Y-104104380D01*
X177204571Y-103056761D02*
X176966476Y-103771047D01*
X177585523Y-103771047D01*
%TO.C,R22*%
X147557142Y-125056380D02*
X147223809Y-124580190D01*
X146985714Y-125056380D02*
X146985714Y-124056380D01*
X147366666Y-124056380D01*
X147461904Y-124104000D01*
X147509523Y-124151619D01*
X147557142Y-124246857D01*
X147557142Y-124389714D01*
X147509523Y-124484952D01*
X147461904Y-124532571D01*
X147366666Y-124580190D01*
X146985714Y-124580190D01*
X147938095Y-124151619D02*
X147985714Y-124104000D01*
X148080952Y-124056380D01*
X148319047Y-124056380D01*
X148414285Y-124104000D01*
X148461904Y-124151619D01*
X148509523Y-124246857D01*
X148509523Y-124342095D01*
X148461904Y-124484952D01*
X147890476Y-125056380D01*
X148509523Y-125056380D01*
X148890476Y-124151619D02*
X148938095Y-124104000D01*
X149033333Y-124056380D01*
X149271428Y-124056380D01*
X149366666Y-124104000D01*
X149414285Y-124151619D01*
X149461904Y-124246857D01*
X149461904Y-124342095D01*
X149414285Y-124484952D01*
X148842857Y-125056380D01*
X149461904Y-125056380D01*
%TO.C,R44*%
X161234380Y-120784857D02*
X160758190Y-121118190D01*
X161234380Y-121356285D02*
X160234380Y-121356285D01*
X160234380Y-120975333D01*
X160282000Y-120880095D01*
X160329619Y-120832476D01*
X160424857Y-120784857D01*
X160567714Y-120784857D01*
X160662952Y-120832476D01*
X160710571Y-120880095D01*
X160758190Y-120975333D01*
X160758190Y-121356285D01*
X160567714Y-119927714D02*
X161234380Y-119927714D01*
X160186761Y-120165809D02*
X160901047Y-120403904D01*
X160901047Y-119784857D01*
X160567714Y-118975333D02*
X161234380Y-118975333D01*
X160186761Y-119213428D02*
X160901047Y-119451523D01*
X160901047Y-118832476D01*
%TO.C,R10*%
X130929142Y-79954380D02*
X130595809Y-79478190D01*
X130357714Y-79954380D02*
X130357714Y-78954380D01*
X130738666Y-78954380D01*
X130833904Y-79002000D01*
X130881523Y-79049619D01*
X130929142Y-79144857D01*
X130929142Y-79287714D01*
X130881523Y-79382952D01*
X130833904Y-79430571D01*
X130738666Y-79478190D01*
X130357714Y-79478190D01*
X131881523Y-79954380D02*
X131310095Y-79954380D01*
X131595809Y-79954380D02*
X131595809Y-78954380D01*
X131500571Y-79097238D01*
X131405333Y-79192476D01*
X131310095Y-79240095D01*
X132500571Y-78954380D02*
X132595809Y-78954380D01*
X132691047Y-79002000D01*
X132738666Y-79049619D01*
X132786285Y-79144857D01*
X132833904Y-79335333D01*
X132833904Y-79573428D01*
X132786285Y-79763904D01*
X132738666Y-79859142D01*
X132691047Y-79906761D01*
X132595809Y-79954380D01*
X132500571Y-79954380D01*
X132405333Y-79906761D01*
X132357714Y-79859142D01*
X132310095Y-79763904D01*
X132262476Y-79573428D01*
X132262476Y-79335333D01*
X132310095Y-79144857D01*
X132357714Y-79049619D01*
X132405333Y-79002000D01*
X132500571Y-78954380D01*
%TO.C,U1*%
X111760095Y-105116380D02*
X111760095Y-105925904D01*
X111807714Y-106021142D01*
X111855333Y-106068761D01*
X111950571Y-106116380D01*
X112141047Y-106116380D01*
X112236285Y-106068761D01*
X112283904Y-106021142D01*
X112331523Y-105925904D01*
X112331523Y-105116380D01*
X113331523Y-106116380D02*
X112760095Y-106116380D01*
X113045809Y-106116380D02*
X113045809Y-105116380D01*
X112950571Y-105259238D01*
X112855333Y-105354476D01*
X112760095Y-105402095D01*
%TO.C,R57*%
X130929142Y-73858380D02*
X130595809Y-73382190D01*
X130357714Y-73858380D02*
X130357714Y-72858380D01*
X130738666Y-72858380D01*
X130833904Y-72906000D01*
X130881523Y-72953619D01*
X130929142Y-73048857D01*
X130929142Y-73191714D01*
X130881523Y-73286952D01*
X130833904Y-73334571D01*
X130738666Y-73382190D01*
X130357714Y-73382190D01*
X131833904Y-72858380D02*
X131357714Y-72858380D01*
X131310095Y-73334571D01*
X131357714Y-73286952D01*
X131452952Y-73239333D01*
X131691047Y-73239333D01*
X131786285Y-73286952D01*
X131833904Y-73334571D01*
X131881523Y-73429809D01*
X131881523Y-73667904D01*
X131833904Y-73763142D01*
X131786285Y-73810761D01*
X131691047Y-73858380D01*
X131452952Y-73858380D01*
X131357714Y-73810761D01*
X131310095Y-73763142D01*
X132214857Y-72858380D02*
X132881523Y-72858380D01*
X132452952Y-73858380D01*
%TO.C,D7*%
X167155904Y-73096380D02*
X167155904Y-72096380D01*
X167394000Y-72096380D01*
X167536857Y-72144000D01*
X167632095Y-72239238D01*
X167679714Y-72334476D01*
X167727333Y-72524952D01*
X167727333Y-72667809D01*
X167679714Y-72858285D01*
X167632095Y-72953523D01*
X167536857Y-73048761D01*
X167394000Y-73096380D01*
X167155904Y-73096380D01*
X168060666Y-72096380D02*
X168727333Y-72096380D01*
X168298761Y-73096380D01*
%TO.C,R45*%
X158186380Y-120784857D02*
X157710190Y-121118190D01*
X158186380Y-121356285D02*
X157186380Y-121356285D01*
X157186380Y-120975333D01*
X157234000Y-120880095D01*
X157281619Y-120832476D01*
X157376857Y-120784857D01*
X157519714Y-120784857D01*
X157614952Y-120832476D01*
X157662571Y-120880095D01*
X157710190Y-120975333D01*
X157710190Y-121356285D01*
X157519714Y-119927714D02*
X158186380Y-119927714D01*
X157138761Y-120165809D02*
X157853047Y-120403904D01*
X157853047Y-119784857D01*
X157186380Y-118927714D02*
X157186380Y-119403904D01*
X157662571Y-119451523D01*
X157614952Y-119403904D01*
X157567333Y-119308666D01*
X157567333Y-119070571D01*
X157614952Y-118975333D01*
X157662571Y-118927714D01*
X157757809Y-118880095D01*
X157995904Y-118880095D01*
X158091142Y-118927714D01*
X158138761Y-118975333D01*
X158186380Y-119070571D01*
X158186380Y-119308666D01*
X158138761Y-119403904D01*
X158091142Y-119451523D01*
%TO.C,C10*%
X107561142Y-106529142D02*
X107513523Y-106576761D01*
X107370666Y-106624380D01*
X107275428Y-106624380D01*
X107132571Y-106576761D01*
X107037333Y-106481523D01*
X106989714Y-106386285D01*
X106942095Y-106195809D01*
X106942095Y-106052952D01*
X106989714Y-105862476D01*
X107037333Y-105767238D01*
X107132571Y-105672000D01*
X107275428Y-105624380D01*
X107370666Y-105624380D01*
X107513523Y-105672000D01*
X107561142Y-105719619D01*
X108513523Y-106624380D02*
X107942095Y-106624380D01*
X108227809Y-106624380D02*
X108227809Y-105624380D01*
X108132571Y-105767238D01*
X108037333Y-105862476D01*
X107942095Y-105910095D01*
X109132571Y-105624380D02*
X109227809Y-105624380D01*
X109323047Y-105672000D01*
X109370666Y-105719619D01*
X109418285Y-105814857D01*
X109465904Y-106005333D01*
X109465904Y-106243428D01*
X109418285Y-106433904D01*
X109370666Y-106529142D01*
X109323047Y-106576761D01*
X109227809Y-106624380D01*
X109132571Y-106624380D01*
X109037333Y-106576761D01*
X108989714Y-106529142D01*
X108942095Y-106433904D01*
X108894476Y-106243428D01*
X108894476Y-106005333D01*
X108942095Y-105814857D01*
X108989714Y-105719619D01*
X109037333Y-105672000D01*
X109132571Y-105624380D01*
%TO.C,C18*%
X141851142Y-102465142D02*
X141803523Y-102512761D01*
X141660666Y-102560380D01*
X141565428Y-102560380D01*
X141422571Y-102512761D01*
X141327333Y-102417523D01*
X141279714Y-102322285D01*
X141232095Y-102131809D01*
X141232095Y-101988952D01*
X141279714Y-101798476D01*
X141327333Y-101703238D01*
X141422571Y-101608000D01*
X141565428Y-101560380D01*
X141660666Y-101560380D01*
X141803523Y-101608000D01*
X141851142Y-101655619D01*
X142803523Y-102560380D02*
X142232095Y-102560380D01*
X142517809Y-102560380D02*
X142517809Y-101560380D01*
X142422571Y-101703238D01*
X142327333Y-101798476D01*
X142232095Y-101846095D01*
X143374952Y-101988952D02*
X143279714Y-101941333D01*
X143232095Y-101893714D01*
X143184476Y-101798476D01*
X143184476Y-101750857D01*
X143232095Y-101655619D01*
X143279714Y-101608000D01*
X143374952Y-101560380D01*
X143565428Y-101560380D01*
X143660666Y-101608000D01*
X143708285Y-101655619D01*
X143755904Y-101750857D01*
X143755904Y-101798476D01*
X143708285Y-101893714D01*
X143660666Y-101941333D01*
X143565428Y-101988952D01*
X143374952Y-101988952D01*
X143279714Y-102036571D01*
X143232095Y-102084190D01*
X143184476Y-102179428D01*
X143184476Y-102369904D01*
X143232095Y-102465142D01*
X143279714Y-102512761D01*
X143374952Y-102560380D01*
X143565428Y-102560380D01*
X143660666Y-102512761D01*
X143708285Y-102465142D01*
X143755904Y-102369904D01*
X143755904Y-102179428D01*
X143708285Y-102084190D01*
X143660666Y-102036571D01*
X143565428Y-101988952D01*
%TO.C,R27*%
X114165142Y-77160380D02*
X113831809Y-76684190D01*
X113593714Y-77160380D02*
X113593714Y-76160380D01*
X113974666Y-76160380D01*
X114069904Y-76208000D01*
X114117523Y-76255619D01*
X114165142Y-76350857D01*
X114165142Y-76493714D01*
X114117523Y-76588952D01*
X114069904Y-76636571D01*
X113974666Y-76684190D01*
X113593714Y-76684190D01*
X114546095Y-76255619D02*
X114593714Y-76208000D01*
X114688952Y-76160380D01*
X114927047Y-76160380D01*
X115022285Y-76208000D01*
X115069904Y-76255619D01*
X115117523Y-76350857D01*
X115117523Y-76446095D01*
X115069904Y-76588952D01*
X114498476Y-77160380D01*
X115117523Y-77160380D01*
X115450857Y-76160380D02*
X116117523Y-76160380D01*
X115688952Y-77160380D01*
%TO.C,R52*%
X184094380Y-121038857D02*
X183618190Y-121372190D01*
X184094380Y-121610285D02*
X183094380Y-121610285D01*
X183094380Y-121229333D01*
X183142000Y-121134095D01*
X183189619Y-121086476D01*
X183284857Y-121038857D01*
X183427714Y-121038857D01*
X183522952Y-121086476D01*
X183570571Y-121134095D01*
X183618190Y-121229333D01*
X183618190Y-121610285D01*
X183094380Y-120134095D02*
X183094380Y-120610285D01*
X183570571Y-120657904D01*
X183522952Y-120610285D01*
X183475333Y-120515047D01*
X183475333Y-120276952D01*
X183522952Y-120181714D01*
X183570571Y-120134095D01*
X183665809Y-120086476D01*
X183903904Y-120086476D01*
X183999142Y-120134095D01*
X184046761Y-120181714D01*
X184094380Y-120276952D01*
X184094380Y-120515047D01*
X184046761Y-120610285D01*
X183999142Y-120657904D01*
X183189619Y-119705523D02*
X183142000Y-119657904D01*
X183094380Y-119562666D01*
X183094380Y-119324571D01*
X183142000Y-119229333D01*
X183189619Y-119181714D01*
X183284857Y-119134095D01*
X183380095Y-119134095D01*
X183522952Y-119181714D01*
X184094380Y-119753142D01*
X184094380Y-119134095D01*
%TO.C,R49*%
X187142380Y-121292857D02*
X186666190Y-121626190D01*
X187142380Y-121864285D02*
X186142380Y-121864285D01*
X186142380Y-121483333D01*
X186190000Y-121388095D01*
X186237619Y-121340476D01*
X186332857Y-121292857D01*
X186475714Y-121292857D01*
X186570952Y-121340476D01*
X186618571Y-121388095D01*
X186666190Y-121483333D01*
X186666190Y-121864285D01*
X186475714Y-120435714D02*
X187142380Y-120435714D01*
X186094761Y-120673809D02*
X186809047Y-120911904D01*
X186809047Y-120292857D01*
X187142380Y-119864285D02*
X187142380Y-119673809D01*
X187094761Y-119578571D01*
X187047142Y-119530952D01*
X186904285Y-119435714D01*
X186713809Y-119388095D01*
X186332857Y-119388095D01*
X186237619Y-119435714D01*
X186190000Y-119483333D01*
X186142380Y-119578571D01*
X186142380Y-119769047D01*
X186190000Y-119864285D01*
X186237619Y-119911904D01*
X186332857Y-119959523D01*
X186570952Y-119959523D01*
X186666190Y-119911904D01*
X186713809Y-119864285D01*
X186761428Y-119769047D01*
X186761428Y-119578571D01*
X186713809Y-119483333D01*
X186666190Y-119435714D01*
X186570952Y-119388095D01*
%TO.C,R70*%
X134749142Y-125176380D02*
X134415809Y-124700190D01*
X134177714Y-125176380D02*
X134177714Y-124176380D01*
X134558666Y-124176380D01*
X134653904Y-124224000D01*
X134701523Y-124271619D01*
X134749142Y-124366857D01*
X134749142Y-124509714D01*
X134701523Y-124604952D01*
X134653904Y-124652571D01*
X134558666Y-124700190D01*
X134177714Y-124700190D01*
X135082476Y-124176380D02*
X135749142Y-124176380D01*
X135320571Y-125176380D01*
X136320571Y-124176380D02*
X136415809Y-124176380D01*
X136511047Y-124224000D01*
X136558666Y-124271619D01*
X136606285Y-124366857D01*
X136653904Y-124557333D01*
X136653904Y-124795428D01*
X136606285Y-124985904D01*
X136558666Y-125081142D01*
X136511047Y-125128761D01*
X136415809Y-125176380D01*
X136320571Y-125176380D01*
X136225333Y-125128761D01*
X136177714Y-125081142D01*
X136130095Y-124985904D01*
X136082476Y-124795428D01*
X136082476Y-124557333D01*
X136130095Y-124366857D01*
X136177714Y-124271619D01*
X136225333Y-124224000D01*
X136320571Y-124176380D01*
%TO.C,R56*%
X130929142Y-67762380D02*
X130595809Y-67286190D01*
X130357714Y-67762380D02*
X130357714Y-66762380D01*
X130738666Y-66762380D01*
X130833904Y-66810000D01*
X130881523Y-66857619D01*
X130929142Y-66952857D01*
X130929142Y-67095714D01*
X130881523Y-67190952D01*
X130833904Y-67238571D01*
X130738666Y-67286190D01*
X130357714Y-67286190D01*
X131833904Y-66762380D02*
X131357714Y-66762380D01*
X131310095Y-67238571D01*
X131357714Y-67190952D01*
X131452952Y-67143333D01*
X131691047Y-67143333D01*
X131786285Y-67190952D01*
X131833904Y-67238571D01*
X131881523Y-67333809D01*
X131881523Y-67571904D01*
X131833904Y-67667142D01*
X131786285Y-67714761D01*
X131691047Y-67762380D01*
X131452952Y-67762380D01*
X131357714Y-67714761D01*
X131310095Y-67667142D01*
X132738666Y-66762380D02*
X132548190Y-66762380D01*
X132452952Y-66810000D01*
X132405333Y-66857619D01*
X132310095Y-67000476D01*
X132262476Y-67190952D01*
X132262476Y-67571904D01*
X132310095Y-67667142D01*
X132357714Y-67714761D01*
X132452952Y-67762380D01*
X132643428Y-67762380D01*
X132738666Y-67714761D01*
X132786285Y-67667142D01*
X132833904Y-67571904D01*
X132833904Y-67333809D01*
X132786285Y-67238571D01*
X132738666Y-67190952D01*
X132643428Y-67143333D01*
X132452952Y-67143333D01*
X132357714Y-67190952D01*
X132310095Y-67238571D01*
X132262476Y-67333809D01*
D11*
%TO.C,Q1*%
X125658000Y-115548000D02*
X125658000Y-119148000D01*
X125669522Y-119186478D02*
G75*
G03*
X130108000Y-117348000I1838478J1838478D01*
G01*
X130108001Y-117348000D02*
G75*
G03*
X125669522Y-115509522I-2600001J0D01*
G01*
%TO.C,J27*%
X188510000Y-77470000D02*
X187510000Y-77470000D01*
X192930000Y-76670000D02*
X192930000Y-78270000D01*
X192930000Y-74130000D02*
X192930000Y-75730000D01*
X188510000Y-72390000D02*
X188510000Y-77470000D01*
X192500000Y-70720000D02*
X188500000Y-70720000D01*
X193530000Y-76670000D02*
X192930000Y-76670000D01*
X193530000Y-71010000D02*
X187510000Y-71010000D01*
X188510000Y-72390000D02*
X189040000Y-72640000D01*
X189040000Y-72640000D02*
X189040000Y-77220000D01*
X192930000Y-78270000D02*
X193530000Y-78270000D01*
X193530000Y-74130000D02*
X192930000Y-74130000D01*
X187510000Y-77220000D02*
X188510000Y-77220000D01*
X193530000Y-78850000D02*
X193530000Y-71010000D01*
X189040000Y-77220000D02*
X188510000Y-77470000D01*
X187510000Y-72640000D02*
X188510000Y-72640000D01*
X192930000Y-71590000D02*
X192930000Y-73190000D01*
X187510000Y-71010000D02*
X187510000Y-78850000D01*
X193530000Y-71590000D02*
X192930000Y-71590000D01*
X192930000Y-75730000D02*
X193530000Y-75730000D01*
X192930000Y-73190000D02*
X193530000Y-73190000D01*
X187510000Y-78850000D02*
X193530000Y-78850000D01*
X187510000Y-72390000D02*
X188510000Y-72390000D01*
%TO.C,J26*%
X121200000Y-81788000D02*
X120200000Y-81788000D01*
X125620000Y-80988000D02*
X125620000Y-82588000D01*
X125620000Y-78448000D02*
X125620000Y-80048000D01*
X121200000Y-76708000D02*
X121200000Y-81788000D01*
X125190000Y-75038000D02*
X121190000Y-75038000D01*
X126220000Y-80988000D02*
X125620000Y-80988000D01*
X126220000Y-75328000D02*
X120200000Y-75328000D01*
X121200000Y-76708000D02*
X121730000Y-76958000D01*
X121730000Y-76958000D02*
X121730000Y-81538000D01*
X125620000Y-82588000D02*
X126220000Y-82588000D01*
X126220000Y-78448000D02*
X125620000Y-78448000D01*
X120200000Y-81538000D02*
X121200000Y-81538000D01*
X126220000Y-83168000D02*
X126220000Y-75328000D01*
X121730000Y-81538000D02*
X121200000Y-81788000D01*
X120200000Y-76958000D02*
X121200000Y-76958000D01*
X125620000Y-75908000D02*
X125620000Y-77508000D01*
X120200000Y-75328000D02*
X120200000Y-83168000D01*
X126220000Y-75908000D02*
X125620000Y-75908000D01*
X125620000Y-80048000D02*
X126220000Y-80048000D01*
X125620000Y-77508000D02*
X126220000Y-77508000D01*
X120200000Y-83168000D02*
X126220000Y-83168000D01*
X120200000Y-76708000D02*
X121200000Y-76708000D01*
%TO.C,J24*%
X121200000Y-73167000D02*
X120200000Y-73167000D01*
X125620000Y-72367000D02*
X125620000Y-73967000D01*
X125620000Y-69827000D02*
X125620000Y-71427000D01*
X121200000Y-68087000D02*
X121200000Y-73167000D01*
X125190000Y-66417000D02*
X121190000Y-66417000D01*
X126220000Y-72367000D02*
X125620000Y-72367000D01*
X126220000Y-66707000D02*
X120200000Y-66707000D01*
X121200000Y-68087000D02*
X121730000Y-68337000D01*
X121730000Y-68337000D02*
X121730000Y-72917000D01*
X125620000Y-73967000D02*
X126220000Y-73967000D01*
X126220000Y-69827000D02*
X125620000Y-69827000D01*
X120200000Y-72917000D02*
X121200000Y-72917000D01*
X126220000Y-74547000D02*
X126220000Y-66707000D01*
X121730000Y-72917000D02*
X121200000Y-73167000D01*
X120200000Y-68337000D02*
X121200000Y-68337000D01*
X125620000Y-67287000D02*
X125620000Y-68887000D01*
X120200000Y-66707000D02*
X120200000Y-74547000D01*
X126220000Y-67287000D02*
X125620000Y-67287000D01*
X125620000Y-71427000D02*
X126220000Y-71427000D01*
X125620000Y-68887000D02*
X126220000Y-68887000D01*
X120200000Y-74547000D02*
X126220000Y-74547000D01*
X120200000Y-68087000D02*
X121200000Y-68087000D01*
%TO.C,C15*%
X186864000Y-91086000D02*
X186864000Y-93826000D01*
X192104000Y-91086000D02*
X192104000Y-93826000D01*
X186864000Y-91086000D02*
X192104000Y-91086000D01*
X186864000Y-93826000D02*
X192104000Y-93826000D01*
%TO.C,R71*%
X134842000Y-77824000D02*
X128302000Y-77824000D01*
X128302000Y-75084000D02*
X128302000Y-75414000D01*
X134842000Y-75084000D02*
X128302000Y-75084000D01*
X134842000Y-75414000D02*
X134842000Y-75084000D01*
X128302000Y-77824000D02*
X128302000Y-77494000D01*
X134842000Y-77494000D02*
X134842000Y-77824000D01*
%TO.C,U4*%
X151986000Y-85722000D02*
X151986000Y-103742000D01*
X151986000Y-103742000D02*
X162486000Y-103742000D01*
X156236000Y-85782000D02*
X154986000Y-85782000D01*
X154986000Y-103682000D02*
X159486000Y-103682000D01*
X154986000Y-85782000D02*
X154986000Y-103682000D01*
X162486000Y-103742000D02*
X162486000Y-85722000D01*
X162486000Y-85722000D02*
X151986000Y-85722000D01*
X159486000Y-85782000D02*
X158236000Y-85782000D01*
X159486000Y-103682000D02*
X159486000Y-85782000D01*
X156236000Y-85782000D02*
G75*
G03*
X158236000Y-85782000I1000000J0D01*
G01*
%TO.C,R32*%
X155797000Y-107466000D02*
X155797000Y-107796000D01*
X155797000Y-107796000D02*
X149257000Y-107796000D01*
X149257000Y-107796000D02*
X149257000Y-107466000D01*
X155797000Y-105056000D02*
X149257000Y-105056000D01*
X149257000Y-105056000D02*
X149257000Y-105386000D01*
X155797000Y-105386000D02*
X155797000Y-105056000D01*
%TO.C,R26*%
X155797000Y-108688000D02*
X155797000Y-108358000D01*
X155797000Y-110768000D02*
X155797000Y-111098000D01*
X149257000Y-108358000D02*
X149257000Y-108688000D01*
X149257000Y-111098000D02*
X149257000Y-110768000D01*
X155797000Y-108358000D02*
X149257000Y-108358000D01*
X155797000Y-111098000D02*
X149257000Y-111098000D01*
%TO.C,R31*%
X106966000Y-127100000D02*
X106966000Y-126770000D01*
X113506000Y-127100000D02*
X106966000Y-127100000D01*
X113506000Y-124360000D02*
X106966000Y-124360000D01*
X113506000Y-124690000D02*
X113506000Y-124360000D01*
X113506000Y-126770000D02*
X113506000Y-127100000D01*
X106966000Y-124360000D02*
X106966000Y-124690000D01*
%TO.C,R67*%
X166656000Y-94588000D02*
X166656000Y-94258000D01*
X166656000Y-91848000D02*
X166656000Y-92178000D01*
X173196000Y-91848000D02*
X166656000Y-91848000D01*
X173196000Y-94258000D02*
X173196000Y-94588000D01*
X173196000Y-94588000D02*
X166656000Y-94588000D01*
X173196000Y-92178000D02*
X173196000Y-91848000D01*
%TO.C,C19*%
X122591000Y-84560000D02*
X122836000Y-84560000D01*
X120496000Y-88200000D02*
X120741000Y-88200000D01*
X122591000Y-88200000D02*
X122836000Y-88200000D01*
X122836000Y-88200000D02*
X122836000Y-84560000D01*
X120496000Y-84560000D02*
X120741000Y-84560000D01*
X120496000Y-88200000D02*
X120496000Y-84560000D01*
%TO.C,R66*%
X127476000Y-126084000D02*
X127476000Y-125754000D01*
X127476000Y-123344000D02*
X127476000Y-123674000D01*
X120936000Y-125754000D02*
X120936000Y-126084000D01*
X120936000Y-126084000D02*
X127476000Y-126084000D01*
X120936000Y-123344000D02*
X127476000Y-123344000D01*
X120936000Y-123674000D02*
X120936000Y-123344000D01*
%TO.C,R25*%
X160242000Y-78889000D02*
X160242000Y-79219000D01*
X153702000Y-79219000D02*
X153702000Y-78889000D01*
X160242000Y-81629000D02*
X160242000Y-81299000D01*
X153702000Y-81299000D02*
X153702000Y-81629000D01*
X153702000Y-81629000D02*
X160242000Y-81629000D01*
X153702000Y-78889000D02*
X160242000Y-78889000D01*
%TO.C,R30*%
X108990000Y-118586000D02*
X109320000Y-118586000D01*
X109320000Y-118586000D02*
X109320000Y-112046000D01*
X106580000Y-118586000D02*
X106580000Y-112046000D01*
X109320000Y-112046000D02*
X108990000Y-112046000D01*
X106580000Y-112046000D02*
X106910000Y-112046000D01*
X106910000Y-118586000D02*
X106580000Y-118586000D01*
%TO.C,R61*%
X165838000Y-117126000D02*
X165508000Y-117126000D01*
X165508000Y-123666000D02*
X165838000Y-123666000D01*
X167918000Y-117126000D02*
X168248000Y-117126000D01*
X165508000Y-117126000D02*
X165508000Y-123666000D01*
X168248000Y-123666000D02*
X167918000Y-123666000D01*
X168248000Y-117126000D02*
X168248000Y-123666000D01*
%TO.C,D2*%
X148994000Y-90761000D02*
X151234000Y-90761000D01*
X150114000Y-91411000D02*
X150114000Y-90761000D01*
X148994000Y-90041000D02*
X151234000Y-90041000D01*
X148994000Y-89921000D02*
X151234000Y-89921000D01*
X148994000Y-90161000D02*
X151234000Y-90161000D01*
X150114000Y-85871000D02*
X150114000Y-86521000D01*
X151234000Y-86521000D02*
X148994000Y-86521000D01*
X151234000Y-90761000D02*
X151234000Y-86521000D01*
X148994000Y-86521000D02*
X148994000Y-90761000D01*
%TO.C,R60*%
X188480000Y-108710000D02*
G75*
G03*
X188480000Y-108710000I-3930000J0D01*
G01*
%TO.C,C12*%
X165046113Y-84663000D02*
X165046113Y-81453000D01*
X166086113Y-85440000D02*
X166086113Y-84098000D01*
X167087113Y-82018000D02*
X167087113Y-80478000D01*
X166567113Y-82018000D02*
X166567113Y-80530000D01*
X166767113Y-85619000D02*
X166767113Y-84098000D01*
X166046113Y-85423000D02*
X166046113Y-84098000D01*
X166407113Y-85549000D02*
X166407113Y-84098000D01*
X166607113Y-85594000D02*
X166607113Y-84098000D01*
X166847113Y-85627000D02*
X166847113Y-84098000D01*
X165286113Y-82018000D02*
X165286113Y-81194000D01*
X169891888Y-84533000D02*
X169391888Y-84533000D01*
X165126113Y-84757000D02*
X165126113Y-84098000D01*
X166126113Y-82018000D02*
X166126113Y-80660000D01*
X166366113Y-82018000D02*
X166366113Y-80578000D01*
X165966113Y-82018000D02*
X165966113Y-80729000D01*
X166046113Y-82018000D02*
X166046113Y-80693000D01*
X165166113Y-84801000D02*
X165166113Y-84098000D01*
X166927113Y-85634000D02*
X166927113Y-84098000D01*
X167047113Y-82018000D02*
X167047113Y-80478000D01*
X165526113Y-82018000D02*
X165526113Y-80993000D01*
X166567113Y-85586000D02*
X166567113Y-84098000D01*
X166166113Y-85472000D02*
X166166113Y-84098000D01*
X165246113Y-82018000D02*
X165246113Y-81232000D01*
X166727113Y-82018000D02*
X166727113Y-80502000D01*
X166286113Y-82018000D02*
X166286113Y-80603000D01*
X165006113Y-84612000D02*
X165006113Y-81504000D01*
X167087113Y-85638000D02*
X167087113Y-84098000D01*
X164846113Y-84377000D02*
X164846113Y-81739000D01*
X164686113Y-84069000D02*
X164686113Y-82047000D01*
X169641888Y-84783000D02*
X169641888Y-84283000D01*
X165246113Y-84884000D02*
X165246113Y-84098000D01*
X166126113Y-85456000D02*
X166126113Y-84098000D01*
X166366113Y-85538000D02*
X166366113Y-84098000D01*
X164806113Y-84309000D02*
X164806113Y-81807000D01*
X165846113Y-82018000D02*
X165846113Y-80790000D01*
X166967113Y-82018000D02*
X166967113Y-80480000D01*
X166927113Y-82018000D02*
X166927113Y-80482000D01*
X165686113Y-85233000D02*
X165686113Y-84098000D01*
X166967113Y-85636000D02*
X166967113Y-84098000D01*
X166246113Y-85500000D02*
X166246113Y-84098000D01*
X164766113Y-84236000D02*
X164766113Y-81880000D01*
X165566113Y-82018000D02*
X165566113Y-80963000D01*
X166527113Y-82018000D02*
X166527113Y-80538000D01*
X165806113Y-85305000D02*
X165806113Y-84098000D01*
X165686113Y-82018000D02*
X165686113Y-80883000D01*
X165966113Y-85387000D02*
X165966113Y-84098000D01*
X165286113Y-84922000D02*
X165286113Y-84098000D01*
X165646113Y-82018000D02*
X165646113Y-80909000D01*
X166326113Y-85526000D02*
X166326113Y-84098000D01*
X164606113Y-83863000D02*
X164606113Y-82253000D01*
X165486113Y-85093000D02*
X165486113Y-84098000D01*
X165766113Y-85282000D02*
X165766113Y-84098000D01*
X166206113Y-85486000D02*
X166206113Y-84098000D01*
X166887113Y-82018000D02*
X166887113Y-80485000D01*
X165326113Y-84959000D02*
X165326113Y-84098000D01*
X165886113Y-82018000D02*
X165886113Y-80768000D01*
X167047113Y-85638000D02*
X167047113Y-84098000D01*
X167007113Y-82018000D02*
X167007113Y-80479000D01*
X165326113Y-82018000D02*
X165326113Y-81157000D01*
X166487113Y-85569000D02*
X166487113Y-84098000D01*
X165366113Y-84995000D02*
X165366113Y-84098000D01*
X166447113Y-85559000D02*
X166447113Y-84098000D01*
X165726113Y-85258000D02*
X165726113Y-84098000D01*
X166687113Y-85608000D02*
X166687113Y-84098000D01*
X165446113Y-82018000D02*
X165446113Y-81054000D01*
X166407113Y-82018000D02*
X166407113Y-80567000D01*
X165766113Y-82018000D02*
X165766113Y-80834000D01*
X164526113Y-83576000D02*
X164526113Y-82540000D01*
X165926113Y-82018000D02*
X165926113Y-80748000D01*
X165406113Y-85029000D02*
X165406113Y-84098000D01*
X166006113Y-82018000D02*
X166006113Y-80710000D01*
X164566113Y-83735000D02*
X164566113Y-82381000D01*
X167007113Y-85637000D02*
X167007113Y-84098000D01*
X164726113Y-84156000D02*
X164726113Y-81960000D01*
X164966113Y-84558000D02*
X164966113Y-81558000D01*
X165446113Y-85062000D02*
X165446113Y-84098000D01*
X165806113Y-82018000D02*
X165806113Y-80811000D01*
X165846113Y-85326000D02*
X165846113Y-84098000D01*
X166767113Y-82018000D02*
X166767113Y-80497000D01*
X166807113Y-82018000D02*
X166807113Y-80493000D01*
X165606113Y-85180000D02*
X165606113Y-84098000D01*
X165086113Y-82018000D02*
X165086113Y-81405000D01*
X166727113Y-85614000D02*
X166727113Y-84098000D01*
X165726113Y-82018000D02*
X165726113Y-80858000D01*
X166086113Y-82018000D02*
X166086113Y-80676000D01*
X165086113Y-84711000D02*
X165086113Y-84098000D01*
X166527113Y-85578000D02*
X166527113Y-84098000D01*
X165166113Y-82018000D02*
X165166113Y-81315000D01*
X166006113Y-85406000D02*
X166006113Y-84098000D01*
X165206113Y-82018000D02*
X165206113Y-81273000D01*
X165566113Y-85153000D02*
X165566113Y-84098000D01*
X165646113Y-85207000D02*
X165646113Y-84098000D01*
X164886113Y-84441000D02*
X164886113Y-81675000D01*
X166847113Y-82018000D02*
X166847113Y-80489000D01*
X166286113Y-85513000D02*
X166286113Y-84098000D01*
X166647113Y-85601000D02*
X166647113Y-84098000D01*
X165486113Y-82018000D02*
X165486113Y-81023000D01*
X166487113Y-82018000D02*
X166487113Y-80547000D01*
X164486113Y-83342000D02*
X164486113Y-82774000D01*
X166887113Y-85631000D02*
X166887113Y-84098000D01*
X165926113Y-85368000D02*
X165926113Y-84098000D01*
X166246113Y-82018000D02*
X166246113Y-80616000D01*
X165126113Y-82018000D02*
X165126113Y-81359000D01*
X164646113Y-83973000D02*
X164646113Y-82143000D01*
X165406113Y-82018000D02*
X165406113Y-81087000D01*
X166687113Y-82018000D02*
X166687113Y-80508000D01*
X165606113Y-82018000D02*
X165606113Y-80936000D01*
X165526113Y-85123000D02*
X165526113Y-84098000D01*
X166807113Y-85623000D02*
X166807113Y-84098000D01*
X165366113Y-82018000D02*
X165366113Y-81121000D01*
X166607113Y-82018000D02*
X166607113Y-80522000D01*
X166647113Y-82018000D02*
X166647113Y-80515000D01*
X166206113Y-82018000D02*
X166206113Y-80630000D01*
X166166113Y-82018000D02*
X166166113Y-80644000D01*
X166447113Y-82018000D02*
X166447113Y-80557000D01*
X165206113Y-84843000D02*
X165206113Y-84098000D01*
X164926113Y-84501000D02*
X164926113Y-81615000D01*
X165886113Y-85348000D02*
X165886113Y-84098000D01*
X166326113Y-82018000D02*
X166326113Y-80590000D01*
X169707113Y-83058000D02*
G75*
G03*
X169707113Y-83058000I-2620000J0D01*
G01*
%TO.C,R69*%
X146720000Y-104172000D02*
X146390000Y-104172000D01*
X143980000Y-104172000D02*
X144310000Y-104172000D01*
X143980000Y-110712000D02*
X143980000Y-104172000D01*
X146390000Y-110712000D02*
X146720000Y-110712000D01*
X146720000Y-110712000D02*
X146720000Y-104172000D01*
X144310000Y-110712000D02*
X143980000Y-110712000D01*
%TO.C,U2*%
X137876000Y-102058000D02*
X136626000Y-102058000D01*
X133376000Y-102058000D02*
X133376000Y-112338000D01*
X130376000Y-112398000D02*
X140876000Y-112398000D01*
X137876000Y-112338000D02*
X137876000Y-102058000D01*
X133376000Y-112338000D02*
X137876000Y-112338000D01*
X140876000Y-112398000D02*
X140876000Y-101998000D01*
X130376000Y-101998000D02*
X130376000Y-112398000D01*
X140876000Y-101998000D02*
X130376000Y-101998000D01*
X134626000Y-102058000D02*
X133376000Y-102058000D01*
X134626000Y-102058000D02*
G75*
G03*
X136626000Y-102058000I1000000J0D01*
G01*
%TO.C,J13*%
X114050000Y-119170000D02*
X112010000Y-119170000D01*
X114050000Y-117640000D02*
X114050000Y-118640000D01*
X110380000Y-123660000D02*
X115680000Y-123660000D01*
X115680000Y-117640000D02*
X110380000Y-117640000D01*
X110960000Y-123060000D02*
X110960000Y-123660000D01*
X111760000Y-118640000D02*
X111760000Y-117640000D01*
X113500000Y-123060000D02*
X113500000Y-123660000D01*
X115100000Y-123660000D02*
X115100000Y-123060000D01*
X114300000Y-118640000D02*
X111760000Y-118640000D01*
X112560000Y-123660000D02*
X112560000Y-123060000D01*
X112560000Y-123060000D02*
X110960000Y-123060000D01*
X114300000Y-117640000D02*
X114300000Y-118640000D01*
X115680000Y-123660000D02*
X115680000Y-117640000D01*
X115100000Y-123060000D02*
X113500000Y-123060000D01*
X115970000Y-122630000D02*
X115970000Y-118630000D01*
X114300000Y-118640000D02*
X114050000Y-119170000D01*
X112010000Y-119170000D02*
X111760000Y-118640000D01*
X110380000Y-117640000D02*
X110380000Y-123660000D01*
X112010000Y-117640000D02*
X112010000Y-118640000D01*
%TO.C,D4*%
X165520000Y-74064000D02*
X165520000Y-76304000D01*
X169760000Y-76304000D02*
X169760000Y-74064000D01*
X165520000Y-76304000D02*
X169760000Y-76304000D01*
X169760000Y-74064000D02*
X165520000Y-74064000D01*
X164870000Y-75184000D02*
X165520000Y-75184000D01*
X170410000Y-75184000D02*
X169760000Y-75184000D01*
X169160000Y-76304000D02*
X169160000Y-74064000D01*
X169040000Y-76304000D02*
X169040000Y-74064000D01*
X168920000Y-76304000D02*
X168920000Y-74064000D01*
%TO.C,C2*%
X143437500Y-80618000D02*
X148677500Y-80618000D01*
X143437500Y-77878000D02*
X143437500Y-80618000D01*
X143437500Y-77878000D02*
X148677500Y-77878000D01*
X148677500Y-77878000D02*
X148677500Y-80618000D01*
%TO.C,R21*%
X144915000Y-116910000D02*
X144915000Y-116580000D01*
X144915000Y-119320000D02*
X151455000Y-119320000D01*
X151455000Y-116580000D02*
X151455000Y-116910000D01*
X151455000Y-119320000D02*
X151455000Y-118990000D01*
X144915000Y-116580000D02*
X151455000Y-116580000D01*
X144915000Y-118990000D02*
X144915000Y-119320000D01*
%TO.C,D1*%
X124102000Y-98386000D02*
X126342000Y-98386000D01*
X126342000Y-94746000D02*
X124102000Y-94746000D01*
X125222000Y-93496000D02*
X125222000Y-94146000D01*
X126342000Y-98386000D02*
X126342000Y-94146000D01*
X126342000Y-94866000D02*
X124102000Y-94866000D01*
X124102000Y-94146000D02*
X124102000Y-98386000D01*
X126342000Y-94146000D02*
X124102000Y-94146000D01*
X125222000Y-99036000D02*
X125222000Y-98386000D01*
X126342000Y-94986000D02*
X124102000Y-94986000D01*
%TO.C,R40*%
X166656000Y-88800000D02*
X173196000Y-88800000D01*
X166656000Y-91540000D02*
X173196000Y-91540000D01*
X166656000Y-89130000D02*
X166656000Y-88800000D01*
X166656000Y-91210000D02*
X166656000Y-91540000D01*
X173196000Y-88800000D02*
X173196000Y-89130000D01*
X173196000Y-91540000D02*
X173196000Y-91210000D01*
%TO.C,C14*%
X140745000Y-124845000D02*
X140430000Y-124845000D01*
X140430000Y-119905000D02*
X140430000Y-124845000D01*
X143170000Y-119905000D02*
X142855000Y-119905000D01*
X143170000Y-119905000D02*
X143170000Y-124845000D01*
X143170000Y-124845000D02*
X142855000Y-124845000D01*
X140745000Y-119905000D02*
X140430000Y-119905000D01*
%TO.C,D6*%
X169160000Y-71224000D02*
X169160000Y-68984000D01*
X168920000Y-71224000D02*
X168920000Y-68984000D01*
X169040000Y-71224000D02*
X169040000Y-68984000D01*
X164870000Y-70104000D02*
X165520000Y-70104000D01*
X170410000Y-70104000D02*
X169760000Y-70104000D01*
X169760000Y-71224000D02*
X169760000Y-68984000D01*
X165520000Y-68984000D02*
X165520000Y-71224000D01*
X165520000Y-71224000D02*
X169760000Y-71224000D01*
X169760000Y-68984000D02*
X165520000Y-68984000D01*
%TO.C,C1*%
X137842000Y-77878000D02*
X137842000Y-80618000D01*
X137842000Y-80618000D02*
X143082000Y-80618000D01*
X137842000Y-77878000D02*
X143082000Y-77878000D01*
X143082000Y-77878000D02*
X143082000Y-80618000D01*
%TO.C,U7*%
X178608000Y-85294000D02*
X178608000Y-95574000D01*
X183108000Y-95574000D02*
X183108000Y-85294000D01*
X178608000Y-95574000D02*
X183108000Y-95574000D01*
X186108000Y-95634000D02*
X186108000Y-85234000D01*
X179858000Y-85294000D02*
X178608000Y-85294000D01*
X186108000Y-85234000D02*
X175608000Y-85234000D01*
X183108000Y-85294000D02*
X181858000Y-85294000D01*
X175608000Y-85234000D02*
X175608000Y-95634000D01*
X175608000Y-95634000D02*
X186108000Y-95634000D01*
X179858000Y-85294000D02*
G75*
G03*
X181858000Y-85294000I1000000J0D01*
G01*
%TO.C,R35*%
X177578000Y-84352000D02*
X177578000Y-84682000D01*
X177578000Y-84682000D02*
X184118000Y-84682000D01*
X177578000Y-82272000D02*
X177578000Y-81942000D01*
X184118000Y-84682000D02*
X184118000Y-84352000D01*
X177578000Y-81942000D02*
X184118000Y-81942000D01*
X184118000Y-81942000D02*
X184118000Y-82272000D01*
%TO.C,R8*%
X128302000Y-71728000D02*
X134842000Y-71728000D01*
X128302000Y-71398000D02*
X128302000Y-71728000D01*
X128302000Y-69318000D02*
X128302000Y-68988000D01*
X134842000Y-71728000D02*
X134842000Y-71398000D01*
X128302000Y-68988000D02*
X134842000Y-68988000D01*
X134842000Y-68988000D02*
X134842000Y-69318000D01*
%TO.C,U6*%
X183108000Y-67514000D02*
X181858000Y-67514000D01*
X179858000Y-67514000D02*
X178608000Y-67514000D01*
X183108000Y-77794000D02*
X183108000Y-67514000D01*
X178608000Y-67514000D02*
X178608000Y-77794000D01*
X175608000Y-67454000D02*
X175608000Y-77854000D01*
X186108000Y-77854000D02*
X186108000Y-67454000D01*
X175608000Y-77854000D02*
X186108000Y-77854000D01*
X178608000Y-77794000D02*
X183108000Y-77794000D01*
X186108000Y-67454000D02*
X175608000Y-67454000D01*
X179858000Y-67514000D02*
G75*
G03*
X181858000Y-67514000I1000000J0D01*
G01*
%TO.C,R36*%
X188500000Y-97944000D02*
X195040000Y-97944000D01*
X195040000Y-97944000D02*
X195040000Y-98274000D01*
X195040000Y-100684000D02*
X195040000Y-100354000D01*
X188500000Y-100354000D02*
X188500000Y-100684000D01*
X188500000Y-100684000D02*
X195040000Y-100684000D01*
X188500000Y-98274000D02*
X188500000Y-97944000D01*
%TO.C,R5*%
X147440000Y-73137000D02*
G75*
G03*
X147440000Y-73137000I-3930000J0D01*
G01*
%TO.C,C5*%
X116686000Y-124268000D02*
X116931000Y-124268000D01*
X116686000Y-124268000D02*
X116686000Y-120628000D01*
X118781000Y-124268000D02*
X119026000Y-124268000D01*
X116686000Y-120628000D02*
X116931000Y-120628000D01*
X119026000Y-124268000D02*
X119026000Y-120628000D01*
X118781000Y-120628000D02*
X119026000Y-120628000D01*
%TO.C,R47*%
X136938000Y-90778000D02*
X136938000Y-90448000D01*
X143478000Y-88038000D02*
X136938000Y-88038000D01*
X143478000Y-88368000D02*
X143478000Y-88038000D01*
X136938000Y-88038000D02*
X136938000Y-88368000D01*
X143478000Y-90448000D02*
X143478000Y-90778000D01*
X143478000Y-90778000D02*
X136938000Y-90778000D01*
%TO.C,R28*%
X106272000Y-112046000D02*
X106272000Y-118586000D01*
X106272000Y-118586000D02*
X105942000Y-118586000D01*
X105942000Y-112046000D02*
X106272000Y-112046000D01*
X103862000Y-112046000D02*
X103532000Y-112046000D01*
X103532000Y-112046000D02*
X103532000Y-118586000D01*
X103532000Y-118586000D02*
X103862000Y-118586000D01*
%TO.C,kibuzzard-660EFCED*%
G36*
X108350050Y-62532419D02*
G01*
X108357987Y-62532419D01*
X108592937Y-61691044D01*
X108799312Y-61691044D01*
X108478637Y-62770544D01*
X108229400Y-62770544D01*
X107908725Y-61691044D01*
X108115100Y-61691044D01*
X108350050Y-62532419D01*
G37*
G36*
X109472412Y-61682511D02*
G01*
X109566075Y-61704537D01*
X109633147Y-61743828D01*
X109678787Y-61802962D01*
X109706172Y-61886505D01*
X109718475Y-61999019D01*
X109520037Y-61999019D01*
X109499003Y-61925597D01*
X109467650Y-61879956D01*
X109419231Y-61856144D01*
X109347000Y-61848206D01*
X109269609Y-61856739D01*
X109212062Y-61882337D01*
X109171383Y-61928573D01*
X109144594Y-61999019D01*
X109129711Y-62098634D01*
X109124750Y-62232381D01*
X109129711Y-62364541D01*
X109144594Y-62462569D01*
X109171383Y-62531823D01*
X109212062Y-62577662D01*
X109269609Y-62603261D01*
X109347000Y-62611794D01*
X109426772Y-62604452D01*
X109478762Y-62582425D01*
X109529562Y-62470506D01*
X109728000Y-62470506D01*
X109712919Y-62580242D01*
X109683550Y-62661800D01*
X109636520Y-62719347D01*
X109568456Y-62757050D01*
X109473802Y-62777886D01*
X109347000Y-62784831D01*
X109243460Y-62779275D01*
X109157206Y-62762606D01*
X109088237Y-62734825D01*
X109010847Y-62667952D01*
X108959650Y-62567344D01*
X108938483Y-62477915D01*
X108925783Y-62366260D01*
X108921550Y-62232381D01*
X108925783Y-62097444D01*
X108938483Y-61984731D01*
X108959650Y-61894244D01*
X109010847Y-61792445D01*
X109088237Y-61725175D01*
X109157206Y-61697394D01*
X109243460Y-61680725D01*
X109347000Y-61675169D01*
X109472412Y-61682511D01*
G37*
G36*
X112398175Y-61934725D02*
G01*
X112496600Y-61937106D01*
X112496600Y-62127606D01*
X112399763Y-62126019D01*
X112290225Y-62128003D01*
X112209263Y-62133956D01*
X112141000Y-62175231D01*
X112080675Y-62263337D01*
X112056863Y-62362556D01*
X112056863Y-62770544D01*
X111866362Y-62770544D01*
X111866362Y-61941869D01*
X112040987Y-61941869D01*
X112033050Y-62111731D01*
X112050513Y-62111731D01*
X112100916Y-62029975D01*
X112134650Y-61981556D01*
X112188625Y-61941869D01*
X112293400Y-61933931D01*
X112398175Y-61934725D01*
G37*
G36*
X105310693Y-62762959D02*
G01*
X105242519Y-62735619D01*
X105165922Y-62669341D01*
X105115519Y-62568931D01*
X105094793Y-62479502D01*
X105082358Y-62367848D01*
X105078212Y-62233969D01*
X105278237Y-62233969D01*
X105283198Y-62364739D01*
X105298081Y-62461775D01*
X105324672Y-62530434D01*
X105364756Y-62576075D01*
X105421311Y-62601673D01*
X105497312Y-62610206D01*
X105573116Y-62601673D01*
X105629075Y-62576075D01*
X105668564Y-62530434D01*
X105694956Y-62461775D01*
X105709839Y-62364739D01*
X105714800Y-62233969D01*
X105709839Y-62099230D01*
X105694956Y-61999812D01*
X105668564Y-61929962D01*
X105629075Y-61883925D01*
X105573116Y-61858327D01*
X105497312Y-61849794D01*
X105421311Y-61858327D01*
X105364756Y-61883925D01*
X105324672Y-61930161D01*
X105298081Y-62000606D01*
X105283198Y-62100222D01*
X105278237Y-62233969D01*
X105078212Y-62233969D01*
X105082358Y-62098149D01*
X105094793Y-61984908D01*
X105115519Y-61894244D01*
X105165922Y-61792445D01*
X105242519Y-61725175D01*
X105310693Y-61697394D01*
X105395624Y-61680725D01*
X105497312Y-61675169D01*
X105599001Y-61680725D01*
X105683932Y-61697394D01*
X105752106Y-61725175D01*
X105828703Y-61792445D01*
X105879106Y-61894244D01*
X105899832Y-61984908D01*
X105912267Y-62098149D01*
X105916412Y-62233969D01*
X105912267Y-62367848D01*
X105899832Y-62479502D01*
X105879106Y-62568931D01*
X105828703Y-62669341D01*
X105752106Y-62735619D01*
X105683932Y-62762959D01*
X105599001Y-62779363D01*
X105497312Y-62784831D01*
X105395624Y-62779363D01*
X105310693Y-62762959D01*
G37*
G36*
X114063463Y-62537181D02*
G01*
X114076163Y-62537181D01*
X114303175Y-61941869D01*
X114504788Y-61941869D01*
X114163475Y-62770544D01*
X113976150Y-62770544D01*
X113634838Y-61941869D01*
X113836450Y-61941869D01*
X114063463Y-62537181D01*
G37*
G36*
X103584375Y-62208569D02*
G01*
X103601837Y-62208569D01*
X103778050Y-61691044D01*
X104014587Y-61691044D01*
X104014587Y-62770544D01*
X103827262Y-62770544D01*
X103827262Y-62224444D01*
X103846312Y-61943456D01*
X103839962Y-61943456D01*
X103673275Y-62410181D01*
X103512937Y-62410181D01*
X103346250Y-61943456D01*
X103339900Y-61943456D01*
X103358950Y-62224444D01*
X103358950Y-62770544D01*
X103171625Y-62770544D01*
X103171625Y-61691044D01*
X103411337Y-61691044D01*
X103584375Y-62208569D01*
G37*
G36*
X104936925Y-61870431D02*
G01*
X104406700Y-61870431D01*
X104406700Y-62141894D01*
X104873425Y-62141894D01*
X104873425Y-62319694D01*
X104406700Y-62319694D01*
X104406700Y-62770544D01*
X104203500Y-62770544D01*
X104203500Y-61691044D01*
X104936925Y-61691044D01*
X104936925Y-61870431D01*
G37*
G36*
X117045383Y-61682114D02*
G01*
X117140831Y-61702950D01*
X117208102Y-61740653D01*
X117252750Y-61798200D01*
X117277753Y-61879758D01*
X117286088Y-61989494D01*
X117280134Y-62066091D01*
X117262275Y-62127606D01*
X117227747Y-62184756D01*
X117171788Y-62248256D01*
X117087055Y-62328822D01*
X117001131Y-62402244D01*
X116936132Y-62452867D01*
X116856492Y-62511605D01*
X116762213Y-62578456D01*
X116762213Y-62592744D01*
X117300375Y-62592744D01*
X117300375Y-62770544D01*
X116557425Y-62770544D01*
X116557425Y-62508606D01*
X116656842Y-62432605D01*
X116742369Y-62366525D01*
X116814005Y-62310367D01*
X116871750Y-62264131D01*
X116963428Y-62186741D01*
X117035263Y-62119669D01*
X117076538Y-62059344D01*
X117087650Y-61986319D01*
X117072569Y-61901387D01*
X117020975Y-61859319D01*
X116917788Y-61846619D01*
X116813806Y-61860112D01*
X116759038Y-61904562D01*
X116736813Y-61992669D01*
X116533613Y-61992669D01*
X116547305Y-61881742D01*
X116575681Y-61799787D01*
X116622513Y-61742042D01*
X116691569Y-61703744D01*
X116787811Y-61682312D01*
X116916200Y-61675169D01*
X117045383Y-61682114D01*
G37*
G36*
X110073193Y-62762959D02*
G01*
X110005019Y-62735619D01*
X109928422Y-62669341D01*
X109878019Y-62568931D01*
X109857293Y-62479502D01*
X109844858Y-62367848D01*
X109840712Y-62233969D01*
X110040737Y-62233969D01*
X110045698Y-62364739D01*
X110060581Y-62461775D01*
X110087172Y-62530434D01*
X110127256Y-62576075D01*
X110183811Y-62601673D01*
X110259812Y-62610206D01*
X110335616Y-62601673D01*
X110391575Y-62576075D01*
X110431064Y-62530434D01*
X110457456Y-62461775D01*
X110472339Y-62364739D01*
X110477300Y-62233969D01*
X110472339Y-62099230D01*
X110457456Y-61999812D01*
X110431064Y-61929962D01*
X110391575Y-61883925D01*
X110335616Y-61858327D01*
X110259812Y-61849794D01*
X110183811Y-61858327D01*
X110127256Y-61883925D01*
X110087172Y-61930161D01*
X110060581Y-62000606D01*
X110045698Y-62100222D01*
X110040737Y-62233969D01*
X109840712Y-62233969D01*
X109844858Y-62098149D01*
X109857293Y-61984908D01*
X109878019Y-61894244D01*
X109928422Y-61792445D01*
X110005019Y-61725175D01*
X110073193Y-61697394D01*
X110158124Y-61680725D01*
X110259812Y-61675169D01*
X110361501Y-61680725D01*
X110446432Y-61697394D01*
X110514606Y-61725175D01*
X110591203Y-61792445D01*
X110641606Y-61894244D01*
X110662332Y-61984908D01*
X110674767Y-62098149D01*
X110678912Y-62233969D01*
X110674767Y-62367848D01*
X110662332Y-62479502D01*
X110641606Y-62568931D01*
X110591203Y-62669341D01*
X110514606Y-62735619D01*
X110446432Y-62762959D01*
X110361501Y-62779363D01*
X110259812Y-62784831D01*
X110158124Y-62779363D01*
X110073193Y-62762959D01*
G37*
G36*
X112956975Y-62541944D02*
G01*
X113016506Y-62603062D01*
X113130012Y-62621319D01*
X113233994Y-62599094D01*
X113285588Y-62516544D01*
X113482438Y-62516544D01*
X113461403Y-62609412D01*
X113430050Y-62678469D01*
X113385203Y-62727483D01*
X113323687Y-62760225D01*
X113240741Y-62778680D01*
X113131600Y-62784831D01*
X112993884Y-62775108D01*
X112891888Y-62745937D01*
X112819855Y-62693352D01*
X112772031Y-62613381D01*
X112752187Y-62542297D01*
X112740281Y-62453926D01*
X112736312Y-62348269D01*
X112739624Y-62257781D01*
X112933162Y-62257781D01*
X113306225Y-62257781D01*
X113283206Y-62152212D01*
X113226850Y-62099825D01*
X113118900Y-62084744D01*
X113015712Y-62099825D01*
X112960150Y-62152212D01*
X112933162Y-62257781D01*
X112739624Y-62257781D01*
X112740105Y-62244640D01*
X112751482Y-62158122D01*
X112770444Y-62088712D01*
X112816481Y-62010727D01*
X112886331Y-61959331D01*
X112985352Y-61930756D01*
X113118900Y-61921231D01*
X113248678Y-61931153D01*
X113345913Y-61960919D01*
X113415366Y-62014100D01*
X113461800Y-62094269D01*
X113481203Y-62165177D01*
X113492844Y-62253019D01*
X113496725Y-62357794D01*
X113495138Y-62419706D01*
X112931575Y-62419706D01*
X112956975Y-62541944D01*
G37*
G36*
X115068350Y-62770544D02*
G01*
X114766725Y-62770544D01*
X114766725Y-62480031D01*
X115068350Y-62480031D01*
X115068350Y-62770544D01*
G37*
G36*
X106581773Y-61681916D02*
G01*
X106682381Y-61702156D01*
X106754017Y-61738669D01*
X106802237Y-61794231D01*
X106829225Y-61873209D01*
X106837162Y-61979969D01*
X106635550Y-61979969D01*
X106612531Y-61899800D01*
X106553794Y-61860112D01*
X106440287Y-61848206D01*
X106323606Y-61859319D01*
X106265662Y-61895831D01*
X106248200Y-61970444D01*
X106309319Y-62052200D01*
X106394448Y-62091292D01*
X106527600Y-62137131D01*
X106642892Y-62178803D01*
X106728419Y-62221269D01*
X106788942Y-62268695D01*
X106829225Y-62325250D01*
X106851847Y-62394902D01*
X106859387Y-62481619D01*
X106850259Y-62587187D01*
X106822875Y-62665769D01*
X106773861Y-62721331D01*
X106699844Y-62757844D01*
X106594870Y-62778084D01*
X106452987Y-62784831D01*
X106306739Y-62777291D01*
X106198194Y-62754669D01*
X106121795Y-62713791D01*
X106071987Y-62651481D01*
X106045794Y-62563375D01*
X106040237Y-62445106D01*
X106238675Y-62445106D01*
X106264075Y-62547500D01*
X106331544Y-62597506D01*
X106388495Y-62608222D01*
X106465687Y-62611794D01*
X106583956Y-62600681D01*
X106643487Y-62561788D01*
X106660950Y-62483206D01*
X106635550Y-62402244D01*
X106552206Y-62341125D01*
X106482158Y-62312352D01*
X106387900Y-62281594D01*
X106269830Y-62241708D01*
X106182319Y-62201425D01*
X106120605Y-62157173D01*
X106079925Y-62105381D01*
X106057303Y-62042278D01*
X106049762Y-61964094D01*
X106058692Y-61864081D01*
X106085481Y-61789469D01*
X106133503Y-61736486D01*
X106206131Y-61701362D01*
X106308723Y-61681717D01*
X106446637Y-61675169D01*
X106581773Y-61681916D01*
G37*
%TO.C,R42*%
X132366000Y-112930000D02*
X138906000Y-112930000D01*
X132366000Y-115670000D02*
X138906000Y-115670000D01*
X138906000Y-112930000D02*
X138906000Y-113260000D01*
X132366000Y-113260000D02*
X132366000Y-112930000D01*
X132366000Y-115340000D02*
X132366000Y-115670000D01*
X138906000Y-115670000D02*
X138906000Y-115340000D01*
%TO.C,J15*%
X195196000Y-111036000D02*
X195796000Y-111036000D01*
X189776000Y-105406000D02*
X190776000Y-105406000D01*
X195196000Y-111976000D02*
X195196000Y-113576000D01*
X194766000Y-103486000D02*
X190766000Y-103486000D01*
X195196000Y-108496000D02*
X195796000Y-108496000D01*
X191306000Y-112526000D02*
X190776000Y-112776000D01*
X189776000Y-112526000D02*
X190776000Y-112526000D01*
X190776000Y-105156000D02*
X190776000Y-112776000D01*
X195196000Y-106896000D02*
X195196000Y-108496000D01*
X195796000Y-109436000D02*
X195196000Y-109436000D01*
X195196000Y-105956000D02*
X195796000Y-105956000D01*
X195196000Y-104356000D02*
X195196000Y-105956000D01*
X189776000Y-105156000D02*
X190776000Y-105156000D01*
X191306000Y-105406000D02*
X191306000Y-112526000D01*
X195196000Y-109436000D02*
X195196000Y-111036000D01*
X190776000Y-105156000D02*
X191306000Y-105406000D01*
X189776000Y-114156000D02*
X195796000Y-114156000D01*
X195796000Y-114156000D02*
X195796000Y-103776000D01*
X189776000Y-103776000D02*
X189776000Y-114156000D01*
X195796000Y-104356000D02*
X195196000Y-104356000D01*
X195796000Y-103776000D02*
X189776000Y-103776000D01*
X195796000Y-106896000D02*
X195196000Y-106896000D01*
X195796000Y-111976000D02*
X195196000Y-111976000D01*
X195196000Y-113576000D02*
X195796000Y-113576000D01*
X190776000Y-112776000D02*
X189776000Y-112776000D01*
%TO.C,R23*%
X118078000Y-72036000D02*
X118078000Y-72366000D01*
X111538000Y-72366000D02*
X111538000Y-72036000D01*
X118078000Y-74776000D02*
X118078000Y-74446000D01*
X111538000Y-74776000D02*
X118078000Y-74776000D01*
X111538000Y-74446000D02*
X111538000Y-74776000D01*
X111538000Y-72036000D02*
X118078000Y-72036000D01*
%TO.C,R51*%
X171296000Y-123666000D02*
X170966000Y-123666000D01*
X168556000Y-123666000D02*
X168886000Y-123666000D01*
X171296000Y-117126000D02*
X171296000Y-123666000D01*
X168556000Y-117126000D02*
X168556000Y-123666000D01*
X170966000Y-117126000D02*
X171296000Y-117126000D01*
X168886000Y-117126000D02*
X168556000Y-117126000D01*
%TO.C,J12*%
X108856000Y-71666000D02*
X109456000Y-71666000D01*
X108856000Y-67526000D02*
X108856000Y-69126000D01*
X104966000Y-68576000D02*
X104966000Y-75696000D01*
X103436000Y-77326000D02*
X109456000Y-77326000D01*
X103436000Y-66946000D02*
X103436000Y-77326000D01*
X103436000Y-68576000D02*
X104436000Y-68576000D01*
X109456000Y-70066000D02*
X108856000Y-70066000D01*
X108856000Y-76746000D02*
X109456000Y-76746000D01*
X109456000Y-77326000D02*
X109456000Y-66946000D01*
X103436000Y-68326000D02*
X104436000Y-68326000D01*
X108856000Y-74206000D02*
X109456000Y-74206000D01*
X109456000Y-66946000D02*
X103436000Y-66946000D01*
X108856000Y-70066000D02*
X108856000Y-71666000D01*
X108856000Y-72606000D02*
X108856000Y-74206000D01*
X104436000Y-75946000D02*
X103436000Y-75946000D01*
X108856000Y-75146000D02*
X108856000Y-76746000D01*
X104436000Y-68326000D02*
X104966000Y-68576000D01*
X109456000Y-67526000D02*
X108856000Y-67526000D01*
X108426000Y-66656000D02*
X104426000Y-66656000D01*
X104966000Y-75696000D02*
X104436000Y-75946000D01*
X109456000Y-75146000D02*
X108856000Y-75146000D01*
X109456000Y-72606000D02*
X108856000Y-72606000D01*
X103436000Y-75696000D02*
X104436000Y-75696000D01*
X104436000Y-68326000D02*
X104436000Y-75946000D01*
X108856000Y-69126000D02*
X109456000Y-69126000D01*
%TO.C,R59*%
X171955000Y-108697000D02*
G75*
G03*
X171955000Y-108697000I-3930000J0D01*
G01*
%TO.C,R68*%
X184118000Y-98906000D02*
X184118000Y-98576000D01*
X177578000Y-96496000D02*
X177578000Y-96166000D01*
X177578000Y-98906000D02*
X184118000Y-98906000D01*
X177578000Y-96166000D02*
X184118000Y-96166000D01*
X177578000Y-98576000D02*
X177578000Y-98906000D01*
X184118000Y-96166000D02*
X184118000Y-96496000D01*
%TO.C,C16*%
X174558000Y-98906000D02*
X169318000Y-98906000D01*
X174558000Y-98906000D02*
X174558000Y-96166000D01*
X174558000Y-96166000D02*
X169318000Y-96166000D01*
X169318000Y-98906000D02*
X169318000Y-96166000D01*
%TO.C,R18*%
X118078000Y-69318000D02*
X118078000Y-68988000D01*
X111538000Y-71728000D02*
X111538000Y-71398000D01*
X118078000Y-71398000D02*
X118078000Y-71728000D01*
X118078000Y-71728000D02*
X111538000Y-71728000D01*
X118078000Y-68988000D02*
X111538000Y-68988000D01*
X111538000Y-68988000D02*
X111538000Y-69318000D01*
%TO.C,C6*%
X145058000Y-94420000D02*
X132818000Y-94420000D01*
X145398000Y-97790000D02*
X145058000Y-97790000D01*
X132818000Y-94420000D02*
X132818000Y-101160000D01*
X145058000Y-101160000D02*
X145058000Y-94420000D01*
X132818000Y-101160000D02*
X145058000Y-101160000D01*
X132478000Y-97790000D02*
X132818000Y-97790000D01*
%TO.C,R11*%
X128898000Y-110236000D02*
G75*
G03*
X128898000Y-110236000I-3930000J0D01*
G01*
%TO.C,R17*%
X116110000Y-102592000D02*
X116110000Y-102262000D01*
X122650000Y-105002000D02*
X122650000Y-104672000D01*
X116110000Y-105002000D02*
X122650000Y-105002000D01*
X116110000Y-102262000D02*
X122650000Y-102262000D01*
X116110000Y-104672000D02*
X116110000Y-105002000D01*
X122650000Y-102262000D02*
X122650000Y-102592000D01*
%TO.C,R12*%
X136938000Y-85066000D02*
X136938000Y-84736000D01*
X136938000Y-84736000D02*
X143478000Y-84736000D01*
X136938000Y-87476000D02*
X143478000Y-87476000D01*
X143478000Y-87476000D02*
X143478000Y-87146000D01*
X136938000Y-87146000D02*
X136938000Y-87476000D01*
X143478000Y-84736000D02*
X143478000Y-85066000D01*
%TO.C,C4*%
X179536000Y-99414000D02*
X179536000Y-99659000D01*
X179536000Y-101509000D02*
X179536000Y-101754000D01*
X183176000Y-101509000D02*
X183176000Y-101754000D01*
X179536000Y-101754000D02*
X183176000Y-101754000D01*
X183176000Y-99414000D02*
X183176000Y-99659000D01*
X179536000Y-99414000D02*
X183176000Y-99414000D01*
%TO.C,D3*%
X148994000Y-100921000D02*
X151234000Y-100921000D01*
X151234000Y-96681000D02*
X148994000Y-96681000D01*
X151234000Y-97401000D02*
X148994000Y-97401000D01*
X151234000Y-97281000D02*
X148994000Y-97281000D01*
X150114000Y-101571000D02*
X150114000Y-100921000D01*
X148994000Y-96681000D02*
X148994000Y-100921000D01*
X150114000Y-96031000D02*
X150114000Y-96681000D01*
X151234000Y-97521000D02*
X148994000Y-97521000D01*
X151234000Y-100921000D02*
X151234000Y-96681000D01*
%TO.C,C7*%
X106773401Y-80225000D02*
X106773401Y-82625000D01*
X105612401Y-79420000D02*
X105612401Y-80585000D01*
X106293401Y-82265000D02*
X106293401Y-83105000D01*
X107093401Y-80888000D02*
X107093401Y-81962000D01*
X106333401Y-79775000D02*
X106333401Y-80585000D01*
X107053401Y-80761000D02*
X107053401Y-82089000D01*
X106973401Y-80566000D02*
X106973401Y-82284000D01*
X105332401Y-79363000D02*
X105332401Y-80585000D01*
X105132401Y-79346000D02*
X105132401Y-80585000D01*
X105252401Y-79354000D02*
X105252401Y-80585000D01*
X105452401Y-82265000D02*
X105452401Y-83467000D01*
X106573401Y-79987000D02*
X106573401Y-80585000D01*
X105572401Y-79409000D02*
X105572401Y-80585000D01*
X106453401Y-79873000D02*
X106453401Y-80585000D01*
X107133401Y-81055000D02*
X107133401Y-81795000D01*
X105973401Y-82265000D02*
X105973401Y-83295000D01*
X106853401Y-80345000D02*
X106853401Y-82505000D01*
X105092401Y-82265000D02*
X105092401Y-83505000D01*
X106373401Y-82265000D02*
X106373401Y-83044000D01*
X105612401Y-82265000D02*
X105612401Y-83430000D01*
X106413401Y-82265000D02*
X106413401Y-83012000D01*
X106373401Y-79806000D02*
X106373401Y-80585000D01*
X106653401Y-80074000D02*
X106653401Y-82776000D01*
X105452401Y-79383000D02*
X105452401Y-80585000D01*
X105132401Y-82265000D02*
X105132401Y-83504000D01*
X105212401Y-82265000D02*
X105212401Y-83499000D01*
X106173401Y-79665000D02*
X106173401Y-80585000D01*
X105252401Y-82265000D02*
X105252401Y-83496000D01*
X106533401Y-79947000D02*
X106533401Y-80585000D01*
X105652401Y-82265000D02*
X105652401Y-83419000D01*
X106533401Y-82265000D02*
X106533401Y-82903000D01*
X106293401Y-79745000D02*
X106293401Y-80585000D01*
X105732401Y-79457000D02*
X105732401Y-80585000D01*
X106333401Y-82265000D02*
X106333401Y-83075000D01*
X105412401Y-79375000D02*
X105412401Y-80585000D01*
X102782600Y-80230000D02*
X103182600Y-80230000D01*
X106933401Y-80485000D02*
X106933401Y-82365000D01*
X105332401Y-82265000D02*
X105332401Y-83487000D01*
X105372401Y-82265000D02*
X105372401Y-83481000D01*
X105692401Y-82265000D02*
X105692401Y-83407000D01*
X106053401Y-79595000D02*
X106053401Y-80585000D01*
X106893401Y-80412000D02*
X106893401Y-82438000D01*
X105172401Y-79348000D02*
X105172401Y-80585000D01*
X105372401Y-79369000D02*
X105372401Y-80585000D01*
X105933401Y-82265000D02*
X105933401Y-83314000D01*
X106253401Y-82265000D02*
X106253401Y-83133000D01*
X106613401Y-82265000D02*
X106613401Y-82821000D01*
X106093401Y-79617000D02*
X106093401Y-80585000D01*
X106013401Y-79574000D02*
X106013401Y-80585000D01*
X105412401Y-82265000D02*
X105412401Y-83475000D01*
X106173401Y-82265000D02*
X106173401Y-83185000D01*
X105692401Y-79443000D02*
X105692401Y-80585000D01*
X105492401Y-82265000D02*
X105492401Y-83459000D01*
X106453401Y-82265000D02*
X106453401Y-82977000D01*
X105292401Y-79358000D02*
X105292401Y-80585000D01*
X105773401Y-79471000D02*
X105773401Y-80585000D01*
X106693401Y-80121000D02*
X106693401Y-82729000D01*
X106213401Y-82265000D02*
X106213401Y-83160000D01*
X102982600Y-80030000D02*
X102982600Y-80430000D01*
X105572401Y-82265000D02*
X105572401Y-83441000D01*
X105893401Y-79518000D02*
X105893401Y-80585000D01*
X105652401Y-79431000D02*
X105652401Y-80585000D01*
X105052401Y-82265000D02*
X105052401Y-83505000D01*
X105172401Y-82265000D02*
X105172401Y-83502000D01*
X105933401Y-79536000D02*
X105933401Y-80585000D01*
X105092401Y-79345000D02*
X105092401Y-80585000D01*
X105732401Y-82265000D02*
X105732401Y-83393000D01*
X106013401Y-82265000D02*
X106013401Y-83276000D01*
X106573401Y-82265000D02*
X106573401Y-82863000D01*
X106733401Y-80171000D02*
X106733401Y-82679000D01*
X106813401Y-80283000D02*
X106813401Y-82567000D01*
X105813401Y-79485000D02*
X105813401Y-80585000D01*
X106093401Y-82265000D02*
X106093401Y-83233000D01*
X105492401Y-79391000D02*
X105492401Y-80585000D01*
X105893401Y-82265000D02*
X105893401Y-83332000D01*
X106133401Y-79640000D02*
X106133401Y-80585000D01*
X105853401Y-82265000D02*
X105853401Y-83349000D01*
X107013401Y-80657000D02*
X107013401Y-82193000D01*
X106133401Y-82265000D02*
X106133401Y-83210000D01*
X105532401Y-79400000D02*
X105532401Y-80585000D01*
X105052401Y-79345000D02*
X105052401Y-80585000D01*
X106613401Y-80029000D02*
X106613401Y-80585000D01*
X106213401Y-79690000D02*
X106213401Y-80585000D01*
X105212401Y-79351000D02*
X105212401Y-80585000D01*
X105853401Y-79501000D02*
X105853401Y-80585000D01*
X106053401Y-82265000D02*
X106053401Y-83255000D01*
X106493401Y-82265000D02*
X106493401Y-82941000D01*
X105532401Y-82265000D02*
X105532401Y-83450000D01*
X106253401Y-79717000D02*
X106253401Y-80585000D01*
X105773401Y-82265000D02*
X105773401Y-83379000D01*
X105813401Y-82265000D02*
X105813401Y-83365000D01*
X105292401Y-82265000D02*
X105292401Y-83492000D01*
X106493401Y-79909000D02*
X106493401Y-80585000D01*
X106413401Y-79838000D02*
X106413401Y-80585000D01*
X105973401Y-79555000D02*
X105973401Y-80585000D01*
X107172401Y-81425000D02*
G75*
G03*
X107172401Y-81425000I-2120000J0D01*
G01*
%TO.C,R53*%
X179224000Y-123666000D02*
X179224000Y-117126000D01*
X179224000Y-117126000D02*
X179554000Y-117126000D01*
X181964000Y-123666000D02*
X181964000Y-117126000D01*
X181964000Y-117126000D02*
X181634000Y-117126000D01*
X179554000Y-123666000D02*
X179224000Y-123666000D01*
X181634000Y-123666000D02*
X181964000Y-123666000D01*
%TO.C,R15*%
X118078000Y-68680000D02*
X118078000Y-68350000D01*
X111538000Y-68680000D02*
X118078000Y-68680000D01*
X111538000Y-66270000D02*
X111538000Y-65940000D01*
X111538000Y-65940000D02*
X118078000Y-65940000D01*
X111538000Y-68350000D02*
X111538000Y-68680000D01*
X118078000Y-65940000D02*
X118078000Y-66270000D01*
%TO.C,R46*%
X143478000Y-93496000D02*
X143478000Y-93826000D01*
X136938000Y-91086000D02*
X136938000Y-91416000D01*
X143478000Y-91086000D02*
X136938000Y-91086000D01*
X143478000Y-91416000D02*
X143478000Y-91086000D01*
X136938000Y-93826000D02*
X136938000Y-93496000D01*
X143478000Y-93826000D02*
X136938000Y-93826000D01*
%TO.C,R41*%
X195040000Y-97052000D02*
X195040000Y-97382000D01*
X188500000Y-97382000D02*
X188500000Y-97052000D01*
X188500000Y-94642000D02*
X188500000Y-94972000D01*
X195040000Y-94972000D02*
X195040000Y-94642000D01*
X195040000Y-97382000D02*
X188500000Y-97382000D01*
X195040000Y-94642000D02*
X188500000Y-94642000D01*
%TO.C,R34*%
X120936000Y-122706000D02*
X120936000Y-123036000D01*
X127476000Y-120296000D02*
X127476000Y-120626000D01*
X120936000Y-123036000D02*
X127476000Y-123036000D01*
X120936000Y-120296000D02*
X127476000Y-120296000D01*
X120936000Y-120626000D02*
X120936000Y-120296000D01*
X127476000Y-123036000D02*
X127476000Y-122706000D01*
%TO.C,J1*%
X108980000Y-92410000D02*
X110290000Y-92410000D01*
X108980000Y-92410000D02*
X108980000Y-92410000D01*
X102480000Y-103450000D02*
X102480000Y-85470000D01*
X102480000Y-85470000D02*
X108980000Y-85470000D01*
X101170000Y-104750000D02*
X101170000Y-84170000D01*
X110680000Y-99540000D02*
X111680000Y-100040000D01*
X110290000Y-104750000D02*
X101170000Y-104750000D01*
X108980000Y-96510000D02*
X108980000Y-103450000D01*
X110290000Y-84170000D02*
X110290000Y-104750000D01*
X111680000Y-100040000D02*
X111680000Y-99040000D01*
X108980000Y-103450000D02*
X102480000Y-103450000D01*
X111680000Y-99040000D02*
X110680000Y-99540000D01*
X101170000Y-84170000D02*
X110290000Y-84170000D01*
X108980000Y-85470000D02*
X108980000Y-92410000D01*
X110290000Y-96510000D02*
X108980000Y-96510000D01*
%TO.C,R24*%
X119897000Y-99282000D02*
X120227000Y-99282000D01*
X117817000Y-99282000D02*
X117487000Y-99282000D01*
X120227000Y-92742000D02*
X119897000Y-92742000D01*
X117487000Y-92742000D02*
X117817000Y-92742000D01*
X120227000Y-99282000D02*
X120227000Y-92742000D01*
X117487000Y-99282000D02*
X117487000Y-92742000D01*
%TO.C,R14*%
X151480000Y-119655000D02*
X151480000Y-119985000D01*
X144940000Y-119985000D02*
X144940000Y-119655000D01*
X144940000Y-122065000D02*
X144940000Y-122395000D01*
X144940000Y-119655000D02*
X151480000Y-119655000D01*
X144940000Y-122395000D02*
X151480000Y-122395000D01*
X151480000Y-122395000D02*
X151480000Y-122065000D01*
%TO.C,C13*%
X174205888Y-80909000D02*
X174205888Y-82018000D01*
X173204888Y-80515000D02*
X173204888Y-82018000D01*
X175005888Y-84098000D02*
X175005888Y-84377000D01*
X172844888Y-80479000D02*
X172844888Y-85637000D01*
X172804888Y-80478000D02*
X172804888Y-85638000D01*
X169960113Y-81583000D02*
X170460113Y-81583000D01*
X175245888Y-82253000D02*
X175245888Y-83863000D01*
X173525888Y-80590000D02*
X173525888Y-82018000D01*
X174885888Y-84098000D02*
X174885888Y-84558000D01*
X174045888Y-80811000D02*
X174045888Y-82018000D01*
X173765888Y-80676000D02*
X173765888Y-82018000D01*
X173004888Y-80489000D02*
X173004888Y-82018000D01*
X173805888Y-84098000D02*
X173805888Y-85423000D01*
X172964888Y-80485000D02*
X172964888Y-85631000D01*
X173044888Y-80493000D02*
X173044888Y-82018000D01*
X173244888Y-84098000D02*
X173244888Y-85594000D01*
X174285888Y-80963000D02*
X174285888Y-82018000D01*
X174525888Y-81157000D02*
X174525888Y-82018000D01*
X174125888Y-80858000D02*
X174125888Y-82018000D01*
X174365888Y-84098000D02*
X174365888Y-85093000D01*
X174925888Y-84098000D02*
X174925888Y-84501000D01*
X173645888Y-80630000D02*
X173645888Y-82018000D01*
X175045888Y-84098000D02*
X175045888Y-84309000D01*
X173244888Y-80522000D02*
X173244888Y-82018000D01*
X170210113Y-81333000D02*
X170210113Y-81833000D01*
X173044888Y-84098000D02*
X173044888Y-85623000D01*
X172884888Y-80480000D02*
X172884888Y-85636000D01*
X173444888Y-84098000D02*
X173444888Y-85549000D01*
X173404888Y-84098000D02*
X173404888Y-85559000D01*
X173124888Y-80502000D02*
X173124888Y-82018000D01*
X174165888Y-84098000D02*
X174165888Y-85233000D01*
X174485888Y-84098000D02*
X174485888Y-84995000D01*
X173845888Y-80710000D02*
X173845888Y-82018000D01*
X174645888Y-84098000D02*
X174645888Y-84843000D01*
X174725888Y-84098000D02*
X174725888Y-84757000D01*
X175165888Y-82047000D02*
X175165888Y-84069000D01*
X174805888Y-84098000D02*
X174805888Y-84663000D01*
X175045888Y-81807000D02*
X175045888Y-82018000D01*
X174205888Y-84098000D02*
X174205888Y-85207000D01*
X173324888Y-84098000D02*
X173324888Y-85578000D01*
X173164888Y-80508000D02*
X173164888Y-82018000D01*
X174405888Y-84098000D02*
X174405888Y-85062000D01*
X173725888Y-80660000D02*
X173725888Y-82018000D01*
X174925888Y-81615000D02*
X174925888Y-82018000D01*
X174165888Y-80883000D02*
X174165888Y-82018000D01*
X173084888Y-80497000D02*
X173084888Y-82018000D01*
X173925888Y-80748000D02*
X173925888Y-82018000D01*
X174885888Y-81558000D02*
X174885888Y-82018000D01*
X174365888Y-81023000D02*
X174365888Y-82018000D01*
X173685888Y-84098000D02*
X173685888Y-85472000D01*
X173765888Y-84098000D02*
X173765888Y-85440000D01*
X174965888Y-81675000D02*
X174965888Y-82018000D01*
X173925888Y-84098000D02*
X173925888Y-85368000D01*
X174445888Y-84098000D02*
X174445888Y-85029000D01*
X173084888Y-84098000D02*
X173084888Y-85619000D01*
X173965888Y-84098000D02*
X173965888Y-85348000D01*
X173805888Y-80693000D02*
X173805888Y-82018000D01*
X174285888Y-84098000D02*
X174285888Y-85153000D01*
X175325888Y-82540000D02*
X175325888Y-83576000D01*
X173444888Y-80567000D02*
X173444888Y-82018000D01*
X173565888Y-80603000D02*
X173565888Y-82018000D01*
X174445888Y-81087000D02*
X174445888Y-82018000D01*
X173004888Y-84098000D02*
X173004888Y-85627000D01*
X175205888Y-82143000D02*
X175205888Y-83973000D01*
X174765888Y-84098000D02*
X174765888Y-84711000D01*
X173965888Y-80768000D02*
X173965888Y-82018000D01*
X175005888Y-81739000D02*
X175005888Y-82018000D01*
X174805888Y-81453000D02*
X174805888Y-82018000D01*
X174325888Y-80993000D02*
X174325888Y-82018000D01*
X174845888Y-81504000D02*
X174845888Y-82018000D01*
X173485888Y-80578000D02*
X173485888Y-82018000D01*
X173885888Y-80729000D02*
X173885888Y-82018000D01*
X174525888Y-84098000D02*
X174525888Y-84959000D01*
X175085888Y-81880000D02*
X175085888Y-84236000D01*
X173565888Y-84098000D02*
X173565888Y-85513000D01*
X174685888Y-81315000D02*
X174685888Y-82018000D01*
X174605888Y-84098000D02*
X174605888Y-84884000D01*
X175285888Y-82381000D02*
X175285888Y-83735000D01*
X174485888Y-81121000D02*
X174485888Y-82018000D01*
X174765888Y-81405000D02*
X174765888Y-82018000D01*
X173645888Y-84098000D02*
X173645888Y-85486000D01*
X174605888Y-81232000D02*
X174605888Y-82018000D01*
X173885888Y-84098000D02*
X173885888Y-85387000D01*
X174245888Y-84098000D02*
X174245888Y-85180000D01*
X173164888Y-84098000D02*
X173164888Y-85608000D01*
X173685888Y-80644000D02*
X173685888Y-82018000D01*
X174125888Y-84098000D02*
X174125888Y-85258000D01*
X174325888Y-84098000D02*
X174325888Y-85123000D01*
X173404888Y-80557000D02*
X173404888Y-82018000D01*
X174645888Y-81273000D02*
X174645888Y-82018000D01*
X174845888Y-84098000D02*
X174845888Y-84612000D01*
X174085888Y-84098000D02*
X174085888Y-85282000D01*
X173485888Y-84098000D02*
X173485888Y-85538000D01*
X174005888Y-80790000D02*
X174005888Y-82018000D01*
X173605888Y-80616000D02*
X173605888Y-82018000D01*
X174405888Y-81054000D02*
X174405888Y-82018000D01*
X174725888Y-81359000D02*
X174725888Y-82018000D01*
X173324888Y-80538000D02*
X173324888Y-82018000D01*
X173525888Y-84098000D02*
X173525888Y-85526000D01*
X174045888Y-84098000D02*
X174045888Y-85305000D01*
X173124888Y-84098000D02*
X173124888Y-85614000D01*
X174005888Y-84098000D02*
X174005888Y-85326000D01*
X173845888Y-84098000D02*
X173845888Y-85406000D01*
X172764888Y-80478000D02*
X172764888Y-85638000D01*
X173204888Y-84098000D02*
X173204888Y-85601000D01*
X174565888Y-84098000D02*
X174565888Y-84922000D01*
X174685888Y-84098000D02*
X174685888Y-84801000D01*
X173364888Y-80547000D02*
X173364888Y-82018000D01*
X173725888Y-84098000D02*
X173725888Y-85456000D01*
X173284888Y-84098000D02*
X173284888Y-85586000D01*
X175365888Y-82774000D02*
X175365888Y-83342000D01*
X175125888Y-81960000D02*
X175125888Y-84156000D01*
X172924888Y-80482000D02*
X172924888Y-85634000D01*
X173364888Y-84098000D02*
X173364888Y-85569000D01*
X173605888Y-84098000D02*
X173605888Y-85500000D01*
X174245888Y-80936000D02*
X174245888Y-82018000D01*
X174085888Y-80834000D02*
X174085888Y-82018000D01*
X174565888Y-81194000D02*
X174565888Y-82018000D01*
X174965888Y-84098000D02*
X174965888Y-84441000D01*
X173284888Y-80530000D02*
X173284888Y-82018000D01*
X175384888Y-83058000D02*
G75*
G03*
X175384888Y-83058000I-2620000J0D01*
G01*
%TO.C,R9*%
X126646000Y-99536000D02*
X126976000Y-99536000D01*
X129056000Y-92996000D02*
X129386000Y-92996000D01*
X129386000Y-92996000D02*
X129386000Y-99536000D01*
X126976000Y-92996000D02*
X126646000Y-92996000D01*
X129386000Y-99536000D02*
X129056000Y-99536000D01*
X126646000Y-92996000D02*
X126646000Y-99536000D01*
%TO.C,R20*%
X160242000Y-84931000D02*
X160242000Y-84601000D01*
X153702000Y-84931000D02*
X160242000Y-84931000D01*
X160242000Y-82191000D02*
X160242000Y-82521000D01*
X153702000Y-82521000D02*
X153702000Y-82191000D01*
X153702000Y-84601000D02*
X153702000Y-84931000D01*
X153702000Y-82191000D02*
X160242000Y-82191000D01*
%TO.C,U3*%
X118857000Y-98572000D02*
X120807000Y-98572000D01*
X118857000Y-98572000D02*
X116907000Y-98572000D01*
X118857000Y-93452000D02*
X115407000Y-93452000D01*
X118857000Y-93452000D02*
X120807000Y-93452000D01*
%TO.C,R6*%
X139104500Y-68695000D02*
X145644500Y-68695000D01*
X139104500Y-66285000D02*
X139104500Y-65955000D01*
X139104500Y-65955000D02*
X145644500Y-65955000D01*
X139104500Y-68365000D02*
X139104500Y-68695000D01*
X145644500Y-68695000D02*
X145644500Y-68365000D01*
X145644500Y-65955000D02*
X145644500Y-66285000D01*
%TO.C,R50*%
X138662000Y-120052000D02*
X138662000Y-120382000D01*
X132122000Y-120382000D02*
X132122000Y-120052000D01*
X138662000Y-122792000D02*
X138662000Y-122462000D01*
X132122000Y-120052000D02*
X138662000Y-120052000D01*
X132122000Y-122462000D02*
X132122000Y-122792000D01*
X132122000Y-122792000D02*
X138662000Y-122792000D01*
%TO.C,R1*%
X150534500Y-65955000D02*
X150534500Y-66285000D01*
X157074500Y-66285000D02*
X157074500Y-65955000D01*
X150534500Y-68695000D02*
X150534500Y-68365000D01*
X157074500Y-65955000D02*
X150534500Y-65955000D01*
X157074500Y-68695000D02*
X150534500Y-68695000D01*
X157074500Y-68365000D02*
X157074500Y-68695000D01*
%TO.C,R19*%
X125508000Y-85066000D02*
X125508000Y-84736000D01*
X125508000Y-87146000D02*
X125508000Y-87476000D01*
X125508000Y-87476000D02*
X132048000Y-87476000D01*
X132048000Y-84736000D02*
X132048000Y-85066000D01*
X125508000Y-84736000D02*
X132048000Y-84736000D01*
X132048000Y-87476000D02*
X132048000Y-87146000D01*
%TO.C,R13*%
X151352000Y-115924000D02*
X151352000Y-115594000D01*
X144812000Y-113514000D02*
X144812000Y-113184000D01*
X144812000Y-113184000D02*
X151352000Y-113184000D01*
X151352000Y-113184000D02*
X151352000Y-113514000D01*
X144812000Y-115924000D02*
X151352000Y-115924000D01*
X144812000Y-115594000D02*
X144812000Y-115924000D01*
%TO.C,R16*%
X119500000Y-82296000D02*
G75*
G03*
X119500000Y-82296000I-3930000J0D01*
G01*
%TO.C,J14*%
X187490000Y-86470000D02*
X193510000Y-86470000D01*
X188490000Y-82550000D02*
X188490000Y-85090000D01*
X192480000Y-80880000D02*
X188480000Y-80880000D01*
X193510000Y-81750000D02*
X192910000Y-81750000D01*
X193510000Y-81170000D02*
X187490000Y-81170000D01*
X192910000Y-83350000D02*
X193510000Y-83350000D01*
X192910000Y-84290000D02*
X192910000Y-85890000D01*
X187490000Y-81170000D02*
X187490000Y-86470000D01*
X193510000Y-84290000D02*
X192910000Y-84290000D01*
X192910000Y-81750000D02*
X192910000Y-83350000D01*
X193510000Y-86470000D02*
X193510000Y-81170000D01*
X189020000Y-82800000D02*
X189020000Y-84840000D01*
X187490000Y-82800000D02*
X188490000Y-82800000D01*
X187490000Y-82550000D02*
X188490000Y-82550000D01*
X189020000Y-84840000D02*
X188490000Y-85090000D01*
X192910000Y-85890000D02*
X193510000Y-85890000D01*
X187490000Y-84840000D02*
X188490000Y-84840000D01*
X188490000Y-85090000D02*
X187490000Y-85090000D01*
X188490000Y-82550000D02*
X189020000Y-82800000D01*
%TO.C,U5*%
X175260000Y-125202000D02*
X173310000Y-125202000D01*
X175260000Y-115082000D02*
X171810000Y-115082000D01*
X175260000Y-125202000D02*
X177210000Y-125202000D01*
X175260000Y-115082000D02*
X177210000Y-115082000D01*
%TO.C,C17*%
X143375000Y-111420000D02*
X143620000Y-111420000D01*
X143620000Y-111420000D02*
X143620000Y-107780000D01*
X141280000Y-111420000D02*
X141525000Y-111420000D01*
X141280000Y-111420000D02*
X141280000Y-107780000D01*
X143375000Y-107780000D02*
X143620000Y-107780000D01*
X141280000Y-107780000D02*
X141525000Y-107780000D01*
%TO.C,C3*%
X121350000Y-117248000D02*
X124990000Y-117248000D01*
X121350000Y-117003000D02*
X121350000Y-117248000D01*
X121350000Y-114908000D02*
X124990000Y-114908000D01*
X124990000Y-114908000D02*
X124990000Y-115153000D01*
X121350000Y-114908000D02*
X121350000Y-115153000D01*
X124990000Y-117003000D02*
X124990000Y-117248000D01*
%TO.C,D8*%
X133272000Y-117508000D02*
X133272000Y-119748000D01*
X132622000Y-118628000D02*
X133272000Y-118628000D01*
X133872000Y-117508000D02*
X133872000Y-119748000D01*
X133992000Y-117508000D02*
X133992000Y-119748000D01*
X134112000Y-117508000D02*
X134112000Y-119748000D01*
X137512000Y-119748000D02*
X137512000Y-117508000D01*
X137512000Y-117508000D02*
X133272000Y-117508000D01*
X133272000Y-119748000D02*
X137512000Y-119748000D01*
X138162000Y-118628000D02*
X137512000Y-118628000D01*
%TO.C,D5*%
X166120000Y-66450000D02*
X166120000Y-68690000D01*
X165520000Y-68690000D02*
X169760000Y-68690000D01*
X165520000Y-66450000D02*
X165520000Y-68690000D01*
X170410000Y-67570000D02*
X169760000Y-67570000D01*
X166240000Y-66450000D02*
X166240000Y-68690000D01*
X169760000Y-68690000D02*
X169760000Y-66450000D01*
X169760000Y-66450000D02*
X165520000Y-66450000D01*
X166360000Y-66450000D02*
X166360000Y-68690000D01*
X164870000Y-67570000D02*
X165520000Y-67570000D01*
%TO.C,R29*%
X168434000Y-99798000D02*
X168434000Y-99468000D01*
X174974000Y-102208000D02*
X174974000Y-101878000D01*
X174974000Y-99468000D02*
X174974000Y-99798000D01*
X168434000Y-101878000D02*
X168434000Y-102208000D01*
X168434000Y-102208000D02*
X174974000Y-102208000D01*
X168434000Y-99468000D02*
X174974000Y-99468000D01*
%TO.C,R7*%
X155822000Y-73137000D02*
G75*
G03*
X155822000Y-73137000I-3930000J0D01*
G01*
%TO.C,C8*%
X133450000Y-88780000D02*
X133450000Y-94020000D01*
X133450000Y-94020000D02*
X130710000Y-94020000D01*
X130710000Y-88780000D02*
X130710000Y-94020000D01*
X133450000Y-88780000D02*
X130710000Y-88780000D01*
%TO.C,R48*%
X162460000Y-117126000D02*
X162460000Y-123666000D01*
X162460000Y-123666000D02*
X162790000Y-123666000D01*
X162790000Y-117126000D02*
X162460000Y-117126000D01*
X165200000Y-117126000D02*
X165200000Y-123666000D01*
X165200000Y-123666000D02*
X164870000Y-123666000D01*
X164870000Y-117126000D02*
X165200000Y-117126000D01*
%TO.C,R65*%
X134842000Y-81180000D02*
X134842000Y-81510000D01*
X128302000Y-81510000D02*
X128302000Y-81180000D01*
X128302000Y-83920000D02*
X134842000Y-83920000D01*
X128302000Y-81180000D02*
X134842000Y-81180000D01*
X128302000Y-83590000D02*
X128302000Y-83920000D01*
X134842000Y-83920000D02*
X134842000Y-83590000D01*
%TO.C,R64*%
X180206000Y-108712000D02*
G75*
G03*
X180206000Y-108712000I-3930000J0D01*
G01*
%TO.C,R22*%
X144930000Y-122980000D02*
X144930000Y-123310000D01*
X151470000Y-122980000D02*
X144930000Y-122980000D01*
X144930000Y-125720000D02*
X144930000Y-125390000D01*
X151470000Y-125720000D02*
X144930000Y-125720000D01*
X151470000Y-125390000D02*
X151470000Y-125720000D01*
X151470000Y-123310000D02*
X151470000Y-122980000D01*
%TO.C,R44*%
X159412000Y-117126000D02*
X159742000Y-117126000D01*
X162152000Y-117126000D02*
X161822000Y-117126000D01*
X161822000Y-123666000D02*
X162152000Y-123666000D01*
X159742000Y-123666000D02*
X159412000Y-123666000D01*
X159412000Y-123666000D02*
X159412000Y-117126000D01*
X162152000Y-123666000D02*
X162152000Y-117126000D01*
%TO.C,R10*%
X128302000Y-78462000D02*
X128302000Y-78132000D01*
X128302000Y-80872000D02*
X134842000Y-80872000D01*
X134842000Y-78132000D02*
X134842000Y-78462000D01*
X134842000Y-80872000D02*
X134842000Y-80542000D01*
X128302000Y-80542000D02*
X128302000Y-80872000D01*
X128302000Y-78132000D02*
X134842000Y-78132000D01*
%TO.C,U1*%
X113066000Y-116900000D02*
X117566000Y-116900000D01*
X110066000Y-116960000D02*
X120566000Y-116960000D01*
X110066000Y-106560000D02*
X110066000Y-116960000D01*
X117566000Y-106620000D02*
X116316000Y-106620000D01*
X114316000Y-106620000D02*
X113066000Y-106620000D01*
X120566000Y-106560000D02*
X110066000Y-106560000D01*
X113066000Y-106620000D02*
X113066000Y-116900000D01*
X120566000Y-116960000D02*
X120566000Y-106560000D01*
X117566000Y-116900000D02*
X117566000Y-106620000D01*
X114316000Y-106620000D02*
G75*
G03*
X116316000Y-106620000I1000000J0D01*
G01*
%TO.C,R57*%
X128302000Y-74446000D02*
X128302000Y-74776000D01*
X134842000Y-72036000D02*
X134842000Y-72366000D01*
X128302000Y-74776000D02*
X134842000Y-74776000D01*
X128302000Y-72366000D02*
X128302000Y-72036000D01*
X134842000Y-74776000D02*
X134842000Y-74446000D01*
X128302000Y-72036000D02*
X134842000Y-72036000D01*
%TO.C,D7*%
X166240000Y-71524000D02*
X166240000Y-73764000D01*
X164870000Y-72644000D02*
X165520000Y-72644000D01*
X166360000Y-71524000D02*
X166360000Y-73764000D01*
X170410000Y-72644000D02*
X169760000Y-72644000D01*
X169760000Y-73764000D02*
X169760000Y-71524000D01*
X169760000Y-71524000D02*
X165520000Y-71524000D01*
X165520000Y-73764000D02*
X169760000Y-73764000D01*
X166120000Y-71524000D02*
X166120000Y-73764000D01*
X165520000Y-71524000D02*
X165520000Y-73764000D01*
%TO.C,R45*%
X158774000Y-123666000D02*
X159104000Y-123666000D01*
X156364000Y-117126000D02*
X156694000Y-117126000D01*
X159104000Y-117126000D02*
X158774000Y-117126000D01*
X156694000Y-123666000D02*
X156364000Y-123666000D01*
X156364000Y-123666000D02*
X156364000Y-117126000D01*
X159104000Y-123666000D02*
X159104000Y-117126000D01*
%TO.C,C10*%
X102995000Y-109000000D02*
X102995000Y-106392000D01*
X104436000Y-106856000D02*
X104436000Y-105625000D01*
X103595000Y-109504000D02*
X103595000Y-108536000D01*
X103996000Y-109678000D02*
X103996000Y-108536000D01*
X103675000Y-109547000D02*
X103675000Y-108536000D01*
X103155000Y-109174000D02*
X103155000Y-108536000D01*
X104036000Y-106856000D02*
X104036000Y-105702000D01*
X104476000Y-106856000D02*
X104476000Y-105622000D01*
X104316000Y-109752000D02*
X104316000Y-108536000D01*
X104396000Y-106856000D02*
X104396000Y-105629000D01*
X103715000Y-106856000D02*
X103715000Y-105826000D01*
X103915000Y-106856000D02*
X103915000Y-105742000D01*
X103875000Y-106856000D02*
X103875000Y-105756000D01*
X104516000Y-109773000D02*
X104516000Y-108536000D01*
X102755000Y-108636000D02*
X102755000Y-106756000D01*
X104556000Y-106856000D02*
X104556000Y-105617000D01*
X103555000Y-106856000D02*
X103555000Y-105911000D01*
X103355000Y-109346000D02*
X103355000Y-108536000D01*
X104596000Y-109776000D02*
X104596000Y-108536000D01*
X103715000Y-109566000D02*
X103715000Y-108536000D01*
X104076000Y-106856000D02*
X104076000Y-105691000D01*
X103755000Y-106856000D02*
X103755000Y-105807000D01*
X103275000Y-106856000D02*
X103275000Y-106109000D01*
X103075000Y-106856000D02*
X103075000Y-106300000D01*
X104236000Y-109738000D02*
X104236000Y-108536000D01*
X103755000Y-109585000D02*
X103755000Y-108536000D01*
X103195000Y-109212000D02*
X103195000Y-108536000D01*
X104236000Y-106856000D02*
X104236000Y-105654000D01*
X104036000Y-109690000D02*
X104036000Y-108536000D01*
X102555000Y-108066000D02*
X102555000Y-107326000D01*
X104196000Y-106856000D02*
X104196000Y-105662000D01*
X103875000Y-109636000D02*
X103875000Y-108536000D01*
X103235000Y-106856000D02*
X103235000Y-106144000D01*
X104356000Y-106856000D02*
X104356000Y-105634000D01*
X104316000Y-106856000D02*
X104316000Y-105640000D01*
X103635000Y-109526000D02*
X103635000Y-108536000D01*
X103515000Y-109456000D02*
X103515000Y-108536000D01*
X103595000Y-106856000D02*
X103595000Y-105888000D01*
X104156000Y-109721000D02*
X104156000Y-108536000D01*
X103555000Y-109481000D02*
X103555000Y-108536000D01*
X103355000Y-106856000D02*
X103355000Y-106046000D01*
X104076000Y-109701000D02*
X104076000Y-108536000D01*
X102875000Y-108838000D02*
X102875000Y-106554000D01*
X103315000Y-106856000D02*
X103315000Y-106077000D01*
X104516000Y-106856000D02*
X104516000Y-105619000D01*
X103395000Y-106856000D02*
X103395000Y-106016000D01*
X106705801Y-109091000D02*
X106705801Y-108691000D01*
X103475000Y-106856000D02*
X103475000Y-105961000D01*
X103795000Y-106856000D02*
X103795000Y-105789000D01*
X104196000Y-109730000D02*
X104196000Y-108536000D01*
X104436000Y-109767000D02*
X104436000Y-108536000D01*
X104276000Y-106856000D02*
X104276000Y-105646000D01*
X102595000Y-108233000D02*
X102595000Y-107159000D01*
X104556000Y-109775000D02*
X104556000Y-108536000D01*
X104356000Y-109758000D02*
X104356000Y-108536000D01*
X104116000Y-109712000D02*
X104116000Y-108536000D01*
X104636000Y-106856000D02*
X104636000Y-105616000D01*
X102675000Y-108464000D02*
X102675000Y-106928000D01*
X102715000Y-108555000D02*
X102715000Y-106837000D01*
X104116000Y-106856000D02*
X104116000Y-105680000D01*
X102915000Y-108896000D02*
X102915000Y-106496000D01*
X103195000Y-106856000D02*
X103195000Y-106180000D01*
X103795000Y-109603000D02*
X103795000Y-108536000D01*
X103155000Y-106856000D02*
X103155000Y-106218000D01*
X103275000Y-109283000D02*
X103275000Y-108536000D01*
X103115000Y-109134000D02*
X103115000Y-108536000D01*
X103315000Y-109315000D02*
X103315000Y-108536000D01*
X104276000Y-109746000D02*
X104276000Y-108536000D01*
X104476000Y-109770000D02*
X104476000Y-108536000D01*
X106905801Y-108891000D02*
X106505801Y-108891000D01*
X104636000Y-109776000D02*
X104636000Y-108536000D01*
X103475000Y-109431000D02*
X103475000Y-108536000D01*
X103915000Y-109650000D02*
X103915000Y-108536000D01*
X102835000Y-108776000D02*
X102835000Y-106616000D01*
X104156000Y-106856000D02*
X104156000Y-105671000D01*
X103035000Y-109047000D02*
X103035000Y-106345000D01*
X102955000Y-108950000D02*
X102955000Y-106442000D01*
X103075000Y-109092000D02*
X103075000Y-108536000D01*
X104596000Y-106856000D02*
X104596000Y-105616000D01*
X103956000Y-106856000D02*
X103956000Y-105728000D01*
X103675000Y-106856000D02*
X103675000Y-105845000D01*
X103435000Y-109404000D02*
X103435000Y-108536000D01*
X102795000Y-108709000D02*
X102795000Y-106683000D01*
X103515000Y-106856000D02*
X103515000Y-105936000D01*
X104396000Y-109763000D02*
X104396000Y-108536000D01*
X102635000Y-108360000D02*
X102635000Y-107032000D01*
X103235000Y-109248000D02*
X103235000Y-108536000D01*
X103395000Y-109376000D02*
X103395000Y-108536000D01*
X103996000Y-106856000D02*
X103996000Y-105714000D01*
X103635000Y-106856000D02*
X103635000Y-105866000D01*
X103835000Y-109620000D02*
X103835000Y-108536000D01*
X103435000Y-106856000D02*
X103435000Y-105988000D01*
X103956000Y-109664000D02*
X103956000Y-108536000D01*
X103835000Y-106856000D02*
X103835000Y-105772000D01*
X103115000Y-106856000D02*
X103115000Y-106258000D01*
X106756000Y-107696000D02*
G75*
G03*
X106756000Y-107696000I-2120000J0D01*
G01*
%TO.C,C18*%
X141280000Y-106745000D02*
X141280000Y-103105000D01*
X143375000Y-103105000D02*
X143620000Y-103105000D01*
X143375000Y-106745000D02*
X143620000Y-106745000D01*
X141280000Y-103105000D02*
X141525000Y-103105000D01*
X143620000Y-106745000D02*
X143620000Y-103105000D01*
X141280000Y-106745000D02*
X141525000Y-106745000D01*
%TO.C,R27*%
X111538000Y-77824000D02*
X118078000Y-77824000D01*
X111538000Y-75414000D02*
X111538000Y-75084000D01*
X111538000Y-77494000D02*
X111538000Y-77824000D01*
X118078000Y-77824000D02*
X118078000Y-77494000D01*
X118078000Y-75084000D02*
X118078000Y-75414000D01*
X111538000Y-75084000D02*
X118078000Y-75084000D01*
%TO.C,R52*%
X185012000Y-117126000D02*
X184682000Y-117126000D01*
X182272000Y-117126000D02*
X182602000Y-117126000D01*
X185012000Y-123666000D02*
X185012000Y-117126000D01*
X182602000Y-123666000D02*
X182272000Y-123666000D01*
X182272000Y-123666000D02*
X182272000Y-117126000D01*
X184682000Y-123666000D02*
X185012000Y-123666000D01*
%TO.C,R49*%
X188060000Y-123666000D02*
X188060000Y-117126000D01*
X185320000Y-123666000D02*
X185320000Y-117126000D01*
X187730000Y-123666000D02*
X188060000Y-123666000D01*
X188060000Y-117126000D02*
X187730000Y-117126000D01*
X185650000Y-123666000D02*
X185320000Y-123666000D01*
X185320000Y-117126000D02*
X185650000Y-117126000D01*
%TO.C,R70*%
X132122000Y-125764000D02*
X132122000Y-126094000D01*
X132122000Y-123354000D02*
X138662000Y-123354000D01*
X132122000Y-123684000D02*
X132122000Y-123354000D01*
X138662000Y-126094000D02*
X138662000Y-125764000D01*
X138662000Y-123354000D02*
X138662000Y-123684000D01*
X132122000Y-126094000D02*
X138662000Y-126094000D01*
%TO.C,R56*%
X128302000Y-68680000D02*
X128302000Y-68350000D01*
X134842000Y-68680000D02*
X128302000Y-68680000D01*
X134842000Y-68350000D02*
X134842000Y-68680000D01*
X134842000Y-66270000D02*
X134842000Y-65940000D01*
X134842000Y-65940000D02*
X128302000Y-65940000D01*
X128302000Y-65940000D02*
X128302000Y-66270000D01*
%TD*%
M02*
